<?xml version="1.0" encoding="UTF-8" standalone="no"?>
<svg
   xmlns:dc="http://purl.org/dc/elements/1.1/"
   xmlns:cc="http://creativecommons.org/ns#"
   xmlns:rdf="http://www.w3.org/1999/02/22-rdf-syntax-ns#"
   xmlns:svg="http://www.w3.org/2000/svg"
   xmlns="http://www.w3.org/2000/svg"
   xmlns:sodipodi="http://sodipodi.sourceforge.net/DTD/sodipodi-0.dtd"
   xmlns:inkscape="http://www.inkscape.org/namespaces/inkscape"
   inkscape:version="1.0 (4035a4fb49, 2020-05-01)"
   inkscape:export-ydpi="300"
   inkscape:export-xdpi="300"
   inkscape:export-filename="C:\docs\archive\ark\site\waves_new.png"
   sodipodi:docname="bars_and_stars.svg"
   viewBox="0 0 6666.6665 7221.3335"
   height="7221.3335"
   width="6666.6665"
   xml:space="preserve"
   id="svg833"
   version="1.1"><metadata
     id="metadata839"><rdf:RDF><cc:Work
         rdf:about=""><dc:format>image/svg+xml</dc:format><dc:type
           rdf:resource="http://purl.org/dc/dcmitype/StillImage" /></cc:Work></rdf:RDF></metadata><defs
     id="defs837"><clipPath
       id="clipPath849"
       clipPathUnits="userSpaceOnUse"><path
         id="path847"
         d="M 0,5416 H 5000 V 0 H 0 Z" /></clipPath><clipPath
       id="clipPath857"
       clipPathUnits="userSpaceOnUse"><path
         id="path855"
         d="M 0,5412.67 H 5000 V -3.33398 H 0 Z" /></clipPath><clipPath
       id="clipPath875"
       clipPathUnits="userSpaceOnUse"><path
         id="path873"
         d="M 0,5416 H 5000 V 0 H 0 Z" /></clipPath><clipPath
       id="clipPath883"
       clipPathUnits="userSpaceOnUse"><path
         id="path881"
         d="M -215.1,5495.08 H 5045.85 V -47.8096 H -215.1 Z" /></clipPath><clipPath
       id="clipPath897"
       clipPathUnits="userSpaceOnUse"><path
         id="path895"
         d="M 0,5416 H 5000 V 0 H 0 Z" /></clipPath><clipPath
       id="clipPath905"
       clipPathUnits="userSpaceOnUse"><path
         id="path903"
         d="M 740.729,4625.16 H 4490.61 V 1916.07 H 740.729 Z" /></clipPath></defs><sodipodi:namedview
     inkscape:current-layer="g841"
     inkscape:window-maximized="1"
     inkscape:window-y="-8"
     inkscape:window-x="-8"
     inkscape:cy="3610.6667"
     inkscape:cx="3333.3333"
     inkscape:zoom="0.11452178"
     showgrid="false"
     id="namedview835"
     inkscape:window-height="1017"
     inkscape:window-width="1920"
     inkscape:pageshadow="2"
     inkscape:pageopacity="0"
     guidetolerance="10"
     gridtolerance="10"
     objecttolerance="10"
     borderopacity="1"
     bordercolor="#666666"
     pagecolor="#ffffff" /><g
     transform="matrix(1.3333333,0,0,-1.3333333,0,7221.3333)"
     inkscape:label="ARK Logo v001"
     inkscape:groupmode="layer"
     id="g841"><g
       transform="translate(1448,1435)"
       id="g2179"><path
         id="path2181"
         style="fill:none;stroke:#ffffff;stroke-width:17;stroke-linecap:butt;stroke-linejoin:miter;stroke-miterlimit:10;stroke-dasharray:none;stroke-opacity:1"
         d="M 0,0 H 2220" /></g><g
       transform="translate(1448,1376)"
       id="g2183"><path
         id="path2185"
         style="fill:none;stroke:#ffffff;stroke-width:17;stroke-linecap:butt;stroke-linejoin:miter;stroke-miterlimit:10;stroke-dasharray:none;stroke-opacity:1"
         d="M 0,0 H 2220" /></g><g
       transform="translate(1796.5557,1159.0146)"
       id="g2187"><path
         id="path2189"
         style="fill:#ffffff;fill-opacity:1;fill-rule:nonzero;stroke:none"
         d="M 0,0 H 181.774 L 236.764,164.972 291.754,0 H 470.473 L 325.36,-108.454 378.823,-278.007 232.182,-175.663 90.123,-278.007 l 51.936,169.553 z" /></g><g
       transform="translate(2341.1958,1159.0146)"
       id="g2191"><path
         id="path2193"
         style="fill:#ffffff;fill-opacity:1;fill-rule:nonzero;stroke:none"
         d="M 0,0 H 181.774 L 236.765,164.972 291.754,0 h 178.72 l -145.113,-108.454 53.462,-169.553 -146.641,102.344 -142.059,-102.344 51.936,169.553 z" /></g><g
       transform="translate(2875.6719,1159.0146)"
       id="g2195"><path
         id="path2197"
         style="fill:#ffffff;fill-opacity:1;fill-rule:nonzero;stroke:none"
         d="M 0,0 H 181.773 L 236.765,164.972 291.755,0 h 178.719 l -145.114,-108.454 53.462,-169.553 -146.64,102.344 -142.059,-102.344 51.936,169.553 z" /></g></g></svg>
