<?xml version="1.0" encoding="UTF-8" standalone="no"?>
<svg
   xmlns:dc="http://purl.org/dc/elements/1.1/"
   xmlns:cc="http://creativecommons.org/ns#"
   xmlns:rdf="http://www.w3.org/1999/02/22-rdf-syntax-ns#"
   xmlns:svg="http://www.w3.org/2000/svg"
   xmlns="http://www.w3.org/2000/svg"
   xmlns:sodipodi="http://sodipodi.sourceforge.net/DTD/sodipodi-0.dtd"
   xmlns:inkscape="http://www.inkscape.org/namespaces/inkscape"
   inkscape:version="1.0 (4035a4fb49, 2020-05-01)"
   sodipodi:docname="waves.svg"
   viewBox="0 0 6666.6665 7221.3335"
   height="7221.3335"
   width="6666.6665"
   xml:space="preserve"
   id="svg833"
   version="1.1"><metadata
     id="metadata839"><rdf:RDF><cc:Work
         rdf:about=""><dc:format>image/svg+xml</dc:format><dc:type
           rdf:resource="http://purl.org/dc/dcmitype/StillImage" /><dc:title></dc:title></cc:Work></rdf:RDF></metadata><defs
     id="defs837"><clipPath
       id="clipPath849"
       clipPathUnits="userSpaceOnUse"><path
         id="path847"
         d="M 0,5416 H 5000 V 0 H 0 Z" /></clipPath><clipPath
       id="clipPath857"
       clipPathUnits="userSpaceOnUse"><path
         id="path855"
         d="M 0,5412.67 H 5000 V -3.33398 H 0 Z" /></clipPath><clipPath
       id="clipPath875"
       clipPathUnits="userSpaceOnUse"><path
         id="path873"
         d="M 0,5416 H 5000 V 0 H 0 Z" /></clipPath><clipPath
       id="clipPath883"
       clipPathUnits="userSpaceOnUse"><path
         id="path881"
         d="M -215.1,5495.08 H 5045.85 V -47.8096 H -215.1 Z" /></clipPath><clipPath
       id="clipPath897"
       clipPathUnits="userSpaceOnUse"><path
         id="path895"
         d="M 0,5416 H 5000 V 0 H 0 Z" /></clipPath><clipPath
       id="clipPath905"
       clipPathUnits="userSpaceOnUse"><path
         id="path903"
         d="M 740.729,4625.16 H 4490.61 V 1916.07 H 740.729 Z" /></clipPath></defs><sodipodi:namedview
     inkscape:current-layer="g893"
     inkscape:window-maximized="1"
     inkscape:window-y="-8"
     inkscape:window-x="-8"
     inkscape:cy="3610.6667"
     inkscape:cx="3333.3333"
     inkscape:zoom="0.11452178"
     showgrid="false"
     id="namedview835"
     inkscape:window-height="1017"
     inkscape:window-width="1920"
     inkscape:pageshadow="2"
     inkscape:pageopacity="0"
     guidetolerance="10"
     gridtolerance="10"
     objecttolerance="10"
     borderopacity="1"
     bordercolor="#666666"
     pagecolor="#ffffff" /><g
     transform="matrix(1.3333333,0,0,-1.3333333,0,7221.3333)"
     inkscape:label="ARK Logo v001"
     inkscape:groupmode="layer"
     id="g841"><g
       inkscape:label="g891"
       id="g891"><g
         clip-path="url(#clipPath897)"
         id="g893"><g
           transform="translate(3741,1908)"
           id="g1939"><path
             id="path1941"
             style="fill:#294546;fill-opacity:1;fill-rule:nonzero;stroke:none"
             d="M 0,0 C 100.594,87.25 245.712,144.71 377.979,150.115 263.668,98.891 153.898,-99.563 309.265,-172.781 c 153.641,-72.406 365.518,81.733 467.754,187.882 -45.464,-48.553 -95.221,-133.392 -45.005,-195.02 62.08,-76.188 193.738,-58.285 258.025,6.001 0,0 -5.997,-60.008 72.011,-99.012 78.008,-39.004 273.028,-15.002 345.035,48.005 72.007,63.007 35.739,-1844.862 35.739,-1844.862 l -5578.884,-137.973 -17.996,2489.503 388.63,-218.635 c 256.869,-190.094 606.354,-317.029 906.211,-145.296 133.479,76.446 233.68,253.733 128.608,395.333 -37.109,50.008 -93.036,83.15 -150.57,104.634 -26.193,9.782 -55.648,18.649 -89.17,23.364 280.659,42.12 592.937,-97.087 693.347,-377.143 151.407,201.877 445.968,290.157 681.911,324.612 499.755,72.979 1071.994,-19.949 1493.943,-308.087 C 11.03,3.924 106.141,-90.649 211,-176" /></g><g
           transform="translate(3732.4121,1918.1436)"
           id="g1943"><path
             id="path1945"
             style="fill:#294546;fill-opacity:1;fill-rule:nonzero;stroke:none"
             d="m 0,0 9.887,8.364 10.439,8.41 c 3.504,2.687 6.983,5.407 10.508,8.062 3.562,2.603 7.096,5.246 10.682,7.814 3.617,2.522 7.205,5.087 10.847,7.571 3.668,2.44 7.31,4.926 11.003,7.328 3.719,2.362 7.41,4.768 11.153,7.091 3.764,2.282 7.504,4.608 11.292,6.853 3.809,2.204 7.597,4.449 11.426,6.619 3.852,2.127 7.686,4.289 11.554,6.386 l 11.676,6.153 11.791,5.922 11.902,5.692 12.009,5.46 12.11,5.227 12.21,4.991 12.303,4.757 12.393,4.521 12.477,4.283 12.561,4.041 c 4.2,1.305 8.425,2.529 12.637,3.797 4.225,1.228 8.477,2.364 12.714,3.55 4.247,1.149 8.524,2.194 12.785,3.295 4.27,1.069 8.57,2.024 12.854,3.04 4.291,0.985 8.612,1.845 12.918,2.773 4.312,0.895 8.653,1.665 12.978,2.502 4.333,0.803 8.692,1.481 13.037,2.226 4.352,0.706 8.725,1.292 13.088,1.942 4.37,0.603 8.758,1.098 13.136,1.65 4.387,0.495 8.787,0.897 13.18,1.348 4.402,0.381 8.812,0.69 13.218,1.038 l 13.25,0.715 71.966,3.884 -65.913,-29.617 C 375.483,120.234 359.84,109.887 345.449,97.981 331.064,86.03 317.886,72.453 306.153,57.751 294.419,43.051 284.124,27.191 275.726,10.51 267.357,-6.169 260.878,-23.728 257.35,-41.617 c -3.536,-17.856 -4.033,-36.087 -0.24,-53.145 3.731,-17.06 11.894,-32.746 23.764,-45.606 11.784,-12.916 27.096,-23.095 43.599,-30.757 16.692,-7.788 34.422,-12.748 52.726,-15.19 18.287,-2.451 37.027,-2.311 55.662,-0.215 18.647,2.103 37.203,6.147 55.426,11.594 18.234,5.435 36.144,12.279 53.677,20.089 17.53,7.831 34.692,16.636 51.462,26.202 33.549,19.137 65.574,41.192 96.097,65.147 15.256,11.992 30.133,24.48 44.577,37.436 14.439,12.958 28.454,26.381 41.877,40.293 l 19.388,-18.413 c -13.756,-14.719 -26.189,-30.842 -36.573,-47.947 -5.19,-8.553 -9.837,-17.374 -13.757,-26.401 -3.928,-9.023 -7.096,-18.268 -9.228,-27.588 -2.143,-9.315 -3.185,-18.712 -2.85,-27.884 0.181,-4.583 0.698,-9.107 1.582,-13.53 0.91,-4.416 2.182,-8.728 3.816,-12.901 1.623,-4.177 3.663,-8.191 6.02,-12.045 0.586,-0.965 1.187,-1.923 1.834,-2.856 0.617,-0.95 1.28,-1.875 1.957,-2.791 0.652,-0.933 1.373,-1.823 2.077,-2.724 l 0.528,-0.676 0.067,-0.084 c -0.045,0.052 0.193,-0.239 -0.084,0.097 l 0.158,-0.188 0.319,-0.378 1.275,-1.509 1.264,-1.49 1.124,-1.227 c 0.746,-0.819 1.467,-1.638 2.325,-2.488 1.623,-1.709 3.332,-3.331 5.053,-4.939 3.468,-3.192 7.165,-6.135 11.016,-8.871 7.714,-5.455 16.107,-10.026 24.988,-13.593 8.878,-3.576 18.199,-6.22 27.743,-7.99 9.553,-1.738 19.321,-2.615 29.137,-2.711 9.818,-0.056 19.68,0.641 29.455,2.08 9.77,1.464 19.466,3.588 28.942,6.453 9.473,2.859 18.76,6.354 27.686,10.563 8.927,4.197 17.542,9.024 25.615,14.551 8.077,5.516 15.652,11.681 22.478,18.482 l 23.475,23.394 -1.1,-33.995 -0.037,-1.17 c -0.01,-0.555 -0.01,-1.142 0.013,-1.743 0.03,-1.198 0.111,-2.447 0.228,-3.7 0.233,-2.512 0.63,-5.067 1.155,-7.608 1.057,-5.088 2.659,-10.126 4.727,-14.99 4.132,-9.745 10.146,-18.793 17.518,-26.816 7.363,-8.043 16.072,-15.067 25.546,-21.152 4.752,-3.028 9.696,-5.83 14.788,-8.417 l 0.741,-0.382 1.034,-0.493 2.067,-0.987 0.516,-0.246 0.44,-0.188 0.879,-0.377 1.756,-0.76 3.831,-1.518 3.933,-1.408 c 10.601,-3.611 21.92,-6.088 33.416,-7.878 11.508,-1.798 23.258,-2.821 35.06,-3.378 23.631,-1.038 47.523,-0.043 71.234,2.495 23.714,2.56 47.296,6.665 70.363,12.447 23.036,5.81 45.658,13.276 66.718,23.245 10.488,5.017 20.589,10.661 29.754,17.186 l 3.382,2.49 3.276,2.574 3.162,2.661 0.733,0.612 c 0.368,0.295 1.009,0.775 1.505,1.106 0.934,0.607 1.944,1.196 3.241,1.724 1.237,0.519 2.774,0.955 4.396,1.157 1.645,0.209 3.4,0.145 5.049,-0.157 3.295,-0.629 5.851,-2.128 7.528,-3.446 1.728,-1.356 2.867,-2.647 3.802,-3.821 1.834,-2.359 2.879,-4.348 3.82,-6.245 1.795,-3.754 2.93,-7.112 3.95,-10.419 1.986,-6.58 3.342,-12.864 4.562,-19.134 1.201,-6.258 2.202,-12.459 3.104,-18.645 1.797,-12.367 3.204,-24.665 4.446,-36.95 2.462,-24.566 4.257,-49.067 5.796,-73.562 1.529,-24.492 2.77,-48.969 3.849,-73.442 2.141,-48.944 3.66,-97.867 4.849,-146.784 2.346,-97.833 3.483,-195.638 4.118,-293.433 0.614,-97.795 0.668,-195.578 0.385,-293.354 -0.287,-97.778 -0.923,-195.547 -1.809,-293.311 -0.889,-97.765 -2.085,-195.523 -3.468,-293.279 l -2.257,-146.631 -2.642,-146.64 -0.185,-10.305 -10.301,-0.242 -348.692,-8.14 c -116.232,-2.673 -232.459,-5.547 -348.697,-7.937 -116.238,-2.435 -232.484,-4.511 -348.735,-6.431 -116.25,-1.922 -232.502,-3.766 -348.746,-5.959 -116.244,-2.182 -232.478,-4.768 -348.702,-7.765 -58.111,-1.506 -116.222,-3.036 -174.324,-4.968 -58.101,-1.913 -116.195,-4.126 -174.283,-6.592 -116.176,-4.938 -232.33,-10.726 -348.516,-15.284 -58.092,-2.288 -116.192,-4.266 -174.299,-5.934 -29.055,-0.82 -58.11,-1.588 -87.168,-2.275 l -87.172,-2.079 c -116.23,-2.718 -232.469,-5.125 -348.713,-7.278 -116.246,-2.115 -232.496,-4.05 -348.751,-5.786 l -348.763,-5.258 -174.376,-2.871 -174.367,-3.192 c -116.243,-2.252 -232.478,-4.809 -348.706,-7.605 l -348.676,-8.784 c -116.222,-3.042 -232.443,-6.198 -348.659,-9.491 l -348.644,-10.099 -6.585,-0.191 -0.084,6.651 -7.886,622.351 -3.75,311.177 -3.32,311.18 c -2.045,207.455 -3.668,414.912 -5.004,622.372 l -4.139,622.379 -0.144,21.757 18.938,-10.676 388.445,-218.964 0.671,-0.378 0.608,-0.45 c 28.563,-21.151 57.898,-41.252 87.953,-60.195 30.065,-18.926 60.883,-36.631 92.367,-53.024 31.494,-16.369 63.708,-31.315 96.532,-44.703 32.828,-13.375 66.323,-25.049 100.331,-34.84 34.005,-9.799 68.582,-17.493 103.475,-22.938 34.891,-5.456 70.136,-8.456 105.377,-8.713 35.232,-0.249 70.48,2.152 105.218,7.758 34.735,5.573 68.995,14.071 102.2,25.668 16.596,5.811 32.935,12.356 48.967,19.593 l 6,2.742 3,1.371 2.967,1.443 11.848,5.809 11.705,6.099 c 3.892,2.051 7.709,4.244 11.568,6.359 l 2.887,1.599 0.722,0.401 0.622,0.356 1.45,0.849 2.9,1.697 1.449,0.849 1.362,0.836 c 1.819,1.131 3.632,2.201 5.457,3.377 l 5.472,3.528 c 7.257,4.765 14.321,9.837 21.21,15.139 13.77,10.615 26.798,22.216 38.951,34.667 24.223,24.954 45.083,53.288 60.606,84.23 7.758,15.457 14.196,31.545 18.934,48.075 4.72,16.529 7.747,33.493 8.739,50.539 1.001,17.042 -0.053,34.157 -3.28,50.858 -3.198,16.71 -8.687,32.949 -16.035,48.335 -7.322,15.418 -16.648,29.882 -27.386,43.345 -10.644,13.298 -23.018,25.479 -36.346,36.427 -26.777,21.897 -57.633,38.955 -90.015,52.289 -4.048,1.677 -8.131,3.278 -12.231,4.837 l -3.067,1.154 -3.152,1.167 -6.166,2.206 c -8.29,2.905 -16.632,5.6 -25.039,8.018 -16.816,4.822 -33.891,8.573 -51.15,11.037 l -68.428,9.77 68.336,10.13 c 35.71,5.295 71.82,7.688 107.879,7.296 36.061,-0.391 72.076,-3.567 107.639,-9.44 35.563,-5.876 70.677,-14.45 104.929,-25.683 34.249,-11.235 67.64,-25.127 99.689,-41.666 32.049,-16.533 62.755,-35.72 91.547,-57.488 28.791,-21.76 55.668,-46.102 79.999,-72.8 24.335,-26.69 46.109,-55.741 64.766,-86.685 18.668,-30.937 34.202,-63.757 46.335,-97.771 l -14.695,2.215 c 17.458,23.126 36.765,44.796 57.469,64.963 20.689,20.193 42.859,38.785 65.967,56.025 23.111,17.249 47.253,33.038 72.071,47.594 24.809,14.581 50.336,27.868 76.331,40.086 52.002,24.445 105.891,44.532 160.667,61.378 54.803,16.805 110.529,30.362 166.733,41.213 28.101,5.436 56.33,10.175 84.644,14.295 28.264,4.072 56.7,7.643 85.121,10.655 28.434,3.017 56.922,5.503 85.443,7.467 28.525,1.927 57.082,3.334 85.653,4.227 28.571,0.895 57.156,1.278 85.738,1.142 28.581,-0.153 57.158,-0.851 85.712,-2.032 28.553,-1.187 57.085,-2.878 85.576,-5.073 28.489,-2.227 56.935,-4.981 85.323,-8.229 28.387,-3.256 56.717,-7.002 84.965,-11.29 28.243,-4.32 56.405,-9.159 84.468,-14.514 28.059,-5.367 56.03,-11.203 83.859,-17.657 27.829,-6.449 55.535,-13.426 83.094,-20.941 55.13,-14.983 109.62,-32.304 163.288,-51.86 53.686,-19.51 106.484,-41.446 158.187,-65.698 25.845,-12.14 51.438,-24.82 76.665,-38.194 25.23,-13.367 50.139,-27.335 74.682,-41.916 49.063,-29.201 96.831,-60.599 142.158,-95.363 45.425,-34.591 88.615,-71.925 131.494,-109.51 42.854,-37.623 85.414,-75.581 129.443,-111.832 -44.36,35.843 -87.294,73.414 -130.436,110.693 -43.179,37.224 -86.647,74.175 -132.263,108.32 -45.482,34.266 -93.418,65.271 -142.544,94.046 -24.586,14.369 -49.529,28.122 -74.784,41.271 -25.252,13.155 -50.863,25.616 -76.717,37.535 -51.722,23.809 -104.509,45.297 -158.154,64.357 -53.631,19.091 -108.042,35.984 -163.061,50.575 -27.505,7.313 -55.15,14.087 -82.915,20.335 -27.763,6.252 -55.663,11.888 -83.645,17.056 -27.985,5.156 -56.064,9.791 -84.216,13.923 -28.157,4.106 -56.39,7.672 -84.674,10.749 -28.285,3.07 -56.623,5.647 -84.999,7.699 -28.378,2.021 -56.789,3.538 -85.218,4.554 -28.428,1.01 -56.872,1.541 -85.316,1.526 -28.443,-0.037 -56.884,-0.565 -85.305,-1.603 -28.421,-1.039 -56.821,-2.587 -85.182,-4.654 -28.358,-2.102 -56.676,-4.724 -84.932,-7.873 -28.27,-3.146 -56.405,-6.829 -84.561,-11.036 -28.095,-4.238 -56.095,-9.09 -83.952,-14.633 -55.711,-11.073 -110.903,-24.744 -165.065,-41.642 -54.137,-16.926 -107.289,-37.033 -158.406,-61.357 -25.553,-12.156 -50.601,-25.345 -74.889,-39.776 -24.3,-14.404 -47.882,-29.989 -70.394,-46.957 -22.512,-16.956 -44.064,-35.173 -64.105,-54.902 -20.06,-19.702 -38.704,-40.808 -55.516,-63.269 l -9.371,-12.519 -5.324,14.735 c -11.894,32.913 -27.064,64.622 -45.257,94.494 -18.184,29.878 -39.376,57.913 -63.053,83.67 -23.675,25.764 -49.822,49.253 -77.843,70.25 -28.023,20.998 -57.909,39.519 -89.106,55.48 -31.2,15.963 -63.719,29.358 -97.073,40.168 -33.355,10.809 -67.551,19.032 -102.166,24.624 -34.615,5.591 -69.652,8.555 -104.698,8.812 -35.044,0.256 -70.1,-2.195 -104.715,-7.451 l -0.091,19.9 c 18.239,-2.537 36.268,-6.435 53.922,-11.431 8.826,-2.504 17.555,-5.292 26.19,-8.283 l 6.497,-2.3 3.155,-1.155 3.228,-1.202 c 4.282,-1.607 8.547,-3.27 12.783,-5.009 33.875,-13.841 66.545,-31.684 95.402,-55.13 14.389,-11.759 27.758,-24.8 39.567,-39.46 11.646,-14.511 21.933,-30.333 30.045,-47.281 8.146,-16.921 14.281,-34.9 17.879,-53.396 3.632,-18.488 4.846,-37.419 3.8,-56.157 -1.036,-18.746 -4.302,-37.287 -9.371,-55.234 -5.088,-17.949 -11.981,-35.301 -20.25,-51.896 -16.552,-33.218 -38.626,-63.338 -64.226,-89.872 -12.845,-13.239 -26.613,-25.574 -41.199,-36.885 -7.295,-5.651 -14.785,-11.062 -22.495,-16.156 l -5.817,-3.77 c -1.939,-1.254 -3.98,-2.473 -5.965,-3.708 l -1.5,-0.924 -1.449,-0.853 -2.897,-1.704 -1.448,-0.852 -0.834,-0.482 -0.746,-0.416 -2.988,-1.666 c -3.993,-2.202 -7.945,-4.481 -11.974,-6.618 l -12.121,-6.351 -12.275,-6.056 -3.075,-1.503 -3.108,-1.431 -6.219,-2.86 c -16.619,-7.55 -33.567,-14.385 -50.787,-20.46 -34.454,-12.124 -70.021,-21.037 -106.048,-26.902 -36.032,-5.9 -72.554,-8.474 -108.994,-8.301 -36.449,0.179 -72.837,3.197 -108.783,8.729 -35.949,5.523 -71.506,13.354 -106.409,23.322 -34.907,9.959 -69.229,21.836 -102.822,35.429 -33.581,13.626 -66.491,28.829 -98.636,45.464 -32.132,16.658 -63.556,34.64 -94.195,53.851 -30.627,19.228 -60.505,39.625 -89.593,61.085 l 1.278,-0.828 -388.815,218.304 18.793,11.082 4.86,-622.373 c 1.663,-207.457 3.04,-414.917 3.994,-622.379 l 1.179,-311.195 0.749,-311.199 1.113,-622.4 -6.67,6.46 348.717,7.146 c 116.237,2.456 232.471,5.05 348.702,7.757 l 348.684,8.463 c 116.225,2.953 232.444,6.143 348.655,9.64 l 174.312,5.432 174.305,5.752 348.597,11.989 c 116.199,4.013 232.402,7.827 348.61,11.461 116.209,3.595 232.424,6.937 348.647,9.968 l 87.168,2.232 c 29.056,0.751 58.114,1.42 87.173,2.038 58.12,1.206 116.246,2.102 174.38,2.689 116.269,1.19 232.568,1.151 348.845,1.962 58.139,0.408 116.272,1.07 174.397,2.031 58.126,0.943 116.241,2.287 174.356,3.655 116.23,2.752 232.449,5.916 348.659,9.483 116.21,3.555 232.411,7.46 348.614,11.287 116.204,3.828 232.411,7.502 348.626,10.815 116.215,3.359 232.442,6.234 348.664,9.31 l 348.668,9.106 -10.486,-10.546 2.235,146.564 1.849,146.585 c 1.127,97.724 2.006,195.451 2.686,293.177 0.678,97.725 1.105,195.45 1.184,293.17 0.075,97.718 -0.187,195.433 -1.009,293.129 -0.841,97.695 -2.187,195.379 -4.735,292.983 -1.294,48.799 -2.857,97.58 -5.069,146.288 -1.111,24.351 -2.381,48.685 -3.934,72.971 -1.562,24.279 -3.379,48.527 -5.827,72.59 -1.233,12.026 -2.626,24.01 -4.36,35.825 -0.87,5.903 -1.828,11.765 -2.94,17.505 -1.114,5.719 -2.377,11.389 -3.936,16.506 -0.771,2.53 -1.657,4.957 -2.51,6.713 -0.403,0.844 -0.851,1.541 -0.907,1.585 -0.011,0.025 0.082,-0.14 0.604,-0.554 0.484,-0.368 1.642,-1.159 3.437,-1.484 0.896,-0.182 1.883,-0.198 2.768,-0.091 0.868,0.096 1.656,0.349 2.193,0.563 0.584,0.251 0.933,0.445 1.224,0.645 0.184,0.111 0.514,0.369 0.576,0.435 -0.016,-0.012 -0.586,-0.489 -0.149,-0.117 l -3.846,-3.246 -3.923,-3.093 -3.994,-2.949 c -10.743,-7.669 -22.063,-13.976 -33.6,-19.519 -23.126,-10.98 -47.151,-18.891 -71.464,-25.072 -24.333,-6.138 -49.012,-10.466 -73.881,-13.191 -24.873,-2.695 -49.952,-3.795 -75.158,-2.729 -12.604,0.576 -25.237,1.648 -37.881,3.601 -12.638,1.956 -25.299,4.664 -37.852,8.909 l -4.697,1.673 -4.692,1.851 -2.45,1.059 -1.223,0.532 -0.611,0.267 -0.518,0.247 -2.069,0.983 -1.035,0.492 -1.301,0.655 c -5.806,2.939 -11.512,6.156 -17.069,9.687 -11.085,7.096 -21.599,15.487 -30.766,25.465 -9.167,9.947 -16.949,21.499 -22.381,34.261 -2.717,6.375 -4.85,13.034 -6.285,19.909 -0.716,3.44 -1.264,6.93 -1.601,10.502 -0.168,1.787 -0.288,3.59 -0.338,5.444 -0.028,0.926 -0.035,1.866 -0.022,2.839 l 0.04,1.501 0.04,0.811 0.084,1.094 22.375,-10.602 c -8.09,-8.078 -16.923,-15.262 -26.233,-21.631 -9.306,-6.38 -19.126,-11.89 -29.252,-16.661 -10.126,-4.783 -20.603,-8.738 -31.291,-11.972 -10.687,-3.238 -21.617,-5.65 -32.675,-7.316 -11.063,-1.637 -22.271,-2.447 -33.517,-2.39 -11.247,0.098 -22.534,1.092 -33.709,3.117 -11.167,2.058 -22.216,5.166 -32.884,9.452 -10.668,4.278 -20.916,9.821 -30.401,16.521 -9.512,6.701 -18.13,14.589 -25.727,23.515 l -1.275,1.508 -0.319,0.377 -0.484,0.589 -0.691,0.877 c -0.921,1.171 -1.85,2.333 -2.715,3.555 -0.888,1.201 -1.758,2.417 -2.58,3.672 -0.852,1.234 -1.653,2.503 -2.437,3.789 -3.142,5.124 -5.893,10.537 -8.095,16.173 -2.216,5.631 -3.936,11.456 -5.152,17.356 -1.189,5.904 -1.872,11.875 -2.109,17.814 -0.444,11.888 0.906,23.605 3.468,34.81 2.559,11.22 6.269,21.98 10.734,32.272 4.463,10.3 9.659,20.158 15.385,29.617 11.473,18.917 24.902,36.337 39.885,52.409 L 795.236,-4.317 C 781.315,-18.771 766.871,-32.628 752,-45.995 737.127,-59.36 721.824,-72.229 706.117,-84.599 c -31.433,-24.703 -64.474,-47.474 -99.373,-67.402 -17.446,-9.958 -35.375,-19.17 -53.816,-27.414 -18.447,-8.223 -37.412,-15.487 -56.938,-21.315 -19.512,-5.836 -39.599,-10.247 -60.111,-12.568 -20.495,-2.31 -41.449,-2.512 -62.233,0.265 -10.384,1.379 -20.712,3.493 -30.841,6.39 -5.065,1.449 -10.08,3.089 -15.026,4.927 -2.467,0.932 -4.925,1.892 -7.36,2.907 -1.225,0.503 -2.496,1.072 -3.74,1.608 l -0.927,0.405 -0.84,0.385 -1.679,0.769 -0.839,0.385 -1.009,0.481 -1.78,0.861 c -1.189,0.563 -2.365,1.17 -3.541,1.77 -1.18,0.591 -2.348,1.214 -3.513,1.845 -1.17,0.619 -2.331,1.262 -3.484,1.923 -4.622,2.616 -9.156,5.444 -13.564,8.507 -8.808,6.128 -17.148,13.18 -24.534,21.279 -3.698,4.041 -7.163,8.325 -10.35,12.826 -3.17,4.514 -6.055,9.244 -8.621,14.142 -5.118,9.809 -8.878,20.309 -11.253,31.019 -2.373,10.718 -3.377,21.625 -3.265,32.398 0.125,10.777 1.33,21.428 3.387,31.81 4.116,20.79 11.471,40.509 20.756,59.019 9.328,18.507 20.62,35.86 33.462,51.944 12.847,16.082 27.246,30.926 43.171,44.153 15.95,13.172 33.43,24.82 52.806,33.535 l 6.055,-25.733 -12.581,-0.675 -12.571,-0.983 c -4.185,-0.431 -8.373,-0.81 -12.555,-1.281 -4.176,-0.528 -8.358,-0.995 -12.53,-1.57 -4.166,-0.621 -8.341,-1.177 -12.5,-1.851 -4.153,-0.713 -8.318,-1.357 -12.464,-2.124 -4.139,-0.803 -8.291,-1.535 -12.421,-2.392 -4.124,-0.888 -8.262,-1.709 -12.375,-2.649 -4.107,-0.972 -8.228,-1.88 -12.324,-2.901 -4.088,-1.054 -8.191,-2.05 -12.267,-3.15 -4.067,-1.135 -8.148,-2.218 -12.205,-3.394 -4.045,-1.215 -8.104,-2.385 -12.139,-3.634 l -12.069,-3.87 -11.993,-4.104 -11.914,-4.333 -11.83,-4.559 -11.74,-4.786 -11.645,-5.013 -11.545,-5.235 -11.44,-5.457 -11.331,-5.677 -11.215,-5.897 c -3.714,-2.008 -7.393,-4.081 -11.092,-6.116 -3.675,-2.078 -7.308,-4.227 -10.964,-6.337 -3.632,-2.148 -7.216,-4.375 -10.828,-6.556 -3.586,-2.221 -7.12,-4.523 -10.684,-6.779 -3.538,-2.295 -7.02,-4.671 -10.533,-7.001 -3.484,-2.37 -6.913,-4.819 -10.373,-7.223 -3.426,-2.45 -6.8,-4.969 -10.204,-7.449 -3.363,-2.53 -6.68,-5.12 -10.023,-7.674 l -9.716,-7.805 -9.87,-8.334 z" /></g></g></g><text
       id="text2177"
       style="font-variant:normal;font-weight:normal;font-stretch:normal;font-size:1296px;font-family:'DINbek Bold';-inkscape-font-specification:DINbekBold;writing-mode:lr-tb;fill:#ffffff;fill-opacity:1;fill-rule:nonzero;stroke:none"
       transform="matrix(1,0,0,-1,1401.7817,1511.1514)"><tspan
         id="tspan2175"
         sodipodi:role="line"
         y="0"
         x="0 722.13123 1446.5952">ARK</tspan></text><g
       transform="translate(1448,1435)"
       id="g2179"><path
         id="path2181"
         style="fill:none;stroke:#ffffff;stroke-width:17;stroke-linecap:butt;stroke-linejoin:miter;stroke-miterlimit:10;stroke-dasharray:none;stroke-opacity:1"
         d="M 0,0 H 2220" /></g><g
       transform="translate(1448,1376)"
       id="g2183"><path
         id="path2185"
         style="fill:none;stroke:#ffffff;stroke-width:17;stroke-linecap:butt;stroke-linejoin:miter;stroke-miterlimit:10;stroke-dasharray:none;stroke-opacity:1"
         d="M 0,0 H 2220" /></g><g
       transform="translate(1796.5557,1159.0146)"
       id="g2187"><path
         id="path2189"
         style="fill:#ffffff;fill-opacity:1;fill-rule:nonzero;stroke:none"
         d="M 0,0 H 181.774 L 236.764,164.972 291.754,0 H 470.473 L 325.36,-108.454 378.823,-278.007 232.182,-175.663 90.123,-278.007 l 51.936,169.553 z" /></g><g
       transform="translate(2341.1958,1159.0146)"
       id="g2191"><path
         id="path2193"
         style="fill:#ffffff;fill-opacity:1;fill-rule:nonzero;stroke:none"
         d="M 0,0 H 181.774 L 236.765,164.972 291.754,0 h 178.72 l -145.113,-108.454 53.462,-169.553 -146.641,102.344 -142.059,-102.344 51.936,169.553 z" /></g><g
       transform="translate(2875.6719,1159.0146)"
       id="g2195"><path
         id="path2197"
         style="fill:#ffffff;fill-opacity:1;fill-rule:nonzero;stroke:none"
         d="M 0,0 H 181.773 L 236.765,164.972 291.755,0 h 178.719 l -145.114,-108.454 53.462,-169.553 -146.64,102.344 -142.059,-102.344 51.936,169.553 z" /></g></g></svg>
