<?xml version="1.0" encoding="UTF-8" standalone="no"?>
<svg
   xmlns:dc="http://purl.org/dc/elements/1.1/"
   xmlns:cc="http://creativecommons.org/ns#"
   xmlns:rdf="http://www.w3.org/1999/02/22-rdf-syntax-ns#"
   xmlns:svg="http://www.w3.org/2000/svg"
   xmlns="http://www.w3.org/2000/svg"
   xmlns:sodipodi="http://sodipodi.sourceforge.net/DTD/sodipodi-0.dtd"
   xmlns:inkscape="http://www.inkscape.org/namespaces/inkscape"
   sodipodi:docname="birds.svg"
   inkscape:version="1.0 (4035a4fb49, 2020-05-01)"
   id="svg4096"
   version="1.1"
   viewBox="0 0 468.72937 154.06355"
   height="154.06355mm"
   width="468.72937mm">
  <defs
     id="defs4090" />
  <sodipodi:namedview
     inkscape:window-maximized="0"
     inkscape:window-y="0"
     inkscape:window-x="26"
     inkscape:window-height="1040"
     inkscape:window-width="1375"
     fit-margin-bottom="0"
     fit-margin-right="0"
     fit-margin-left="0"
     fit-margin-top="0"
     showgrid="false"
     inkscape:document-rotation="0"
     inkscape:current-layer="layer1"
     inkscape:document-units="mm"
     inkscape:cy="754.00086"
     inkscape:cx="800.07353"
     inkscape:zoom="0.35"
     inkscape:pageshadow="2"
     inkscape:pageopacity="0.0"
     borderopacity="1.0"
     bordercolor="#666666"
     pagecolor="#ffffff"
     id="base" />
  <metadata
     id="metadata4093">
    <rdf:RDF>
      <cc:Work
         rdf:about="">
        <dc:format>image/svg+xml</dc:format>
        <dc:type
           rdf:resource="http://purl.org/dc/dcmitype/StillImage" />
        <dc:title></dc:title>
      </cc:Work>
    </rdf:RDF>
  </metadata>
  <g
     transform="translate(105.85279,51.329394)"
     id="layer1"
     inkscape:groupmode="layer"
     inkscape:label="Layer 1">
    <path
       id="path907"
       style="opacity:1;fill:#d68b32;fill-opacity:1;fill-rule:nonzero;stroke:none;stroke-width:0.35269;stroke-miterlimit:4;stroke-dasharray:none"
       d="m 233.19197,23.712006 c 0,-4.589637 -7.40834,-4.589637 -7.40834,0 0,4.58964 7.40834,4.58964 7.40834,0 m 19.75553,17.4625 c 0,-4.790723 -7.40833,-4.790723 -7.40833,0 0,4.790723 7.40833,4.790723 7.40833,0 m 109.92909,38.11411 c -2.159,-3.01978 -4.92477,-5.71853 -8.13859,-8.12447 -3.24553,-2.42711 -6.94618,-4.55436 -10.94316,-6.40645 -20.10127,-9.3098 -47.68144,-11.64519 -62.27234,-10.00125 l -0.0459,-0.0953 c -16.47118,8.11742 -49.7346,14.30514 -63.26365,-1.38641 -0.55033,-0.63853 -1.06185,-1.27706 -1.53458,-1.92264 9.93423,-2.0955 21.96748,-7.284863 15.10242,-15.292917 -4.05694,-4.734279 -13.39496,-1.760363 -19.97075,3.129137 -1.05479,-11.557 7.54946,-22.182664 19.18406,-26.804053 1.15007,-0.458611 2.33185,-0.85725 3.53484,-1.19239 2.48708,7.454196 19.48391,17.790583 23.14223,18.672527 5.15408,1.241779 10.95375,1.982613 16.23483,1.100666 6.29354,-1.051277 2.90687,-3.527777 3.89112,-6.86858 2.56823,-8.727723 1.56633,-14.777863 -1.56985,-18.711334 l 2.05317,-0.239889 c -1.68982,-6.170084 7.28133,-14.63675 11.97326,-9.613194 5.02357,5.38338695 -3.95816,22.718887 -6.26178,28.179887 9.14752,-5.355167 10.58685,-15.116527 12.7,-24.69444305 7.62703,15.70213905 23.57966,20.76802605 39.86387,19.05000005 -8.10684,13.292666 -35.3695,17.511887 -49.38887,21.87222 31.02327,-4.66725 64.05737,11.754553 75.70962,39.348833" />
    <path
       id="path911"
       style="opacity:1;fill:#e59810;fill-opacity:1;fill-rule:nonzero;stroke:none;stroke-width:0.35269;stroke-miterlimit:4;stroke-dasharray:none"
       d="m 354.738,71.164076 -0.54326,1.23119 c 2.7305,16.0267 -2.49061,26.17611 -18.34444,30.338894 15.09887,-8.868834 15.367,-22.591894 7.40833,-36.688894 l 0.53586,-1.28764 c 3.99733,1.85209 7.69798,3.97934 10.94351,6.40645" />
    <path
       id="path915"
       style="opacity:1;fill:#f2ae40;fill-opacity:1;fill-rule:nonzero;stroke:none;stroke-width:0.35269;stroke-miterlimit:4;stroke-dasharray:none"
       d="m 276.2274,5.385131 c 3.13618,3.933473 4.13771,9.98361 1.56985,18.711333 -0.98425,3.340804 2.40242,5.817304 -3.89115,6.868584 -5.28108,0.881943 -11.08075,0.14111 -16.23517,-1.100667 -3.65832,-0.881946 -20.65478,-11.218333 -23.14187,-18.672527 -0.72321,-2.166056 -0.22225,-4.088696 2.1798,-5.46453 0.007,-0.0071 0.0177,-0.01058 0.0317,-0.01765 0.078,-0.04586 0.15912,-0.09172 0.23672,-0.134057 4.20865,-2.367139 9.23219,-4.22275 14.32277,-5.27755605 9.88449,-2.04610995 20.02015,-1.068917 24.9273,5.08705605" />
    <path
       id="path923"
       style="opacity:1;fill:#d68b32;fill-opacity:1;fill-rule:nonzero;stroke:none;stroke-width:0.35269;stroke-miterlimit:4;stroke-dasharray:none"
       d="m 236.70905,5.727396 c -2.40242,1.375833 -2.90301,3.298473 -2.18017,5.464527 -1.20298,0.33514 -2.38443,0.733779 -3.53483,1.19239 l -0.27165,-0.66675 c 2.87549,-13.2715 -0.44096,-22.140334 -6.96384,-27.181527 -6.76274,-5.235223 -16.9686,-6.357057 -27.29052,-4.01814 -7.53216,1.703917 -15.12359,5.252863 -21.48451,10.385777 10.414,-13.783027 27.30852,-27.266193 45.61768,-24.969609 17.23001,2.162527 30.94601,16.224249 30.58232,33.78905495 l 0.11641,0.575027 C 246.2097,1.352952 241.1858,3.208563 236.97752,5.575702 c -0.078,0.04233 -0.15875,0.08819 -0.23672,0.134054 -0.014,0.0071 -0.0244,0.01058 -0.0317,0.01765" />
    <path
       id="path927"
       style="opacity:1;fill:#000000;fill-opacity:1;fill-rule:nonzero;stroke:none;stroke-width:0.35269;stroke-miterlimit:4;stroke-dasharray:none"
       d="m 245.53917,41.174506 c 0,-4.790723 7.40833,-4.790723 7.40833,0 0,4.790723 -7.40833,4.790723 -7.40833,0" />
    <path
       id="path935"
       style="opacity:1;fill:#000000;fill-opacity:1;fill-rule:nonzero;stroke:none;stroke-width:0.35269;stroke-miterlimit:4;stroke-dasharray:none"
       d="m 231.78084,36.059229 c 6.86506,8.008054 -5.16819,13.197417 -15.10242,15.292917 -2.97392,-4.025196 -4.50143,-8.149167 -4.86833,-12.16378 6.57579,-4.8895 15.91381,-7.863416 19.97075,-3.129137" />
    <path
       id="path939"
       style="opacity:1;fill:#000000;fill-opacity:1;fill-rule:nonzero;stroke:none;stroke-width:0.35269;stroke-miterlimit:4;stroke-dasharray:none"
       d="m 225.78363,23.712006 c 0,-4.589637 7.40834,-4.589637 7.40834,0 0,4.58964 -7.40834,4.58964 -7.40834,0" />
    <path
       id="path947"
       style="opacity:1;fill:#000000;fill-opacity:1;fill-rule:nonzero;stroke:none;stroke-width:0.35269;stroke-miterlimit:4;stroke-dasharray:none"
       d="m 211.80996,39.188403 c 0.36689,4.014611 1.89441,8.138584 4.86867,12.163773 -5.46134,1.15006 -10.287,1.36525 -10.98936,0.59973 -0.007,-0.007 -0.0106,-0.0141 -0.014,-0.0177 l -0.003,-0.007 c -2.81906,-3.393725 0.72284,-8.717142 6.13799,-12.738808" />
    <path
       id="path951"
       style="opacity:1;fill:#d68b32;fill-opacity:1;fill-rule:nonzero;stroke:none;stroke-width:0.35269;stroke-miterlimit:4;stroke-dasharray:none"
       d="m 196.46793,-19.482067 c 10.32227,-2.338917 20.52778,-1.217083 27.29053,4.018137 -12.60086,0.07761 -29.74975,3.01978 -33.95803,16.598194 0.69144,-6.981471 2.37032,-14.774331 6.70277,-20.461111 z" />
    <path
       id="path1003"
       style="opacity:1;fill:#d68b32;fill-opacity:1;fill-rule:nonzero;stroke:none;stroke-width:0.35269;stroke-miterlimit:4;stroke-dasharray:none"
       d="m -48.395321,1.367134 c 0,-5.517446 -8.995833,-5.517446 -8.995833,0 0,5.517444 8.995833,5.517444 8.995833,0 M 94.737205,-13.978699 109.55387,4.542134 C 78.626195,-21.542256 38.204565,-21.70806 6.8990648,3.483801 c 19.0750502,-0.33514 36.3153002,1.29822 52.3839702,12.7 -14.36864,-3.506613 -27.94317,-6.2865 -41.16211,-6.2865 -3.39019,0 -6.75216,0.179916 -10.1000302,0.582083 -10.35402,1.23472 -20.5563548,4.543777 -30.8292448,10.95375 -13.871221,8.657164 -28.194,6.04661 -41.528646,-3.076223 -1.626658,-1.11125 -2.995435,-2.88925 -4.053768,-5.06236 4.568825,0.10936 7.433379,-2.95628 1.739193,-9.281584 -1.548693,0.09878 -2.913943,0.05292 -4.169481,-0.137583 -0.522462,-6.681613 1.202621,-13.6525 5.936898,-16.799277 7.591777,4.388554 16.937212,4.797777 25.74925,4.120444 4.34622,-0.33514 8.763,-1.090084 12.7,-3.058584 0.9525,-0.47625 1.256242,-0.970139 1.185333,-1.481666 l 0.797277,-0.102307 c 8.907637,3.57364 18.3021098,-2.532943 26.5539388,-5.626804 13.9237802,-5.221112 28.3453402,-9.779 43.0949802,-11.927417 7.68702,-1.118306 71.363405,5.129389 49.54058,17.021528" />
    <path
       id="path1099"
       style="opacity:1;fill:#d68b32;fill-opacity:1;fill-rule:nonzero;stroke:none;stroke-width:0.35269;stroke-miterlimit:4;stroke-dasharray:none"
       d="m 18.117395,10.306452 c 5.33753,2.134304 20.193,16.608777 8.6995,21.635861 -0.24341,0 -12.86933,-17.010944 -18.7960002,-21.463 C 11.368765,10.077146 14.730735,9.897229 18.120925,9.897229 Z" />
    <path
       id="path1147"
       style="opacity:1;fill:#f2ae40;fill-opacity:1;fill-rule:nonzero;stroke:none;stroke-width:0.35269;stroke-miterlimit:4;stroke-dasharray:none"
       d="m -25.24943,-13.343771 c 0.07056,0.51153 -0.232834,1.005417 -1.185334,1.481667 -3.937352,1.9685 -8.353777,2.723443 -12.7,3.058583 -8.81239,0.677334 -18.15747,0.26811 -25.749602,-4.120443 -1.954389,-1.132417 -3.788481,-2.522361 -5.471231,-4.229807 4.66725,-3.732387 5.764038,-2.134304 7.9375,-6.942666 1.266121,-2.801055 2.945696,-5.524499 5.108223,-7.679972 2.162527,-2.155472 4.800952,-3.735916 7.98336,-4.247444 3.354917,-0.53975 6.50875,-0.465667 9.295694,0.176389 7.722306,1.781528 12.632973,7.948083 11.221863,17.660056 -0.243417,1.66511 3.340803,3.319637 3.559527,4.843637" />
    <path
       id="path1167"
       style="opacity:1;fill:#d68b32;fill-opacity:1;fill-rule:nonzero;stroke:none;stroke-width:0.35269;stroke-miterlimit:4;stroke-dasharray:none"
       d="m -40.03096,-35.847499 c -2.786592,-0.642056 -5.940777,-0.716139 -9.295694,-0.176389 -3.182056,0.511527 -5.820833,2.091972 -7.983008,4.247444 l -0.303742,-0.719667 c -2.324806,-4.092222 -5.474758,-6.69925 -9.069917,-8.078611 -4.822473,-1.848555 -10.441868,-1.495777 -15.95261,0.4445 -0.73025,0.257528 -4.808009,1.919111 -9.348611,3.668889 -6.497814,2.504722 -13.941778,5.189361 -13.867698,4.183945 0.73731,-9.913056 26.476328,-18.153944 33.831392,-18.908889 11.574638,-1.188861 25.918581,5.125861 31.989888,15.338778" />
    <path
       id="path1183"
       style="opacity:1;fill:#000000;fill-opacity:1;fill-rule:nonzero;stroke:none;stroke-width:0.35269;stroke-miterlimit:4;stroke-dasharray:none"
       d="m -57.391154,1.367134 c 0,-5.517446 8.995833,-5.517446 8.995833,0 0,5.517444 -8.995833,5.517444 -8.995833,0" />
    <path
       id="path1199"
       style="opacity:1;fill:#000000;fill-opacity:1;fill-rule:nonzero;stroke:none;stroke-width:0.35269;stroke-miterlimit:4;stroke-dasharray:none"
       d="m -66.651571,4.012967 c 5.694186,6.325304 2.829632,9.390944 -1.739193,9.281584 -1.326092,-2.709334 -2.169584,-6.028973 -2.430288,-9.419167 1.255538,0.1905 2.620788,0.23636 4.169481,0.137583" />
    <path
       id="path1203"
       style="opacity:1;fill:#d68b32;fill-opacity:1;fill-rule:nonzero;stroke:none;stroke-width:0.35269;stroke-miterlimit:4;stroke-dasharray:none"
       d="m -66.683249,-40.574686 -1.008946,2.268361 c -10.343444,0 -23.025805,14.428611 -27.199166,11.923888 -1.742722,-1.044222 1.989667,-7.337777 3.263195,-9.165166 l -0.356306,-0.913694 c 4.54025,-1.749778 8.618361,-3.411361 9.348611,-3.668889 5.510389,-1.940278 11.130139,-2.293056 15.952612,-0.4445" />
    <path
       id="path1215"
       style="opacity:1;fill:#000000;fill-opacity:1;fill-rule:nonzero;stroke:none;stroke-width:0.35269;stroke-miterlimit:4;stroke-dasharray:none"
       d="m -70.821158,3.875313 c 0.260705,3.390193 1.104196,6.709833 2.43064,9.419166 -1.845382,-0.04233 -3.96875,-0.606777 -5.919965,-1.68275 -8.177035,-4.515556 -14.329832,-3.788833 -22.923146,-5.91961 -5.433131,-1.347613 10.555111,-11.482917 18.609028,-5.44336305 2.674056,2.00730705 4.96711,3.19264005 7.803443,3.62655705" />
    <path
       id="path1921"
       style="opacity:1;fill:#26110b;fill-opacity:1;fill-rule:nonzero;stroke:none;stroke-width:0.35269;stroke-miterlimit:4;stroke-dasharray:none"
       d="m 207.75474,52.925036 c -0.76697,-0.045 -1.59229,-0.0494 -2.27031,-0.45681 -0.46091,-0.39024 -0.75872,-0.94495 -0.99579,-1.49299 -0.61425,-1.50946 -0.32136,-3.221778 0.32586,-4.668554 0.97259,-2.163305 2.57054,-3.978063 4.29525,-5.576922 2.74889,-2.504546 5.94471,-4.515945 9.37863,-5.940285 2.53892,-1.022456 5.26267,-1.763641 8.02172,-1.627576 1.94376,0.09127 3.92822,0.757343 5.31466,2.167432 1.17872,1.246082 2.17503,2.765883 2.44483,4.488498 0.24857,1.53363 -0.25858,3.113616 -1.18724,4.33592 -1.29421,1.723956 -3.13926,2.933314 -5.02484,3.924477 -3.14803,1.62606 -6.55457,2.69057 -9.99262,3.50714 -3.03641,0.69635 -6.12592,1.22185 -9.24335,1.33696 -0.35542,0.0116 -0.71128,0.01 -1.0668,0.004 z" />
    <path
       id="path1925"
       style="opacity:1;fill:#26110b;fill-opacity:1;fill-rule:nonzero;stroke:none;stroke-width:0.35269;stroke-miterlimit:4;stroke-dasharray:none"
       d="m 229.30381,27.68005 c -1.4691,-0.03905 -2.98059,-0.803521 -3.64173,-2.159387 -0.72691,-1.485476 -0.49307,-3.462514 0.73785,-4.615531 1.51407,-1.425118 4.03455,-1.540442 5.72783,-0.367242 1.05754,0.711835 1.6411,1.997498 1.59152,3.258431 0.005,1.25222 -0.63333,2.49442 -1.70085,3.164769 -0.79835,0.520559 -1.76673,0.752792 -2.71462,0.71896 z" />
    <path
       id="path1929"
       style="opacity:1;fill:#26110b;fill-opacity:1;fill-rule:nonzero;stroke:none;stroke-width:0.35269;stroke-miterlimit:4;stroke-dasharray:none"
       d="m 249.05937,45.292092 c -1.49222,-0.03916 -3.00252,-0.863034 -3.64426,-2.24564 -0.58926,-1.268026 -0.54589,-2.837746 0.16332,-4.049924 0.84069,-1.425681 2.60189,-2.109754 4.2063,-1.911985 1.45171,0.142345 2.85369,1.058968 3.38719,2.445348 0.58251,1.493345 0.34894,3.361867 -0.80676,4.523777 -0.85352,0.870653 -2.10024,1.286332 -3.30579,1.238424 z" />
    <path
       id="path1933"
       style="opacity:1;fill:#26110b;fill-opacity:1;fill-rule:nonzero;stroke:none;stroke-width:0.35269;stroke-miterlimit:4;stroke-dasharray:none"
       d="m -53.114746,6.029727 c -1.661549,-0.04953 -3.374073,-0.852241 -4.213826,-2.334154 -0.747289,-1.320165 -0.783802,-3.00947605 -0.147003,-4.37966605 0.689647,-1.46769695 2.236436,-2.37793495 3.812329,-2.56490495 1.792181,-0.238231 3.779025,0.359973 4.902165,1.832996 1.033532,1.35399695 1.158875,3.290078 0.457057,4.820534 -0.687244,1.47461 -2.23788,2.392007 -3.819207,2.578697 -0.328329,0.04406 -0.66054,0.05736 -0.991515,0.0465 z" />
    <path
       id="path1937"
       style="opacity:1;fill:#26110b;fill-opacity:1;fill-rule:nonzero;stroke:none;stroke-width:0.35269;stroke-miterlimit:4;stroke-dasharray:none"
       d="m -68.529477,13.819061 c -2.280497,-0.08746 -4.494353,-0.846492 -6.464123,-1.974676 -2.9258,-1.585312 -6.108842,-2.663012 -9.368861,-3.309408 -3.426531,-0.691338 -6.964645,-1.050184 -10.410155,-1.753341 -1.000195,-0.212831 -2.010939,-0.399521 -2.988521,-0.70231 -0.632108,-0.209407 -1.175632,-0.812834 -1.10035,-1.510347 0.09599,-0.909566 0.771067,-1.616639 1.409947,-2.212163 1.542274,-1.36179205 3.397215,-2.32226705 5.298405,-3.08013905 2.728101,-1.05776695 5.686778,-1.67421195 8.619278,-1.38800395 1.962362,0.187219 3.898018,0.871855 5.450522,2.10438995 0.857498,0.633979 1.753835,1.23535805 2.665907,1.73817205 1.854306,1.047538 3.947829,1.657739 6.074693,1.768687 0.972465,0.0623 1.947862,0.03175 2.919587,-0.02928 1.325422,1.484913 2.609956,3.09725 3.223895,5.019535 0.362657,1.139931 0.359976,2.478371 -0.357574,3.484351 -0.822468,1.161592 -2.269667,1.66356 -3.634248,1.801 -0.444145,0.04844 -0.892032,0.05736 -1.338402,0.0435 z" />
    <path
       id="path2017"
       style="opacity:1;fill:#ffffff;fill-opacity:1;fill-rule:nonzero;stroke:none;stroke-width:0.35269;stroke-miterlimit:4;stroke-dasharray:none"
       d="m -58.863224,-17.155782 c -1.399612,-0.04311 -2.678642,-1.124513 -2.952364,-2.49756 -0.308009,-1.317625 0.34417,-2.779464 1.528763,-3.431998 1.222375,-0.725628 2.915851,-0.478295 3.874912,0.572452 0.990952,1.005523 1.158135,2.692154 0.386221,3.873678 -0.589174,0.958672 -1.7139,1.545942 -2.837532,1.483428 z" />
    <path
       id="path2021"
       style="opacity:1;fill:#ffffff;fill-opacity:1;fill-rule:nonzero;stroke:none;stroke-width:0.35269;stroke-miterlimit:4;stroke-dasharray:none"
       d="m 251.68867,19.883133 c -1.58327,-0.04971 -3.19484,-0.96915 -3.79428,-2.47851 -0.50234,-1.203291 -0.17421,-2.661108 0.73379,-3.582247 1.61989,-1.72085 4.61912,-1.791547 6.34042,-0.183198 0.98095,0.868257 1.42436,2.320007 0.99037,3.571346 -0.49287,1.509713 -2.01097,2.502818 -3.55212,2.648797 -0.23833,0.02574 -0.47865,0.03246 -0.71818,0.02363 z" />
  </g>
</svg>
