<?xml version="1.0" encoding="UTF-8" standalone="no"?>
<svg
   xmlns:dc="http://purl.org/dc/elements/1.1/"
   xmlns:cc="http://creativecommons.org/ns#"
   xmlns:rdf="http://www.w3.org/1999/02/22-rdf-syntax-ns#"
   xmlns:svg="http://www.w3.org/2000/svg"
   xmlns="http://www.w3.org/2000/svg"
   xmlns:sodipodi="http://sodipodi.sourceforge.net/DTD/sodipodi-0.dtd"
   xmlns:inkscape="http://www.inkscape.org/namespaces/inkscape"
   sodipodi:docname="dog.svg"
   inkscape:version="1.0 (4035a4fb49, 2020-05-01)"
   id="svg5586"
   version="1.1"
   viewBox="0 0 325.96667 434.90515"
   height="434.90515mm"
   width="325.96667mm">
  <defs
     id="defs5580" />
  <sodipodi:namedview
     inkscape:window-maximized="0"
     inkscape:window-y="0"
     inkscape:window-x="130"
     inkscape:window-height="1040"
     inkscape:window-width="1375"
     fit-margin-bottom="0"
     fit-margin-right="0"
     fit-margin-left="0"
     fit-margin-top="0"
     showgrid="false"
     inkscape:document-rotation="0"
     inkscape:current-layer="layer1"
     inkscape:document-units="mm"
     inkscape:cy="960.21505"
     inkscape:cx="627.19741"
     inkscape:zoom="0.35"
     inkscape:pageshadow="2"
     inkscape:pageopacity="0.0"
     borderopacity="1.0"
     bordercolor="#666666"
     pagecolor="#ffffff"
     id="base" />
  <metadata
     id="metadata5583">
    <rdf:RDF>
      <cc:Work
         rdf:about="">
        <dc:format>image/svg+xml</dc:format>
        <dc:type
           rdf:resource="http://purl.org/dc/dcmitype/StillImage" />
        <dc:title></dc:title>
      </cc:Work>
    </rdf:RDF>
  </metadata>
  <g
     transform="translate(76.048783,237.86329)"
     id="layer1"
     inkscape:groupmode="layer"
     inkscape:label="Layer 1">
    <g
       id="g6646">
      <path
         id="path3774"
         style="opacity:1;fill:#995919;fill-opacity:1;fill-rule:nonzero;stroke:none;stroke-width:0.35269;stroke-miterlimit:4;stroke-dasharray:none"
         d="m 7.9122988,-129.25641 c 0,-11.38062 -17.63889,-11.38062 -17.63889,0 0,11.38061 17.63889,11.38061 17.63889,0 m 64.5583302,76.157656 c 13.22564,-11.13366 -11.98386,-42.75314 -19.93194,-52.906076 9.90247,-14.88722 -25.10367,-21.87222 -35.101392,-13.37381 -2.667,2.26837 -1.210027,7.33778 1.210029,12.05442 -12.7352772,9.627306 -43.105917,40.294276 -19.31811019,53.922076 5.61974999,3.21734 11.04547019,-0.27516 15.80091419,-6.3888 -4.99886,15.81502 26.610029,14.859 40.258999,7.49652 5.30225,3.61598 11.1125,4.21923 17.0815,-0.80433 m 31.397221,-70.513216 c 0,-13.6525 -21.166671,-13.6525 -21.166671,0 0,13.6525 21.166671,13.6525 21.166671,0 m 146.05001,318.91109 -1.03013,1.74273 c -139.15871,-7.15692 -163.442939,7.70724 -282.943892,-4.98524 -30.374167,4.318 -45.632812,-17.06991 -41.989121,-206.275724 l -0.0035,-0.03175 c 2.130778,-17.80469 6.536972,-35.46122 12.089694,-52.48275 3.252611,-9.96244 7.009694,-19.77672 11.348861,-29.32641 2.822222,-6.219476 5.891389,-12.326056 9.221612,-18.291526 2.58586,-4.63197 6.45936,-12.15672 11.003137,-19.60386 6.071306,-9.94834 13.34911,-19.75203 20.36939,-22.32731 v -0.003 c 0.02822,-0.007 0.05292,-0.0177 0.08114,-0.0282 1.763889,-0.635 3.5383628,-1.22414 5.3198888,-1.77095 -3.6900558,8.25853 -6.7909728,16.62642 -9.1087228,19.65678 4.51203,-2.10608 19.5262498,-13.5255 26.89225,-23.72078 25.55522,-3.937 52.30636,-0.29633 77.22305,8.53017 5.95842,10.84792 18.605503,22.91292 23.590253,25.42117 -0.73731,-2.58586 -2.38125,-9.74725 -4.59669,-17.52953 16.62288,7.94103 31.95813,18.1222 44.97916,29.71095 4.40972,-2.52942 9.10167,-4.61434 13.70542,-5.72911 10.13883,-2.45886 19.86491,-0.22931 25.2871,12.24491 7.07321,16.263056 -1.5381,28.105806 -14.33688,34.857966 l 0.22578,0.41981 c 0,0 21.44889,35.35539 41.18681,96.80222 6.93208,21.57587 13.64895,46.36558 19.15583,73.9775 0.70554,3.538354 1.39346,7.119044 2.05317,10.749124 0.31395,1.70392 0.62087,3.41842 0.92075,5.1435 2.81162,16.06198 5.18229,32.98473 6.93208,50.70123 1.03717,10.44575 1.85561,21.16667 2.42359,32.14862"
         sodipodi:nodetypes="csccccccccccscccccccccccccccccccccccccccccc" />
      <path
         id="path3778"
         style="opacity:1;fill:#f2ae40;fill-opacity:1;fill-rule:nonzero;stroke:none;stroke-width:0.35269;stroke-miterlimit:4;stroke-dasharray:none"
         d="m 55.890069,-174.05919 c -3.04094,-14.46036 -2.73755,-13.87828 9.26748,-22.6307 -14.44625,-3.13972 -15.33525,-3.05858 -21.38892,-16.59819 -8.26558,12.31547 -9.12989,12.08264 -23.900693,12.72469 10.445753,10.76678 10.805583,10.08945 4.624913,23.68198 15.03892,-4.16278 17.47661,-4.11692 31.39722,2.82222 m 110.066671,51.85833 0.11289,0.45509 c -4.60375,1.11477 -9.2957,3.19969 -13.70542,5.72911 -13.02103,-11.58875 -28.35628,-21.76992 -44.97916,-29.71095 -3.59834,-12.62944 -8.710091,-26.8993 -13.941781,-25.94328 -10.27995,1.87325 -9.69786,9.59203 -5.05178,18.05164 -24.91669,-8.8265 -51.66783,-12.46716 -77.223053,-8.53016 4.695473,-6.49112 6.290027,-12.48481 0.09525,-15.26117 -6.7098332,-3.0092 -12.8411102,8.05392 -17.8787772,19.32516 -1.781526,0.54681 -3.5559998,1.13595 -5.3198888,1.77095 -0.02822,0.0106 -0.05292,0.0212 -0.08114,0.0282 l -0.179914,-0.48683 c -13.405557,3.175 -26.105557,13.05278 -26.105557,13.05278 l -1.17122,0.19755 c -2.76225,-2.74461 -5.803196,-4.84364 -8.932333,-6.05719 l 3.753553,-0.13759 c 14.24164,-13.25033 19.57564,-24.86377 30.1625,-41.13741 19.7943608,-30.4412 45.90344,-47.86489 83.25908,-46.97589 31.06208,0.74083 62.536921,16.84161 77.836891,43.70917 3.175,5.57388 5.6515,11.61344 7.28486,18.07633 2.9598,11.71575 3.82411,24.04533 2.96333,36.08916 -0.52564,7.32367 4.87186,11.80042 9.10167,17.75531" />
      <path
         id="path3782"
         style="opacity:1;fill:#000000;fill-opacity:1;fill-rule:nonzero;stroke:none;stroke-width:0.35269;stroke-miterlimit:4;stroke-dasharray:none"
         d="m 107.38512,-145.72758 c 2.21544,7.78228 3.85939,14.94367 4.59669,17.52954 -4.98475,-2.50825 -17.631831,-14.57326 -23.590251,-25.42117 6.47347,2.29305 12.819951,4.93536 18.993561,7.89163" />
      <path
         id="path3784"
         style="opacity:1;fill:#000000;fill-opacity:1;fill-rule:nonzero;stroke:none;stroke-width:0.35269;stroke-miterlimit:4;stroke-dasharray:none"
         d="m 107.38512,-145.72758 c -6.17361,-2.95627 -12.520091,-5.59858 -18.993561,-7.89163 -4.64608,-8.45961 -5.22816,-16.17839 5.05178,-18.05164 5.23169,-0.95603 10.343441,13.31383 13.941781,25.94327" />
      <path
         id="path3786"
         style="opacity:1;fill:#000000;fill-opacity:1;fill-rule:nonzero;stroke:none;stroke-width:0.35269;stroke-miterlimit:4;stroke-dasharray:none"
         d="m 82.701179,-123.61197 c 0,-13.6525 21.166671,-13.6525 21.166671,0 0,13.6525 -21.166671,13.6525 -21.166671,0" />
      <path
         id="path3788"
         style="opacity:1;fill:#ba701e;fill-opacity:1;fill-rule:nonzero;stroke:none;stroke-width:0.35269;stroke-miterlimit:4;stroke-dasharray:none"
         d="m 49.423619,-85.511974 c 0,-3.49603 -5.41161,-3.49603 -5.41161,0 0,3.49603 5.41161,3.49603 5.41161,0 m 3.6442,7.87753 c 0.58914,-0.58561 1.17475,-1.17475 1.76389,-1.76389 0,-5.17172 -6.93914,1.76389 -1.76389,1.76389 m 4.34975,-11.64167 c 0,-3.19264 -4.93889,-3.19264 -4.93889,0 0,3.19264 4.93889,3.19264 4.93889,0 m -4.87892,-16.728716 c 7.94808,10.152936 33.15758,41.772416 19.93195,52.906076 -5.969,5.02356 -11.77925,4.42031 -17.0815,0.80433 -4.9777,-3.40077 -9.50736,-9.45444 -13.29267,-16.01258 -5.43631,-9.40505 -9.35567,-19.84727 -10.90083,-24.96608 l 0.28222,-1.28058 c 6.5793,1.03011 13.7795,-3.76061 18.49261,-8.403166 1.06539,-1.04775 1.91558,-2.06375 2.56822,-3.048" />
      <path
         id="path3790"
         style="opacity:1;fill:#000000;fill-opacity:1;fill-rule:nonzero;stroke:none;stroke-width:0.35269;stroke-miterlimit:4;stroke-dasharray:none"
         d="m 52.478749,-89.276074 c 0,-3.19264 4.93889,-3.19264 4.93889,0 0,3.19264 -4.93889,3.19264 -4.93889,0" />
      <path
         id="path3792"
         style="opacity:1;fill:#000000;fill-opacity:1;fill-rule:nonzero;stroke:none;stroke-width:0.35269;stroke-miterlimit:4;stroke-dasharray:none"
         d="m 54.831739,-79.398304 c -0.58914,0.58914 -1.17475,1.17828 -1.76389,1.76389 -5.17525,0 1.76389,-6.93561 1.76389,-1.76389" />
      <path
         id="path3794"
         style="opacity:1;fill:#ffffff;fill-opacity:1;fill-rule:nonzero;stroke:none;stroke-width:0.35269;stroke-miterlimit:4;stroke-dasharray:none"
         d="m 65.157549,-196.68985 c -12.00503,8.75241 -12.30842,8.17033 -9.26748,22.63069 -13.92061,-6.93914 -16.3583,-6.985 -31.39722,-2.82222 6.18067,-13.59253 5.82084,-12.91519 -4.624913,-23.68197 14.770803,-0.64206 15.635113,-0.40922 23.900693,-12.7247 6.05367,13.53962 6.94267,13.45848 21.38892,16.5982" />
      <path
         id="path3796"
         style="opacity:1;fill:#000000;fill-opacity:1;fill-rule:nonzero;stroke:none;stroke-width:0.35269;stroke-miterlimit:4;stroke-dasharray:none"
         d="m 17.437297,-119.37864 c 9.997722,-8.49841 45.003862,-1.51341 35.101392,13.37381 -0.65264,0.98425 -1.50284,2.00025 -2.56823,3.048 -4.71311,4.642556 -11.9133,9.433276 -18.49261,8.403166 -2.18722,-0.3422 -4.30036,-1.32645 -6.23358,-3.17148 -1.435806,-1.36877 -4.409722,-5.341046 -6.596943,-9.599076 -2.420056,-4.71664 -3.877029,-9.78605 -1.210029,-12.05442" />
      <path
         id="path3798"
         style="opacity:1;fill:#995919;fill-opacity:1;fill-rule:nonzero;stroke:none;stroke-width:0.35269;stroke-miterlimit:4;stroke-dasharray:none"
         d="m 42.096429,-68.307004 c 3.78531,6.55814 8.31497,12.61181 13.29267,16.01258 -13.64898,7.36248 -45.257864,8.3185 -40.259003,-7.49652 4.801306,-6.16656 8.921753,-15.00364 11.885083,-22.3132 2.15547,1.27 7.34483,4.92478 14.63322,13.92767 z" />
      <path
         id="path3800"
         style="opacity:1;fill:#000000;fill-opacity:1;fill-rule:nonzero;stroke:none;stroke-width:0.35269;stroke-miterlimit:4;stroke-dasharray:none"
         d="m 44.012079,-85.511974 c 0,-3.49603 5.41161,-3.49603 5.41161,0 0,3.49603 -5.41161,3.49603 -5.41161,0" />
      <path
         id="path3802"
         style="opacity:1;fill:#26110b;fill-opacity:1;fill-rule:nonzero;stroke:none;stroke-width:0.35269;stroke-miterlimit:4;stroke-dasharray:none"
         d="m 42.096429,-68.307004 -0.44803,0.13053 c -7.28839,-9.00289 -12.47775,-12.65767 -14.63322,-13.92767 1.92969,-4.75544 3.36903,-8.8653 4.18042,-11.16894 1.54516,5.11881 5.46452,15.56103 10.90083,24.96608" />
      <path
         id="path3804"
         style="opacity:1;fill:#ba701e;fill-opacity:1;fill-rule:nonzero;stroke:none;stroke-width:0.35269;stroke-miterlimit:4;stroke-dasharray:none"
         d="m 12.145633,-90.334414 c -1.25589,-2.50825 -2.5082502,-2.50825 -3.7641402,0 1.25589,2.50825 2.5082502,2.50825 3.7641402,0 m 4.349747,8.81945 c 0,-3.19264 -4.938887,-3.19264 -4.938887,0 0,3.19264 4.938887,3.19264 4.938887,0 m 6.586363,-7.40834 c 0,-3.49602 -5.408084,-3.49602 -5.408084,0 0,3.49956 5.408084,3.49956 5.408084,0 m 8.396106,-5.63033 -0.28222,1.28058 c -0.81139,2.30364 -2.25072,6.4135 -4.18042,11.16895 -2.96333,7.30955 -7.083773,16.14664 -11.885079,22.31319 -4.755444,6.11364 -10.1811642,9.60614 -15.80091419,6.38881 -23.78780681,-13.62781 6.58283299,-44.29478 19.31811019,-53.922076 2.187221,4.25802 5.161137,8.230296 6.596943,9.599076 1.93322,1.84503 4.04636,2.82928 6.23358,3.17147" />
      <path
         id="path3806"
         style="opacity:1;fill:#000000;fill-opacity:1;fill-rule:nonzero;stroke:none;stroke-width:0.35269;stroke-miterlimit:4;stroke-dasharray:none"
         d="m 17.673622,-88.923304 c 0,-3.49602 5.408084,-3.49602 5.408084,0 0,3.49956 -5.408084,3.49956 -5.408084,0" />
      <path
         id="path3808"
         style="opacity:1;fill:#000000;fill-opacity:1;fill-rule:nonzero;stroke:none;stroke-width:0.35269;stroke-miterlimit:4;stroke-dasharray:none"
         d="m 11.556527,-81.514964 c 0,-3.19264 4.93889,-3.19264 4.93889,0 0,3.19264 -4.93889,3.19264 -4.93889,0" />
      <path
         id="path3810"
         style="opacity:1;fill:#000000;fill-opacity:1;fill-rule:nonzero;stroke:none;stroke-width:0.35269;stroke-miterlimit:4;stroke-dasharray:none"
         d="m 11.263686,-177.41058 c 6.194777,2.77636 4.600223,8.77005 -0.09525,15.26117 -6.0078032,0.92427 -11.94858319,2.26836 -17.7835272,4.06399 5.037667,-11.27124 11.168944,-22.33436 17.8787772,-19.32516" />
      <path
         id="path3812"
         style="opacity:1;fill:#000000;fill-opacity:1;fill-rule:nonzero;stroke:none;stroke-width:0.35269;stroke-miterlimit:4;stroke-dasharray:none"
         d="m 8.3815268,-90.334414 c 1.25589,-2.50825 2.5082502,-2.50825 3.7641402,0 -1.25589,2.50825 -2.5082502,2.50825 -3.7641402,0" />
      <path
         id="path3814"
         style="opacity:1;fill:#000000;fill-opacity:1;fill-rule:nonzero;stroke:none;stroke-width:0.35269;stroke-miterlimit:4;stroke-dasharray:none"
         d="m -6.6151622,-158.08549 c 5.83494601,-1.79564 11.775723,-3.13972 17.7835302,-4.064 -7.3660002,10.19528 -22.380224,21.6147 -26.89225,23.72078 2.31775,-3.03036 5.418666,-11.39825 9.1087198,-19.65678" />
      <path
         id="path3816"
         style="opacity:1;fill:#000000;fill-opacity:1;fill-rule:nonzero;stroke:none;stroke-width:0.35269;stroke-miterlimit:4;stroke-dasharray:none"
         d="m -9.7265912,-129.25641 c 0,-11.38062 17.63889,-11.38062 17.63889,0 0,11.38061 -17.63889,11.38061 -17.63889,0" />
      <path
         id="path3818"
         style="opacity:1;fill:#26110b;fill-opacity:1;fill-rule:nonzero;stroke:none;stroke-width:0.35269;stroke-miterlimit:4;stroke-dasharray:none"
         d="m -12.016189,-156.28629 v 0.004 c -7.020277,2.57528 -14.298083,12.37898 -20.369387,22.32731 -1.98614,-3.64066 -4.406196,-6.90739 -7.087306,-9.56733 l 1.171223,-0.19756 c 0,0 12.7,-9.87778 26.105553,-13.05278 z" />
      <path
         id="path3822"
         style="opacity:1;fill:#995919;fill-opacity:1;fill-rule:nonzero;stroke:none;stroke-width:0.35269;stroke-miterlimit:4;stroke-dasharray:none"
         d="m -39.472742,-143.52271 c 2.681113,2.65994 5.101166,5.92667 7.087306,9.56733 -4.543777,7.44714 -8.417277,14.97189 -11.00314,19.60386 -3.33022,5.96547 -6.399387,12.07206 -9.22161,18.291526 -8.279694,-13.102166 -27.449638,-20.782136 -18.513777,-40.636466 5.930194,-13.17273 14.612055,-16.02317 22.718887,-12.88345 3.12914,1.21356 6.170084,3.31258 8.932334,6.0572" />
      <path
         id="path3828"
         style="opacity:1;fill:#5b3618;fill-opacity:1;fill-rule:nonzero;stroke:none;stroke-width:0.35269;stroke-miterlimit:4;stroke-dasharray:none"
         d="m 159.58882,-75.904984 c -0.60015,-0.2315 -1.20036,-0.46281 -1.8004,-0.69452 0.66308,-1.81719 1.28467,-3.64934 1.87688,-5.49081 -1.28725,0.83856 -2.67942,1.5409 -4.1589,1.96579 -0.87436,0.26091 -1.77839,0.40855 -2.68746,0.47297 -0.74129,0.0247 -1.48403,0.0194 -2.21731,-0.10422 -0.70076,-0.0849 -1.383,-0.29107 -2.04911,-0.51851 -0.70683,-0.2764 -1.38931,-0.61253 -2.01309,-1.04722 -1.62303,-1.10603 -2.87426,-2.76098 -3.48509,-4.62971 -0.58667,-1.81991 -0.60308,-3.7991 -0.12644,-5.64575 0.65938,-2.5871 2.16725,-4.88153 3.96639,-6.82202 1.80206,-1.949866 3.91329,-3.603446 6.20614,-4.938176 0.76492,-0.46987 1.57007,-0.872 2.36586,-1.28658 2.45696,-1.22266 5.03707,-2.22769 7.73116,-2.78197 3.26941,-0.6876 6.73749,-0.82617 9.95779,0.18016 2.47611,0.77068 4.8229,2.26254 6.20776,4.50053 1.07816,1.71679 1.60334,3.773236 1.44903,5.796976 -0.15621,2.63137 -1.17365,5.14717 -2.56448,7.36135 -1.41538,2.23685 -3.18512,4.23778 -5.1296,6.0241 -0.39994,0.2032 -0.79989,0.40644 -1.19983,0.60964 0.16422,-0.45332 0.2782,-0.93183 0.47329,-1.36963 1.05649,-1.49578 2.12432,-3.00002 2.96248,-4.641 1.29911,-2.41565 2.30043,-5.04405 2.2321,-7.82486 -0.0354,-1.56273 -0.61299,-3.12699 -1.71094,-4.255376 -1.31272,-1.34698 -3.18597,-1.98088 -5.01526,-2.21245 -3.04807,-0.35016 -6.12179,0.32851 -8.9595,1.41577 -1.51998,0.60801 -2.99378,1.33855 -4.39381,2.186476 -0.73092,0.43967 -1.43849,0.91059 -2.12369,1.41866 -1.51783,1.11185 -2.93522,2.39621 -4.04082,3.9267 -0.81277,1.17821 -1.44036,2.54558 -1.5076,3.98773 -0.0431,0.83855 0.14774,1.72946 0.73777,2.35719 0.6127,0.65948 1.5368,0.89761 2.40178,0.9797 0.88822,0.0722 1.78075,-0.0148 2.65444,-0.18366 0.32487,-0.0602 0.73995,-0.16457 1.09428,-0.2625 1.21437,-0.3393 2.37829,-0.84211 3.48449,-1.44321 0.71889,-0.42185 1.43676,-0.84092 2.10277,-1.35379 2.13878,-1.5253 4.26445,-3.07103 6.41173,-4.58403 0.48052,-0.29965 0.96104,-0.59926 1.44156,-0.89891 -0.43314,0.91595 -0.85591,1.8373 -1.37541,2.70866 -1.69051,3.03319 -3.40617,6.05311 -5.00027,9.13871 -0.54525,1.01928 -1.05671,2.05521 -1.52605,3.11168 -0.75868,1.66465 -1.49204,3.34073 -2.1924,5.03079 -0.16006,-0.0616 -0.32015,-0.12312 -0.48024,-0.18468 z m -1.53032,-24.263806 c -0.14975,-0.2315 -0.29947,-0.46302 -0.44922,-0.69452 -0.18168,0.28159 -0.36337,0.56314 -0.54501,0.84473 0.3314,-0.0501 0.66283,-0.10012 0.99423,-0.15021 z" />
      <path
         id="path3830"
         style="opacity:1;fill:#26110b;fill-opacity:1;fill-rule:nonzero;stroke:none;stroke-width:0.35269;stroke-miterlimit:4;stroke-dasharray:none"
         d="m -1.3309042,-120.19994 c -2.595208,-0.0964 -5.212185,-1.17351 -6.906717,-3.18191 -1.426599,-1.66261 -2.0688298,-3.88966 -2.0158418,-6.05783 0.01447,-2.17932 0.7652438,-4.38993 2.2788368,-5.98618 1.888985,-2.02826 4.729975,-2.9934 7.46580101,-2.88753 2.60872099,0.0896 5.24248899,1.1719 6.94178599,3.19413 1.428467,1.67023 2.064983,3.90691 2.005753,6.08139 -0.02188,2.16768 -0.773149,4.36334 -2.27838,5.95091 -1.895406,2.03704 -4.747048,2.99667 -7.491238,2.88702 z" />
      <path
         id="path3832"
         style="opacity:1;fill:#26110b;fill-opacity:1;fill-rule:nonzero;stroke:none;stroke-width:0.35269;stroke-miterlimit:4;stroke-dasharray:none"
         d="m 32.719069,-93.898694 c -2.3833,-0.0977 -4.72031,-0.95219 -6.6137,-2.40101 -1.64427,-1.21313 -2.875565,-2.87091 -4.07099,-4.504086 -1.99926,-2.81686 -3.785447,-5.80489 -5.116687,-8.99802 -0.799325,-1.9824 -1.475706,-4.08016 -1.433089,-6.24128 0.03104,-1.35512 0.48909,-2.76831 1.539168,-3.6764 1.927543,-1.651 4.372187,-2.55263 6.816408,-3.11541 3.75073,-0.83439 7.63958,-0.90541 11.45272,-0.53009 3.95577,0.40856 7.891,1.30697 11.52793,2.94079 2.34855,1.08053 4.62848,2.49312 6.24695,4.54706 1.17673,1.48033 1.87251,3.3782 1.72816,5.28084 -0.15353,2.28134 -1.31142,4.35998 -2.71974,6.10866 -1.4023,1.72551 -3.06642,3.21889 -4.78378,4.622836 -2.73984,2.19579 -5.78227,4.08834 -9.13909,5.17461 -1.75045,0.56053 -3.59273,0.8762 -5.43426,0.7915 z" />
      <path
         id="path3834"
         style="opacity:1;fill:#26110b;fill-opacity:1;fill-rule:nonzero;stroke:none;stroke-width:0.35269;stroke-miterlimit:4;stroke-dasharray:none"
         d="m 92.778109,-112.85362 c -2.90135,-0.1119 -5.8219,-1.23628 -7.83784,-3.36659 -1.68744,-1.75208 -2.61081,-4.14973 -2.74126,-6.56245 -0.16807,-2.51918 0.39987,-5.14466 1.90112,-7.20774 1.63371,-2.28703 4.26271,-3.74089 7.00898,-4.20127 3.29421,-0.57125 6.87254,0.16182 9.511601,2.26424 1.89099,1.48515 3.16216,3.69644 3.57569,6.05818 0.46111,2.62572 0.15627,5.45306 -1.18336,7.78951 -1.3534,2.39836 -3.768901,4.09346 -6.409311,4.79241 -1.24234,0.34184 -2.53876,0.48056 -3.82562,0.43371 z" />
      <path
         id="path3836"
         style="opacity:1;fill:#26110b;fill-opacity:1;fill-rule:nonzero;stroke:none;stroke-width:0.35269;stroke-miterlimit:4;stroke-dasharray:none"
         d="m 10.229483,-87.924234 c -0.8723842,-0.0314 -1.4899562,-0.76577 -1.9178752,-1.45104 -0.195368,-0.30826 -0.35814,-0.63521 -0.525393,-0.95914 0.445312,-0.85664 0.921562,-1.81211 1.826471,-2.26112 0.6590252,-0.33391 1.4562332,-0.0623 1.9393962,0.45102 0.51929,0.51241 0.861835,1.16667 1.189567,1.8101 -0.438222,0.84988 -0.909918,1.78891 -1.794896,2.24896 -0.223097,0.10813 -0.469125,0.1674 -0.71727,0.16122 z" />
      <path
         id="path3838"
         style="opacity:1;fill:#26110b;fill-opacity:1;fill-rule:nonzero;stroke:none;stroke-width:0.35269;stroke-miterlimit:4;stroke-dasharray:none"
         d="m 14.005968,-78.590794 c -1.157816,0.012 -2.345301,-0.66085 -2.765671,-1.76995 -0.467288,-1.18333 -0.170743,-2.70193 0.891683,-3.46823 1.316001,-0.9954 3.453093,-0.75601 4.401394,0.63493 0.818621,1.21091 0.61895,3.065 -0.571958,3.96663 -0.553648,0.42947 -1.258887,0.63973 -1.955448,0.63662 z" />
      <path
         id="path3840"
         style="opacity:1;fill:#26110b;fill-opacity:1;fill-rule:nonzero;stroke:none;stroke-width:0.35269;stroke-miterlimit:4;stroke-dasharray:none"
         d="m 20.355968,-85.771054 c -1.22174,0.0116 -2.475793,-0.67638 -2.952924,-1.83225 -0.537142,-1.26754 -0.250579,-2.91899 0.877604,-3.77497 1.395129,-1.09968 3.695454,-0.88474 4.754597,0.58141 0.756391,1.05819 0.770432,2.59313 0.05338,3.67464 -0.598241,0.8921 -1.676895,1.362 -2.732654,1.35117 z" />
      <path
         id="path3842"
         style="opacity:1;fill:#26110b;fill-opacity:1;fill-rule:nonzero;stroke:none;stroke-width:0.35269;stroke-miterlimit:4;stroke-dasharray:none"
         d="m 46.696509,-82.361104 c -1.22167,0.0113 -2.47586,-0.67635 -2.95296,-1.83226 -0.53714,-1.26753 -0.25058,-2.91899 0.87761,-3.77496 1.39516,-1.09926 3.6958,-0.88513 4.75459,0.58141 0.7861,1.1007 0.77311,2.71988 -0.0389,3.80351 -0.61282,0.8116 -1.63862,1.23137 -2.6403,1.2223 z" />
      <path
         id="path3844"
         style="opacity:1;fill:#26110b;fill-opacity:1;fill-rule:nonzero;stroke:none;stroke-width:0.35269;stroke-miterlimit:4;stroke-dasharray:none"
         d="m 53.055429,-77.103864 c -0.79565,-0.004 -1.72716,-0.15025 -2.2014,-0.8654 -0.45826,-0.71526 -0.16556,-1.63227 0.28974,-2.27161 0.57284,-0.80088 1.42413,-1.50689 2.4367,-1.60069 0.70055,-0.0641 1.35361,0.42714 1.56972,1.08168 0.19319,0.50187 0.21171,1.04659 0.21555,1.57794 -0.69511,0.69395 -1.38962,1.3885 -2.08361,2.08358 -0.0756,-0.004 -0.15113,-0.004 -0.2267,-0.006 z" />
      <path
         id="path3846"
         style="opacity:1;fill:#26110b;fill-opacity:1;fill-rule:nonzero;stroke:none;stroke-width:0.35269;stroke-miterlimit:4;stroke-dasharray:none"
         d="m 54.928899,-86.351904 c -1.15725,0.012 -2.34411,-0.65969 -2.7655,-1.7677 -0.46799,-1.18374 -0.17229,-2.7034 0.8908,-3.47048 1.31625,-0.99487 3.45345,-0.7565 4.4014,0.63493 0.82211,1.21436 0.61736,3.07714 -0.58297,3.97488 -0.55128,0.42415 -1.25239,0.63116 -1.94373,0.62837 z" />
      <path
         id="path3848"
         style="opacity:1;fill:#26110b;fill-opacity:1;fill-rule:nonzero;stroke:none;stroke-width:0.35269;stroke-miterlimit:4;stroke-dasharray:none"
         d="m -16.151698,-138.7394 c 0.4445,-0.5896 0.839825,-1.25635 1.178772,-1.86905 1.472213,-2.71219 2.654689,-5.56797 3.875405,-8.39869 2.6104848,-6.11075 5.1238148,-12.28192 8.3148668,-18.12053 1.537618,-2.76067 3.20505701,-5.4858 5.359472,-7.81439 1.364826,-1.44861 2.981076,-2.78951 4.943014,-3.30492 1.428893,-0.38894 2.9812192,-0.16986 4.2884732,0.50821 1.560724,0.74507 2.987463,1.95548 3.616431,3.60564 0.703826,1.77715 0.448767,3.77063 -0.134761,5.54302 -0.884414,2.62473 -2.389859,4.9881 -4.025654,7.20347 -2.7299332,3.66092 -5.9161172,6.95621 -9.2381202,10.07967 -3.903416,3.63735 -8.024177,7.04766 -12.3703998,10.14451 -1.657914,1.15592 -3.329057,2.31451 -5.14671,3.20855 -0.59831,0.27976 -1.196623,0.55948 -1.794899,0.83923 0.378037,-0.54155 0.756074,-1.08314 1.13411,-1.62472 z" />
      <path
         id="path3850"
         style="opacity:1;fill:#5b3618;fill-opacity:1;fill-rule:nonzero;stroke:none;stroke-width:0.35269;stroke-miterlimit:4;stroke-dasharray:none"
         d="m -48.824985,-119.3435 c -0.251249,-3.40321 -1.177926,-6.79559 -2.962558,-9.72192 -0.415078,-0.67811 -0.930628,-1.39993 -1.476763,-2.02953 -1.014483,-1.14952 -2.21869,-2.21139 -3.684834,-2.72835 -0.457094,-0.12834 -0.942693,-0.0816 -1.412558,-0.0909 -1.028488,0.0608 -1.802447,0.90283 -2.215444,1.78322 -0.646113,1.32158 -0.854957,2.85852 -0.938883,4.2774 -0.110913,2.57799 0.208845,5.14829 0.687635,7.67496 -0.05235,0.45751 -0.104705,0.91503 -0.157093,1.37251 -0.287831,-0.38696 -0.624381,-0.74595 -0.882261,-1.15016 -1.228373,-3.08296 -2.234883,-6.31641 -2.361671,-9.65549 -0.07123,-2.07458 0.271286,-4.25662 1.465368,-5.99997 1.011555,-1.49296 2.678783,-2.50388 4.465955,-2.73023 0.959767,-0.14093 1.923909,0.0763 2.871152,0.21481 2.493786,0.49971 4.736395,1.85773 6.645733,3.49917 3.485621,3.03304 5.952738,7.09641 7.537204,11.40552 0.346003,0.93772 0.629991,1.89646 0.913942,2.85436 -2.814426,0.53555 -5.628889,1.07082 -8.443243,1.6068 -0.01728,-0.19407 -0.03457,-0.38817 -0.05168,-0.58223 z" />
      <path
         id="path3966"
         style="opacity:1;fill:#26110b;fill-opacity:1;fill-rule:nonzero;stroke:none;stroke-width:0.35269;stroke-miterlimit:4;stroke-dasharray:none"
         d="m 111.73783,-127.72818 c -1.90369,-1.007 -3.59181,-2.36647 -5.24302,-3.73637 -3.73059,-3.16636 -7.164391,-6.67386 -10.354521,-10.38131 -3.03622,-3.55705 -5.86676,-7.31685 -8.14839,-11.40752 -1.42385,-2.60142 -2.67071,-5.35834 -3.16015,-8.30337 -0.3387,-2.05514 -0.21632,-4.27806 0.83852,-6.11939 0.98622,-1.75775 2.72796,-2.96065 4.58026,-3.66688 1.10348,-0.41769 2.25329,-0.72792 3.42201,-0.89125 1.32768,-0.11639 2.54949,0.62367 3.47807,1.50579 1.59392,1.53903 2.70912,3.48799 3.726891,5.43532 1.99323,3.94437 3.4841,8.11798 4.85972,12.31043 2.35673,7.2644 4.22494,14.6739 6.08161,22.07825 0.30815,1.25123 0.65006,2.49368 0.99526,3.7351 -0.35878,-0.18627 -0.71752,-0.37253 -1.07626,-0.5588 z" />
      <path
         id="path3972"
         style="opacity:1;fill:#5b3618;fill-opacity:1;fill-rule:nonzero;stroke:none;stroke-width:0.35269;stroke-miterlimit:4;stroke-dasharray:none"
         d="m 37.473279,-58.880704 c -2.60633,-0.35687 -5.1036,-1.21709 -7.65359,-1.82461 -0.67444,-0.158 -1.36317,-0.2402 -2.03383,-0.4101 -1.06472,-0.24832 -2.13191,0.16806 -3.12265,0.52215 -0.37715,0.13941 -0.747325,0.29668 -1.120528,0.44615 -0.514773,-0.83266 -0.726194,-1.83321 -0.621276,-2.8043 0.144921,-1.56647 1.072584,-3.00531 2.373484,-3.8706 0.97833,-0.66122 2.15022,-1.00422 3.3262,-1.04927 0.77537,-0.0155 1.55251,0.082 2.29793,0.29986 1.94317,0.53146 3.69206,1.69573 4.98111,3.23797 1.13313,1.36652 1.96886,3.03322 2.16779,4.81129 0.0162,0.24342 0.0321,0.4869 0.0482,0.73036 -0.21427,-0.0296 -0.42859,-0.0593 -0.64286,-0.0889 z" />
      <path
         id="path4020"
         style="opacity:1;fill:#5b3618;fill-opacity:1;fill-rule:nonzero;stroke:none;stroke-width:0.35269;stroke-miterlimit:4;stroke-dasharray:none"
         d="m 161.36717,-68.377454 c -0.13984,-0.69017 -0.28025,-1.3802 -0.41959,-2.07049 2.1935,-0.67316 4.37356,-1.39463 6.50638,-2.24274 1.28637,-0.51245 2.61737,-1.08063 3.88836,-1.68829 2.7275,-1.30193 5.35774,-2.79189 7.81536,-4.55376 1.54962,-1.10392 3.02271,-2.31934 4.38034,-3.65274 1.04366,-1.02764 2.02191,-2.1246 2.89772,-3.29942 0.57104,-0.77833 1.10691,-1.59032 1.59081,-2.4305 0.38111,-0.68622 0.74052,-1.38306 1.04084,-2.10869 0.27464,-0.61793 0.48779,-1.26284 0.70321,-1.90299 0.28739,-0.92985 0.49739,-1.88115 0.6463,-2.84289 0.031,-0.19431 0.0594,-0.50176 0.0826,-0.7426 0.10795,-1.0177 0.14589,-2.09353 0.10276,-3.0842 -0.0251,-0.50581 -0.0656,-0.97945 -0.12938,-1.441726 -0.0809,-0.8485 -0.26262,-1.68353 -0.42836,-2.51852 -0.175,-0.67913 -0.32729,-1.34927 -0.53372,-1.99658 -0.2531,-0.7742 -0.49723,-1.55106 -0.82417,-2.29859 -0.36365,-0.98746 -0.84636,-1.91453 -1.29174,-2.87133 -0.81502,-1.472 -1.6902,-2.92587 -2.81605,-4.1844 -0.49438,-0.60801 -1.07978,-1.13715 -1.64733,-1.67365 -0.62788,-0.49879 -1.24792,-1.01187 -1.94755,-1.40917 -0.57541,-0.37557 -1.2041,-0.66037 -1.82202,-0.95734 -0.67081,-0.26165 -1.33943,-0.53019 -2.0434,-0.69006 -1.62362,-0.41861 -3.30105,-0.62735 -4.97819,-0.59592 -1.40179,0.0229 -2.80193,0.15893 -4.18514,0.38781 -1.80255,0.29983 -3.57318,0.76846 -5.31883,1.30352 -4.72659,1.52587 -9.25156,3.73306 -13.56233,6.2201 -3.59131,2.07638 -7.03167,4.40359 -10.37625,6.85472 -0.43833,-0.50606 -0.87694,-1.01191 -1.31534,-1.5179 1.60818,-1.69361 3.27971,-3.32792 5.0479,-4.85474 3.29332,-2.90721 6.85522,-5.51248 10.62292,-7.77166 4.02262,-2.39977 8.31638,-4.40394 12.86146,-5.58437 1.30419,-0.33309 2.62573,-0.6012 3.95944,-0.78334 0.97402,-0.11427 1.95002,-0.21372 2.9312,-0.23386 2.42167,-0.0874 4.85429,0.23386 7.18262,0.8969 0.9253,0.31387 1.8615,0.60519 2.73597,1.048 0.89129,0.37013 1.70854,0.88776 2.52808,1.39153 0.73328,0.49862 1.44402,1.03367 2.12996,1.59445 0.84071,0.77294 1.69199,1.54072 2.41793,2.42655 1.39962,1.57995 2.51153,3.38963 3.52663,5.23257 0.51313,1.07347 1.08156,2.12277 1.48601,3.24436 0.4519,1.07125 0.80745,2.17872 1.14966,3.28884 0.34206,1.23536 0.66445,2.47929 0.84458,3.75038 0.17082,0.94453 0.24281,1.87854 0.31329,2.833546 0.1523,2.61761 -0.11181,5.25836 -0.77472,7.79501 -0.20585,0.7639 -0.44503,1.52114 -0.71144,2.26628 -0.34534,0.8794 -0.7025,1.75532 -1.14795,2.58914 -0.40923,0.85549 -0.91622,1.65982 -1.41422,2.46497 -0.52592,0.78232 -1.06236,1.55776 -1.66966,2.27979 -0.61375,0.77674 -1.28566,1.50657 -1.97329,2.2178 -2.94513,2.99456 -6.46356,5.38184 -10.20226,7.27291 -3.73222,1.86496 -7.70361,3.23832 -11.77657,4.13656 -1.92677,0.44598 -3.88409,0.73974 -5.84708,0.97085 -0.24423,0.10477 -0.15791,-0.32625 -0.23573,-0.46412 z" />
    </g>
    <g
       id="g6722">
      <path
         sodipodi:nodetypes="csccccccccccscccccccccccccccccccccccccccccc"
         d="m 7.9122988,-129.25641 c 0,-11.38062 -17.63889,-11.38062 -17.63889,0 0,11.38061 17.63889,11.38061 17.63889,0 m 64.5583302,76.157656 c 13.22564,-11.13366 -11.98386,-42.75314 -19.93194,-52.906076 9.90247,-14.88722 -25.10367,-21.87222 -35.101392,-13.37381 -2.667,2.26837 -1.210027,7.33778 1.210029,12.05442 -12.7352772,9.627306 -43.105917,40.294276 -19.31811019,53.922076 5.61974999,3.21734 11.04547019,-0.27516 15.80091419,-6.3888 -4.99886,15.81502 26.610029,14.859 40.258999,7.49652 5.30225,3.61598 11.1125,4.21923 17.0815,-0.80433 m 31.397221,-70.513216 c 0,-13.6525 -21.166671,-13.6525 -21.166671,0 0,13.6525 21.166671,13.6525 21.166671,0 m 146.05001,318.91109 -1.03013,1.74273 c -139.15871,-7.15692 -163.442939,7.70724 -282.943892,-4.98524 -30.374167,4.318 -45.632812,-17.06991 -41.989121,-206.275724 l -0.0035,-0.03175 c 2.130778,-17.80469 6.536972,-35.46122 12.089694,-52.48275 3.252611,-9.96244 7.009694,-19.77672 11.348861,-29.32641 2.822222,-6.219476 5.891389,-12.326056 9.221612,-18.291526 2.58586,-4.63197 6.45936,-12.15672 11.003137,-19.60386 6.071306,-9.94834 13.34911,-19.75203 20.36939,-22.32731 v -0.003 c 0.02822,-0.007 0.05292,-0.0177 0.08114,-0.0282 1.763889,-0.635 3.5383628,-1.22414 5.3198888,-1.77095 -3.6900558,8.25853 -6.7909728,16.62642 -9.1087228,19.65678 4.51203,-2.10608 19.5262498,-13.5255 26.89225,-23.72078 25.55522,-3.937 52.30636,-0.29633 77.22305,8.53017 5.95842,10.84792 18.605503,22.91292 23.590253,25.42117 -0.73731,-2.58586 -2.38125,-9.74725 -4.59669,-17.52953 16.62288,7.94103 31.95813,18.1222 44.97916,29.71095 4.40972,-2.52942 9.10167,-4.61434 13.70542,-5.72911 10.13883,-2.45886 19.86491,-0.22931 25.2871,12.24491 7.07321,16.263056 -1.5381,28.105806 -14.33688,34.857966 l 0.22578,0.41981 c 0,0 21.44889,35.35539 41.18681,96.80222 6.93208,21.57587 13.64895,46.36558 19.15583,73.9775 0.70554,3.538354 1.39346,7.119044 2.05317,10.749124 0.31395,1.70392 0.62087,3.41842 0.92075,5.1435 2.81162,16.06198 5.18229,32.98473 6.93208,50.70123 1.03717,10.44575 1.85561,21.16667 2.42359,32.14862"
         style="opacity:1;fill:#995919;fill-opacity:1;fill-rule:nonzero;stroke:none;stroke-width:0.35269;stroke-miterlimit:4;stroke-dasharray:none"
         id="path6648" />
      <path
         d="m 55.890069,-174.05919 c -3.04094,-14.46036 -2.73755,-13.87828 9.26748,-22.6307 -14.44625,-3.13972 -15.33525,-3.05858 -21.38892,-16.59819 -8.26558,12.31547 -9.12989,12.08264 -23.900693,12.72469 10.445753,10.76678 10.805583,10.08945 4.624913,23.68198 15.03892,-4.16278 17.47661,-4.11692 31.39722,2.82222 m 110.066671,51.85833 0.11289,0.45509 c -4.60375,1.11477 -9.2957,3.19969 -13.70542,5.72911 -13.02103,-11.58875 -28.35628,-21.76992 -44.97916,-29.71095 -3.59834,-12.62944 -8.710091,-26.8993 -13.941781,-25.94328 -10.27995,1.87325 -9.69786,9.59203 -5.05178,18.05164 -24.91669,-8.8265 -51.66783,-12.46716 -77.223053,-8.53016 4.695473,-6.49112 6.290027,-12.48481 0.09525,-15.26117 -6.7098332,-3.0092 -12.8411102,8.05392 -17.8787772,19.32516 -1.781526,0.54681 -3.5559998,1.13595 -5.3198888,1.77095 -0.02822,0.0106 -0.05292,0.0212 -0.08114,0.0282 l -0.179914,-0.48683 c -13.405557,3.175 -26.105557,13.05278 -26.105557,13.05278 l -1.17122,0.19755 c -2.76225,-2.74461 -5.803196,-4.84364 -8.932333,-6.05719 l 3.753553,-0.13759 c 14.24164,-13.25033 19.57564,-24.86377 30.1625,-41.13741 19.7943608,-30.4412 45.90344,-47.86489 83.25908,-46.97589 31.06208,0.74083 62.536921,16.84161 77.836891,43.70917 3.175,5.57388 5.6515,11.61344 7.28486,18.07633 2.9598,11.71575 3.82411,24.04533 2.96333,36.08916 -0.52564,7.32367 4.87186,11.80042 9.10167,17.75531"
         style="opacity:1;fill:#f2ae40;fill-opacity:1;fill-rule:nonzero;stroke:none;stroke-width:0.35269;stroke-miterlimit:4;stroke-dasharray:none"
         id="path6650" />
      <path
         d="m 107.38512,-145.72758 c 2.21544,7.78228 3.85939,14.94367 4.59669,17.52954 -4.98475,-2.50825 -17.631831,-14.57326 -23.590251,-25.42117 6.47347,2.29305 12.819951,4.93536 18.993561,7.89163"
         style="opacity:1;fill:#000000;fill-opacity:1;fill-rule:nonzero;stroke:none;stroke-width:0.35269;stroke-miterlimit:4;stroke-dasharray:none"
         id="path6652" />
      <path
         d="m 107.38512,-145.72758 c -6.17361,-2.95627 -12.520091,-5.59858 -18.993561,-7.89163 -4.64608,-8.45961 -5.22816,-16.17839 5.05178,-18.05164 5.23169,-0.95603 10.343441,13.31383 13.941781,25.94327"
         style="opacity:1;fill:#000000;fill-opacity:1;fill-rule:nonzero;stroke:none;stroke-width:0.35269;stroke-miterlimit:4;stroke-dasharray:none"
         id="path6654" />
      <path
         d="m 82.701179,-123.61197 c 0,-13.6525 21.166671,-13.6525 21.166671,0 0,13.6525 -21.166671,13.6525 -21.166671,0"
         style="opacity:1;fill:#000000;fill-opacity:1;fill-rule:nonzero;stroke:none;stroke-width:0.35269;stroke-miterlimit:4;stroke-dasharray:none"
         id="path6656" />
      <path
         d="m 49.423619,-85.511974 c 0,-3.49603 -5.41161,-3.49603 -5.41161,0 0,3.49603 5.41161,3.49603 5.41161,0 m 3.6442,7.87753 c 0.58914,-0.58561 1.17475,-1.17475 1.76389,-1.76389 0,-5.17172 -6.93914,1.76389 -1.76389,1.76389 m 4.34975,-11.64167 c 0,-3.19264 -4.93889,-3.19264 -4.93889,0 0,3.19264 4.93889,3.19264 4.93889,0 m -4.87892,-16.728716 c 7.94808,10.152936 33.15758,41.772416 19.93195,52.906076 -5.969,5.02356 -11.77925,4.42031 -17.0815,0.80433 -4.9777,-3.40077 -9.50736,-9.45444 -13.29267,-16.01258 -5.43631,-9.40505 -9.35567,-19.84727 -10.90083,-24.96608 l 0.28222,-1.28058 c 6.5793,1.03011 13.7795,-3.76061 18.49261,-8.403166 1.06539,-1.04775 1.91558,-2.06375 2.56822,-3.048"
         style="opacity:1;fill:#ba701e;fill-opacity:1;fill-rule:nonzero;stroke:none;stroke-width:0.35269;stroke-miterlimit:4;stroke-dasharray:none"
         id="path6658" />
      <path
         d="m 52.478749,-89.276074 c 0,-3.19264 4.93889,-3.19264 4.93889,0 0,3.19264 -4.93889,3.19264 -4.93889,0"
         style="opacity:1;fill:#000000;fill-opacity:1;fill-rule:nonzero;stroke:none;stroke-width:0.35269;stroke-miterlimit:4;stroke-dasharray:none"
         id="path6660" />
      <path
         d="m 54.831739,-79.398304 c -0.58914,0.58914 -1.17475,1.17828 -1.76389,1.76389 -5.17525,0 1.76389,-6.93561 1.76389,-1.76389"
         style="opacity:1;fill:#000000;fill-opacity:1;fill-rule:nonzero;stroke:none;stroke-width:0.35269;stroke-miterlimit:4;stroke-dasharray:none"
         id="path6662" />
      <path
         d="m 65.157549,-196.68985 c -12.00503,8.75241 -12.30842,8.17033 -9.26748,22.63069 -13.92061,-6.93914 -16.3583,-6.985 -31.39722,-2.82222 6.18067,-13.59253 5.82084,-12.91519 -4.624913,-23.68197 14.770803,-0.64206 15.635113,-0.40922 23.900693,-12.7247 6.05367,13.53962 6.94267,13.45848 21.38892,16.5982"
         style="opacity:1;fill:#ffffff;fill-opacity:1;fill-rule:nonzero;stroke:none;stroke-width:0.35269;stroke-miterlimit:4;stroke-dasharray:none"
         id="path6664" />
      <path
         d="m 17.437297,-119.37864 c 9.997722,-8.49841 45.003862,-1.51341 35.101392,13.37381 -0.65264,0.98425 -1.50284,2.00025 -2.56823,3.048 -4.71311,4.642556 -11.9133,9.433276 -18.49261,8.403166 -2.18722,-0.3422 -4.30036,-1.32645 -6.23358,-3.17148 -1.435806,-1.36877 -4.409722,-5.341046 -6.596943,-9.599076 -2.420056,-4.71664 -3.877029,-9.78605 -1.210029,-12.05442"
         style="opacity:1;fill:#000000;fill-opacity:1;fill-rule:nonzero;stroke:none;stroke-width:0.35269;stroke-miterlimit:4;stroke-dasharray:none"
         id="path6666" />
      <path
         d="m 42.096429,-68.307004 c 3.78531,6.55814 8.31497,12.61181 13.29267,16.01258 -13.64898,7.36248 -45.257864,8.3185 -40.259003,-7.49652 4.801306,-6.16656 8.921753,-15.00364 11.885083,-22.3132 2.15547,1.27 7.34483,4.92478 14.63322,13.92767 z"
         style="opacity:1;fill:#995919;fill-opacity:1;fill-rule:nonzero;stroke:none;stroke-width:0.35269;stroke-miterlimit:4;stroke-dasharray:none"
         id="path6668" />
      <path
         d="m 44.012079,-85.511974 c 0,-3.49603 5.41161,-3.49603 5.41161,0 0,3.49603 -5.41161,3.49603 -5.41161,0"
         style="opacity:1;fill:#000000;fill-opacity:1;fill-rule:nonzero;stroke:none;stroke-width:0.35269;stroke-miterlimit:4;stroke-dasharray:none"
         id="path6670" />
      <path
         d="m 42.096429,-68.307004 -0.44803,0.13053 c -7.28839,-9.00289 -12.47775,-12.65767 -14.63322,-13.92767 1.92969,-4.75544 3.36903,-8.8653 4.18042,-11.16894 1.54516,5.11881 5.46452,15.56103 10.90083,24.96608"
         style="opacity:1;fill:#26110b;fill-opacity:1;fill-rule:nonzero;stroke:none;stroke-width:0.35269;stroke-miterlimit:4;stroke-dasharray:none"
         id="path6672" />
      <path
         d="m 12.145633,-90.334414 c -1.25589,-2.50825 -2.5082502,-2.50825 -3.7641402,0 1.25589,2.50825 2.5082502,2.50825 3.7641402,0 m 4.349747,8.81945 c 0,-3.19264 -4.938887,-3.19264 -4.938887,0 0,3.19264 4.938887,3.19264 4.938887,0 m 6.586363,-7.40834 c 0,-3.49602 -5.408084,-3.49602 -5.408084,0 0,3.49956 5.408084,3.49956 5.408084,0 m 8.396106,-5.63033 -0.28222,1.28058 c -0.81139,2.30364 -2.25072,6.4135 -4.18042,11.16895 -2.96333,7.30955 -7.083773,16.14664 -11.885079,22.31319 -4.755444,6.11364 -10.1811642,9.60614 -15.80091419,6.38881 -23.78780681,-13.62781 6.58283299,-44.29478 19.31811019,-53.922076 2.187221,4.25802 5.161137,8.230296 6.596943,9.599076 1.93322,1.84503 4.04636,2.82928 6.23358,3.17147"
         style="opacity:1;fill:#ba701e;fill-opacity:1;fill-rule:nonzero;stroke:none;stroke-width:0.35269;stroke-miterlimit:4;stroke-dasharray:none"
         id="path6674" />
      <path
         d="m 17.673622,-88.923304 c 0,-3.49602 5.408084,-3.49602 5.408084,0 0,3.49956 -5.408084,3.49956 -5.408084,0"
         style="opacity:1;fill:#000000;fill-opacity:1;fill-rule:nonzero;stroke:none;stroke-width:0.35269;stroke-miterlimit:4;stroke-dasharray:none"
         id="path6676" />
      <path
         d="m 11.556527,-81.514964 c 0,-3.19264 4.93889,-3.19264 4.93889,0 0,3.19264 -4.93889,3.19264 -4.93889,0"
         style="opacity:1;fill:#000000;fill-opacity:1;fill-rule:nonzero;stroke:none;stroke-width:0.35269;stroke-miterlimit:4;stroke-dasharray:none"
         id="path6678" />
      <path
         d="m 11.263686,-177.41058 c 6.194777,2.77636 4.600223,8.77005 -0.09525,15.26117 -6.0078032,0.92427 -11.94858319,2.26836 -17.7835272,4.06399 5.037667,-11.27124 11.168944,-22.33436 17.8787772,-19.32516"
         style="opacity:1;fill:#000000;fill-opacity:1;fill-rule:nonzero;stroke:none;stroke-width:0.35269;stroke-miterlimit:4;stroke-dasharray:none"
         id="path6680" />
      <path
         d="m 8.3815268,-90.334414 c 1.25589,-2.50825 2.5082502,-2.50825 3.7641402,0 -1.25589,2.50825 -2.5082502,2.50825 -3.7641402,0"
         style="opacity:1;fill:#000000;fill-opacity:1;fill-rule:nonzero;stroke:none;stroke-width:0.35269;stroke-miterlimit:4;stroke-dasharray:none"
         id="path6682" />
      <path
         d="m -6.6151622,-158.08549 c 5.83494601,-1.79564 11.775723,-3.13972 17.7835302,-4.064 -7.3660002,10.19528 -22.380224,21.6147 -26.89225,23.72078 2.31775,-3.03036 5.418666,-11.39825 9.1087198,-19.65678"
         style="opacity:1;fill:#000000;fill-opacity:1;fill-rule:nonzero;stroke:none;stroke-width:0.35269;stroke-miterlimit:4;stroke-dasharray:none"
         id="path6684" />
      <path
         d="m -9.7265912,-129.25641 c 0,-11.38062 17.63889,-11.38062 17.63889,0 0,11.38061 -17.63889,11.38061 -17.63889,0"
         style="opacity:1;fill:#000000;fill-opacity:1;fill-rule:nonzero;stroke:none;stroke-width:0.35269;stroke-miterlimit:4;stroke-dasharray:none"
         id="path6686" />
      <path
         d="m -12.016189,-156.28629 v 0.004 c -7.020277,2.57528 -14.298083,12.37898 -20.369387,22.32731 -1.98614,-3.64066 -4.406196,-6.90739 -7.087306,-9.56733 l 1.171223,-0.19756 c 0,0 12.7,-9.87778 26.105553,-13.05278 z"
         style="opacity:1;fill:#26110b;fill-opacity:1;fill-rule:nonzero;stroke:none;stroke-width:0.35269;stroke-miterlimit:4;stroke-dasharray:none"
         id="path6688" />
      <path
         d="m -39.472742,-143.52271 c 2.681113,2.65994 5.101166,5.92667 7.087306,9.56733 -4.543777,7.44714 -8.417277,14.97189 -11.00314,19.60386 -3.33022,5.96547 -6.399387,12.07206 -9.22161,18.291526 -8.279694,-13.102166 -27.449638,-20.782136 -18.513777,-40.636466 5.930194,-13.17273 14.612055,-16.02317 22.718887,-12.88345 3.12914,1.21356 6.170084,3.31258 8.932334,6.0572"
         style="opacity:1;fill:#995919;fill-opacity:1;fill-rule:nonzero;stroke:none;stroke-width:0.35269;stroke-miterlimit:4;stroke-dasharray:none"
         id="path6690" />
      <path
         d="m 159.58882,-75.904984 c -0.60015,-0.2315 -1.20036,-0.46281 -1.8004,-0.69452 0.66308,-1.81719 1.28467,-3.64934 1.87688,-5.49081 -1.28725,0.83856 -2.67942,1.5409 -4.1589,1.96579 -0.87436,0.26091 -1.77839,0.40855 -2.68746,0.47297 -0.74129,0.0247 -1.48403,0.0194 -2.21731,-0.10422 -0.70076,-0.0849 -1.383,-0.29107 -2.04911,-0.51851 -0.70683,-0.2764 -1.38931,-0.61253 -2.01309,-1.04722 -1.62303,-1.10603 -2.87426,-2.76098 -3.48509,-4.62971 -0.58667,-1.81991 -0.60308,-3.7991 -0.12644,-5.64575 0.65938,-2.5871 2.16725,-4.88153 3.96639,-6.82202 1.80206,-1.949866 3.91329,-3.603446 6.20614,-4.938176 0.76492,-0.46987 1.57007,-0.872 2.36586,-1.28658 2.45696,-1.22266 5.03707,-2.22769 7.73116,-2.78197 3.26941,-0.6876 6.73749,-0.82617 9.95779,0.18016 2.47611,0.77068 4.8229,2.26254 6.20776,4.50053 1.07816,1.71679 1.60334,3.773236 1.44903,5.796976 -0.15621,2.63137 -1.17365,5.14717 -2.56448,7.36135 -1.41538,2.23685 -3.18512,4.23778 -5.1296,6.0241 -0.39994,0.2032 -0.79989,0.40644 -1.19983,0.60964 0.16422,-0.45332 0.2782,-0.93183 0.47329,-1.36963 1.05649,-1.49578 2.12432,-3.00002 2.96248,-4.641 1.29911,-2.41565 2.30043,-5.04405 2.2321,-7.82486 -0.0354,-1.56273 -0.61299,-3.12699 -1.71094,-4.255376 -1.31272,-1.34698 -3.18597,-1.98088 -5.01526,-2.21245 -3.04807,-0.35016 -6.12179,0.32851 -8.9595,1.41577 -1.51998,0.60801 -2.99378,1.33855 -4.39381,2.186476 -0.73092,0.43967 -1.43849,0.91059 -2.12369,1.41866 -1.51783,1.11185 -2.93522,2.39621 -4.04082,3.9267 -0.81277,1.17821 -1.44036,2.54558 -1.5076,3.98773 -0.0431,0.83855 0.14774,1.72946 0.73777,2.35719 0.6127,0.65948 1.5368,0.89761 2.40178,0.9797 0.88822,0.0722 1.78075,-0.0148 2.65444,-0.18366 0.32487,-0.0602 0.73995,-0.16457 1.09428,-0.2625 1.21437,-0.3393 2.37829,-0.84211 3.48449,-1.44321 0.71889,-0.42185 1.43676,-0.84092 2.10277,-1.35379 2.13878,-1.5253 4.26445,-3.07103 6.41173,-4.58403 0.48052,-0.29965 0.96104,-0.59926 1.44156,-0.89891 -0.43314,0.91595 -0.85591,1.8373 -1.37541,2.70866 -1.69051,3.03319 -3.40617,6.05311 -5.00027,9.13871 -0.54525,1.01928 -1.05671,2.05521 -1.52605,3.11168 -0.75868,1.66465 -1.49204,3.34073 -2.1924,5.03079 -0.16006,-0.0616 -0.32015,-0.12312 -0.48024,-0.18468 z m -1.53032,-24.263806 c -0.14975,-0.2315 -0.29947,-0.46302 -0.44922,-0.69452 -0.18168,0.28159 -0.36337,0.56314 -0.54501,0.84473 0.3314,-0.0501 0.66283,-0.10012 0.99423,-0.15021 z"
         style="opacity:1;fill:#5b3618;fill-opacity:1;fill-rule:nonzero;stroke:none;stroke-width:0.35269;stroke-miterlimit:4;stroke-dasharray:none"
         id="path6692" />
      <path
         d="m -1.3309042,-120.19994 c -2.595208,-0.0964 -5.212185,-1.17351 -6.906717,-3.18191 -1.426599,-1.66261 -2.0688298,-3.88966 -2.0158418,-6.05783 0.01447,-2.17932 0.7652438,-4.38993 2.2788368,-5.98618 1.888985,-2.02826 4.729975,-2.9934 7.46580101,-2.88753 2.60872099,0.0896 5.24248899,1.1719 6.94178599,3.19413 1.428467,1.67023 2.064983,3.90691 2.005753,6.08139 -0.02188,2.16768 -0.773149,4.36334 -2.27838,5.95091 -1.895406,2.03704 -4.747048,2.99667 -7.491238,2.88702 z"
         style="opacity:1;fill:#26110b;fill-opacity:1;fill-rule:nonzero;stroke:none;stroke-width:0.35269;stroke-miterlimit:4;stroke-dasharray:none"
         id="path6694" />
      <path
         d="m 32.719069,-93.898694 c -2.3833,-0.0977 -4.72031,-0.95219 -6.6137,-2.40101 -1.64427,-1.21313 -2.875565,-2.87091 -4.07099,-4.504086 -1.99926,-2.81686 -3.785447,-5.80489 -5.116687,-8.99802 -0.799325,-1.9824 -1.475706,-4.08016 -1.433089,-6.24128 0.03104,-1.35512 0.48909,-2.76831 1.539168,-3.6764 1.927543,-1.651 4.372187,-2.55263 6.816408,-3.11541 3.75073,-0.83439 7.63958,-0.90541 11.45272,-0.53009 3.95577,0.40856 7.891,1.30697 11.52793,2.94079 2.34855,1.08053 4.62848,2.49312 6.24695,4.54706 1.17673,1.48033 1.87251,3.3782 1.72816,5.28084 -0.15353,2.28134 -1.31142,4.35998 -2.71974,6.10866 -1.4023,1.72551 -3.06642,3.21889 -4.78378,4.622836 -2.73984,2.19579 -5.78227,4.08834 -9.13909,5.17461 -1.75045,0.56053 -3.59273,0.8762 -5.43426,0.7915 z"
         style="opacity:1;fill:#26110b;fill-opacity:1;fill-rule:nonzero;stroke:none;stroke-width:0.35269;stroke-miterlimit:4;stroke-dasharray:none"
         id="path6696" />
      <path
         d="m 92.778109,-112.85362 c -2.90135,-0.1119 -5.8219,-1.23628 -7.83784,-3.36659 -1.68744,-1.75208 -2.61081,-4.14973 -2.74126,-6.56245 -0.16807,-2.51918 0.39987,-5.14466 1.90112,-7.20774 1.63371,-2.28703 4.26271,-3.74089 7.00898,-4.20127 3.29421,-0.57125 6.87254,0.16182 9.511601,2.26424 1.89099,1.48515 3.16216,3.69644 3.57569,6.05818 0.46111,2.62572 0.15627,5.45306 -1.18336,7.78951 -1.3534,2.39836 -3.768901,4.09346 -6.409311,4.79241 -1.24234,0.34184 -2.53876,0.48056 -3.82562,0.43371 z"
         style="opacity:1;fill:#26110b;fill-opacity:1;fill-rule:nonzero;stroke:none;stroke-width:0.35269;stroke-miterlimit:4;stroke-dasharray:none"
         id="path6698" />
      <path
         d="m 10.229483,-87.924234 c -0.8723842,-0.0314 -1.4899562,-0.76577 -1.9178752,-1.45104 -0.195368,-0.30826 -0.35814,-0.63521 -0.525393,-0.95914 0.445312,-0.85664 0.921562,-1.81211 1.826471,-2.26112 0.6590252,-0.33391 1.4562332,-0.0623 1.9393962,0.45102 0.51929,0.51241 0.861835,1.16667 1.189567,1.8101 -0.438222,0.84988 -0.909918,1.78891 -1.794896,2.24896 -0.223097,0.10813 -0.469125,0.1674 -0.71727,0.16122 z"
         style="opacity:1;fill:#26110b;fill-opacity:1;fill-rule:nonzero;stroke:none;stroke-width:0.35269;stroke-miterlimit:4;stroke-dasharray:none"
         id="path6700" />
      <path
         d="m 14.005968,-78.590794 c -1.157816,0.012 -2.345301,-0.66085 -2.765671,-1.76995 -0.467288,-1.18333 -0.170743,-2.70193 0.891683,-3.46823 1.316001,-0.9954 3.453093,-0.75601 4.401394,0.63493 0.818621,1.21091 0.61895,3.065 -0.571958,3.96663 -0.553648,0.42947 -1.258887,0.63973 -1.955448,0.63662 z"
         style="opacity:1;fill:#26110b;fill-opacity:1;fill-rule:nonzero;stroke:none;stroke-width:0.35269;stroke-miterlimit:4;stroke-dasharray:none"
         id="path6702" />
      <path
         d="m 20.355968,-85.771054 c -1.22174,0.0116 -2.475793,-0.67638 -2.952924,-1.83225 -0.537142,-1.26754 -0.250579,-2.91899 0.877604,-3.77497 1.395129,-1.09968 3.695454,-0.88474 4.754597,0.58141 0.756391,1.05819 0.770432,2.59313 0.05338,3.67464 -0.598241,0.8921 -1.676895,1.362 -2.732654,1.35117 z"
         style="opacity:1;fill:#26110b;fill-opacity:1;fill-rule:nonzero;stroke:none;stroke-width:0.35269;stroke-miterlimit:4;stroke-dasharray:none"
         id="path6704" />
      <path
         d="m 46.696509,-82.361104 c -1.22167,0.0113 -2.47586,-0.67635 -2.95296,-1.83226 -0.53714,-1.26753 -0.25058,-2.91899 0.87761,-3.77496 1.39516,-1.09926 3.6958,-0.88513 4.75459,0.58141 0.7861,1.1007 0.77311,2.71988 -0.0389,3.80351 -0.61282,0.8116 -1.63862,1.23137 -2.6403,1.2223 z"
         style="opacity:1;fill:#26110b;fill-opacity:1;fill-rule:nonzero;stroke:none;stroke-width:0.35269;stroke-miterlimit:4;stroke-dasharray:none"
         id="path6706" />
      <path
         d="m 53.055429,-77.103864 c -0.79565,-0.004 -1.72716,-0.15025 -2.2014,-0.8654 -0.45826,-0.71526 -0.16556,-1.63227 0.28974,-2.27161 0.57284,-0.80088 1.42413,-1.50689 2.4367,-1.60069 0.70055,-0.0641 1.35361,0.42714 1.56972,1.08168 0.19319,0.50187 0.21171,1.04659 0.21555,1.57794 -0.69511,0.69395 -1.38962,1.3885 -2.08361,2.08358 -0.0756,-0.004 -0.15113,-0.004 -0.2267,-0.006 z"
         style="opacity:1;fill:#26110b;fill-opacity:1;fill-rule:nonzero;stroke:none;stroke-width:0.35269;stroke-miterlimit:4;stroke-dasharray:none"
         id="path6708" />
      <path
         d="m 54.928899,-86.351904 c -1.15725,0.012 -2.34411,-0.65969 -2.7655,-1.7677 -0.46799,-1.18374 -0.17229,-2.7034 0.8908,-3.47048 1.31625,-0.99487 3.45345,-0.7565 4.4014,0.63493 0.82211,1.21436 0.61736,3.07714 -0.58297,3.97488 -0.55128,0.42415 -1.25239,0.63116 -1.94373,0.62837 z"
         style="opacity:1;fill:#26110b;fill-opacity:1;fill-rule:nonzero;stroke:none;stroke-width:0.35269;stroke-miterlimit:4;stroke-dasharray:none"
         id="path6710" />
      <path
         d="m -16.151698,-138.7394 c 0.4445,-0.5896 0.839825,-1.25635 1.178772,-1.86905 1.472213,-2.71219 2.654689,-5.56797 3.875405,-8.39869 2.6104848,-6.11075 5.1238148,-12.28192 8.3148668,-18.12053 1.537618,-2.76067 3.20505701,-5.4858 5.359472,-7.81439 1.364826,-1.44861 2.981076,-2.78951 4.943014,-3.30492 1.428893,-0.38894 2.9812192,-0.16986 4.2884732,0.50821 1.560724,0.74507 2.987463,1.95548 3.616431,3.60564 0.703826,1.77715 0.448767,3.77063 -0.134761,5.54302 -0.884414,2.62473 -2.389859,4.9881 -4.025654,7.20347 -2.7299332,3.66092 -5.9161172,6.95621 -9.2381202,10.07967 -3.903416,3.63735 -8.024177,7.04766 -12.3703998,10.14451 -1.657914,1.15592 -3.329057,2.31451 -5.14671,3.20855 -0.59831,0.27976 -1.196623,0.55948 -1.794899,0.83923 0.378037,-0.54155 0.756074,-1.08314 1.13411,-1.62472 z"
         style="opacity:1;fill:#26110b;fill-opacity:1;fill-rule:nonzero;stroke:none;stroke-width:0.35269;stroke-miterlimit:4;stroke-dasharray:none"
         id="path6712" />
      <path
         d="m -48.824985,-119.3435 c -0.251249,-3.40321 -1.177926,-6.79559 -2.962558,-9.72192 -0.415078,-0.67811 -0.930628,-1.39993 -1.476763,-2.02953 -1.014483,-1.14952 -2.21869,-2.21139 -3.684834,-2.72835 -0.457094,-0.12834 -0.942693,-0.0816 -1.412558,-0.0909 -1.028488,0.0608 -1.802447,0.90283 -2.215444,1.78322 -0.646113,1.32158 -0.854957,2.85852 -0.938883,4.2774 -0.110913,2.57799 0.208845,5.14829 0.687635,7.67496 -0.05235,0.45751 -0.104705,0.91503 -0.157093,1.37251 -0.287831,-0.38696 -0.624381,-0.74595 -0.882261,-1.15016 -1.228373,-3.08296 -2.234883,-6.31641 -2.361671,-9.65549 -0.07123,-2.07458 0.271286,-4.25662 1.465368,-5.99997 1.011555,-1.49296 2.678783,-2.50388 4.465955,-2.73023 0.959767,-0.14093 1.923909,0.0763 2.871152,0.21481 2.493786,0.49971 4.736395,1.85773 6.645733,3.49917 3.485621,3.03304 5.952738,7.09641 7.537204,11.40552 0.346003,0.93772 0.629991,1.89646 0.913942,2.85436 -2.814426,0.53555 -5.628889,1.07082 -8.443243,1.6068 -0.01728,-0.19407 -0.03457,-0.38817 -0.05168,-0.58223 z"
         style="opacity:1;fill:#5b3618;fill-opacity:1;fill-rule:nonzero;stroke:none;stroke-width:0.35269;stroke-miterlimit:4;stroke-dasharray:none"
         id="path6714" />
      <path
         d="m 111.73783,-127.72818 c -1.90369,-1.007 -3.59181,-2.36647 -5.24302,-3.73637 -3.73059,-3.16636 -7.164391,-6.67386 -10.354521,-10.38131 -3.03622,-3.55705 -5.86676,-7.31685 -8.14839,-11.40752 -1.42385,-2.60142 -2.67071,-5.35834 -3.16015,-8.30337 -0.3387,-2.05514 -0.21632,-4.27806 0.83852,-6.11939 0.98622,-1.75775 2.72796,-2.96065 4.58026,-3.66688 1.10348,-0.41769 2.25329,-0.72792 3.42201,-0.89125 1.32768,-0.11639 2.54949,0.62367 3.47807,1.50579 1.59392,1.53903 2.70912,3.48799 3.726891,5.43532 1.99323,3.94437 3.4841,8.11798 4.85972,12.31043 2.35673,7.2644 4.22494,14.6739 6.08161,22.07825 0.30815,1.25123 0.65006,2.49368 0.99526,3.7351 -0.35878,-0.18627 -0.71752,-0.37253 -1.07626,-0.5588 z"
         style="opacity:1;fill:#26110b;fill-opacity:1;fill-rule:nonzero;stroke:none;stroke-width:0.35269;stroke-miterlimit:4;stroke-dasharray:none"
         id="path6716" />
      <path
         d="m 37.473279,-58.880704 c -2.60633,-0.35687 -5.1036,-1.21709 -7.65359,-1.82461 -0.67444,-0.158 -1.36317,-0.2402 -2.03383,-0.4101 -1.06472,-0.24832 -2.13191,0.16806 -3.12265,0.52215 -0.37715,0.13941 -0.747325,0.29668 -1.120528,0.44615 -0.514773,-0.83266 -0.726194,-1.83321 -0.621276,-2.8043 0.144921,-1.56647 1.072584,-3.00531 2.373484,-3.8706 0.97833,-0.66122 2.15022,-1.00422 3.3262,-1.04927 0.77537,-0.0155 1.55251,0.082 2.29793,0.29986 1.94317,0.53146 3.69206,1.69573 4.98111,3.23797 1.13313,1.36652 1.96886,3.03322 2.16779,4.81129 0.0162,0.24342 0.0321,0.4869 0.0482,0.73036 -0.21427,-0.0296 -0.42859,-0.0593 -0.64286,-0.0889 z"
         style="opacity:1;fill:#5b3618;fill-opacity:1;fill-rule:nonzero;stroke:none;stroke-width:0.35269;stroke-miterlimit:4;stroke-dasharray:none"
         id="path6718" />
      <path
         d="m 161.36717,-68.377454 c -0.13984,-0.69017 -0.28025,-1.3802 -0.41959,-2.07049 2.1935,-0.67316 4.37356,-1.39463 6.50638,-2.24274 1.28637,-0.51245 2.61737,-1.08063 3.88836,-1.68829 2.7275,-1.30193 5.35774,-2.79189 7.81536,-4.55376 1.54962,-1.10392 3.02271,-2.31934 4.38034,-3.65274 1.04366,-1.02764 2.02191,-2.1246 2.89772,-3.29942 0.57104,-0.77833 1.10691,-1.59032 1.59081,-2.4305 0.38111,-0.68622 0.74052,-1.38306 1.04084,-2.10869 0.27464,-0.61793 0.48779,-1.26284 0.70321,-1.90299 0.28739,-0.92985 0.49739,-1.88115 0.6463,-2.84289 0.031,-0.19431 0.0594,-0.50176 0.0826,-0.7426 0.10795,-1.0177 0.14589,-2.09353 0.10276,-3.0842 -0.0251,-0.50581 -0.0656,-0.97945 -0.12938,-1.441726 -0.0809,-0.8485 -0.26262,-1.68353 -0.42836,-2.51852 -0.175,-0.67913 -0.32729,-1.34927 -0.53372,-1.99658 -0.2531,-0.7742 -0.49723,-1.55106 -0.82417,-2.29859 -0.36365,-0.98746 -0.84636,-1.91453 -1.29174,-2.87133 -0.81502,-1.472 -1.6902,-2.92587 -2.81605,-4.1844 -0.49438,-0.60801 -1.07978,-1.13715 -1.64733,-1.67365 -0.62788,-0.49879 -1.24792,-1.01187 -1.94755,-1.40917 -0.57541,-0.37557 -1.2041,-0.66037 -1.82202,-0.95734 -0.67081,-0.26165 -1.33943,-0.53019 -2.0434,-0.69006 -1.62362,-0.41861 -3.30105,-0.62735 -4.97819,-0.59592 -1.40179,0.0229 -2.80193,0.15893 -4.18514,0.38781 -1.80255,0.29983 -3.57318,0.76846 -5.31883,1.30352 -4.72659,1.52587 -9.25156,3.73306 -13.56233,6.2201 -3.59131,2.07638 -7.03167,4.40359 -10.37625,6.85472 -0.43833,-0.50606 -0.87694,-1.01191 -1.31534,-1.5179 1.60818,-1.69361 3.27971,-3.32792 5.0479,-4.85474 3.29332,-2.90721 6.85522,-5.51248 10.62292,-7.77166 4.02262,-2.39977 8.31638,-4.40394 12.86146,-5.58437 1.30419,-0.33309 2.62573,-0.6012 3.95944,-0.78334 0.97402,-0.11427 1.95002,-0.21372 2.9312,-0.23386 2.42167,-0.0874 4.85429,0.23386 7.18262,0.8969 0.9253,0.31387 1.8615,0.60519 2.73597,1.048 0.89129,0.37013 1.70854,0.88776 2.52808,1.39153 0.73328,0.49862 1.44402,1.03367 2.12996,1.59445 0.84071,0.77294 1.69199,1.54072 2.41793,2.42655 1.39962,1.57995 2.51153,3.38963 3.52663,5.23257 0.51313,1.07347 1.08156,2.12277 1.48601,3.24436 0.4519,1.07125 0.80745,2.17872 1.14966,3.28884 0.34206,1.23536 0.66445,2.47929 0.84458,3.75038 0.17082,0.94453 0.24281,1.87854 0.31329,2.833546 0.1523,2.61761 -0.11181,5.25836 -0.77472,7.79501 -0.20585,0.7639 -0.44503,1.52114 -0.71144,2.26628 -0.34534,0.8794 -0.7025,1.75532 -1.14795,2.58914 -0.40923,0.85549 -0.91622,1.65982 -1.41422,2.46497 -0.52592,0.78232 -1.06236,1.55776 -1.66966,2.27979 -0.61375,0.77674 -1.28566,1.50657 -1.97329,2.2178 -2.94513,2.99456 -6.46356,5.38184 -10.20226,7.27291 -3.73222,1.86496 -7.70361,3.23832 -11.77657,4.13656 -1.92677,0.44598 -3.88409,0.73974 -5.84708,0.97085 -0.24423,0.10477 -0.15791,-0.32625 -0.23573,-0.46412 z"
         style="opacity:1;fill:#5b3618;fill-opacity:1;fill-rule:nonzero;stroke:none;stroke-width:0.35269;stroke-miterlimit:4;stroke-dasharray:none"
         id="path6720" />
    </g>
  </g>
</svg>
