<?xml version="1.0" encoding="UTF-8" standalone="no"?>
<svg
   xmlns:dc="http://purl.org/dc/elements/1.1/"
   xmlns:cc="http://creativecommons.org/ns#"
   xmlns:rdf="http://www.w3.org/1999/02/22-rdf-syntax-ns#"
   xmlns:svg="http://www.w3.org/2000/svg"
   xmlns="http://www.w3.org/2000/svg"
   xmlns:sodipodi="http://sodipodi.sourceforge.net/DTD/sodipodi-0.dtd"
   xmlns:inkscape="http://www.inkscape.org/namespaces/inkscape"
   inkscape:version="1.0 (4035a4fb49, 2020-05-01)"
   sodipodi:docname="dog_actual.svg"
   id="svg7626"
   version="1.1"
   viewBox="0 0 361.06663 254.4239"
   height="254.4239mm"
   width="361.06662mm">
  <defs
     id="defs7620" />
  <sodipodi:namedview
     fit-margin-bottom="0"
     fit-margin-right="0"
     fit-margin-left="0"
     fit-margin-top="0"
     inkscape:window-maximized="0"
     inkscape:window-y="0"
     inkscape:window-x="26"
     inkscape:window-height="1040"
     inkscape:window-width="1375"
     showgrid="false"
     inkscape:document-rotation="0"
     inkscape:current-layer="layer1"
     inkscape:document-units="mm"
     inkscape:cy="717.92905"
     inkscape:cx="253.05252"
     inkscape:zoom="0.35"
     inkscape:pageshadow="2"
     inkscape:pageopacity="0.0"
     borderopacity="1.0"
     bordercolor="#666666"
     pagecolor="#ffffff"
     id="base" />
  <metadata
     id="metadata7623">
    <rdf:RDF>
      <cc:Work
         rdf:about="">
        <dc:format>image/svg+xml</dc:format>
        <dc:type
           rdf:resource="http://purl.org/dc/dcmitype/StillImage" />
        <dc:title></dc:title>
      </cc:Work>
    </rdf:RDF>
  </metadata>
  <g
     transform="translate(-26.076193,35.741717)"
     id="layer1"
     inkscape:groupmode="layer"
     inkscape:label="Layer 1">
    <path
       d="m 375.43736,0.2035751 c 11.94858,18.0622199 17.20143,34.0254159 3.82058,53.5128599 -11.5711,16.845138 -28.05642,27.558998 -47.65323,32.857718 -18.78542,5.08 -31.3831,2.35656 -46.97941,-9.04522 -5.20347,-3.80647 -10.01536,-8.07861 -15.12358,-11.99797 -5.73969,-4.402668 -13.38086,-4.289778 -19.24403,-8.198558 -8.30086,-5.535083 0.85373,-20.990277 8.07509,-30.751637 l 3.91265,1.326444 c -5.76086,7.612946 -9.18633,15.39875 -7.10529,22.140333 6.1595,19.942528 59.20315,-17.945804 65.64136,-22.863527 11.47234,-8.763 47.65003,-35.3377499 41.91,-53.932665 -1.45698,-4.720167 -5.54214,-6.198306 -11.01021,-5.647972 l -0.3316,-3.005667 c 3.2879,-0.363361 6.5899,-0.448028 9.88835,-0.1905 21.59355,1.696861 5.80321,23.106944 14.19932,35.7963611"
       style="opacity:1;fill:#f2ae40;fill-opacity:1;fill-rule:nonzero;stroke:none;stroke-width:0.35269;stroke-miterlimit:4;stroke-dasharray:none"
       id="path3432" />
    <path
       d="m 362.69156,-26.748612 c 5.74005,18.5949171 -30.43767,45.169664 -41.91,53.932664 -6.43819,4.917724 -59.48185,42.806061 -65.64135,22.863527 -2.08139,-6.74158 1.34408,-14.527387 7.1053,-22.14033 1.84467,-2.43064 3.92606,-4.847167 6.1415,-7.203723 7.44714,-7.916334 16.41828,-15.1729709 22.97642,-20.2459169 0.067,-0.04939 0.13053,-0.09878 0.19755,-0.151694 l 0.24695,-0.1905 c 0.127,-0.09525 0.25753,-0.194027 0.39158,-0.29986 l 0.39159,-0.299863 0.14816,-0.10936 c 0.254,-0.197556 0.52564,-0.402167 0.80786,-0.61736 l 0.32456,-0.246946 c 0.21202,-0.162277 0.43039,-0.331611 0.65617,-0.504471 l 0.38805,-0.296333 c 0.06,-0.04586 0.11995,-0.09172 0.17992,-0.134057 0,0 0.0106,-0.01058 0.0282,-0.02117 v -0.0035 l 0.0141,-0.01058 c 0.007,-0.0035 0.0141,-0.01058 0.0247,-0.01765 0.0317,-0.02469 0.0741,-0.05644 0.13053,-0.09878 0.0353,-0.02822 0.0776,-0.05997 0.12347,-0.09525 l 0.0847,-0.0635 0.007,-0.0035 c 0,-0.0035 0.004,-0.0035 0.007,-0.0071 0.004,-0.0071 0.0106,-0.01058 0.0177,-0.0141 0.004,-0.0035 0.0106,-0.01058 0.0177,-0.0141 0.0177,-0.0141 0.0353,-0.02822 0.0529,-0.03881 0.0141,-0.01058 0.0282,-0.02468 0.0423,-0.03528 0.004,0 0.007,-0.0035 0.0106,-0.0035 0.0635,-0.05292 0.13053,-0.102307 0.20109,-0.15875 0.0388,-0.02822 0.078,-0.05997 0.11994,-0.09172 0.0565,-0.04233 0.10936,-0.08467 0.16581,-0.127 0.007,-0.0035 0.0141,-0.01058 0.0212,-0.01765 0.007,-0.0035 0.0177,-0.01058 0.0247,-0.01765 0.06,-0.04586 0.18344,-0.137583 0.35278,-0.268113 0.0847,-0.0635 0.16933,-0.127 0.25047,-0.1905 0.0847,-0.0635 0.16933,-0.130527 0.254,-0.194027 l 0.12382,-0.09525 c 0.0455,-0.03175 0.0914,-0.06703 0.13723,-0.102306 5.69382,-4.296833 37.01345,-26.5535821 54.37363,-28.3139431 5.46807,-0.550333 9.55323,0.927806 11.01019,5.647972"
       style="opacity:1;fill:#000000;fill-opacity:1;fill-rule:nonzero;stroke:none;stroke-width:0.35269;stroke-miterlimit:4;stroke-dasharray:none"
       id="path3438" />
    <path
       d="m 297.30777,-4.0826409 c -0.0459,0.03528 -0.0917,0.07056 -0.13758,0.102306 l -0.12348,0.09525 c -0.0847,0.0635 -0.16933,0.130527 -0.254,0.194027 -0.0811,0.0635 -0.1658,0.127 -0.25047,0.1905 -0.16933,0.13053 -0.2928,0.22225 -0.35278,0.268113 -0.007,0.0071 -0.0176,0.0141 -0.0247,0.01765 -0.0109,0.0071 -0.0141,0.01058 -0.0212,0.01765 -0.0564,0.04233 -0.10936,0.08467 -0.16616,0.127 -0.042,0.03175 -0.0808,0.0635 -0.11959,0.09172 -0.0709,0.05644 -0.13758,0.105833 -0.20108,0.15875 -0.004,0 -0.007,0 -0.0106,0.0035 -0.0141,0.01058 -0.0282,0.02469 -0.0423,0.03528 -0.0177,0.01058 -0.0353,0.02469 -0.0529,0.03881 -0.007,0.0071 -0.0106,0.01058 -0.0177,0.0141 -0.007,0.0035 -0.0141,0.0071 -0.0177,0.0141 -0.004,0 -0.004,0.0035 -0.007,0.0035 v 0.0035 l -0.007,0.0035 -0.0847,0.0635 v -0.0035 c -0.0247,0.01765 -0.0529,0.03881 -0.0776,0.05997 -0.0212,0.0141 -0.0423,0.03175 -0.0635,0.04939 l -0.10231,0.07761 -0.0353,0.02822 -0.0141,0.01058 h -0.004 c -0.77964,0.592667 -1.62666,1.23825 -2.52942,1.93322 l -0.39158,0.299863 c -0.13406,0.105834 -0.26459,0.204611 -0.39159,0.299861 l -0.24694,0.1905 c -0.067,0.05292 -0.13053,0.102306 -0.19791,0.151693 -6.55779,5.072946 -15.52892,12.3295829 -22.97606,20.2459169 l -3.04132,-2.702253 c 12.83441,-14.3016109 26.74091,-27.3226389 43.51548,-36.939361 12.7,-7.281333 27.44613,-14.799028 42.48822,-16.464139 l 0.33195,3.005667 c -17.35964,1.760424 -48.67924,24.0171731 -54.37308,28.3140061"
       style="opacity:1;fill:#d68b32;fill-opacity:1;fill-rule:nonzero;stroke:none;stroke-width:0.35269;stroke-miterlimit:4;stroke-dasharray:none"
       id="path3444" />
    <path
       d="m 190.13741,78.177943 c 0.0141,-0.067 0.0247,-0.13759 0.0388,-0.2152 -0.0141,0.0811 -0.0282,0.1517 -0.0388,0.2152 m -6.20183,24.662687 c -1.35114,22.97289 34.79094,20.32353 31.66533,1.57692 -2.97392,-17.839977 -30.48353,-21.678197 -31.66533,-1.57692 m 42.12166,65.05257 c 4.15573,-16.83843 -19.99897,-13.97741 -28.12697,-10.23443 -6.69925,3.0868 -16.891,9.1828 -21.74169,0.0705 l -0.45509,-0.22578 c -3.556,7.12259 -8.68186,13.13392 -15.20119,15.29645 -2.50119,-0.23636 -5.04119,-0.29986 -7.64117,-0.46214 l -13.40555,-7.05556 c -0.13053,0.1905 -0.26106,0.38453 -0.39511,0.58244 -6.35706,9.4929 -13.22917,24.42986 2.08139,29.47423 12.86933,4.24039 21.67466,-10.922 27.62602,-20.15067 16.2807,8.65717 51.86539,14.56973 57.25936,-7.29509 M 190.32086,77.165413 c -0.007,0.0423 -0.0177,0.0882 -0.0247,0.13406 v 0.0106 c -0.004,0.0141 -0.007,0.0282 -0.007,0.0423 -0.73025,4.74133 16.66522,6.51933 19.58622,7.88458 2.80811,1.3088 14.1605,18.993547 16.90158,11.41589 6.49817,-17.98814 -34.33586,-30.46942 -36.47052,-19.39925 0.004,-0.0282 0.0109,-0.0564 0.0145,-0.0882 m -58.50821,74.224447 c 8.18092,1.21355 21.47006,-10.21645 23.53028,-17.54011 2.52942,-8.99937 -13.26444,-11.19717 -18.90889,-12.03678 -3.85939,-0.57503 -19.7097,-3.48192 -21.78403,2.21191 l -2.81869,-0.61383 c 0.11289,-0.21167 0.2293,-0.42333 0.34925,-0.62794 3.92641,-6.70278 9.83191,-10.37167 16.46061,-12.74586 7.99747,-2.86103 17.04975,-3.8347 24.94844,-5.96548 14.47448,-3.90877 17.06386,-16.869827 6.19478,-26.772297 l 0.47625,-2.9845 c 5.13997,0.83256 10.922,1.30528 8.19856,-2.78342 -4.445,-6.68161 -18.2813,-5.51744 -25.60814,-1.48519 2.794,-8.604251 6.98853,-14.16403 12.71058,-16.816917 3.84881,-1.788584 8.39258,-2.261307 13.66626,-1.456973 2.1276,0.324556 4.37127,0.853723 6.73841,1.591026 12.192,3.788834 24.46514,-3.432526 36.12797,-3.326693 2.96333,0.02469 5.88786,0.52564 8.763,1.799167 9.23219,4.092223 22.35165,14.69672 23.54791,25.53758 9.64848,-5.461 20.00956,-3.95464 30.56114,1.76389 3.8347,2.07786 25.69986,19.50508 29.34405,17.89995 -5.34457,2.35302 -10.5163,3.210267 -15.5716,3.009187 -7.57414,-0.303387 -14.88722,-2.977437 -22.13328,-6.540497 -4.34657,-2.13783 -7.31308,-1.88736 -9.64847,-0.48331 l 0.71966,0.1517 c 3.30553,9.041687 -1.12536,17.921107 -10.05416,21.166667 l -2.01824,0.0529 c 5.09446,4.85422 12.14649,11.03489 11.37708,18.02695 -0.0141,0.13758 -0.0314,0.27516 -0.049,0.41275 -1.23119,11.05252 -3.53483,22.14033 -6.14539,32.93533 -3.33375,13.77985 -14.73905,14.15697 -25.73866,21.13491 -10.49514,6.66045 -15.66333,17.89642 -16.05492,30.08842 l -0.0921,1.68981 c -19.2472,-1.00189 -38.47359,-2.79048 -57.54123,-4.80131 -3.42547,-0.35983 -6.858,-0.73378 -10.29053,-1.11478 l 0.34925,-3.1503 c -1.28058,-0.14817 -2.59997,-0.52564 -3.97581,-1.18534 -19.80141,-9.51441 -16.42886,-34.47697 -2.29658,-47.77669 -1.9297,-3.03742 -3.48545,-6.31119 -4.68136,-9.47914 0,0.004 0.0988,0.0177 0.20108,0.0356 l 0.61383,0.0949 c 0.11642,0.0215 0.23637,0.0388 0.36301,0.0564 0.0321,0.007 0.0639,0.0141 0.0956,0.0177 0.0247,0.004 0.0494,0.007 0.0741,0.0106"
       style="opacity:1;fill:#d68b32;fill-opacity:1;fill-rule:nonzero;stroke:none;stroke-width:0.35269;stroke-miterlimit:4;stroke-dasharray:none"
       id="path3450" />
    <path
       d="m 296.1647,-3.2148419 c -0.007,0.0071 -0.0141,0.0141 -0.0212,0.01765 0.007,-0.0071 0.0106,-0.01058 0.0212,-0.01765"
       style="opacity:1;fill:#e59810;fill-opacity:1;fill-rule:nonzero;stroke:none;stroke-width:0.35269;stroke-miterlimit:4;stroke-dasharray:none"
       id="path3452" />
    <path
       d="m 295.55076,-2.7421559 c -0.007,0.0035 -0.0141,0.01058 -0.0177,0.0141 0.007,-0.0035 0.0106,-0.0071 0.0177,-0.0141"
       style="opacity:1;fill:#000000;fill-opacity:1;fill-rule:nonzero;stroke:none;stroke-width:0.35269;stroke-miterlimit:4;stroke-dasharray:none"
       id="path3454" />
    <path
       d="m 295.51562,-2.7139329 c -0.004,0.0035 -0.007,0.0035 -0.007,0.0071 v -0.0035 c 0.004,0 0.004,-0.0035 0.007,-0.0035"
       style="opacity:1;fill:#e59810;fill-opacity:1;fill-rule:nonzero;stroke:none;stroke-width:0.35269;stroke-miterlimit:4;stroke-dasharray:none"
       id="path3456" />
    <path
       d="m 295.41678,-2.6433079 v 0.0035 l -0.0776,0.05644 c 0.0251,-0.02117 0.0533,-0.04233 0.0776,-0.05997"
       style="opacity:1;fill:#000000;fill-opacity:1;fill-rule:nonzero;stroke:none;stroke-width:0.35269;stroke-miterlimit:4;stroke-dasharray:none"
       id="path3458" />
    <path
       d="m 295.33923,-2.5833349 0.0776,-0.05644 c -0.0459,0.03528 -0.0882,0.06703 -0.12348,0.09525 z"
       style="opacity:1;fill:#e59810;fill-opacity:1;fill-rule:nonzero;stroke:none;stroke-width:0.35269;stroke-miterlimit:4;stroke-dasharray:none"
       id="path3460" />
    <path
       d="m 295.33923,-2.5833349 -0.0459,0.03881 -0.0176,0.01058 c 0.0212,-0.01765 0.0423,-0.03528 0.0635,-0.04939"
       style="opacity:1;fill:#000000;fill-opacity:1;fill-rule:nonzero;stroke:none;stroke-width:0.35269;stroke-miterlimit:4;stroke-dasharray:none"
       id="path3462" />
    <path
       d="m 295.27588,-2.5340879 0.0176,-0.01058 c -0.0564,0.04233 -0.0988,0.07408 -0.13052,0.09878 0.004,-0.0035 0.007,-0.0071 0.0106,-0.01058 z"
       style="opacity:1;fill:#e59810;fill-opacity:1;fill-rule:nonzero;stroke:none;stroke-width:0.35269;stroke-miterlimit:4;stroke-dasharray:none"
       id="path3464" />
    <path
       d="m 295.12048,-2.4176339 -0.20461,0.15875 -0.38806,0.296333 -0.65617,0.504471 -0.32455,0.246946 c -0.28222,0.215194 -0.55386,0.419804 -0.80786,0.61736 l -0.14817,0.10936 c 0.90311,-0.69497 1.74978,-1.340553 2.52942,-1.93322"
       style="opacity:1;fill:#000000;fill-opacity:1;fill-rule:nonzero;stroke:none;stroke-width:0.35269;stroke-miterlimit:4;stroke-dasharray:none"
       id="path3466" />
    <path
       d="m 288.7388,100.04674 c -10.88672,4.85069 -11.40884,10.66094 -16.17134,21.41361 -2.82575,6.37822 -7.80697,12.34016 -15.41991,11.39825 l -0.2152,-0.0247 c 0.0177,-0.13758 0.0349,-0.27517 0.049,-0.41275 0.76941,-6.99206 -6.28262,-13.17272 -11.37708,-18.02694 l 2.01824,-0.0529 c 8.9288,-3.24556 13.35969,-12.12497 10.05416,-21.166667 l -0.71966,-0.15169 c 2.33539,-1.40406 5.3019,-1.65453 9.64847,0.4833 7.24606,3.56306 14.55914,6.23711 22.13328,6.540497"
       style="opacity:1;fill:#ba701e;fill-opacity:1;fill-rule:nonzero;stroke:none;stroke-width:0.35269;stroke-miterlimit:4;stroke-dasharray:none"
       id="path3468" />
    <path
       d="m 265.34589,18.001106 3.04095,2.702279 c -2.2151,2.356554 -4.29684,4.773084 -6.14151,7.203721 l -3.91266,-1.326444 c 2.35691,-3.185583 4.50532,-5.76439 5.77497,-7.19314 0.41275,-0.465666 0.8255,-0.927803 1.23825,-1.386416"
       style="opacity:1;fill:#e59810;fill-opacity:1;fill-rule:nonzero;stroke:none;stroke-width:0.35269;stroke-miterlimit:4;stroke-dasharray:none"
       id="path3470" />
    <path
       d="m 190.30657,77.253803 c 2.13466,-11.07017 42.96868,1.41111 36.47052,19.39925 -2.74144,7.577667 -14.09347,-10.10708 -16.90158,-11.41589 -2.92136,-1.36525 -20.31648,-3.14325 -19.58658,-7.88458 0,-0.0141 0.004,-0.0282 0.007,-0.0423 v -0.0106 c 0.004,-0.0141 0.007,-0.0318 0.0102,-0.0459"
       style="opacity:1;fill:#000000;fill-opacity:1;fill-rule:nonzero;stroke:none;stroke-width:0.35269;stroke-miterlimit:4;stroke-dasharray:none"
       id="path3478" />
    <path
       d="m 197.9302,157.6587 c 8.128,-3.74262 32.2827,-6.604 28.12697,10.23443 -5.39397,21.86482 -40.97866,15.95226 -57.25936,7.29509 0.10937,-0.16933 0.2152,-0.33513 0.32103,-0.49741 -0.92075,-0.36689 -1.84503,-0.67028 -2.77283,-0.9137 0,0 0,-0.004 -0.004,-0.004 -1.91876,-0.51188 -3.85586,-0.79763 -5.81025,-0.97402 6.51933,-2.16252 11.6452,-8.17386 15.2012,-15.29609 l 0.45508,0.22543 c 4.85069,9.11225 15.04244,3.01625 21.74169,-0.0706"
       style="opacity:1;fill:#f2ae40;fill-opacity:1;fill-rule:nonzero;stroke:none;stroke-width:0.35269;stroke-miterlimit:4;stroke-dasharray:none"
       id="path3480" />
    <path
       d="m 207.93512,103.48974 c 0,-11.902717 -17.99166,-11.902717 -17.99166,0 0,11.90625 17.99166,11.90625 17.99166,0 m 7.66551,0.92781 c 3.12596,18.74661 -33.01612,21.39597 -31.66498,-1.57692 1.18145,-20.101277 28.69142,-16.263057 31.66498,1.57692"
       style="opacity:1;fill:#ba701e;fill-opacity:1;fill-rule:nonzero;stroke:none;stroke-width:0.35269;stroke-miterlimit:4;stroke-dasharray:none"
       id="path3484" />
    <path
       d="m 212.09437,50.036856 c -11.66319,-0.105834 -23.93632,7.115527 -36.12797,3.326693 -2.36714,-0.737303 -4.61081,-1.26647 -6.73841,-1.591027 l 3.78566,-0.398639 c 3.67594,-3.608917 7.38717,-7.111998 11.09133,-10.590387 3.89079,-3.654777 7.77134,-7.284861 11.59545,-10.999611 4.91455,-4.766029 9.7335,-9.666113 14.35489,-14.9225 -3.2385,12.28725 -1.0975,23.156334 2.03905,35.175471"
       style="opacity:1;fill:#ba701e;fill-opacity:1;fill-rule:nonzero;stroke:none;stroke-width:0.35269;stroke-miterlimit:4;stroke-dasharray:none"
       id="path3486" />
    <path
       d="m 189.94346,103.48974 c 0,-11.902717 17.99166,-11.902717 17.99166,0 0,11.90625 -17.99166,11.90625 -17.99166,0"
       style="opacity:1;fill:#000000;fill-opacity:1;fill-rule:nonzero;stroke:none;stroke-width:0.35269;stroke-miterlimit:4;stroke-dasharray:none"
       id="path3490" />
    <path
       d="m 190.32068,77.165613 c -0.004,0.0318 -0.0102,0.06 -0.0141,0.0882 -0.004,0.0141 -0.007,0.0318 -0.0102,0.0459 0.007,-0.0459 0.0173,-0.0917 0.0243,-0.13405"
       style="opacity:1;fill:#000000;fill-opacity:1;fill-rule:nonzero;stroke:none;stroke-width:0.35269;stroke-miterlimit:4;stroke-dasharray:none"
       id="path3492" />
    <path
       d="m 190.17632,77.962813 c -0.0141,0.0776 -0.0247,0.14817 -0.0388,0.2152 0.0106,-0.0635 0.0247,-0.13406 0.0388,-0.2152"
       style="opacity:1;fill:#000000;fill-opacity:1;fill-rule:nonzero;stroke:none;stroke-width:0.35269;stroke-miterlimit:4;stroke-dasharray:none"
       id="path3494" />
    <path
       d="m 169.11888,174.69091 c -0.10584,0.16228 -0.21167,0.32809 -0.32103,0.49742 -0.87489,-0.46214 -1.69686,-0.93486 -2.45181,-1.41111 0.92781,0.24341 1.85209,0.5468 2.77284,0.91369"
       style="opacity:1;fill:#f2ae40;fill-opacity:1;fill-rule:nonzero;stroke:none;stroke-width:0.35269;stroke-miterlimit:4;stroke-dasharray:none"
       id="path3504" />
    <path
       d="m 168.45915,71.531673 c 2.72344,4.0887 -3.05859,3.61597 -8.19856,2.78342 -3.08292,-0.49742 -5.93372,-1.12536 -6.5793,-0.97014 -2.23309,0.53622 -11.94153,7.10494 -14.54503,4.80483 1.44286,-2.40594 2.70968,-4.92477 3.57364,-7.66233 0.0459,-0.14817 0.0952,-0.29633 0.14111,-0.44097 7.32719,-4.03225 21.16314,-5.19642 25.60814,1.48519"
       style="opacity:1;fill:#000000;fill-opacity:1;fill-rule:nonzero;stroke:none;stroke-width:0.35269;stroke-miterlimit:4;stroke-dasharray:none"
       id="path3506" />
    <path
       d="m 166.3459,173.77729 c 0.7553,0.47625 1.57727,0.94862 2.45181,1.41111 -5.95136,9.22867 -14.7567,24.39106 -27.62568,20.15067 -15.31091,-5.04473 -8.43845,-19.98169 -2.08174,-29.47459 4.26897,4.68489 9.74725,7.9375 16.50647,7.78934 1.72509,-0.0388 3.36903,-0.33514 4.93572,-0.85408 1.95439,0.17639 3.89114,0.46249 5.80989,0.97402 0.004,0 0.004,0.004 0.004,0.004"
       style="opacity:1;fill:#ba701e;fill-opacity:1;fill-rule:nonzero;stroke:none;stroke-width:0.35269;stroke-miterlimit:4;stroke-dasharray:none"
       id="path3508" />
    <path
       d="m 157.66771,90.528793 c 0,-10.83733 -15.875,-10.83733 -15.875,0 0,10.837337 15.875,10.837337 15.875,0 m 2.59292,-16.21366 -0.47625,2.9845 c 10.86908,9.90247 8.27969,22.863517 -6.19478,26.772297 -7.89869,2.13078 -16.95098,3.10445 -24.94845,5.96547 l -0.0776,-0.98777 c -4.02872,-13.162137 4.6602,-21.057307 10.53042,-30.829247 0.0141,-0.0247 0.0282,-0.0459 0.0423,-0.0706 2.6035,2.30011 12.31195,-4.26861 14.54503,-4.80483 0.64559,-0.15522 3.49603,0.47272 6.57931,0.97014"
       style="opacity:1;fill:#ba701e;fill-opacity:1;fill-rule:nonzero;stroke:none;stroke-width:0.35269;stroke-miterlimit:4;stroke-dasharray:none"
       id="path3516" />
    <path
       d="m 160.53234,172.79992 c -1.56634,0.51893 -3.21063,0.81527 -4.93536,0.85407 -6.75923,0.14817 -12.23787,-3.10479 -16.50648,-7.78933 0.13406,-0.19791 0.26459,-0.39194 0.39511,-0.58244 l 13.40556,7.05556 c 2.59997,0.16228 5.13997,0.22578 7.64117,0.46214"
       style="opacity:1;fill:#d68b32;fill-opacity:1;fill-rule:nonzero;stroke:none;stroke-width:0.35269;stroke-miterlimit:4;stroke-dasharray:none"
       id="path3518" />
    <path
       d="m 136.43387,121.81302 c 5.64445,0.83961 21.43866,3.03741 18.90925,12.03678 -2.06023,7.32366 -15.34936,18.75366 -23.53064,17.54011 -0.0247,-0.004 -0.049,-0.007 -0.0741,-0.0106 -0.0314,-0.004 -0.0632,-0.0106 -0.0953,-0.0176 -0.40534,-0.067 -0.81139,-0.16546 -1.21673,-0.29281 -0.0956,-0.25047 -0.18732,-0.50094 -0.27552,-0.74789 -0.0847,0.14111 -0.1972,0.32103 -0.33161,0.53975 -8.49841,-3.20675 -16.86277,-18.12572 -15.32431,-26.27136 0.0384,-0.19755 0.0882,-0.38453 0.15487,-0.56444 2.07469,-5.69384 17.92499,-2.78695 21.78403,-2.21192"
       style="opacity:1;fill:#000000;fill-opacity:1;fill-rule:nonzero;stroke:none;stroke-width:0.35269;stroke-miterlimit:4;stroke-dasharray:none"
       id="path3520" />
    <path
       d="m 141.79271,90.528793 c 0,-10.83733 15.875,-10.83733 15.875,0 0,10.837337 -15.875,10.837337 -15.875,0"
       style="opacity:1;fill:#000000;fill-opacity:1;fill-rule:nonzero;stroke:none;stroke-width:0.35269;stroke-miterlimit:4;stroke-dasharray:none"
       id="path3524" />
    <path
       d="m 142.85104,70.046483 c -0.0459,0.14464 -0.0956,0.2928 -0.14111,0.44097 -0.8643,2.73756 -2.13077,5.25639 -3.57364,7.66233 -0.10936,-0.0952 -0.20813,-0.20814 -0.28927,-0.33866 -0.0106,-0.0141 -0.0212,-0.0282 -0.0282,-0.0423 l -0.0282,-0.0494 c -1.68628,-2.86102 0.35631,-5.63386 4.06047,-7.67291"
       style="opacity:1;fill:#000000;fill-opacity:1;fill-rule:nonzero;stroke:none;stroke-width:0.35269;stroke-miterlimit:4;stroke-dasharray:none"
       id="path3528" />
    <path
       sodipodi:nodetypes="ccccccccccccccc"
       d="m 130.10867,151.12201 c -0.0423,-0.007 0.11289,0.0176 0.35631,0.0526 1.19592,3.1683 2.75202,6.44172 4.68136,9.47949 -14.13228,13.29972 -17.50483,38.26193 2.29658,47.77634 1.37584,0.6597 2.69523,1.03752 3.97616,1.18569 l -0.3496,3.14995 c -34.33939,-3.80651 -80.604862,3.1591 -114.993287,-3.08119 l 8.26157,-11.18618 c 3.922889,-5.64127 12.522764,-12.79425 17.807023,-16.75912 2.303639,-1.72861 4.688417,-3.35844 7.115528,-4.94277 5.707945,-3.73592 11.638138,-7.22454 17.250832,-11.16859 11.303,-7.9375 22.373166,-16.22072 33.330444,-24.64153 1.016,9.28158 4.08164,19.09551 6.3747,25.36472 1.45344,3.97546 10.90436,-11.10227 13.48316,-15.29644 0.127,0.0212 0.26106,0.0423 0.40922,0.067"
       style="opacity:1;fill:#ba701e;fill-opacity:1;fill-rule:nonzero;stroke:none;stroke-width:0.35269;stroke-miterlimit:4;stroke-dasharray:none"
       id="path3530" />
    <path
       d="m 138.84716,77.811053 0.12347,0.20814 c -0.0459,-0.0776 -0.0991,-0.15875 -0.15169,-0.25048 0.007,0.0141 0.0176,0.0282 0.0282,0.0423"
       style="opacity:1;fill:#000000;fill-opacity:1;fill-rule:nonzero;stroke:none;stroke-width:0.35269;stroke-miterlimit:4;stroke-dasharray:none"
       id="path3532" />
    <path
       d="m 130.15104,150.32099 c 0.0882,0.24694 0.17992,0.49742 0.27517,0.74789 -0.20109,-0.06 -0.4057,-0.13053 -0.60678,-0.20814 0.13406,-0.21872 0.24694,-0.39864 0.33161,-0.53975"
       style="opacity:1;fill:#000000;fill-opacity:1;fill-rule:nonzero;stroke:none;stroke-width:0.35269;stroke-miterlimit:4;stroke-dasharray:none"
       id="path3534" />
    <path
       d="m 129.81929,150.86085 c -0.0353,0.0635 -0.0776,0.127 -0.11995,0.19402 -2.57845,4.19418 -12.02937,19.27225 -13.48316,15.29645 -2.29306,-6.26886 -5.3587,-16.08314 -6.3747,-25.36472 -0.72319,-6.6287 -0.40216,-12.98575 1.99002,-17.57539 l 2.81835,0.61383 c -0.0667,0.17992 -0.11642,0.36689 -0.15488,0.56445 -1.53846,8.14563 6.8259,23.06461 15.32432,26.27136"
       style="opacity:1;fill:#d68b32;fill-opacity:1;fill-rule:nonzero;stroke:none;stroke-width:0.35269;stroke-miterlimit:4;stroke-dasharray:none"
       id="path3536" />
    <path
       d="m 154.78245,176.2164 c -3.31124,-0.0607 -6.60277,-0.98189 -9.45988,-2.65815 -3.10691,-1.78453 -5.67309,-4.38404 -7.78902,-7.2499 -2.58688,-3.54633 -4.58057,-7.48418 -6.33681,-11.4953 -0.40798,-0.92971 -0.78817,-1.87124 -1.16593,-2.81358 -1.51422,2.72673 -2.78937,5.57509 -4.13317,8.38697 -1.29244,2.6717 -2.68683,5.3526 -4.71245,7.55139 -1.01988,1.09354 -2.32265,2.07031 -3.85713,2.21315 -1.32214,0.127 -2.67818,-0.47385 -3.46981,-1.54093 -0.59747,-0.79026 -0.84759,-1.74982 -1.23356,-2.65466 -1.08546,-2.74845 -2.04731,-5.54535 -2.90449,-8.37303 -0.77703,-2.60583 -1.46043,-5.2395 -2.01087,-7.90272 -0.58727,-2.8563 -1.04084,-5.74245 -1.2918,-8.64852 -0.30487,-3.44763 -0.34167,-6.93314 0.0884,-10.37192 0.29637,-2.2891 0.81806,-4.55789 1.68547,-6.70076 0.37101,-0.90608 0.80934,-1.78421 1.30605,-2.62696 0.82857,-1.35273 1.75422,-2.64919 2.78772,-3.85481 2.44496,-2.90406 5.50086,-5.26658 8.83828,-7.06 3.51363,-1.87727 7.31414,-3.15224 11.16814,-4.12122 5.55931,-1.40321 11.25025,-2.15617 16.87388,-3.24206 2.7498,-0.55785 5.54782,-1.06962 8.1135,-2.251 2.43114,-1.103847 4.69329,-2.742987 6.15961,-5.008277 0.26497,-0.40718 0.4959,-0.80846 0.69878,-1.22312 0.48451,-0.9731 0.80236,-2.02565 0.95557,-3.10117 0.0226,-0.15285 0.0457,-0.35355 0.0651,-0.55396 0.2648,-2.63645 -0.47304,-5.2844 -1.70324,-7.60081 -1.16117,-2.20236 -2.75622,-4.14641 -4.53066,-5.88193 0.31525,-0.33013 0.63077,-0.65998 0.94672,-0.98944 2.26575,1.88574 4.32124,4.07769 5.76195,6.66577 1.35643,2.40813 2.17992,5.15648 2.1021,7.93549 -0.0391,2.94555 -1.14349,5.83071 -2.95741,8.13767 -2.07863,2.645687 -4.98422,4.535907 -8.06771,5.814367 -2.33108,0.95131 -4.78394,1.54655 -7.21751,2.16906 -5.65235,1.39989 -11.39176,2.48002 -16.949,4.24564 -2.96255,0.95773 -5.87371,2.12133 -8.55966,3.70893 -2.90152,1.69175 -5.52344,3.91252 -7.50531,6.63628 -0.82536,1.11675 -1.56442,2.30149 -2.14901,3.56154 -0.64425,1.51529 -1.03505,3.12752 -1.25663,4.75643 -0.0187,0.16337 -0.0588,0.43812 -0.0769,0.60957 -0.2334,2.03503 -0.22448,4.10626 -0.10884,6.12845 0.25492,4.15368 1.00514,8.27599 1.89661,12.32094 0.94784,4.19841 2.06837,8.40641 3.32151,12.54309 0.0784,0.2601 0.15483,0.52077 0.23452,0.78048 2.295,-2.12488 4.54491,-4.30378 6.65477,-6.61409 1.88948,-2.07934 3.58711,-4.33059 5.06934,-6.71727 0.10238,-0.0781 0.25517,-0.57366 0.3205,-0.34548 0.86149,2.62244 1.88673,5.201 3.23773,7.61263 0.23907,0.43088 0.4906,0.8558 0.72287,1.24728 1.91167,3.16036 4.33798,6.01951 7.21093,8.34626 2.83446,2.27746 6.15488,4.02463 9.74175,4.72571 1.70169,0.32497 3.43771,0.45713 5.17151,0.30328 0.65362,-0.03 1.29836,-0.16094 1.93837,-0.28875 0.65973,-0.16637 1.31854,-0.33595 1.94998,-0.59348 0.67737,-0.24355 1.33251,-0.55135 1.97016,-0.88427 3.0511,-1.62511 5.54284,-4.11155 7.66109,-6.80914 1.55607,-2.0109 2.89419,-4.18536 4.08739,-6.42846 1.45408,-2.77802 2.68224,-5.67309 3.68671,-8.64305 0.26423,-0.77812 0.53428,-1.61262 0.76923,-2.40157 0.95165,-3.20361 1.65897,-6.486 2.0278,-9.80909 0.14228,-1.27339 0.20225,-2.55394 0.22638,-3.83452 0.4391,-0.0339 0.87824,-0.0672 1.31738,-0.10062 0.37701,2.18405 0.51703,4.40458 0.45162,6.61921 -0.0641,2.64844 -0.37807,5.28796 -0.85192,7.89298 -0.86935,4.59856 -2.2975,9.09722 -4.31229,13.32357 -1.66207,3.44082 -3.70846,6.72176 -6.30555,9.53805 -1.67502,1.84771 -3.59046,3.48739 -5.74177,4.75654 -0.87514,0.54127 -1.80566,0.98697 -2.74683,1.39894 -0.83217,0.3157 -1.66409,0.6369 -2.53327,0.83703 -0.90935,0.26572 -1.85899,0.39445 -2.79777,0.52512 -0.82765,0.0554 -1.65248,0.14993 -2.4832,0.1022 z m -37.90361,-11.32128 c 0.2184,-0.14792 -0.0222,-0.39285 -0.0436,-0.5915 0.0527,-0.2207 -0.33842,-0.46348 -0.29387,-0.20652 0.0971,0.27453 0.19421,0.54903 0.29129,0.82353 l 0.031,-0.0169 z"
       style="opacity:1;fill:#ba701e;fill-opacity:1;fill-rule:nonzero;stroke:none;stroke-width:0.35269;stroke-miterlimit:4;stroke-dasharray:none"
       id="path3906" />
    <path
       d="m 142.07006,212.79299 c -2.38061,-0.0641 -4.71671,-0.75681 -6.81817,-1.85949 -0.7524,-0.35927 -1.48639,-0.75028 -2.19015,-1.19856 -1.45799,-0.872 -2.83111,-1.88701 -4.11223,-3.00203 -0.89771,-0.80684 -1.75782,-1.65824 -2.5286,-2.58759 -0.60688,-0.6887 -1.13587,-1.44181 -1.671,-2.18596 -1.0184,-1.54072 -1.908,-3.16981 -2.57627,-4.89376 -1.13643,-2.89402 -1.74593,-5.98788 -1.82305,-9.09504 -0.0825,-2.5593 0.18786,-5.12321 0.75071,-7.61982 0.32745,-1.49659 0.78102,-2.964 1.31022,-4.40083 1.12466,-2.99727 2.65148,-5.84532 4.55598,-8.41993 1.39598,-1.88623 2.96813,-3.64599 4.73082,-5.19744 1.11549,-0.9871 2.32065,-1.86573 3.56482,-2.68266 0.19477,-0.22363 0.31793,0.15907 0.47393,0.26412 0.16915,0.18373 0.33824,0.3676 0.50732,0.55143 -0.65683,0.92992 -1.36422,1.82164 -1.98779,2.77509 -1.11182,1.62056 -2.12111,3.3123 -3.01311,5.06388 -0.62393,1.21969 -1.23779,2.54635 -1.7544,3.86154 -1.0172,2.57161 -1.78827,5.2468 -2.23661,7.97687 -0.51139,2.96228 -0.61267,6.0028 -0.21682,8.98582 0.0307,0.20111 0.0624,0.46291 0.0974,0.66957 0.47699,2.92728 1.48753,5.78799 3.11069,8.2792 0.3835,0.57573 0.79026,1.14025 1.23292,1.67209 0.81499,0.98616 1.72198,1.92402 2.72246,2.74825 0.91218,0.75618 1.88528,1.43351 2.89133,2.05803 0.67793,0.38227 1.35442,0.7776 2.05627,1.11594 1.61724,0.79287 3.48047,1.09429 5.26002,0.78303 2.11417,-0.38036 4.05395,-1.38539 5.87192,-2.49354 3.76714,-2.32646 7.18612,-5.20986 11.15208,-7.21201 0.84893,-0.41885 1.72184,-0.79414 2.62632,-1.07625 1.97203,-0.64813 4.0524,-0.91613 6.12162,-0.97798 3.10543,-0.0791 6.1994,0.37413 9.22627,1.03421 1.44557,0.32946 2.87792,0.71314 4.29835,1.13781 -0.0774,0.42859 -0.15477,0.85715 -0.2322,1.28574 -2.85828,-0.22017 -5.70283,-0.42238 -8.56432,-0.33617 -0.76531,0.0222 -1.49264,0.0734 -2.26797,0.13078 -1.34338,0.11476 -2.67469,0.31115 -3.99842,0.6344 -0.77403,0.18704 -1.59339,0.42989 -2.36171,0.73801 -0.96216,0.36431 -1.87381,0.85224 -2.7342,1.41538 -2.6078,1.71002 -4.91613,3.82044 -7.33901,5.77194 -2.2709,1.85 -4.65805,3.6099 -7.33605,4.82713 -2.12986,0.95779 -4.45583,1.51888 -6.79941,1.4588 z"
       style="opacity:1;fill:#ba701e;fill-opacity:1;fill-rule:nonzero;stroke:none;stroke-width:0.35269;stroke-miterlimit:4;stroke-dasharray:none"
       id="path3908" />
    <path
       d="m 132.90059,152.00635 c -2.37684,-0.0318 -4.6156,-1.0753 -6.53126,-2.41723 -2.89358,-2.05726 -5.23716,-4.79824 -7.19447,-7.73942 -2.13907,-3.26534 -3.85005,-6.84445 -4.79563,-10.6415 -0.53961,-2.24568 -0.82822,-4.61208 -0.36604,-6.89766 0.27446,-1.25328 1.20971,-2.26723 2.32015,-2.85979 1.69492,-0.91549 3.64299,-1.19909 5.53974,-1.3444 3.52626,-0.22751 7.0607,0.11292 10.55514,0.57175 2.3295,0.33118 4.65494,0.69197 6.97873,1.0608 3.47052,0.59097 6.94749,1.34338 10.19605,2.73265 1.99775,0.87496 3.97266,2.02163 5.29936,3.79741 0.93958,1.24883 1.3849,2.85171 1.20509,4.40559 -0.21721,1.90832 -1.11912,3.6582 -2.13117,5.26069 -1.90126,2.9324 -4.35857,5.4712 -7.03619,7.70196 -2.7468,2.25036 -5.77652,4.22013 -9.12569,5.44431 -1.57473,0.5618 -3.23395,0.94636 -4.91381,0.92484 z"
       style="opacity:1;fill:#26110b;fill-opacity:1;fill-rule:nonzero;stroke:none;stroke-width:0.35269;stroke-miterlimit:4;stroke-dasharray:none"
       id="path3910" />
    <path
       d="m 149.34611,99.176503 c -2.4632,-0.0909 -4.92157,-1.23504 -6.40338,-3.23557 -1.4254,-1.8694 -1.86626,-4.32967 -1.61166,-6.62947 0.213,-2.06121 1.15926,-4.07254 2.75671,-5.4187 2.97825,-2.5733 7.73306,-2.69106 10.87067,-0.33398 1.64737,1.21342 2.73604,3.10127 3.07657,5.10847 0.40295,2.35285 0.0812,4.91215 -1.26689,6.92443 -1.29022,1.95255 -3.48852,3.2088 -5.79222,3.50703 -0.5393,0.0752 -1.08582,0.0978 -1.6298,0.0778 z"
       style="opacity:1;fill:#26110b;fill-opacity:1;fill-rule:nonzero;stroke:none;stroke-width:0.35269;stroke-miterlimit:4;stroke-dasharray:none"
       id="path3912" />
    <path
       d="m 198.50759,112.94105 c -2.67807,-0.0991 -5.36839,-1.2591 -7.0728,-3.36445 -1.452,-1.75884 -2.07924,-4.08375 -2.01641,-6.33927 0.0286,-2.22832 0.77198,-4.488357 2.28978,-6.148917 1.9015,-2.11974 4.81675,-3.16039 7.63047,-3.04719 2.70112,0.0903 5.41952,1.26185 7.12848,3.39411 1.47002,1.79317 2.0804,4.166837 1.99033,6.457177 -0.0561,2.23178 -0.84151,4.48391 -2.39225,6.11836 -1.91308,2.05476 -4.78374,3.04641 -7.5576,2.93018 z"
       style="opacity:1;fill:#26110b;fill-opacity:1;fill-rule:nonzero;stroke:none;stroke-width:0.35269;stroke-miterlimit:4;stroke-dasharray:none"
       id="path3914" />
    <path
       d="m 241.62367,107.49433 c -2.80444,-0.0962 -5.47779,-1.15224 -7.90519,-2.49854 -0.13504,-0.12118 -0.55068,-0.15318 -0.34152,-0.38369 0.38583,-0.77463 0.77237,-1.54894 1.15739,-2.32399 1.00821,0.42926 2.04008,0.8545 3.06472,1.16565 1.9062,0.58953 4.007,0.89214 5.9424,0.25872 1.83858,-0.59972 3.26341,-2.00857 4.43844,-3.4908 1.97383,-2.471527 3.51303,-5.301577 5.81974,-7.497757 1.51427,-1.46971 3.43256,-2.56615 5.53057,-2.90637 2.52561,-0.41546 5.10268,0.2007 7.41849,1.20464 1.73189,0.77738 3.44368,1.60076 5.19952,2.32477 2.7346,1.13192 5.53114,2.12809 8.40335,2.84991 1.43386,0.36149 2.88523,0.65684 4.34978,0.86417 0.99642,0.161 2.00551,0.23216 3.01036,0.31781 1.10483,0.0374 2.20994,0.0928 3.31481,0.0268 0.70164,-0.0268 1.48851,-0.0865 2.18761,-0.16351 0.86991,-0.0877 1.73154,-0.23675 2.59122,-0.39317 -5.29191,-3.09661 -10.26721,-6.69152 -15.26205,-10.23701 -2.03408,-1.4484 -4.0381,-2.93035 -6.10401,-4.31444 -0.97673,-0.67017 -2.07183,-1.13421 -3.11202,-1.69354 -1.18626,-0.53358 -2.35815,-1.10077 -3.58278,-1.54295 -1.02898,-0.42633 -2.10023,-0.73995 -3.16233,-1.07279 -0.80942,-0.20165 -1.61548,-0.42602 -2.43364,-0.58716 -0.97727,-0.15985 -1.94892,-0.36347 -2.94051,-0.41244 -0.84095,-0.10371 -1.68741,-0.10474 -2.5334,-0.10675 -0.86851,-0.0318 -1.73274,0.0929 -2.59969,0.12679 -0.75883,0.11924 -1.52323,0.21107 -2.2786,0.34932 -0.94206,0.23872 -1.90397,0.40206 -2.81862,0.73956 -0.75967,0.22462 -1.50562,0.48864 -2.23118,0.8073 -0.70069,0.25901 -1.37146,0.56698 -2.02791,0.91063 -0.86229,0.39352 -1.688,0.857 -2.50504,1.33572 -0.62766,0.33464 -1.2307,0.70898 -1.81631,1.11241 -0.60198,0.3955 -1.21408,0.77505 -1.82802,1.15154 -0.58138,-0.67127 -1.16307,-1.34225 -1.74392,-2.01397 0.76605,-0.91045 1.52615,-1.82972 2.35242,-2.68373 0.73886,-0.67362 1.45613,-1.37576 2.23714,-2 0.96284,-0.70397 1.89502,-1.45835 2.94655,-2.02935 0.7717,-0.45734 1.54284,-0.91927 2.37567,-1.25882 0.80529,-0.3646 1.60874,-0.73858 2.46003,-0.98555 0.84102,-0.28759 1.68836,-0.55993 2.56406,-0.72122 0.8237,-0.17883 1.64743,-0.36435 2.49008,-0.42725 0.91627,-0.11571 1.83681,-0.19883 2.76133,-0.18281 0.84864,-0.0219 1.69729,-0.0124 2.54215,0.0769 0.89916,0.0579 1.79578,0.14895 2.68186,0.31369 0.82811,0.11854 1.65114,0.26642 2.46034,0.47911 1.02051,0.222 2.02667,0.50017 3.01865,0.82649 1.25186,0.36265 2.45646,0.8648 3.67368,1.32683 1.31071,0.58 2.627,1.14984 3.89037,1.82951 0.96315,0.46591 1.89339,0.99631 2.77269,1.60739 4.2938,2.93688 8.44254,6.07963 12.71319,9.05002 3.01188,2.09744 6.05003,4.20469 9.24885,6.02862 1.15672,0.63296 2.32253,1.29036 3.59724,1.65414 0.7488,0.15671 1.48233,0.38848 2.22518,0.5746 -0.57053,0.14263 -1.14102,0.28526 -1.71154,0.42789 0.60219,1.36768 1.20449,2.73537 1.8066,4.10309 -1.5091,0.56539 -2.9895,1.215177 -4.54486,1.647997 -0.83982,0.27315 -1.69118,0.5063 -2.55549,0.68541 -0.85947,0.21012 -1.72508,0.39007 -2.60311,0.50282 -2.29559,0.36886 -4.62873,0.49508 -6.95141,0.42499 -1.15973,-0.0599 -2.32114,-0.11176 -3.47109,-0.28046 -1.2592,-0.12683 -2.50123,-0.37627 -3.74184,-0.61966 -2.09706,-0.45607 -4.16857,-1.03166 -6.19439,-1.73986 -2.87465,-0.982377 -5.66745,-2.191347 -8.40282,-3.509117 -1.39065,-0.65948 -2.72961,-1.42829 -4.20454,-1.90218 -0.36753,-0.11983 -0.83185,-0.24235 -1.24774,-0.31383 -1.30313,-0.25608 -2.70715,-0.11154 -3.86708,0.56293 -1.53282,0.88308 -2.66757,2.28463 -3.75888,3.64497 -1.76075,2.256017 -3.40248,4.658787 -5.64269,6.479257 -1.93223,1.58877 -4.40644,2.55955 -6.92368,2.50314 -0.0662,0 -0.1324,-0.004 -0.19858,-0.004 z"
       style="opacity:1;fill:#ba701e;fill-opacity:1;fill-rule:nonzero;stroke:none;stroke-width:0.35269;stroke-miterlimit:4;stroke-dasharray:none"
       id="path3916" />
    <path
       d="m 247.18475,114.68631 c -0.0831,-0.2297 -0.16623,-0.45936 -0.24945,-0.68901 0.76183,-0.64096 1.60444,-1.17535 2.36185,-1.82111 0.6665,-0.51051 1.28305,-1.08278 1.89526,-1.65562 0.55432,-0.55432 1.10176,-1.11506 1.59167,-1.7283 0.41948,-0.47166 0.7663,-1.00185 1.14547,-1.50534 0.39983,-0.63567 0.8002,-1.27137 1.13167,-1.94676 0.29221,-0.54402 0.51354,-1.12452 0.75488,-1.69193 0.23421,-0.68668 0.47963,-1.36934 0.63845,-2.0787 0.17731,-0.64093 0.27295,-1.30306 0.38732,-1.934387 0.0971,-0.79685 0.19582,-1.5947 0.20478,-2.39892 0.0525,-0.76031 0.0155,-1.52429 0.0148,-2.28551 -0.0626,-0.70143 -0.0866,-1.40564 -0.09,-2.10975 0.36411,-0.11395 0.72813,-0.22818 1.09213,-0.34245 0.5885,0.88615 1.20953,1.76799 1.57328,2.77619 0.35501,0.7916 0.57009,1.63195 0.76278,2.47484 0.14051,0.68125 0.21382,1.37792 0.2619,2.07162 0.0254,0.962727 0.0166,1.931837 -0.15677,2.882157 -0.087,0.79318 -0.318,1.56012 -0.54518,2.32191 -0.25298,0.71254 -0.52508,1.42452 -0.87373,2.09575 -0.38044,0.69127 -0.74863,1.39241 -1.24456,2.01027 -0.53915,0.79636 -1.2173,1.4841 -1.89717,2.15956 -0.69702,0.60142 -1.40081,1.20065 -2.19858,1.6667 -0.73904,0.49724 -1.55713,0.86194 -2.37303,1.21204 -0.87881,0.31468 -1.7695,0.61531 -2.69889,0.73656 -0.44722,0.0712 -0.89698,0.12425 -1.34705,0.17431 -0.0473,-0.13137 -0.0946,-0.26275 -0.14192,-0.39412 z"
       style="opacity:1;fill:#ba701e;fill-opacity:1;fill-rule:nonzero;stroke:none;stroke-width:0.35269;stroke-miterlimit:4;stroke-dasharray:none"
       id="path3918" />
    <path
       d="m 187.38822,173.65396 c -1.12826,-0.0205 -2.25246,-0.11871 -3.3714,-0.26194 -0.89894,-0.11451 -1.79087,-0.28871 -2.67839,-0.47138 -1.29833,-0.32343 -2.59715,-0.66107 -3.84404,-1.15256 -1.1,-0.37338 -2.1438,-0.89038 -3.19561,-1.37876 -1.10207,-0.60939 -2.22747,-1.18357 -3.25596,-1.91502 -0.53167,-0.3526 -1.05357,-0.71956 -1.5808,-1.07873 1.04426,-1.60083 2.08739,-3.20244 3.13091,-4.80384 0.9514,0.57206 1.87681,1.18632 2.82497,1.76322 0.73963,0.38925 1.48131,0.88064 2.25926,1.23927 0.73011,0.35987 1.44717,0.74602 2.20952,1.03569 0.95684,0.43617 1.95428,0.7706 2.94738,1.11237 0.95113,0.26145 1.88924,0.57094 2.86012,0.75431 0.85072,0.19703 1.79073,0.34185 2.67719,0.48553 1.29597,0.1754 2.60318,0.27722 3.90635,0.34548 2.48683,0.10837 4.97868,0.038 7.46322,-0.0891 2.39247,-0.1311 4.78148,-0.31426 7.17338,-0.45248 0.0799,0.42164 0.15985,0.84328 0.23911,1.26506 -3.38853,1.10113 -6.82279,2.08097 -10.32407,2.7516 -1.22114,0.24324 -2.45156,0.42997 -3.68755,0.57919 -0.9476,0.11042 -1.89989,0.19318 -2.85224,0.24941 -0.96739,0.0162 -1.93411,0.0732 -2.90135,0.0226 z"
       style="opacity:1;fill:#ba701e;fill-opacity:1;fill-rule:nonzero;stroke:none;stroke-width:0.35269;stroke-miterlimit:4;stroke-dasharray:none"
       id="path3920" />
    <path
       d="m 224.53529,99.061433 c -1.25458,-0.0706 -2.35659,-0.77985 -3.34419,-1.49903 -2.03634,-1.54961 -3.76354,-3.45577 -5.46665,-5.35361 -1.3039,-1.46692 -2.56691,-2.96912 -3.87607,-4.43142 -0.53291,-0.57644 -1.10264,-1.2138 -1.72519,-1.73641 -0.57792,-0.51226 -1.37492,-0.61746 -2.0906,-0.82814 -4.1124,-0.9737 -8.30516,-1.6631 -12.33494,-2.98119 -1.60309,-0.54603 -3.23155,-1.14839 -4.58216,-2.19717 -0.78366,-0.60487 -1.45831,-1.52513 -1.3722,-2.56208 0.14287,-1.47249 1.08588,-2.78811 2.34548,-3.5318 1.66631,-1.00774 3.65054,-1.30566 5.56672,-1.3801 3.42982,-0.0949 6.83998,0.55309 10.11944,1.51575 4.32886,1.30612 8.49905,3.22611 12.17566,5.87311 2.70711,1.96987 5.18485,4.39025 6.71446,7.40361 1.1146,2.19085 1.59959,4.72376 1.20452,7.16177 -0.17632,1.04295 -0.43688,2.08915 -0.9151,3.03777 -0.41378,0.81245 -1.21547,1.47362 -2.15467,1.50453 -0.088,0.006 -0.17631,0.006 -0.26451,0.004 z"
       style="opacity:1;fill:#26110b;fill-opacity:1;fill-rule:nonzero;stroke:none;stroke-width:0.35269;stroke-miterlimit:4;stroke-dasharray:none"
       id="path3922" />
    <path
       d="m 140.50874,79.162583 c -0.87316,-0.0155 -1.79109,-0.41473 -2.20218,-1.22263 -0.67554,-1.1213 -0.84745,-2.54466 -0.37024,-3.7737 0.61214,-1.62799 1.95986,-2.8418 3.36617,-3.79694 2.56501,-1.69316 5.51445,-2.71495 8.49775,-3.38339 3.61428,-0.77258 7.38261,-1.01999 11.03619,-0.37292 2.50934,0.45801 5.02296,1.40723 6.88326,3.20671 0.79738,0.80021 1.52682,1.72795 1.86937,2.8188 0.22408,0.69205 0.067,1.52852 -0.52529,1.99031 -0.83731,0.65313 -1.95192,0.73127 -2.97409,0.7729 -2.31662,0.0303 -4.61338,-0.35155 -6.89179,-0.72683 -1.57823,-0.26247 -3.1272,-0.58413 -4.70483,-0.7861 -0.37443,-0.0528 -0.76411,-0.069 -1.10931,0.11282 -1.54855,0.65892 -3.0093,1.50319 -4.51312,2.25517 -2.04403,1.02686 -4.11155,2.06191 -6.33275,2.64947 -0.66283,0.16411 -1.34376,0.28289 -2.02914,0.25633 z"
       style="opacity:1;fill:#26110b;fill-opacity:1;fill-rule:nonzero;stroke:none;stroke-width:0.35269;stroke-miterlimit:4;stroke-dasharray:none"
       id="path3924" />
    <path
       d="m 199.6307,119.79883 c -3.80073,-0.0863 -7.6527,-1.2005 -10.68455,-3.54619 -2.36029,-1.80725 -4.10005,-4.39208 -4.90929,-7.25068 -0.80754,-2.79936 -0.83615,-5.78534 -0.33944,-8.64337 0.51749,-2.943927 1.8318,-5.808307 4.02283,-7.880767 2.27834,-2.19809 5.3909,-3.40209 8.52406,-3.62772 4.94605,-0.36428 9.96079,1.4109 13.71992,4.6144 2.90854,2.46299 5.01985,5.85685 5.89513,9.569977 0.59168,2.39935 0.67084,4.9742 -0.11296,7.34032 -0.85267,2.67137 -2.75961,4.9198 -5.08653,6.44387 -3.2391,2.12778 -7.18005,3.05707 -11.02917,2.98016 z"
       style="opacity:1;fill:none;stroke:none;stroke-width:0.35269;stroke-linecap:butt;stroke-linejoin:miter;stroke-miterlimit:4;stroke-dasharray:none;stroke-opacity:1"
       id="path3926" />
    <path
       d="m 263.40494,56.320215 c -2.14181,-0.08086 -4.3586,-0.601556 -6.0597,-1.967404 -1.53264,-1.20368 -2.4754,-3.013888 -2.91465,-4.886291 -0.79607,-3.142192 -0.42128,-6.47206 0.55348,-9.529725 1.25412,-3.927089 3.37107,-7.517803 5.74936,-10.86203 3.43362,-4.785043 7.46336,-9.110345 11.68961,-13.200131 7.27946,-7.0233459 15.22765,-13.3049779 23.28446,-19.4044359 3.93291,-3.015687 8.02111,-5.824432 12.14059,-8.5770161 6.84673,-4.535558 13.86178,-8.832602 21.15063,-12.62327 4.88389,-2.520033 9.89068,-4.850377 15.13269,-6.527694 3.06371,-0.958462 6.22966,-1.727553 9.45509,-1.774296 2.22769,-0.02293 4.55621,0.356976 6.4307,1.632091 1.65185,1.098903 2.74971,2.880748 3.26118,4.774247 0.86849,2.993108 0.64455,6.206667 -0.19103,9.180231 -1.12985,3.999229 -3.20601,7.6591581 -5.5584,11.0579241 -3.43894,4.914408 -7.52737,9.337958 -11.81637,13.517388 -7.33761,7.1157009 -15.36438,13.4709929 -23.50518,19.6339509 -3.96947,3.04673 -8.0952,5.883275 -12.25497,8.661895 -7.09729,4.698751 -14.37518,9.145585 -21.95231,13.032351 -4.84149,2.458259 -9.80571,4.727786 -15.00696,6.31698 -3.106,0.923994 -6.32866,1.646483 -9.58822,1.545235 z"
       style="opacity:1;fill:#26110b;fill-opacity:1;fill-rule:nonzero;stroke:none;stroke-width:0.35269;stroke-miterlimit:4;stroke-dasharray:none"
       id="path3928" />
  </g>
</svg>
