<?xml version="1.0" encoding="UTF-8" standalone="no"?>
<svg
   xmlns:dc="http://purl.org/dc/elements/1.1/"
   xmlns:cc="http://creativecommons.org/ns#"
   xmlns:rdf="http://www.w3.org/1999/02/22-rdf-syntax-ns#"
   xmlns:svg="http://www.w3.org/2000/svg"
   xmlns="http://www.w3.org/2000/svg"
   xmlns:sodipodi="http://sodipodi.sourceforge.net/DTD/sodipodi-0.dtd"
   xmlns:inkscape="http://www.inkscape.org/namespaces/inkscape"
   sodipodi:docname="giraffe.svg"
   inkscape:version="1.0 (4035a4fb49, 2020-05-01)"
   id="svg4763"
   version="1.1"
   viewBox="0 0 290.05875 444.17911"
   height="444.17911mm"
   width="290.05875mm">
  <defs
     id="defs4757" />
  <sodipodi:namedview
     inkscape:window-maximized="0"
     inkscape:window-y="0"
     inkscape:window-x="78"
     inkscape:window-height="1040"
     inkscape:window-width="1375"
     fit-margin-bottom="0"
     fit-margin-right="0"
     fit-margin-left="0"
     fit-margin-top="0"
     showgrid="false"
     inkscape:document-rotation="0"
     inkscape:current-layer="layer1"
     inkscape:document-units="mm"
     inkscape:cy="883.56161"
     inkscape:cx="189.33227"
     inkscape:zoom="0.35"
     inkscape:pageshadow="2"
     inkscape:pageopacity="0.0"
     borderopacity="1.0"
     bordercolor="#666666"
     pagecolor="#ffffff"
     id="base" />
  <metadata
     id="metadata4760">
    <rdf:RDF>
      <cc:Work
         rdf:about="">
        <dc:format>image/svg+xml</dc:format>
        <dc:type
           rdf:resource="http://purl.org/dc/dcmitype/StillImage" />
        <dc:title></dc:title>
      </cc:Work>
    </rdf:RDF>
  </metadata>
  <g
     transform="translate(-238.23848,135.91097)"
     id="layer1"
     inkscape:groupmode="layer"
     inkscape:label="Layer 1">
    <g
       id="g6395">
      <path
         id="path3676"
         style="opacity:1;fill:#f2ae40;fill-opacity:1;fill-rule:nonzero;stroke:none;stroke-width:0.35269;stroke-miterlimit:4;stroke-dasharray:none"
         d="m 438.21063,-60.712634 c 4.445,-10.893776 5.23169,-11.6205 16.28422,-15.670387 -12.19905,-6.551083 -11.48644,-6.12775 -9.22867,-19.607389 -11.17952,7.993943 -12.29783,9.510889 -25.71749,6.293556 6.05013,11.303 6.59694,10.39636 -3.91584,17.695333 12.52714,1.689804 15.494,0.973667 22.57778,11.288887 m 78.47188,-26.797 c 21.91457,28.310417 8.83002,66.05058 -6.56518,94.1458004 -2.5118,4.5861196 -5.21759,9.0487496 -7.95867,13.4972796 -2.49062,4.03931 0.0317,8.35731 -1.27353,12.80231 -4.04636,13.76186 -21.14903,7.09789 -30.08489,3.05858 -0.67733,-4.24392 -1.09361,-8.47019 -1.09008,-12.74233 6.23005,4.13102 24.36283,14.15344 21.34305,-0.0811 -2.02847,-9.56734 -7.52475,-18.9582796 -13.98058,-27.6930596 -5.78203,-7.8351904 -12.34017,-15.1376904 -17.8435,-21.5582504 -16.73578,-19.526246 -40.34367,-34.173577 -62.44519,-47.01116 -5.28461,-4.48028 -10.76678,-11.913306 -14.24517,-19.900196 6.83331,1.89089 9.9695,4.370916 14.91192,-0.90311 8.98877,-9.59203 20.19652,-17.61772 32.72366,-21.8193 29.06889,-9.75078 68.04731,4.34975 86.50816,28.204576" />
      <path
         id="path3688"
         style="opacity:1;fill:#26110b;fill-opacity:1;fill-rule:nonzero;stroke:none;stroke-width:0.35269;stroke-miterlimit:4;stroke-dasharray:none"
         d="m 491.05321,23.170796 c 3.01978,14.23458 -15.113,4.21217 -21.34305,0.0811 0.004,-8.66775 1.71802,-17.5295296 6.4523,-27.1074496 l 0.91017,-0.66675 c 6.45583,8.73478 11.95211,18.1257296 13.98058,27.6930596" />
      <path
         id="path3694"
         style="opacity:1;fill:#a3602e;fill-opacity:1;fill-rule:nonzero;stroke:none;stroke-width:0.35269;stroke-miterlimit:4;stroke-dasharray:none"
         d="m 404.993,-27.138804 c 0,-13.137447 -18.52083,-13.137447 -18.52083,0 0,13.13744 18.52083,13.13744 18.52083,0 m 4.74839,-0.65264 c 6.53345,0.26458 -1.25589,-38.512751 -24.62389,-20.986754 -7.88458,5.916084 11.25361,3.767667 11.06664,3.767667 11.70164,0.0035 8.17033,17.000367 13.55725,17.219087 m 68.99275,99.01766 c 4.89656,24.33814 -5.55272,44.358284 -18.95087,64.043294 9.66576,3.60889 4.12009,22.54247 -11.92777,17.81527 -11.97292,-3.5278 -20.2318,-9.76138 -25.49525,-18.41852 l -2.286,-0.41629 c -39.62047,-8.14211 -13.335,-50.468394 -37.97652,-72.312394 -3.01625,-2.67053 -6.26534,-4.72369 -9.53206,-6.58636 C 340.2477,115.81028 331.72459,179.6454 345.07723,246.90955 l 1.10772,0.8114 c -13.42672,18.24918 -24.89905,38.01533 -35.67994,59.16083 l -0.44097,0.1411 c -19.73792,-61.44683 -41.18681,-96.80223 -41.18681,-96.80223 l -0.22578,-0.41979 c 12.79878,-6.75216 21.41009,-18.59491 14.33689,-34.85798 -5.42219,-12.47423 14.91955,26.72301 4.78071,29.18187 l -19.1176,5.67611 c -4.22981,-5.9549 -20.69041,-57.98963 -20.16477,-65.31329 0.86078,-12.04381 -0.004,-24.37341 -2.96333,-36.08916 -1.63337,-6.46288 -4.10987,-12.502444 -7.28487,-18.076334 l 1.00542,-0.39864 c 30.79397,-46.23505 76.33758,-79.75952 106.89166,-125.58888 l 0.23636,-0.303391 c -7.91986,-6.35 -13.38791,-14.6685 -15.9138,-25.202443 -2.02847,-8.466667 -2.30011,-18.125723 -5.969,-26.109084 -0.508,-1.11125 -13.30678,-21.494748 -6.91092,-21.593528 2.83281,-0.0423 16.22778,18.975916 21.27955,21.501805 9.5497,4.773084 18.23156,11.140723 23.37859,20.14714 l 2.59644,-0.1905 c 3.89114,-12.93989 3.05858,-25.840973 0.77964,-39.048975 -1.88031,-10.8973 -28.05288,-18.59139 -3.81706,-27.53077 6.61459,-2.44123 19.50862,-3.70064 24.05945,3.50308 4.56494,7.22489 -5.35164,11.76514 -6.52639,17.63183 -1.21356,6.07131 0.29281,13.165668 3.21028,19.868445 3.47839,7.98689 8.96055,15.419917 14.24516,19.900194 22.10153,12.837583 45.70942,27.484917 62.4452,47.011167 5.50333,6.42055 12.06147,13.72305 17.8435,21.5582504 l -0.91017,0.66675 c -4.73428,9.57792 -6.44878,18.4396896 -6.45231,27.1074396 -0.004,4.27214 0.41275,8.49842 1.09009,12.74234 1.78153,11.22538 5.38727,22.57777 7.93397,35.23191"
         sodipodi:nodetypes="csccccccccccccccccccccccccccccccccccccccccccccc" />
      <path
         id="path3700"
         style="opacity:1;fill:#ffffff;fill-opacity:1;fill-rule:nonzero;stroke:none;stroke-width:0.35269;stroke-miterlimit:4;stroke-dasharray:none"
         d="m 454.49492,-76.382986 c -11.05253,4.049889 -11.83957,4.77661 -16.28422,15.670389 -7.08378,-10.315223 -10.05064,-9.599083 -22.57778,-11.288889 10.51278,-7.298973 9.96597,-6.392334 3.91548,-17.695334 13.41967,3.217334 14.53797,1.70039 25.71785,-6.293553 -2.25813,13.479637 -2.97039,13.056303 9.22867,19.607387" />
      <path
         id="path3726"
         style="opacity:1;fill:#a3602e;fill-opacity:1;fill-rule:nonzero;stroke:none;stroke-width:0.35269;stroke-miterlimit:4;stroke-dasharray:none"
         d="m 385.11758,-48.778126 c 23.36799,-17.526 31.15733,21.251332 24.62388,20.986752 -5.38691,-0.21873 -1.85561,-17.215559 -13.55725,-17.219085 0.18698,0 -18.95122,2.148416 -11.06663,-3.767667" />
      <path
         id="path3738"
         style="opacity:1;fill:#a3602e;fill-opacity:1;fill-rule:nonzero;stroke:none;stroke-width:0.35269;stroke-miterlimit:4;stroke-dasharray:none"
         d="m 386.47217,-27.138804 c 0,-13.137447 18.52083,-13.137447 18.52083,0 0,13.13744 -18.52083,13.13744 -18.52083,0" />
      <path
         id="path3826"
         style="opacity:1;fill:#351b03;fill-opacity:1;fill-rule:nonzero;stroke:none;stroke-width:0.35269;stroke-miterlimit:4;stroke-dasharray:none"
         d="m 451.49148,156.30976 c -1.88056,-0.0518 -3.7368,-0.4196 -5.53417,-0.94231 -4.29905,-1.15552 -8.47654,-2.87121 -12.19323,-5.34154 -3.90631,-2.56919 -7.29922,-5.89365 -10.02351,-9.68894 -4.01095,-5.54921 -6.63766,-11.96625 -8.57578,-18.49769 -0.91825,-3.12434 -1.71489,-6.28442 -2.40993,-9.46538 -0.44845,-2.33606 -0.31077,-4.72944 -0.20779,-7.09076 0.10647,-2.12979 0.245,-4.25983 0.27351,-6.376354 0.0374,-2.81545 -0.0927,-5.58786 -0.53866,-8.35971 -0.20676,-1.2937 -0.48221,-2.64703 -0.83301,-3.90948 -0.89398,-3.22989 -2.20917,-6.34615 -3.95556,-9.20873 -0.85608,-1.46693 -1.85311,-2.84286 -2.84071,-4.22236 0.27267,-0.18161 0.54529,-0.36326 0.81788,-0.54501 1.26556,1.24234 2.4939,2.5261 3.59252,3.92038 1.26372,1.58038 2.37165,3.28271 3.34941,5.05315 1.73334,3.20037 2.9241,6.67992 3.6655,10.23836 0.79096,3.92454 1.01759,7.93333 1.1267,11.926714 0.0328,1.04912 0.0663,2.06929 0.11423,3.1146 0.0293,0.48567 0.062,1.05315 0.11081,1.56951 0.094,1.169 0.28656,2.32974 0.61609,3.4562 1.35135,5.16385 2.92104,10.28658 5.05051,15.18804 0.85513,1.96389 1.82598,3.93202 2.92753,5.79156 0.48111,0.81598 1.03032,1.67444 1.58351,2.47735 2.58709,3.76203 5.89223,7.02847 9.6987,9.55161 1.58317,1.07397 3.27967,2.0478 4.97188,2.88515 2.29256,1.13194 4.65839,2.12376 7.09277,2.90492 2.17604,0.6695 4.54064,0.90654 6.76159,0.30826 3.0287,-0.76983 5.50823,-3.21045 6.49679,-6.15217 0.68464,-1.97374 0.73988,-4.24175 -0.21315,-6.13865 -0.79096,-1.62057 -2.37208,-2.73857 -4.07772,-3.23207 -0.40612,-0.13674 -0.84071,-0.18492 -1.24457,-0.31237 -0.37405,-0.20923 -0.7481,-0.41846 -1.12215,-0.62769 0.45787,-0.12073 0.90802,-0.29978 1.37072,-0.38423 1.88856,-0.004 3.81508,0.51252 5.32342,1.67981 1.74505,1.3154 2.83023,3.36918 3.1823,5.50415 0.60445,3.56746 -0.57027,7.32349 -2.86911,10.0819 -1.9257,2.31513 -4.66263,3.92073 -7.61185,4.51339 -1.27232,0.26784 -2.57669,0.36629 -3.87547,0.33039 z m -0.89574,-5.11596 c -0.30131,0.0441 -0.60265,0.0882 -0.90399,0.13229 0.24024,0.18741 0.48048,0.37484 0.72072,0.56224 0.0611,-0.23151 0.12217,-0.46302 0.18327,-0.69453 z" />
      <path
         id="path3852"
         style="opacity:1;fill:#351b03;fill-opacity:1;fill-rule:nonzero;stroke:none;stroke-width:0.35269;stroke-miterlimit:4;stroke-dasharray:none"
         d="m 421.81818,137.14609 c -2.52978,-0.58682 -5.0285,-1.32839 -7.43187,-2.31653 -3.29254,-1.34755 -6.40274,-3.1941 -9.03414,-5.60028 -2.6827,-2.45615 -4.85077,-5.45752 -6.39272,-8.74897 -1.88384,-3.96324 -2.9336,-8.26343 -3.67274,-12.57155 -1.07904,-6.37769 -1.54291,-12.856994 -2.54219,-19.224344 -0.46203,-2.8798 -1.03512,-5.73433 -1.84365,-8.54985 -0.22366,-0.77192 -0.48489,-1.62056 -0.76034,-2.41152 -0.387,-1.12056 -0.82257,-2.23947 -1.29007,-3.28704 -0.70856,-1.60775 -1.55159,-3.15592 -2.51196,-4.62707 -0.71825,-1.1006 -1.54852,-2.20776 -2.42446,-3.22224 -1.57434,-1.79119 -3.35728,-3.3964 -5.28927,-4.7945 -4.12164,-3.00538 -8.74988,-5.19215 -13.24998,-7.55382 -2.9537,-1.56114 -5.86585,-3.23412 -8.49496,-5.30729 -3.18526,-2.4559 -5.89784,-5.54175 -7.82475,-9.07835 -0.82525,-1.50519 -1.51434,-3.08257 -2.09547,-4.69723 -1.0033,-2.87214 -1.72183,-5.84338 -2.18948,-8.84901 -0.91298,-6.02643 -0.96823,-12.18011 -0.18002,-18.2236196 0.5303,-4.27207 1.51652,-8.48764998 2.92972,-12.55374 1.39438,-3.89583 3.192,-7.6738704 5.60637,-11.0458604 0.46719,-0.65683 0.95752,-1.3039 1.47839,-1.9154 0.36259,-0.22867 0.72514,-0.45735 1.08772,-0.68605 -0.10104,0.4505 -0.14242,0.92318 -0.28063,1.35985 -1.47042,2.44182 -2.70034,5.03202 -3.66388,7.7165204 -0.29803,0.81943 -0.60399,1.72392 -0.86272,2.57415 -1.23656,4.05465 -2.0162,8.21281 -2.40249,12.43066 -0.13511,1.41044 -0.23269,2.87104 -0.27598,4.2828896 -0.0594,2.06192 -0.0373,4.13586 0.0729,6.17626 0.18398,3.46583 0.64273,6.91832 1.4073,10.3045 0.0784,0.31961 0.16948,0.73349 0.25146,1.05565 0.60819,2.42771 1.36635,4.80607 2.38489,7.09408 1.0602,2.32265 2.45039,4.49911 4.14566,6.41131 0.31962,0.36142 0.70327,0.77615 1.06617,1.1412 2.67995,2.73089 5.91241,4.82942 9.17748,6.7872 4.81986,2.8665 9.82906,5.51709 14.22294,9.05044 1.99715,1.60994 3.89682,3.35326 5.55537,5.31435 1.99365,2.34093 3.70145,4.92594 5.05156,7.68925 2.74987,5.48457 4.1413,11.52624 5.07658,17.55539 0.87369,5.47031 1.35481,10.9958 2.2485,16.463434 0.75755,4.52272 1.79264,9.10139 3.81311,13.26384 1.58344,3.24436 3.85547,6.18762 6.77051,8.34101 1.75027,1.31332 3.68504,2.36659 5.70156,3.20913 0.23868,0.0984 0.58003,0.22521 0.85777,0.33411 1.71638,0.6549 3.56052,1.17703 5.30479,1.55655 0.67889,0.13922 1.35862,0.27427 2.03744,0.4141 -0.33352,1.62293 -0.66802,3.24562 -1.00115,4.8686 -0.17777,-0.0434 -0.35553,-0.0868 -0.53329,-0.13021 z" />
      <path
         id="path3854"
         style="opacity:1;fill:#26110b;fill-opacity:1;fill-rule:nonzero;stroke:none;stroke-width:0.35269;stroke-miterlimit:4;stroke-dasharray:none"
         d="m 398.46249,-10.416294 c -2.66651,-0.10728 -5.3086,-1.30627 -7.01661,-3.37958 -1.61678,-1.91272 -2.32996,-4.45357 -2.32583,-6.92841 -0.0265,-2.48825 0.66308,-5.05033 2.26956,-6.99005 1.76699,-2.18591 4.56301,-3.4248 7.35503,-3.45323 2.8473,-0.0609 5.73941,1.13308 7.58081,3.33167 1.63904,1.90951 2.36988,4.46063 2.37066,6.94732 0.0328,2.49964 -0.65497,5.07622 -2.26914,7.02532 -1.82678,2.26078 -4.75114,3.5027 -7.63619,3.45423 -0.10943,-0.004 -0.21886,-0.005 -0.32829,-0.007 z" />
      <path
         id="path3856"
         style="opacity:1;fill:#351b03;fill-opacity:1;fill-rule:nonzero;stroke:none;stroke-width:0.35269;stroke-miterlimit:4;stroke-dasharray:none"
         d="m 449.75377,81.394786 c -2.29733,-0.0878 -4.46854,-1.08765 -6.30041,-2.42877 -2.17991,-1.62507 -4.01482,-3.78505 -5.02785,-6.32544 -0.68923,-1.72971 -0.92644,-3.74439 -0.18465,-5.49705 0.67557,-1.64067 2.23707,-2.79506 3.93686,-3.2003 1.21557,-0.32671 2.48976,-0.33041 3.73475,-0.21004 0.0547,0.38911 0.1101,0.77815 0.16539,1.1672 -1.30567,0.56719 -2.70853,1.08013 -3.70075,2.14764 -0.48094,0.51004 -0.68848,1.25148 -0.50916,1.9334 0.28991,1.22311 1.08458,2.25273 1.91756,3.16318 1.28845,1.3523 2.83612,2.49446 4.58769,3.16709 0.7051,0.23146 1.4913,0.48289 2.22289,0.2255 0.50783,-0.25223 0.71907,-0.83453 0.9065,-1.33339 0.254,-0.8097 0.36728,-1.66286 0.41606,-2.50557 0.012,-0.23298 0.0162,-0.57919 0.004,-0.85556 -0.0152,-0.45325 -0.0642,-0.91112 -0.14298,-1.38366 -0.4801,-2.8423 -2.05328,-5.37447 -3.94406,-7.49953 -1.36158,-1.53236 -2.91877,-2.8805 -4.55944,-4.10503 -0.46122,-0.33644 -0.98291,-0.72009 -1.48371,-1.05226 -0.25143,-0.17099 -0.50285,-0.34206 -0.75424,-0.51319 0.16387,-0.37581 0.32741,-0.7518 0.49057,-1.12793 2.95741,0.60194 5.78538,1.81909 8.26284,3.54111 2.54959,1.77151 4.74574,4.11854 6.11003,6.92443 1.13479,2.31027 1.6533,4.92213 1.47123,7.49091 -0.13445,1.9085 -0.59069,3.86659 -1.72547,5.44139 -1.13125,1.61269 -2.99868,2.67903 -4.96574,2.81496 -0.30861,0.0254 -0.61859,0.031 -0.92805,0.0208 z" />
      <path
         id="path3858"
         style="opacity:1;fill:#351b03;fill-opacity:1;fill-rule:nonzero;stroke:none;stroke-width:0.35269;stroke-miterlimit:4;stroke-dasharray:none"
         d="m 361.91418,-40.485801 c -0.88819,-2.900612 -1.7369,-5.826514 -2.75025,-8.678757 -1.4242,-3.995526 -3.10692,-7.92593 -5.38318,-11.516924 -1.00108,-1.592617 -2.15569,-3.096085 -3.52898,-4.386934 -2.51421,-2.408907 -5.40283,-4.373068 -8.19951,-6.431455 -1.99344,-1.468368 -3.97276,-2.968836 -5.78544,-4.658783 -1.83311,-1.724202 -3.5131,-3.662929 -4.63021,-5.934922 -0.21844,-0.463409 -0.46066,-0.925195 -0.51498,-1.442085 -0.0614,-0.316478 -0.12291,-0.632989 -0.18437,-0.949502 0.41018,0.339865 0.86283,0.636236 1.24609,1.003689 0.70079,0.894927 1.53154,1.74399 2.36093,2.475865 2.13582,1.854869 4.59196,3.289051 7.06324,4.644565 4.09264,2.228146 8.34351,4.247975 12.02411,7.143469 1.90786,1.482971 3.56888,3.266403 4.97854,5.225801 1.73846,2.354369 3.19137,4.916065 4.32333,7.614569 1.6534,3.93319 2.68474,8.129127 3.03865,12.381192 0.0931,1.100879 0.12876,2.205779 0.10576,3.310398 -1.34052,0.208386 -2.68114,0.4161 -4.02181,0.62357 -0.0473,-0.141253 -0.0946,-0.282506 -0.14192,-0.423756 z" />
      <path
         id="path3860"
         style="opacity:1;fill:none;stroke:none;stroke-width:0.35269;stroke-linecap:butt;stroke-linejoin:miter;stroke-miterlimit:4;stroke-dasharray:none;stroke-opacity:1"
         d="m 356.19668,-38.411857 c -1.98642,-2.024414 -3.40254,-4.523071 -4.62852,-7.059366 -1.90958,-4.029004 -3.30429,-8.282022 -4.47121,-12.579067 -1.18043,-4.426196 -2.1275,-8.921573 -2.68594,-13.47029 0.0701,-0.464854 0.14012,-0.929711 0.21015,-1.394565 0.27552,0.421145 0.61602,0.808638 0.84913,1.251762 3.87075,10.913779 7.74834,21.825442 11.61482,32.740563 0.1547,0.570441 0.30942,1.140849 0.46412,1.711253 -0.45085,-0.400084 -0.9017,-0.800168 -1.35255,-1.20029 z" />
      <path
         id="path3978"
         style="opacity:1;fill:#26110b;fill-opacity:1;fill-rule:nonzero;stroke:none;stroke-width:0.35269;stroke-miterlimit:4;stroke-dasharray:none"
         d="m 394.11549,-24.950494 c -1.03597,-2.30752 -1.97348,-4.66644 -2.67307,-7.09909 -0.22514,-0.77949 -0.41282,-1.56795 -0.53252,-2.37101 -0.11366,-0.56819 -0.11923,-1.1749 -0.14428,-1.76132 0.0155,-0.709152 0.0732,-1.40148 0.22909,-2.095958 0.20906,-0.958921 0.58582,-1.878258 1.12667,-2.693493 0.042,-0.248991 0.29788,-0.142875 0.47783,-0.162808 0.33342,0 0.66679,0 1.0002,0 -0.30088,0.424463 -0.70478,0.797102 -0.82338,1.322247 -0.35278,1.060061 -0.40316,2.201545 -0.25838,3.303833 0.0229,0.280035 0.12725,0.650559 0.19237,0.962419 0.13233,0.59704 0.37716,1.16392 0.57923,1.73976 0.82825,1.91956 1.85533,3.74533 2.94908,5.52471 0.41801,0.67694 0.86882,1.3662 1.32362,2.05468 -1.06976,0.60209 -2.13963,1.20393 -3.20946,1.80591 -0.079,-0.17664 -0.15801,-0.35324 -0.237,-0.52988 z m -2.60382,-12.101227 c -0.36763,0.006 -0.012,0.326001 0.0386,0.329459 -0.013,-0.109821 -0.0257,-0.219641 -0.0386,-0.329459 z" />
      <path
         id="path3980"
         style="opacity:1;fill:#26110b;fill-opacity:1;fill-rule:nonzero;stroke:none;stroke-width:0.35269;stroke-miterlimit:4;stroke-dasharray:none"
         d="m 396.1398,-28.120654 c -0.34456,-2.30273 -0.72087,-4.60118 -1.04454,-6.90672 -0.14348,-1.89128 0.12834,-3.784745 0.44118,-5.646319 0.1197,-0.624734 0.2044,-1.265271 0.38654,-1.872472 0.211,-0.394512 0.42199,-0.789024 0.63299,-1.183534 0.11988,0.478049 0.29154,0.949008 0.37966,1.431359 0.024,1.757222 0.11913,3.481319 0.39896,5.217972 0.12784,0.842717 0.37031,1.662144 0.70721,2.444574 0.78165,1.99055 1.56185,3.98166 2.34375,5.97221 -1.38561,0.3756 -2.77089,0.75244 -4.15618,1.12928 -0.03,-0.19544 -0.0597,-0.39088 -0.0896,-0.58635 z" />
      <path
         id="path3982"
         style="opacity:1;fill:#26110b;fill-opacity:1;fill-rule:nonzero;stroke:none;stroke-width:0.35269;stroke-miterlimit:4;stroke-dasharray:none"
         d="m 400.77759,-28.137874 c -0.30529,-1.57173 -0.56705,-3.16089 -0.62209,-4.76285 0.0663,-1.06677 0.45985,-2.07825 0.80285,-3.080281 0.40422,-1.08317 0.82558,-2.164647 1.308,-3.213735 0.28853,-0.366713 0.57707,-0.733463 0.86564,-1.100175 0.0251,0.511141 0.11998,1.025525 0.10016,1.53462 -0.28025,1.671249 -0.57006,3.389911 -0.61119,5.103631 -0.025,0.34255 0.0544,0.67145 0.20387,0.97773 0.53072,1.29317 1.18304,2.53284 1.86433,3.75214 -1.26369,0.46525 -2.52713,0.93116 -3.79099,1.39595 -0.0402,-0.20236 -0.0804,-0.40468 -0.12058,-0.60703 z" />
      <path
         id="path3984"
         style="opacity:1;fill:#351b03;fill-opacity:1;fill-rule:nonzero;stroke:none;stroke-width:0.35269;stroke-miterlimit:4;stroke-dasharray:none"
         d="m 296.77776,55.008816 c -3.69909,-0.0562 -7.37849,-0.60333 -10.98211,-1.41994 -2.20896,-0.52189 -4.41795,-1.11918 -6.48784,-2.06491 -0.45705,-0.22236 -0.9284,-0.45155 -1.32062,-0.77153 -1.01978,-1.78438 -2.03969,-3.56869 -3.05893,-5.35336 9.34818,-10.10162 18.738,-20.16545 28.24811,-30.11562 3.85501,-4.01087 7.70625,-8.0281996 11.70453,-11.8973896 0.9978,-0.93419 1.96861,-1.91072 3.08557,-2.70435998 0.29926,-0.21805 0.77809,-0.34622 1.04571,-0.018 0.30861,0.53448998 0.45063,1.15089998 0.66043,1.72931998 1.29134,4.05934 2.34739,8.1937496 3.19412,12.3684496 0.71261,3.63086 1.30242,7.3091 1.31897,11.01799 -0.0155,1.87294 -0.14263,3.80154 -0.88706,5.54412 -0.42111,0.89993 -1.01826,1.70317 -1.55304,2.53693 -2.55457,3.76534 -5.37792,7.34543 -8.35995,10.78036 -2.2878,2.60286 -4.66079,5.15218 -7.33425,7.36631 -1.34048,1.07915 -2.77914,2.14853 -4.48666,2.54399 -1.56235,0.38633 -3.1835,0.46419 -4.78698,0.45773 z" />
      <path
         id="path3986"
         style="opacity:1;fill:#351b03;fill-opacity:1;fill-rule:nonzero;stroke:none;stroke-width:0.35269;stroke-miterlimit:4;stroke-dasharray:none"
         d="m 276.96089,97.632236 c -1.23098,-0.0598 -2.30046,-0.77827 -3.24933,-1.50354 -1.90662,-1.51815 -3.51085,-3.37136 -5.07831,-5.22662 -2.13346,-2.54543 -4.10016,-5.22555 -6.22794,-7.77546 -2.574,-2.98648 -5.4067,-5.73737 -8.27546,-8.4375 -0.84927,-0.7922 -1.70303,-1.57945 -2.56758,-2.35493 6.00512,-7.10932 12.01091,-14.21807 18.01713,-21.32651 0.59641,0.75801 1.31611,1.40338 2.07158,1.99856 0.8672,0.69201 1.73761,1.32517 2.63296,1.94324 2.01955,1.37774 4.13759,2.70753 6.37854,3.73715 0.96866,0.4475 1.99401,0.80095 3.06613,0.8708 2.15738,0.2032 4.29303,0.19921 6.46095,0.25555 2.54117,0.0631 5.09182,0.0698 7.61767,0.38498 0.83972,0.13434 1.74248,0.23309 2.45283,0.74193 0.57157,0.54317 0.77022,1.34437 1.01078,2.06911 0.73752,2.62753 1.13023,5.33609 1.49398,8.03607 0.43589,3.46823 0.76757,6.95734 0.79149,10.45542 -0.0226,1.10881 0,2.24394 -0.31693,3.31734 -0.33694,0.83464 -1.10282,1.38515 -1.79949,1.90789 -1.90701,1.33442 -4.00166,2.36965 -6.08778,3.38939 -5.7204,2.7318 -11.62092,5.06271 -17.51859,7.37619 -0.27788,0.1039 -0.57679,0.14651 -0.87263,0.14094 z" />
      <path
         id="path3988"
         style="opacity:1;fill:#351b03;fill-opacity:1;fill-rule:nonzero;stroke:none;stroke-width:0.35269;stroke-miterlimit:4;stroke-dasharray:none"
         d="m 332.88925,100.14024 c -2.07204,-0.0307 -4.08601,-0.637054 -5.97559,-1.451864 -3.787,-1.61385 -7.29979,-3.81289 -10.5984,-6.26194 -1.7211,-1.30599 -3.42328,-2.6578 -4.90954,-4.23186 -0.42594,-0.44527 -0.80271,-0.95648 -0.94957,-1.5652 -0.54314,-1.8493 -0.86141,-3.75511 -1.20332,-5.64928 -0.79802,-4.6905 -1.44558,-9.40858 -1.88073,-14.14706 -0.16069,-1.97513 -0.33645,-3.96169 -0.19223,-5.94346 3.5614,-0.54098 7.13189,-1.11932 10.6536,-1.76593 1.94455,-0.381 3.9054,-0.71529 5.80535,-1.28718 0.46775,-0.18454 0.95282,-0.34025 1.46244,-0.32791 1.63625,0 3.24594,0.36157 4.83485,0.71808 3.40699,0.81721 6.75383,1.90617 9.96636,3.30733 1.60916,0.73247 3.23381,1.50911 4.58699,2.66619 0.58071,0.50225 1.09288,1.15746 1.16675,1.94712 0.79219,4.28703 1.36228,8.61674 1.67308,12.96564 0.19583,3.09337 0.30039,6.21633 -0.12026,9.29629 -0.23178,1.51265 -0.56053,3.07979 -1.46255,4.3493 -0.51474,0.64872 -1.11305,1.22805 -1.68342,1.82784 -2.03429,2.07042 -4.36143,3.97877 -7.14459,4.92531 -1.29339,0.44182 -2.66259,0.655184 -4.02922,0.628584 z" />
      <path
         id="path3990"
         style="opacity:1;fill:#351b03;fill-opacity:1;fill-rule:nonzero;stroke:none;stroke-width:0.35269;stroke-miterlimit:4;stroke-dasharray:none"
         d="m 353.46819,60.940596 c -2.04248,-0.0604 -4.16345,-0.45184 -5.8746,-1.63022 -2.90209,-2.06241 -5.74463,-4.19563 -8.82353,-5.97705 -1.68063,-0.95137 -3.42106,-1.87547 -5.32271,-2.28914 -0.95444,-0.22486 -1.94049,-0.078 -2.87772,0.15544 -2.5449,0.64276 -4.94979,1.72152 -7.35612,2.74979 -1.49422,0.6282 -2.96308,1.33548 -4.51876,1.80217 -0.55192,0.1772 -1.16001,0.17307 -1.68946,-0.0772 -1.20526,-0.55443 -2.13861,-1.57088 -2.85598,-2.66513 -0.55231,-0.8968 -1.03117,-1.9728 -0.78768,-3.04518 0.1808,-0.6666 0.68791,-1.1733 1.0826,-1.71979 2.18017,-2.73635 4.49743,-5.35954 6.78014,-8.00968 1.26129,-1.45767 2.53567,-2.90389 3.77907,-4.37709 4.05698,-1.59533 8.16839,-3.07071 12.37406,-4.22677 2.04999,-0.53675 4.12845,-1.06034 6.2556,-1.1407 0.88977,-0.004 1.89445,0.0339 2.58864,0.66562 0.33543,0.29287 0.41222,0.73977 0.53055,1.14374 0.37955,0.93743 0.9707,1.80527 1.51472,2.61697 0.37779,0.56081 0.76542,1.10444 1.17468,1.66617 3.49701,4.78109 7.2989,9.33923 10.59769,14.26436 1.01318,1.55903 2.03464,3.14283 2.66548,4.90245 0.25848,0.78397 0.47329,1.72871 -0.0113,2.4718 -0.33139,0.45971 -0.87665,0.69311 -1.34997,0.97724 -2.12058,1.12035 -4.52279,1.63667 -6.90739,1.73541 -0.32268,0.0113 -0.64512,0.012 -0.96791,0.007 z" />
      <path
         id="path3992"
         style="opacity:1;fill:#351b03;fill-opacity:1;fill-rule:nonzero;stroke:none;stroke-width:0.35269;stroke-miterlimit:4;stroke-dasharray:none"
         d="m 337.14668,26.674976 c -2.13991,-0.0728 -4.17396,-1.02126 -5.8318,-2.33659 -1.1592,-0.94548 -2.23041,-2.12037 -2.67275,-3.57932 -0.46429,-1.78897 -0.70845,-3.62578 -0.99734,-5.44876 -1.02471,-6.9116596 -1.80753,-13.8561196 -2.71872,-20.7833396 -0.0451,-0.34882 -0.10033,-0.69621 -0.1645,-1.04203 4.3119,-5.9269904 8.64027,-11.8416604 12.91911,-17.7925604 0.19558,-0.29524 0.40894,-0.66622 0.81029,-0.67384 0.69522,-0.024 1.34313,0.30141 1.97581,0.54973 2.36445,1.04902 4.60491,2.3556 6.80529,3.70978 1.95957,1.23578 3.91361,2.50662 5.65065,4.04727 0.49237,0.48264 1.07333,0.98006 1.22372,1.68392 0.081,0.33369 -0.11328,0.63285 -0.31454,0.87623 -0.54508,1.05696 -0.88007,2.20634 -1.26358,3.32821 -1.32027,4.1476404 -2.47121,8.3997104 -3.60944,12.6259504 -0.92784,3.49092 -1.84888,6.98423 -2.71576,10.4906996 -0.65302,3.26732 -1.36303,6.56702 -2.79135,9.59784 -0.71589,1.48629 -1.62867,2.97113 -3.03915,3.88966 -0.96767,0.61694 -2.12432,0.8908 -3.26594,0.85715 z" />
      <path
         id="path3994"
         style="opacity:1;fill:#351b03;fill-opacity:1;fill-rule:nonzero;stroke:none;stroke-width:0.35269;stroke-miterlimit:4;stroke-dasharray:none"
         d="m 351.96334,28.841236 c -1.22869,-0.0414 -2.53717,-0.16393 -3.58394,-0.86949 -0.95133,-0.66671 -1.27716,-1.86859 -1.40762,-2.96414 -0.13705,-1.0166 -0.0615,-2.05144 -0.22429,-3.06413 -0.2135,-0.48828 -0.21276,-1.05364 0.0127,-1.53892 0.47247,-1.05512 1.36391,-1.8433 2.22236,-2.58494 2.01856,-1.66518 4.26247,-3.03216 6.53909,-4.31179 0.20373,-0.0952 0.39176,-0.29411 0.6284,-0.17925 1.48089,0.32152 2.89638,0.88413 4.30396,1.4345 1.91452,0.7922 3.82736,1.63689 5.54845,2.80243 0.62004,0.46013 1.33322,0.9657 1.52986,1.75712 0.14361,0.56963 -0.29669,1.03208 -0.57672,1.4762 -1.50411,2.11987 -3.38709,3.95986 -5.46654,5.51271 -0.6834,0.51957 -1.40272,1.00838 -2.22307,1.2845 -1.97294,0.71399 -4.06015,1.09672 -6.1517,1.22305 -0.38319,0.0226 -0.76711,0.0272 -1.1509,0.0222 z" />
      <path
         id="path3996"
         style="opacity:1;fill:#351b03;fill-opacity:1;fill-rule:nonzero;stroke:none;stroke-width:0.35269;stroke-miterlimit:4;stroke-dasharray:none"
         d="m 357.97436,12.144236 c -1.00732,-0.0296 -1.82686,-0.73149 -2.50183,-1.41249 -1.43069,-1.5197996 -2.4614,-3.3704396 -3.30246,-5.2682396 -0.84811,-2.01789 -1.52156,-4.16896 -1.50431,-6.37850998 0.008,-0.65161002 0.10883,-1.30118002 0.3054,-1.92278002 3.87586,-2.54211 7.82034,-4.9899 11.93105,-7.13687 1.74533,-0.8733004 3.50714,-1.7674504 5.40716,-2.2536104 0.7262,-0.16189 1.57942,-0.31309 2.23478,0.13695 0.50895,0.36801 0.55012,1.05035 0.67444,1.61371 0.32166,2.0296004 0.28356,4.0969104 0.18683,6.1433704 -0.17568,2.97177 -0.55298,5.94985 -1.38067,8.81581 -0.46489,1.57445 -1.09883,3.15493 -2.24684,4.36253 -1.26234,1.4181996 -3.01882,2.3292796 -4.86241,2.7254196 -1.61783,0.36607 -3.27758,0.39821 -4.91288,0.57608 z" />
      <path
         id="path3998"
         style="opacity:1;fill:#351b03;fill-opacity:1;fill-rule:nonzero;stroke:none;stroke-width:0.35269;stroke-miterlimit:4;stroke-dasharray:none"
         d="m 347.31938,18.084976 c -0.64802,-0.0551 -0.99043,-0.71469 -1.12311,-1.2809 -0.32078,-1.42124 -0.24101,-2.89338 -0.18122,-4.33808 0.0978,-1.69442 0.28328,-3.3822496 0.51262,-5.0635896 1.93001,0.96961 3.98918,1.6939 5.81325,2.8656496 0.50377,0.35285 1.11404,0.78352 1.14515,1.45725 -0.0593,0.82868 -0.61559,1.50576 -1.09167,2.14676 -1.23793,1.52132 -2.69748,2.86286 -4.2956,3.99775 -0.2304,0.14594 -0.50415,0.24289 -0.77942,0.21516 z" />
      <path
         id="path4000"
         style="opacity:1;fill:#351b03;fill-opacity:1;fill-rule:nonzero;stroke:none;stroke-width:0.35269;stroke-miterlimit:4;stroke-dasharray:none"
         d="m 373.87003,53.255926 c -1.29208,-0.0565 -2.5146,-0.54539 -3.70191,-1.01949 -3.00976,-1.2627 -5.86313,-2.86265 -8.68623,-4.49188 -2.18782,-1.27872 -4.34781,-2.6046 -6.47859,-3.97641 1.34927,-1.09305 2.534,-2.36802 3.79811,-3.55487 2.06798,-1.96208 4.16197,-3.92871 6.55373,-5.49606 0.9791,-0.60435 2.03528,-1.21903 3.21328,-1.27029 0.58444,-0.0411 1.11135,0.2454 1.57854,0.56318 2.99483,1.84164 6.03899,3.66084 8.6663,6.01779 1.04489,0.97133 2.0888,2.03627 2.61179,3.39047 0.49657,1.34031 0.16464,2.84999 -0.55009,4.04675 -1.10394,1.85448 -2.80867,3.24475 -4.51298,4.52339 -0.51484,0.36526 -1.00951,0.76507 -1.54936,1.09174 -0.2927,0.13875 -0.62198,0.17706 -0.94259,0.17568 z" />
      <path
         id="path4002"
         style="opacity:1;fill:#351b03;fill-opacity:1;fill-rule:nonzero;stroke:none;stroke-width:0.35269;stroke-miterlimit:4;stroke-dasharray:none"
         d="m 353.88574,39.931686 c -0.91881,-0.024 -1.60603,-0.75903 -2.10118,-1.45916 -1.02966,-1.50632 -1.65982,-3.2404 -2.22783,-4.96206 -0.14866,-0.45177 -0.27411,-0.91059 -0.40594,-1.36744 1.88207,-0.93571 3.7574,-1.88803 5.64307,-2.81464 1.87356,-0.6127 3.93883,-0.92382 5.86408,-0.36068 1.14649,0.33677 2.27108,1.12399 2.61567,2.31955 0.30522,1.06179 -0.19597,2.15304 -0.85369,2.97173 -1.18307,1.45401 -2.75904,2.51771 -4.32893,3.51099 -1.15475,0.70979 -2.33603,1.37774 -3.52796,2.02184 -0.21314,0.0927 -0.44467,0.14298 -0.67729,0.13987 z" />
      <path
         id="path4004"
         style="opacity:1;fill:#351b03;fill-opacity:1;fill-rule:nonzero;stroke:none;stroke-width:0.35269;stroke-miterlimit:4;stroke-dasharray:none"
         d="m 378.65183,36.018076 c -1.69531,-0.13338 -3.34441,-0.60148 -4.96038,-1.1103 -2.38685,-0.79473 -4.74091,-1.78487 -6.80589,-3.24033 -1.16448,-0.84741 -2.30844,-1.89787 -2.74623,-3.31428 -0.18899,-0.60565 -0.17378,-1.25585 -0.0258,-1.86838 2.08654,-1.66984 4.37466,-3.11062 6.84438,-4.1426 1.643,-0.68996 3.4041,-1.11703 5.19039,-1.14755 2.5878,-0.078 5.20679,0.38746 7.5783,1.43669 1.01702,0.47636 2.05983,1.04316 2.73396,1.96995 0.33725,0.45582 0.45381,1.08105 0.20471,1.60485 -0.83668,2.41163 -1.86428,4.79016 -3.36525,6.86901 -0.90099,1.20788 -2.02932,2.38012 -3.52146,2.80374 -0.36555,0.10343 -0.74715,0.14866 -1.1267,0.1392 z" />
      <path
         id="path4006"
         style="opacity:1;fill:#351b03;fill-opacity:1;fill-rule:nonzero;stroke:none;stroke-width:0.35269;stroke-miterlimit:4;stroke-dasharray:none"
         d="m 377.88909,20.437256 c -1.32525,-0.0296 -2.6512,-0.1162 -3.96695,-0.27678 -2.18941,-0.34552 -4.327,-1.1737 -6.10239,-2.51302 -1.05209,-0.81449 -2.0321,-1.91107 -2.21728,-3.27769 -0.065,-0.52843 -0.005,-1.09506 0.21142,-1.57431 3.17176,-2.38432 6.41026,-4.6890496 9.80144,-6.7525896 1.55243,-0.915 3.12388,-1.84008 4.84247,-2.40912 0.69487,-0.20507 1.51847,-0.40753 2.17654,0.007 0.43776,0.35324 0.71628,0.86473 1.00774,1.33794 1.15052,2.06538 1.69704,4.42842 1.82034,6.7772896 0.0688,1.6486 -0.0652,3.3262 -0.55849,4.90671 -0.43141,1.34384 -1.42483,2.50691 -2.7288,3.06818 -1.33678,0.60791 -2.83644,0.71533 -4.28604,0.70676 z" />
      <path
         id="path4008"
         style="opacity:1;fill:#351b03;fill-opacity:1;fill-rule:nonzero;stroke:none;stroke-width:0.35269;stroke-miterlimit:4;stroke-dasharray:none"
         d="m 372.04275,6.8821964 c -0.23993,-0.0113 -0.45403,-0.18154 -0.51608,-0.41472 -0.0906,-0.28505 0.13088,-0.55016 0.0761,-0.84184 0.1156,-4.0217 0.32865,-8.04844 0.87923,-12.03663 0.26119,-1.70194 0.52994,-3.42766 1.18473,-5.0305804 0.30233,-0.69518 0.76228,-1.48209 1.57663,-1.62048 1.07728,-0.19343 2.16447,0.11476 3.19381,0.41067 2.49079,0.79046 4.84681,1.94708 7.14851,3.1723104 0.74433,0.41667 1.51409,0.80144 2.2025,1.30757 0.39687,0.41346 0.1651,1.03216 -0.10058,1.44971 -0.77646,1.21221 -1.8041,2.23562 -2.79107,3.27466 -1.14981,1.1709 -2.32061,2.32198 -3.50753,3.45493002 -2.0436,1.79626998 -4.17505,3.49168998 -6.35339,5.12126998 -0.82959,0.59232 -1.63635,1.23875 -2.56226,1.67598 -0.13634,0.0515 -0.28395,0.0968 -0.43063,0.0772 z" />
      <path
         id="path4010"
         style="opacity:1;fill:#351b03;fill-opacity:1;fill-rule:nonzero;stroke:none;stroke-width:0.35269;stroke-miterlimit:4;stroke-dasharray:none"
         d="m 303.1684,150.59161 c -5.741,-0.0933 -11.46101,-0.703 -17.1413,-1.51133 -4.11783,-0.60613 -8.22903,-1.29849 -12.2743,-2.28724 -0.98873,-0.27022 -2.00727,-0.49424 -2.92463,-0.96446 -0.65818,-0.39661 -0.93868,-1.16694 -1.21243,-1.84578 -0.72521,-2.02946 -1.11171,-4.15902 -1.50738,-6.27174 -0.98091,-5.63092 -1.61915,-11.31431 -2.20487,-16.99809 -0.12957,-1.39658 -0.29026,-2.79164 -0.38445,-4.19061 0.0517,-1.19447 0.70121,-2.25436 1.34454,-3.224 1.46572,-2.09776 3.28083,-3.92134 5.12297,-5.6865 1.7521,-1.64966 3.56291,-3.24054 5.44403,-4.74034 1.53931,-0.8163 3.14593,-1.49748 4.72849,-2.22445 5.47038,-2.432854 10.97089,-4.802364 16.54094,-6.998974 1.61974,-0.61566 3.23162,-1.27257 4.91144,-1.70857 0.76768,-0.20581 1.54316,0.0911 2.283,0.27781 2.72895,0.8134 5.37358,1.88465 7.98636,3.01075 2.79732,1.23391 5.57431,2.54702 8.15644,4.1928 1.20635,0.793434 2.45314,1.657464 3.16956,2.949574 0.9979,1.75045 1.61925,3.68241 2.21499,5.59788 1.16406,3.94095 2.02004,7.97197 2.60572,12.03847 0.26095,1.96734 0.5104,3.95313 0.40813,5.94135 -0.1451,1.54125 -0.81837,2.96884 -1.5156,4.32932 -1.6291,3.05086 -3.67394,5.85473 -5.7681,8.59865 -2.48934,3.22659 -5.11344,6.34867 -7.80651,9.40657 -1.01124,0.97147 -2.40513,1.3835 -3.73941,1.6891 -2.76927,0.57745 -5.61859,0.63981 -8.43763,0.61981 z" />
      <path
         id="path4012"
         style="opacity:1;fill:#351b03;fill-opacity:1;fill-rule:nonzero;stroke:none;stroke-width:0.35269;stroke-miterlimit:4;stroke-dasharray:none"
         d="m 281.65308,218.41728 c -1.45383,-0.0412 -2.95134,-0.12557 -4.3102,-0.69056 -0.60382,-0.24611 -1.11422,-0.69551 -1.41348,-1.2773 -0.91567,-1.59766 -0.96957,-3.52253 -0.74859,-5.30638 0.37867,-2.80453 1.39368,-5.48796 2.67007,-8.00036 0.65761,-1.2944 1.44081,-2.51976 2.29595,-3.69166 1.8161,-2.68869 3.37812,-5.54431 4.7631,-8.47658 0.94135,-2.04936 1.8368,-4.14396 2.32043,-6.35493 0.20013,-0.91244 0.28751,-1.88298 -0.0226,-2.78235 -0.57055,-1.82235 -1.48213,-3.51386 -2.39336,-5.18409 -1.77171,-3.13738 -3.73101,-6.1731 -5.9104,-9.04335 -0.67049,-0.84529 -1.32104,-1.72776 -2.15572,-2.42036 -0.83813,-0.58891 -1.34158,-1.519 -1.83607,-2.39024 -1.23613,-2.32204 -2.16252,-4.79296 -3.05173,-7.26406 -0.3314,-0.93581 -0.64351,-1.8783 -0.95187,-2.82197 2.52868,0.54753 5.08374,0.96153 7.62564,1.44198 9.02177,1.65452 18.04822,3.29216 27.03118,5.14509 2.44736,0.52361 4.9058,1.01833 7.31188,1.71349 0.58692,0.17876 1.2398,0.3701 1.58009,0.92779 0.61698,0.93366 0.85567,2.05195 1.11224,3.12508 0.65377,3.06162 0.99505,6.17741 1.45362,9.27166 0.42845,2.9075 0.84367,5.83221 1.67189,8.65838 0.90939,2.97119 2.14707,5.89537 2.35839,9.02949 0.2032,2.65118 -0.43254,5.31064 -1.55314,7.70414 -1.0534,2.26425 -2.44606,4.35795 -3.98787,6.31687 -1.88687,2.25872 -4.35452,3.94748 -6.90866,5.36705 -4.0802,2.22972 -8.49182,3.79759 -12.9776,4.98599 -4.00541,1.03772 -8.10098,1.79589 -12.23963,1.99284 -0.57757,0.0225 -1.15548,0.0324 -1.73348,0.0243 z" />
      <path
         id="path4014"
         style="opacity:1;fill:#351b03;fill-opacity:1;fill-rule:nonzero;stroke:none;stroke-width:0.35269;stroke-miterlimit:4;stroke-dasharray:none"
         d="m 335.55576,202.0014 c -0.80066,-0.0435 -1.4454,-0.60206 -2.02456,-1.10308 -1.52918,-1.42864 -2.75897,-3.13915 -3.94807,-4.85135 -2.27161,-3.3538 -4.28477,-6.88369 -6.0216,-10.54298 -0.6187,-1.31686 -1.21666,-2.65282 -1.56715,-4.07024 -0.76926,-2.95807 -1.14286,-6.002 -1.44025,-9.03862 -0.44859,-4.90342 -0.62494,-9.83366 -0.50401,-14.75661 0.0696,-1.84957 0.12534,-3.71205 0.47399,-5.5345 0.36982,-1.57051 1.14459,-3.00627 1.90444,-4.41663 1.70271,-3.01927 3.66705,-5.88812 5.80245,-8.61693 0.91013,-1.12773 1.81599,-2.2802 2.93119,-3.21514 0.17438,-0.11975 0.3337,-0.31527 0.56685,-0.24497 2.43649,0.11152 4.88089,0.28942 7.27593,0.76885 0.93426,0.22019 1.92973,0.42317 2.69543,1.03907 0.41603,0.33338 0.58434,0.94562 0.32484,1.42468 -0.25065,0.90291 -0.29587,1.84891 -0.40386,2.77661 -0.37793,4.10126 -0.58635,8.1983 -0.80363,12.30972 -0.47985,9.67052 -0.8503,19.34165 -1.12642,29.01735 -0.06,1.79814 -0.0697,3.59736 -0.10869,5.39584 -0.12746,3.02821 -0.41511,6.0621 -1.07385,9.0248 -0.31143,1.27617 -0.64847,2.58974 -1.39608,3.68964 -0.35772,0.51054 -0.90145,0.95875 -1.55695,0.94449 z" />
      <path
         id="path4016"
         style="opacity:1;fill:#351b03;fill-opacity:1;fill-rule:nonzero;stroke:none;stroke-width:0.35269;stroke-miterlimit:4;stroke-dasharray:none"
         d="m 342.93513,131.72695 c -0.80797,-0.0586 -1.5045,-0.53784 -2.17354,-0.95303 -1.92659,-1.30408 -3.65043,-2.88916 -5.24728,-4.57515 -1.10582,-1.20816 -2.20603,-2.46648 -2.91515,-3.95686 -0.47314,-1.16681 -0.51403,-2.44997 -0.5613,-3.69196 -0.0489,-3.0305 0.25682,-6.05593 0.68534,-9.05246 0.27482,-1.74709 0.5467,-3.5071 1.09146,-5.19433 0.26201,-0.92361 1.03875,-1.55363 1.77737,-2.10238 1.83454,-1.3129 3.85472,-2.334404 5.83532,-3.403214 2.04414,-1.10261 4.13481,-2.13953 6.04637,-3.46735 1.63953,0.60777 3.28739,1.25836 4.74662,2.23654 0.54832,0.39807 1.18664,0.90724 1.20375,1.64483 -0.019,0.407 -0.26038,0.76277 -0.34166,1.159584 -1.02743,3.54101 -1.94028,7.10921 -2.91666,10.66479 -1.35848,4.96845 -2.70588,9.94304 -4.28054,14.8482 -0.54437,1.62874 -1.06006,3.27856 -1.827,4.81962 -0.24606,0.4331 -0.54568,1.02936 -1.1231,1.02317 z" />
      <path
         id="path4018"
         style="opacity:1;fill:#351b03;fill-opacity:1;fill-rule:nonzero;stroke:none;stroke-width:0.35269;stroke-miterlimit:4;stroke-dasharray:none"
         d="m 355.15764,91.537146 c -0.83019,-0.0883 -1.43468,-0.75409 -1.94585,-1.35435 -1.19938,-1.51916 -2.00999,-3.31678 -2.55866,-5.16403 -0.41208,-1.60214 -0.43875,-3.27039 -0.48225,-4.91489 -0.052,-3.15613 0.10693,-6.31237 0.0222,-9.4681 -0.0307,-0.88943 -0.0874,-1.83984 -0.27117,-2.73604 -0.004,-0.18592 0.29372,-0.25615 0.40837,-0.3968 1.86051,-1.42399 3.72671,-2.85401 5.73864,-4.06041 0.5595,-0.32836 1.16469,-0.65352 1.83525,-0.61507 1.4538,0.0268 2.86569,0.46331 4.21855,0.96471 1.31742,0.52006 2.64055,1.13464 3.68494,2.11233 0.5315,0.49787 0.96721,1.2664 0.6875,2.00431 -0.86254,2.29862 -1.83882,4.55291 -2.78921,6.81609 -1.89318,4.42859 -3.80813,8.85048 -5.89805,13.19064 -0.54264,1.07615 -1.04623,2.18295 -1.73863,3.17345 -0.20779,0.31093 -0.53492,0.48658 -0.91183,0.44816 z" />
      <path
         id="path4022"
         style="opacity:1;fill:#351b03;fill-opacity:1;fill-rule:nonzero;stroke:none;stroke-width:0.35269;stroke-miterlimit:4;stroke-dasharray:none"
         d="m 354.30462,-8.1418636 c -0.57771,0.004 -1.28188,-0.18839 -1.48018,-0.80024 -0.16591,-0.81813 0.0481,-1.6566104 0.2364,-2.4536404 0.59598,-2.18197 1.50777,-4.26537 2.51848,-6.28421 0.23212,-0.46796 0.50581,-0.92132 0.74697,-1.37929 0.46517,-3.76781 0.96724,-7.53664 1.73746,-11.25597 0.26628,-1.16428 0.50236,-2.35635 1.02888,-3.4368 0.19657,-0.42005 0.60657,-0.77731 1.09495,-0.72813 0.83086,0.0687 1.54933,0.55622 2.23696,0.98739 1.96685,1.33568 3.72791,2.95567 5.35958,4.67924 0.89334,0.98756 1.8046,1.99789 2.39,3.20597 0.46478,1.15143 0.58191,2.40845 0.65977,3.63746 0.0906,2.08276 -0.0499,4.20903 -0.70701,6.19947 -0.3955,1.16198 -1.0536,2.3435 -2.19353,2.91183 -2.04813,1.09329 -4.20124,1.97661 -6.36637,2.80818 -2.02142,0.7455204 -4.06813,1.4758104 -6.20056,1.8295004 -0.35179,0.0489 -0.70612,0.0857 -1.0618,0.0792 z" />
      <path
         id="path4024"
         style="opacity:1;fill:#351b03;fill-opacity:1;fill-rule:nonzero;stroke:none;stroke-width:0.35269;stroke-miterlimit:4;stroke-dasharray:none"
         d="m 349.83772,-22.175114 c -1.3214,-0.1034 -2.46867,-0.86943 -3.49811,-1.64511 -1.75433,-1.34857 -3.21271,-3.02345 -4.74631,-4.60583 -0.16415,-0.15121 -0.34198,-0.28692 -0.51163,-0.43184 1.67622,-2.55958 3.35371,-5.11835 5.02916,-7.678456 2.45576,0.314854 4.913,0.766166 7.24539,1.615686 1.12028,0.43755 2.29358,0.94961 3.06119,1.91502 0.41727,0.50091 0.52818,1.16935 0.48757,1.80301 -0.0823,1.98307 -1.03783,3.81565 -2.20941,5.37351 -0.96008,1.25226 -2.09102,2.38312 -3.37781,3.29847 -0.44097,0.27284 -0.96474,0.38651 -1.48004,0.35554 z" />
      <path
         id="path4026"
         style="opacity:1;fill:#351b03;fill-opacity:1;fill-rule:nonzero;stroke:none;stroke-width:0.35269;stroke-miterlimit:4;stroke-dasharray:none"
         d="m 384.40581,42.464526 c -1.09622,-0.0497 -2.21266,-0.6441 -2.66919,-1.6765 -0.61478,-1.29047 -0.1216,-2.91977 0.98506,-3.78048 0.63007,-0.52662 1.47267,-0.67179 2.25514,-0.82885 1.16254,-0.1797 2.43427,-0.23206 3.50177,0.3404 1.02532,0.53449 1.43736,1.85564 1.0964,2.92502 -0.42873,1.40677 -1.73859,2.36763 -3.10141,2.77513 -0.66908,0.1966 -1.37114,0.28225 -2.06777,0.24528 z" />
      <path
         id="path4030"
         style="opacity:1;fill:#351b03;fill-opacity:1;fill-rule:nonzero;stroke:none;stroke-width:0.35269;stroke-miterlimit:4;stroke-dasharray:none"
         d="m 309.56662,307.20428 c -4.91141,-13.49208 -9.82482,-26.98358 -14.807,-40.44958 -1.1085,-2.95651 -2.18913,-5.93661 -3.36264,-8.87291 -1.0898,-2.42377 -2.25672,-4.81245 -3.3928,-7.21487 -2.83158,-5.95437 -5.7058,-11.88789 -8.49507,-17.86144 -0.19646,-0.48932 -0.49315,-0.94935 -0.59694,-1.46981 -0.0471,-0.68297 0.56685,-1.15099 1.09693,-1.45862 0.86254,-0.49353 1.82002,-0.79669 2.75438,-1.10694 1.09658,-0.83561 2.39007,-1.35615 3.64607,-1.90066 3.71277,-1.51627 7.53678,-2.73881 11.36152,-3.93613 5.06116,-1.57752 10.16353,-3.01453 15.26184,-4.46436 2.48197,-0.73335 4.60488,-2.28804 6.58361,-3.90525 1.96991,-1.59346 3.90366,-3.27144 6.1384,-4.49051 1.45828,-0.76772 3.20788,-1.16269 4.81821,-0.66165 1.68493,0.50377 2.95917,1.86579 3.80978,3.35513 1.28733,2.22266 1.79525,4.77293 2.34905,7.2508 1.4328,6.63406 1.99707,13.50905 1.10857,20.25894 -0.41589,3.03702 -1.60553,5.89865 -2.89102,8.65822 -1.78961,3.79519 -3.90514,7.44141 -5.70258,11.21622 -1.07206,2.26642 -2.05031,4.60441 -2.52652,7.07729 -1.12755,5.1109 -1.89393,10.29086 -2.72087,15.456 -0.13071,0.68331 -0.18828,1.40399 -0.56476,2.00893 -1.66321,3.09504 -3.43119,6.13241 -5.17208,9.18403 -2.75361,4.80613 -5.52958,9.59938 -8.30883,14.39101 -0.12909,-0.35462 -0.25817,-0.70922 -0.38725,-1.06384 z" />
      <path
         id="path4032"
         style="opacity:1;fill:#351b03;fill-opacity:1;fill-rule:nonzero;stroke:none;stroke-width:0.35269;stroke-miterlimit:4;stroke-dasharray:none"
         d="m 446.56913,77.824286 c -0.67514,-0.0127 -1.35798,-0.16368 -1.94444,-0.50711 -1.17006,0.004 -2.3235,-0.59387 -2.96171,-1.5808 -0.9174,-1.35904 -1.14416,-3.15486 -0.56751,-4.69329 -0.031,-0.14132 -0.21675,-0.26024 -0.27662,-0.41412 -0.32719,-0.58547 -0.38487,-1.2755 -0.46464,-1.93008 -0.0469,-0.42531 -0.0201,-0.86071 -0.0177,-1.28179 -0.35052,-0.85587 -0.0511,-1.85434 0.57323,-2.50257 1.15592,-1.35477 2.86876,-2.21964 4.6512,-2.30582 1.8016,-0.43487 3.78104,-0.24353 5.39175,0.70598 1.52023,0.84959 2.61373,2.37673 2.98687,4.07186 0.35189,1.46389 0.23477,3.00161 -0.10372,4.45442 0.0854,1.5543 -0.55058,3.12036 -1.69242,4.17753 -0.73748,0.69222 -1.62316,1.23969 -2.58131,1.56488 -0.41857,0.13247 -0.87108,0.0945 -1.28919,0.0169 -0.55407,0.15176 -1.12875,0.23643 -1.70391,0.22391 z" />
      <path
         id="path4052"
         style="opacity:1;fill:#26110b;fill-opacity:1;fill-rule:nonzero;stroke:none;stroke-width:0.35269;stroke-miterlimit:4;stroke-dasharray:none"
         d="m 419.82209,-37.527125 c -1.0534,-0.04138 -1.88059,-0.80518 -2.56953,-1.527034 -1.45761,-1.604611 -2.66224,-3.41697 -4.07504,-5.059715 -1.82023,-2.159354 -3.96551,-4.156675 -6.61346,-5.238469 -2.31757,-0.952357 -4.91313,-1.171538 -7.36575,-0.675709 -1.90779,0.351859 -3.69679,1.122714 -5.53191,1.7224 -0.90417,0.27432 -1.9462,0.540139 -2.83238,0.06749 -0.82638,-0.453885 -1.16522,-1.414958 -1.3602,-2.28272 -0.30145,-1.401974 0.15917,-2.88558 1.05537,-3.981238 1.29744,-1.609585 3.20191,-2.592776 5.12787,-3.246967 3.53282,-1.156298 7.35273,-1.266364 11.00039,-0.64717 2.7705,0.471275 5.48085,1.393224 7.87985,2.871927 3.19673,1.959716 5.92272,4.768109 7.55925,8.160068 0.87739,1.866442 1.45577,3.972914 1.11344,6.042697 -0.24162,1.493694 -1.13489,2.926008 -2.50804,3.615267 -0.27728,0.120544 -0.57721,0.184785 -0.87986,0.179175 z" />
    </g>
    <g
       id="g6607">
      <path
         d="m 438.21063,-60.712634 c 4.445,-10.893776 5.23169,-11.6205 16.28422,-15.670387 -12.19905,-6.551083 -11.48644,-6.12775 -9.22867,-19.607389 -11.17952,7.993943 -12.29783,9.510889 -25.71749,6.293556 6.05013,11.303 6.59694,10.39636 -3.91584,17.695333 12.52714,1.689804 15.494,0.973667 22.57778,11.288887 m 78.47188,-26.797 c 21.91457,28.310417 8.83002,66.05058 -6.56518,94.1458004 -2.5118,4.5861196 -5.21759,9.0487496 -7.95867,13.4972796 -2.49062,4.03931 0.0317,8.35731 -1.27353,12.80231 -4.04636,13.76186 -21.14903,7.09789 -30.08489,3.05858 -0.67733,-4.24392 -1.09361,-8.47019 -1.09008,-12.74233 6.23005,4.13102 24.36283,14.15344 21.34305,-0.0811 -2.02847,-9.56734 -7.52475,-18.9582796 -13.98058,-27.6930596 -5.78203,-7.8351904 -12.34017,-15.1376904 -17.8435,-21.5582504 -16.73578,-19.526246 -40.34367,-34.173577 -62.44519,-47.01116 -5.28461,-4.48028 -10.76678,-11.913306 -14.24517,-19.900196 6.83331,1.89089 9.9695,4.370916 14.91192,-0.90311 8.98877,-9.59203 20.19652,-17.61772 32.72366,-21.8193 29.06889,-9.75078 68.04731,4.34975 86.50816,28.204576"
         style="opacity:1;fill:#f2ae40;fill-opacity:1;fill-rule:nonzero;stroke:none;stroke-width:0.35269;stroke-miterlimit:4;stroke-dasharray:none"
         id="path6529" />
      <path
         d="m 491.05321,23.170796 c 3.01978,14.23458 -15.113,4.21217 -21.34305,0.0811 0.004,-8.66775 1.71802,-17.5295296 6.4523,-27.1074496 l 0.91017,-0.66675 c 6.45583,8.73478 11.95211,18.1257296 13.98058,27.6930596"
         style="opacity:1;fill:#26110b;fill-opacity:1;fill-rule:nonzero;stroke:none;stroke-width:0.35269;stroke-miterlimit:4;stroke-dasharray:none"
         id="path6531" />
      <path
         sodipodi:nodetypes="csccccccccccccccccccccccccccccccccccccccccccccc"
         d="m 404.993,-27.138804 c 0,-13.137447 -18.52083,-13.137447 -18.52083,0 0,13.13744 18.52083,13.13744 18.52083,0 m 4.74839,-0.65264 c 6.53345,0.26458 -1.25589,-38.512751 -24.62389,-20.986754 -7.88458,5.916084 11.25361,3.767667 11.06664,3.767667 11.70164,0.0035 8.17033,17.000367 13.55725,17.219087 m 68.99275,99.01766 c 4.89656,24.33814 -5.55272,44.358284 -18.95087,64.043294 9.66576,3.60889 4.12009,22.54247 -11.92777,17.81527 -11.97292,-3.5278 -20.2318,-9.76138 -25.49525,-18.41852 l -2.286,-0.41629 c -39.62047,-8.14211 -13.335,-50.468394 -37.97652,-72.312394 -3.01625,-2.67053 -6.26534,-4.72369 -9.53206,-6.58636 C 340.2477,115.81028 331.72459,179.6454 345.07723,246.90955 l 1.10772,0.8114 c -13.42672,18.24918 -24.89905,38.01533 -35.67994,59.16083 l -0.44097,0.1411 c -19.73792,-61.44683 -41.18681,-96.80223 -41.18681,-96.80223 l -0.22578,-0.41979 c 12.79878,-6.75216 21.41009,-18.59491 14.33689,-34.85798 -5.42219,-12.47423 14.91955,26.72301 4.78071,29.18187 l -19.1176,5.67611 c -4.22981,-5.9549 -20.69041,-57.98963 -20.16477,-65.31329 0.86078,-12.04381 -0.004,-24.37341 -2.96333,-36.08916 -1.63337,-6.46288 -4.10987,-12.502444 -7.28487,-18.076334 l 1.00542,-0.39864 c 30.79397,-46.23505 76.33758,-79.75952 106.89166,-125.58888 l 0.23636,-0.303391 c -7.91986,-6.35 -13.38791,-14.6685 -15.9138,-25.202443 -2.02847,-8.466667 -2.30011,-18.125723 -5.969,-26.109084 -0.508,-1.11125 -13.30678,-21.494748 -6.91092,-21.593528 2.83281,-0.0423 16.22778,18.975916 21.27955,21.501805 9.5497,4.773084 18.23156,11.140723 23.37859,20.14714 l 2.59644,-0.1905 c 3.89114,-12.93989 3.05858,-25.840973 0.77964,-39.048975 -1.88031,-10.8973 -28.05288,-18.59139 -3.81706,-27.53077 6.61459,-2.44123 19.50862,-3.70064 24.05945,3.50308 4.56494,7.22489 -5.35164,11.76514 -6.52639,17.63183 -1.21356,6.07131 0.29281,13.165668 3.21028,19.868445 3.47839,7.98689 8.96055,15.419917 14.24516,19.900194 22.10153,12.837583 45.70942,27.484917 62.4452,47.011167 5.50333,6.42055 12.06147,13.72305 17.8435,21.5582504 l -0.91017,0.66675 c -4.73428,9.57792 -6.44878,18.4396896 -6.45231,27.1074396 -0.004,4.27214 0.41275,8.49842 1.09009,12.74234 1.78153,11.22538 5.38727,22.57777 7.93397,35.23191"
         style="opacity:1;fill:#a3602e;fill-opacity:1;fill-rule:nonzero;stroke:none;stroke-width:0.35269;stroke-miterlimit:4;stroke-dasharray:none"
         id="path6533" />
      <path
         d="m 454.49492,-76.382986 c -11.05253,4.049889 -11.83957,4.77661 -16.28422,15.670389 -7.08378,-10.315223 -10.05064,-9.599083 -22.57778,-11.288889 10.51278,-7.298973 9.96597,-6.392334 3.91548,-17.695334 13.41967,3.217334 14.53797,1.70039 25.71785,-6.293553 -2.25813,13.479637 -2.97039,13.056303 9.22867,19.607387"
         style="opacity:1;fill:#ffffff;fill-opacity:1;fill-rule:nonzero;stroke:none;stroke-width:0.35269;stroke-miterlimit:4;stroke-dasharray:none"
         id="path6535" />
      <path
         d="m 385.11758,-48.778126 c 23.36799,-17.526 31.15733,21.251332 24.62388,20.986752 -5.38691,-0.21873 -1.85561,-17.215559 -13.55725,-17.219085 0.18698,0 -18.95122,2.148416 -11.06663,-3.767667"
         style="opacity:1;fill:#a3602e;fill-opacity:1;fill-rule:nonzero;stroke:none;stroke-width:0.35269;stroke-miterlimit:4;stroke-dasharray:none"
         id="path6537" />
      <path
         d="m 386.47217,-27.138804 c 0,-13.137447 18.52083,-13.137447 18.52083,0 0,13.13744 -18.52083,13.13744 -18.52083,0"
         style="opacity:1;fill:#a3602e;fill-opacity:1;fill-rule:nonzero;stroke:none;stroke-width:0.35269;stroke-miterlimit:4;stroke-dasharray:none"
         id="path6539" />
      <path
         d="m 451.49148,156.30976 c -1.88056,-0.0518 -3.7368,-0.4196 -5.53417,-0.94231 -4.29905,-1.15552 -8.47654,-2.87121 -12.19323,-5.34154 -3.90631,-2.56919 -7.29922,-5.89365 -10.02351,-9.68894 -4.01095,-5.54921 -6.63766,-11.96625 -8.57578,-18.49769 -0.91825,-3.12434 -1.71489,-6.28442 -2.40993,-9.46538 -0.44845,-2.33606 -0.31077,-4.72944 -0.20779,-7.09076 0.10647,-2.12979 0.245,-4.25983 0.27351,-6.376354 0.0374,-2.81545 -0.0927,-5.58786 -0.53866,-8.35971 -0.20676,-1.2937 -0.48221,-2.64703 -0.83301,-3.90948 -0.89398,-3.22989 -2.20917,-6.34615 -3.95556,-9.20873 -0.85608,-1.46693 -1.85311,-2.84286 -2.84071,-4.22236 0.27267,-0.18161 0.54529,-0.36326 0.81788,-0.54501 1.26556,1.24234 2.4939,2.5261 3.59252,3.92038 1.26372,1.58038 2.37165,3.28271 3.34941,5.05315 1.73334,3.20037 2.9241,6.67992 3.6655,10.23836 0.79096,3.92454 1.01759,7.93333 1.1267,11.926714 0.0328,1.04912 0.0663,2.06929 0.11423,3.1146 0.0293,0.48567 0.062,1.05315 0.11081,1.56951 0.094,1.169 0.28656,2.32974 0.61609,3.4562 1.35135,5.16385 2.92104,10.28658 5.05051,15.18804 0.85513,1.96389 1.82598,3.93202 2.92753,5.79156 0.48111,0.81598 1.03032,1.67444 1.58351,2.47735 2.58709,3.76203 5.89223,7.02847 9.6987,9.55161 1.58317,1.07397 3.27967,2.0478 4.97188,2.88515 2.29256,1.13194 4.65839,2.12376 7.09277,2.90492 2.17604,0.6695 4.54064,0.90654 6.76159,0.30826 3.0287,-0.76983 5.50823,-3.21045 6.49679,-6.15217 0.68464,-1.97374 0.73988,-4.24175 -0.21315,-6.13865 -0.79096,-1.62057 -2.37208,-2.73857 -4.07772,-3.23207 -0.40612,-0.13674 -0.84071,-0.18492 -1.24457,-0.31237 -0.37405,-0.20923 -0.7481,-0.41846 -1.12215,-0.62769 0.45787,-0.12073 0.90802,-0.29978 1.37072,-0.38423 1.88856,-0.004 3.81508,0.51252 5.32342,1.67981 1.74505,1.3154 2.83023,3.36918 3.1823,5.50415 0.60445,3.56746 -0.57027,7.32349 -2.86911,10.0819 -1.9257,2.31513 -4.66263,3.92073 -7.61185,4.51339 -1.27232,0.26784 -2.57669,0.36629 -3.87547,0.33039 z m -0.89574,-5.11596 c -0.30131,0.0441 -0.60265,0.0882 -0.90399,0.13229 0.24024,0.18741 0.48048,0.37484 0.72072,0.56224 0.0611,-0.23151 0.12217,-0.46302 0.18327,-0.69453 z"
         style="opacity:1;fill:#351b03;fill-opacity:1;fill-rule:nonzero;stroke:none;stroke-width:0.35269;stroke-miterlimit:4;stroke-dasharray:none"
         id="path6541" />
      <path
         d="m 421.81818,137.14609 c -2.52978,-0.58682 -5.0285,-1.32839 -7.43187,-2.31653 -3.29254,-1.34755 -6.40274,-3.1941 -9.03414,-5.60028 -2.6827,-2.45615 -4.85077,-5.45752 -6.39272,-8.74897 -1.88384,-3.96324 -2.9336,-8.26343 -3.67274,-12.57155 -1.07904,-6.37769 -1.54291,-12.856994 -2.54219,-19.224344 -0.46203,-2.8798 -1.03512,-5.73433 -1.84365,-8.54985 -0.22366,-0.77192 -0.48489,-1.62056 -0.76034,-2.41152 -0.387,-1.12056 -0.82257,-2.23947 -1.29007,-3.28704 -0.70856,-1.60775 -1.55159,-3.15592 -2.51196,-4.62707 -0.71825,-1.1006 -1.54852,-2.20776 -2.42446,-3.22224 -1.57434,-1.79119 -3.35728,-3.3964 -5.28927,-4.7945 -4.12164,-3.00538 -8.74988,-5.19215 -13.24998,-7.55382 -2.9537,-1.56114 -5.86585,-3.23412 -8.49496,-5.30729 -3.18526,-2.4559 -5.89784,-5.54175 -7.82475,-9.07835 -0.82525,-1.50519 -1.51434,-3.08257 -2.09547,-4.69723 -1.0033,-2.87214 -1.72183,-5.84338 -2.18948,-8.84901 -0.91298,-6.02643 -0.96823,-12.18011 -0.18002,-18.2236196 0.5303,-4.27207 1.51652,-8.48764998 2.92972,-12.55374 1.39438,-3.89583 3.192,-7.6738704 5.60637,-11.0458604 0.46719,-0.65683 0.95752,-1.3039 1.47839,-1.9154 0.36259,-0.22867 0.72514,-0.45735 1.08772,-0.68605 -0.10104,0.4505 -0.14242,0.92318 -0.28063,1.35985 -1.47042,2.44182 -2.70034,5.03202 -3.66388,7.7165204 -0.29803,0.81943 -0.60399,1.72392 -0.86272,2.57415 -1.23656,4.05465 -2.0162,8.21281 -2.40249,12.43066 -0.13511,1.41044 -0.23269,2.87104 -0.27598,4.2828896 -0.0594,2.06192 -0.0373,4.13586 0.0729,6.17626 0.18398,3.46583 0.64273,6.91832 1.4073,10.3045 0.0784,0.31961 0.16948,0.73349 0.25146,1.05565 0.60819,2.42771 1.36635,4.80607 2.38489,7.09408 1.0602,2.32265 2.45039,4.49911 4.14566,6.41131 0.31962,0.36142 0.70327,0.77615 1.06617,1.1412 2.67995,2.73089 5.91241,4.82942 9.17748,6.7872 4.81986,2.8665 9.82906,5.51709 14.22294,9.05044 1.99715,1.60994 3.89682,3.35326 5.55537,5.31435 1.99365,2.34093 3.70145,4.92594 5.05156,7.68925 2.74987,5.48457 4.1413,11.52624 5.07658,17.55539 0.87369,5.47031 1.35481,10.9958 2.2485,16.463434 0.75755,4.52272 1.79264,9.10139 3.81311,13.26384 1.58344,3.24436 3.85547,6.18762 6.77051,8.34101 1.75027,1.31332 3.68504,2.36659 5.70156,3.20913 0.23868,0.0984 0.58003,0.22521 0.85777,0.33411 1.71638,0.6549 3.56052,1.17703 5.30479,1.55655 0.67889,0.13922 1.35862,0.27427 2.03744,0.4141 -0.33352,1.62293 -0.66802,3.24562 -1.00115,4.8686 -0.17777,-0.0434 -0.35553,-0.0868 -0.53329,-0.13021 z"
         style="opacity:1;fill:#351b03;fill-opacity:1;fill-rule:nonzero;stroke:none;stroke-width:0.35269;stroke-miterlimit:4;stroke-dasharray:none"
         id="path6543" />
      <path
         d="m 398.46249,-10.416294 c -2.66651,-0.10728 -5.3086,-1.30627 -7.01661,-3.37958 -1.61678,-1.91272 -2.32996,-4.45357 -2.32583,-6.92841 -0.0265,-2.48825 0.66308,-5.05033 2.26956,-6.99005 1.76699,-2.18591 4.56301,-3.4248 7.35503,-3.45323 2.8473,-0.0609 5.73941,1.13308 7.58081,3.33167 1.63904,1.90951 2.36988,4.46063 2.37066,6.94732 0.0328,2.49964 -0.65497,5.07622 -2.26914,7.02532 -1.82678,2.26078 -4.75114,3.5027 -7.63619,3.45423 -0.10943,-0.004 -0.21886,-0.005 -0.32829,-0.007 z"
         style="opacity:1;fill:#26110b;fill-opacity:1;fill-rule:nonzero;stroke:none;stroke-width:0.35269;stroke-miterlimit:4;stroke-dasharray:none"
         id="path6545" />
      <path
         d="m 449.75377,81.394786 c -2.29733,-0.0878 -4.46854,-1.08765 -6.30041,-2.42877 -2.17991,-1.62507 -4.01482,-3.78505 -5.02785,-6.32544 -0.68923,-1.72971 -0.92644,-3.74439 -0.18465,-5.49705 0.67557,-1.64067 2.23707,-2.79506 3.93686,-3.2003 1.21557,-0.32671 2.48976,-0.33041 3.73475,-0.21004 0.0547,0.38911 0.1101,0.77815 0.16539,1.1672 -1.30567,0.56719 -2.70853,1.08013 -3.70075,2.14764 -0.48094,0.51004 -0.68848,1.25148 -0.50916,1.9334 0.28991,1.22311 1.08458,2.25273 1.91756,3.16318 1.28845,1.3523 2.83612,2.49446 4.58769,3.16709 0.7051,0.23146 1.4913,0.48289 2.22289,0.2255 0.50783,-0.25223 0.71907,-0.83453 0.9065,-1.33339 0.254,-0.8097 0.36728,-1.66286 0.41606,-2.50557 0.012,-0.23298 0.0162,-0.57919 0.004,-0.85556 -0.0152,-0.45325 -0.0642,-0.91112 -0.14298,-1.38366 -0.4801,-2.8423 -2.05328,-5.37447 -3.94406,-7.49953 -1.36158,-1.53236 -2.91877,-2.8805 -4.55944,-4.10503 -0.46122,-0.33644 -0.98291,-0.72009 -1.48371,-1.05226 -0.25143,-0.17099 -0.50285,-0.34206 -0.75424,-0.51319 0.16387,-0.37581 0.32741,-0.7518 0.49057,-1.12793 2.95741,0.60194 5.78538,1.81909 8.26284,3.54111 2.54959,1.77151 4.74574,4.11854 6.11003,6.92443 1.13479,2.31027 1.6533,4.92213 1.47123,7.49091 -0.13445,1.9085 -0.59069,3.86659 -1.72547,5.44139 -1.13125,1.61269 -2.99868,2.67903 -4.96574,2.81496 -0.30861,0.0254 -0.61859,0.031 -0.92805,0.0208 z"
         style="opacity:1;fill:#351b03;fill-opacity:1;fill-rule:nonzero;stroke:none;stroke-width:0.35269;stroke-miterlimit:4;stroke-dasharray:none"
         id="path6547" />
      <path
         d="m 361.91418,-40.485801 c -0.88819,-2.900612 -1.7369,-5.826514 -2.75025,-8.678757 -1.4242,-3.995526 -3.10692,-7.92593 -5.38318,-11.516924 -1.00108,-1.592617 -2.15569,-3.096085 -3.52898,-4.386934 -2.51421,-2.408907 -5.40283,-4.373068 -8.19951,-6.431455 -1.99344,-1.468368 -3.97276,-2.968836 -5.78544,-4.658783 -1.83311,-1.724202 -3.5131,-3.662929 -4.63021,-5.934922 -0.21844,-0.463409 -0.46066,-0.925195 -0.51498,-1.442085 -0.0614,-0.316478 -0.12291,-0.632989 -0.18437,-0.949502 0.41018,0.339865 0.86283,0.636236 1.24609,1.003689 0.70079,0.894927 1.53154,1.74399 2.36093,2.475865 2.13582,1.854869 4.59196,3.289051 7.06324,4.644565 4.09264,2.228146 8.34351,4.247975 12.02411,7.143469 1.90786,1.482971 3.56888,3.266403 4.97854,5.225801 1.73846,2.354369 3.19137,4.916065 4.32333,7.614569 1.6534,3.93319 2.68474,8.129127 3.03865,12.381192 0.0931,1.100879 0.12876,2.205779 0.10576,3.310398 -1.34052,0.208386 -2.68114,0.4161 -4.02181,0.62357 -0.0473,-0.141253 -0.0946,-0.282506 -0.14192,-0.423756 z"
         style="opacity:1;fill:#351b03;fill-opacity:1;fill-rule:nonzero;stroke:none;stroke-width:0.35269;stroke-miterlimit:4;stroke-dasharray:none"
         id="path6549" />
      <path
         d="m 356.19668,-38.411857 c -1.98642,-2.024414 -3.40254,-4.523071 -4.62852,-7.059366 -1.90958,-4.029004 -3.30429,-8.282022 -4.47121,-12.579067 -1.18043,-4.426196 -2.1275,-8.921573 -2.68594,-13.47029 0.0701,-0.464854 0.14012,-0.929711 0.21015,-1.394565 0.27552,0.421145 0.61602,0.808638 0.84913,1.251762 3.87075,10.913779 7.74834,21.825442 11.61482,32.740563 0.1547,0.570441 0.30942,1.140849 0.46412,1.711253 -0.45085,-0.400084 -0.9017,-0.800168 -1.35255,-1.20029 z"
         style="opacity:1;fill:none;stroke:none;stroke-width:0.35269;stroke-linecap:butt;stroke-linejoin:miter;stroke-miterlimit:4;stroke-dasharray:none;stroke-opacity:1"
         id="path6551" />
      <path
         d="m 394.11549,-24.950494 c -1.03597,-2.30752 -1.97348,-4.66644 -2.67307,-7.09909 -0.22514,-0.77949 -0.41282,-1.56795 -0.53252,-2.37101 -0.11366,-0.56819 -0.11923,-1.1749 -0.14428,-1.76132 0.0155,-0.709152 0.0732,-1.40148 0.22909,-2.095958 0.20906,-0.958921 0.58582,-1.878258 1.12667,-2.693493 0.042,-0.248991 0.29788,-0.142875 0.47783,-0.162808 0.33342,0 0.66679,0 1.0002,0 -0.30088,0.424463 -0.70478,0.797102 -0.82338,1.322247 -0.35278,1.060061 -0.40316,2.201545 -0.25838,3.303833 0.0229,0.280035 0.12725,0.650559 0.19237,0.962419 0.13233,0.59704 0.37716,1.16392 0.57923,1.73976 0.82825,1.91956 1.85533,3.74533 2.94908,5.52471 0.41801,0.67694 0.86882,1.3662 1.32362,2.05468 -1.06976,0.60209 -2.13963,1.20393 -3.20946,1.80591 -0.079,-0.17664 -0.15801,-0.35324 -0.237,-0.52988 z m -2.60382,-12.101227 c -0.36763,0.006 -0.012,0.326001 0.0386,0.329459 -0.013,-0.109821 -0.0257,-0.219641 -0.0386,-0.329459 z"
         style="opacity:1;fill:#26110b;fill-opacity:1;fill-rule:nonzero;stroke:none;stroke-width:0.35269;stroke-miterlimit:4;stroke-dasharray:none"
         id="path6553" />
      <path
         d="m 396.1398,-28.120654 c -0.34456,-2.30273 -0.72087,-4.60118 -1.04454,-6.90672 -0.14348,-1.89128 0.12834,-3.784745 0.44118,-5.646319 0.1197,-0.624734 0.2044,-1.265271 0.38654,-1.872472 0.211,-0.394512 0.42199,-0.789024 0.63299,-1.183534 0.11988,0.478049 0.29154,0.949008 0.37966,1.431359 0.024,1.757222 0.11913,3.481319 0.39896,5.217972 0.12784,0.842717 0.37031,1.662144 0.70721,2.444574 0.78165,1.99055 1.56185,3.98166 2.34375,5.97221 -1.38561,0.3756 -2.77089,0.75244 -4.15618,1.12928 -0.03,-0.19544 -0.0597,-0.39088 -0.0896,-0.58635 z"
         style="opacity:1;fill:#26110b;fill-opacity:1;fill-rule:nonzero;stroke:none;stroke-width:0.35269;stroke-miterlimit:4;stroke-dasharray:none"
         id="path6555" />
      <path
         d="m 400.77759,-28.137874 c -0.30529,-1.57173 -0.56705,-3.16089 -0.62209,-4.76285 0.0663,-1.06677 0.45985,-2.07825 0.80285,-3.080281 0.40422,-1.08317 0.82558,-2.164647 1.308,-3.213735 0.28853,-0.366713 0.57707,-0.733463 0.86564,-1.100175 0.0251,0.511141 0.11998,1.025525 0.10016,1.53462 -0.28025,1.671249 -0.57006,3.389911 -0.61119,5.103631 -0.025,0.34255 0.0544,0.67145 0.20387,0.97773 0.53072,1.29317 1.18304,2.53284 1.86433,3.75214 -1.26369,0.46525 -2.52713,0.93116 -3.79099,1.39595 -0.0402,-0.20236 -0.0804,-0.40468 -0.12058,-0.60703 z"
         style="opacity:1;fill:#26110b;fill-opacity:1;fill-rule:nonzero;stroke:none;stroke-width:0.35269;stroke-miterlimit:4;stroke-dasharray:none"
         id="path6557" />
      <path
         d="m 296.77776,55.008816 c -3.69909,-0.0562 -7.37849,-0.60333 -10.98211,-1.41994 -2.20896,-0.52189 -4.41795,-1.11918 -6.48784,-2.06491 -0.45705,-0.22236 -0.9284,-0.45155 -1.32062,-0.77153 -1.01978,-1.78438 -2.03969,-3.56869 -3.05893,-5.35336 9.34818,-10.10162 18.738,-20.16545 28.24811,-30.11562 3.85501,-4.01087 7.70625,-8.0281996 11.70453,-11.8973896 0.9978,-0.93419 1.96861,-1.91072 3.08557,-2.70435998 0.29926,-0.21805 0.77809,-0.34622 1.04571,-0.018 0.30861,0.53448998 0.45063,1.15089998 0.66043,1.72931998 1.29134,4.05934 2.34739,8.1937496 3.19412,12.3684496 0.71261,3.63086 1.30242,7.3091 1.31897,11.01799 -0.0155,1.87294 -0.14263,3.80154 -0.88706,5.54412 -0.42111,0.89993 -1.01826,1.70317 -1.55304,2.53693 -2.55457,3.76534 -5.37792,7.34543 -8.35995,10.78036 -2.2878,2.60286 -4.66079,5.15218 -7.33425,7.36631 -1.34048,1.07915 -2.77914,2.14853 -4.48666,2.54399 -1.56235,0.38633 -3.1835,0.46419 -4.78698,0.45773 z"
         style="opacity:1;fill:#351b03;fill-opacity:1;fill-rule:nonzero;stroke:none;stroke-width:0.35269;stroke-miterlimit:4;stroke-dasharray:none"
         id="path6559" />
      <path
         d="m 276.96089,97.632236 c -1.23098,-0.0598 -2.30046,-0.77827 -3.24933,-1.50354 -1.90662,-1.51815 -3.51085,-3.37136 -5.07831,-5.22662 -2.13346,-2.54543 -4.10016,-5.22555 -6.22794,-7.77546 -2.574,-2.98648 -5.4067,-5.73737 -8.27546,-8.4375 -0.84927,-0.7922 -1.70303,-1.57945 -2.56758,-2.35493 6.00512,-7.10932 12.01091,-14.21807 18.01713,-21.32651 0.59641,0.75801 1.31611,1.40338 2.07158,1.99856 0.8672,0.69201 1.73761,1.32517 2.63296,1.94324 2.01955,1.37774 4.13759,2.70753 6.37854,3.73715 0.96866,0.4475 1.99401,0.80095 3.06613,0.8708 2.15738,0.2032 4.29303,0.19921 6.46095,0.25555 2.54117,0.0631 5.09182,0.0698 7.61767,0.38498 0.83972,0.13434 1.74248,0.23309 2.45283,0.74193 0.57157,0.54317 0.77022,1.34437 1.01078,2.06911 0.73752,2.62753 1.13023,5.33609 1.49398,8.03607 0.43589,3.46823 0.76757,6.95734 0.79149,10.45542 -0.0226,1.10881 0,2.24394 -0.31693,3.31734 -0.33694,0.83464 -1.10282,1.38515 -1.79949,1.90789 -1.90701,1.33442 -4.00166,2.36965 -6.08778,3.38939 -5.7204,2.7318 -11.62092,5.06271 -17.51859,7.37619 -0.27788,0.1039 -0.57679,0.14651 -0.87263,0.14094 z"
         style="opacity:1;fill:#351b03;fill-opacity:1;fill-rule:nonzero;stroke:none;stroke-width:0.35269;stroke-miterlimit:4;stroke-dasharray:none"
         id="path6561" />
      <path
         d="m 332.88925,100.14024 c -2.07204,-0.0307 -4.08601,-0.637054 -5.97559,-1.451864 -3.787,-1.61385 -7.29979,-3.81289 -10.5984,-6.26194 -1.7211,-1.30599 -3.42328,-2.6578 -4.90954,-4.23186 -0.42594,-0.44527 -0.80271,-0.95648 -0.94957,-1.5652 -0.54314,-1.8493 -0.86141,-3.75511 -1.20332,-5.64928 -0.79802,-4.6905 -1.44558,-9.40858 -1.88073,-14.14706 -0.16069,-1.97513 -0.33645,-3.96169 -0.19223,-5.94346 3.5614,-0.54098 7.13189,-1.11932 10.6536,-1.76593 1.94455,-0.381 3.9054,-0.71529 5.80535,-1.28718 0.46775,-0.18454 0.95282,-0.34025 1.46244,-0.32791 1.63625,0 3.24594,0.36157 4.83485,0.71808 3.40699,0.81721 6.75383,1.90617 9.96636,3.30733 1.60916,0.73247 3.23381,1.50911 4.58699,2.66619 0.58071,0.50225 1.09288,1.15746 1.16675,1.94712 0.79219,4.28703 1.36228,8.61674 1.67308,12.96564 0.19583,3.09337 0.30039,6.21633 -0.12026,9.29629 -0.23178,1.51265 -0.56053,3.07979 -1.46255,4.3493 -0.51474,0.64872 -1.11305,1.22805 -1.68342,1.82784 -2.03429,2.07042 -4.36143,3.97877 -7.14459,4.92531 -1.29339,0.44182 -2.66259,0.655184 -4.02922,0.628584 z"
         style="opacity:1;fill:#351b03;fill-opacity:1;fill-rule:nonzero;stroke:none;stroke-width:0.35269;stroke-miterlimit:4;stroke-dasharray:none"
         id="path6563" />
      <path
         d="m 353.46819,60.940596 c -2.04248,-0.0604 -4.16345,-0.45184 -5.8746,-1.63022 -2.90209,-2.06241 -5.74463,-4.19563 -8.82353,-5.97705 -1.68063,-0.95137 -3.42106,-1.87547 -5.32271,-2.28914 -0.95444,-0.22486 -1.94049,-0.078 -2.87772,0.15544 -2.5449,0.64276 -4.94979,1.72152 -7.35612,2.74979 -1.49422,0.6282 -2.96308,1.33548 -4.51876,1.80217 -0.55192,0.1772 -1.16001,0.17307 -1.68946,-0.0772 -1.20526,-0.55443 -2.13861,-1.57088 -2.85598,-2.66513 -0.55231,-0.8968 -1.03117,-1.9728 -0.78768,-3.04518 0.1808,-0.6666 0.68791,-1.1733 1.0826,-1.71979 2.18017,-2.73635 4.49743,-5.35954 6.78014,-8.00968 1.26129,-1.45767 2.53567,-2.90389 3.77907,-4.37709 4.05698,-1.59533 8.16839,-3.07071 12.37406,-4.22677 2.04999,-0.53675 4.12845,-1.06034 6.2556,-1.1407 0.88977,-0.004 1.89445,0.0339 2.58864,0.66562 0.33543,0.29287 0.41222,0.73977 0.53055,1.14374 0.37955,0.93743 0.9707,1.80527 1.51472,2.61697 0.37779,0.56081 0.76542,1.10444 1.17468,1.66617 3.49701,4.78109 7.2989,9.33923 10.59769,14.26436 1.01318,1.55903 2.03464,3.14283 2.66548,4.90245 0.25848,0.78397 0.47329,1.72871 -0.0113,2.4718 -0.33139,0.45971 -0.87665,0.69311 -1.34997,0.97724 -2.12058,1.12035 -4.52279,1.63667 -6.90739,1.73541 -0.32268,0.0113 -0.64512,0.012 -0.96791,0.007 z"
         style="opacity:1;fill:#351b03;fill-opacity:1;fill-rule:nonzero;stroke:none;stroke-width:0.35269;stroke-miterlimit:4;stroke-dasharray:none"
         id="path6565" />
      <path
         d="m 337.14668,26.674976 c -2.13991,-0.0728 -4.17396,-1.02126 -5.8318,-2.33659 -1.1592,-0.94548 -2.23041,-2.12037 -2.67275,-3.57932 -0.46429,-1.78897 -0.70845,-3.62578 -0.99734,-5.44876 -1.02471,-6.9116596 -1.80753,-13.8561196 -2.71872,-20.7833396 -0.0451,-0.34882 -0.10033,-0.69621 -0.1645,-1.04203 4.3119,-5.9269904 8.64027,-11.8416604 12.91911,-17.7925604 0.19558,-0.29524 0.40894,-0.66622 0.81029,-0.67384 0.69522,-0.024 1.34313,0.30141 1.97581,0.54973 2.36445,1.04902 4.60491,2.3556 6.80529,3.70978 1.95957,1.23578 3.91361,2.50662 5.65065,4.04727 0.49237,0.48264 1.07333,0.98006 1.22372,1.68392 0.081,0.33369 -0.11328,0.63285 -0.31454,0.87623 -0.54508,1.05696 -0.88007,2.20634 -1.26358,3.32821 -1.32027,4.1476404 -2.47121,8.3997104 -3.60944,12.6259504 -0.92784,3.49092 -1.84888,6.98423 -2.71576,10.4906996 -0.65302,3.26732 -1.36303,6.56702 -2.79135,9.59784 -0.71589,1.48629 -1.62867,2.97113 -3.03915,3.88966 -0.96767,0.61694 -2.12432,0.8908 -3.26594,0.85715 z"
         style="opacity:1;fill:#351b03;fill-opacity:1;fill-rule:nonzero;stroke:none;stroke-width:0.35269;stroke-miterlimit:4;stroke-dasharray:none"
         id="path6567" />
      <path
         d="m 351.96334,28.841236 c -1.22869,-0.0414 -2.53717,-0.16393 -3.58394,-0.86949 -0.95133,-0.66671 -1.27716,-1.86859 -1.40762,-2.96414 -0.13705,-1.0166 -0.0615,-2.05144 -0.22429,-3.06413 -0.2135,-0.48828 -0.21276,-1.05364 0.0127,-1.53892 0.47247,-1.05512 1.36391,-1.8433 2.22236,-2.58494 2.01856,-1.66518 4.26247,-3.03216 6.53909,-4.31179 0.20373,-0.0952 0.39176,-0.29411 0.6284,-0.17925 1.48089,0.32152 2.89638,0.88413 4.30396,1.4345 1.91452,0.7922 3.82736,1.63689 5.54845,2.80243 0.62004,0.46013 1.33322,0.9657 1.52986,1.75712 0.14361,0.56963 -0.29669,1.03208 -0.57672,1.4762 -1.50411,2.11987 -3.38709,3.95986 -5.46654,5.51271 -0.6834,0.51957 -1.40272,1.00838 -2.22307,1.2845 -1.97294,0.71399 -4.06015,1.09672 -6.1517,1.22305 -0.38319,0.0226 -0.76711,0.0272 -1.1509,0.0222 z"
         style="opacity:1;fill:#351b03;fill-opacity:1;fill-rule:nonzero;stroke:none;stroke-width:0.35269;stroke-miterlimit:4;stroke-dasharray:none"
         id="path6569" />
      <path
         d="m 357.97436,12.144236 c -1.00732,-0.0296 -1.82686,-0.73149 -2.50183,-1.41249 -1.43069,-1.5197996 -2.4614,-3.3704396 -3.30246,-5.2682396 -0.84811,-2.01789 -1.52156,-4.16896 -1.50431,-6.37850998 0.008,-0.65161002 0.10883,-1.30118002 0.3054,-1.92278002 3.87586,-2.54211 7.82034,-4.9899 11.93105,-7.13687 1.74533,-0.8733004 3.50714,-1.7674504 5.40716,-2.2536104 0.7262,-0.16189 1.57942,-0.31309 2.23478,0.13695 0.50895,0.36801 0.55012,1.05035 0.67444,1.61371 0.32166,2.0296004 0.28356,4.0969104 0.18683,6.1433704 -0.17568,2.97177 -0.55298,5.94985 -1.38067,8.81581 -0.46489,1.57445 -1.09883,3.15493 -2.24684,4.36253 -1.26234,1.4181996 -3.01882,2.3292796 -4.86241,2.7254196 -1.61783,0.36607 -3.27758,0.39821 -4.91288,0.57608 z"
         style="opacity:1;fill:#351b03;fill-opacity:1;fill-rule:nonzero;stroke:none;stroke-width:0.35269;stroke-miterlimit:4;stroke-dasharray:none"
         id="path6571" />
      <path
         d="m 347.31938,18.084976 c -0.64802,-0.0551 -0.99043,-0.71469 -1.12311,-1.2809 -0.32078,-1.42124 -0.24101,-2.89338 -0.18122,-4.33808 0.0978,-1.69442 0.28328,-3.3822496 0.51262,-5.0635896 1.93001,0.96961 3.98918,1.6939 5.81325,2.8656496 0.50377,0.35285 1.11404,0.78352 1.14515,1.45725 -0.0593,0.82868 -0.61559,1.50576 -1.09167,2.14676 -1.23793,1.52132 -2.69748,2.86286 -4.2956,3.99775 -0.2304,0.14594 -0.50415,0.24289 -0.77942,0.21516 z"
         style="opacity:1;fill:#351b03;fill-opacity:1;fill-rule:nonzero;stroke:none;stroke-width:0.35269;stroke-miterlimit:4;stroke-dasharray:none"
         id="path6573" />
      <path
         d="m 373.87003,53.255926 c -1.29208,-0.0565 -2.5146,-0.54539 -3.70191,-1.01949 -3.00976,-1.2627 -5.86313,-2.86265 -8.68623,-4.49188 -2.18782,-1.27872 -4.34781,-2.6046 -6.47859,-3.97641 1.34927,-1.09305 2.534,-2.36802 3.79811,-3.55487 2.06798,-1.96208 4.16197,-3.92871 6.55373,-5.49606 0.9791,-0.60435 2.03528,-1.21903 3.21328,-1.27029 0.58444,-0.0411 1.11135,0.2454 1.57854,0.56318 2.99483,1.84164 6.03899,3.66084 8.6663,6.01779 1.04489,0.97133 2.0888,2.03627 2.61179,3.39047 0.49657,1.34031 0.16464,2.84999 -0.55009,4.04675 -1.10394,1.85448 -2.80867,3.24475 -4.51298,4.52339 -0.51484,0.36526 -1.00951,0.76507 -1.54936,1.09174 -0.2927,0.13875 -0.62198,0.17706 -0.94259,0.17568 z"
         style="opacity:1;fill:#351b03;fill-opacity:1;fill-rule:nonzero;stroke:none;stroke-width:0.35269;stroke-miterlimit:4;stroke-dasharray:none"
         id="path6575" />
      <path
         d="m 353.88574,39.931686 c -0.91881,-0.024 -1.60603,-0.75903 -2.10118,-1.45916 -1.02966,-1.50632 -1.65982,-3.2404 -2.22783,-4.96206 -0.14866,-0.45177 -0.27411,-0.91059 -0.40594,-1.36744 1.88207,-0.93571 3.7574,-1.88803 5.64307,-2.81464 1.87356,-0.6127 3.93883,-0.92382 5.86408,-0.36068 1.14649,0.33677 2.27108,1.12399 2.61567,2.31955 0.30522,1.06179 -0.19597,2.15304 -0.85369,2.97173 -1.18307,1.45401 -2.75904,2.51771 -4.32893,3.51099 -1.15475,0.70979 -2.33603,1.37774 -3.52796,2.02184 -0.21314,0.0927 -0.44467,0.14298 -0.67729,0.13987 z"
         style="opacity:1;fill:#351b03;fill-opacity:1;fill-rule:nonzero;stroke:none;stroke-width:0.35269;stroke-miterlimit:4;stroke-dasharray:none"
         id="path6577" />
      <path
         d="m 378.65183,36.018076 c -1.69531,-0.13338 -3.34441,-0.60148 -4.96038,-1.1103 -2.38685,-0.79473 -4.74091,-1.78487 -6.80589,-3.24033 -1.16448,-0.84741 -2.30844,-1.89787 -2.74623,-3.31428 -0.18899,-0.60565 -0.17378,-1.25585 -0.0258,-1.86838 2.08654,-1.66984 4.37466,-3.11062 6.84438,-4.1426 1.643,-0.68996 3.4041,-1.11703 5.19039,-1.14755 2.5878,-0.078 5.20679,0.38746 7.5783,1.43669 1.01702,0.47636 2.05983,1.04316 2.73396,1.96995 0.33725,0.45582 0.45381,1.08105 0.20471,1.60485 -0.83668,2.41163 -1.86428,4.79016 -3.36525,6.86901 -0.90099,1.20788 -2.02932,2.38012 -3.52146,2.80374 -0.36555,0.10343 -0.74715,0.14866 -1.1267,0.1392 z"
         style="opacity:1;fill:#351b03;fill-opacity:1;fill-rule:nonzero;stroke:none;stroke-width:0.35269;stroke-miterlimit:4;stroke-dasharray:none"
         id="path6579" />
      <path
         d="m 377.88909,20.437256 c -1.32525,-0.0296 -2.6512,-0.1162 -3.96695,-0.27678 -2.18941,-0.34552 -4.327,-1.1737 -6.10239,-2.51302 -1.05209,-0.81449 -2.0321,-1.91107 -2.21728,-3.27769 -0.065,-0.52843 -0.005,-1.09506 0.21142,-1.57431 3.17176,-2.38432 6.41026,-4.6890496 9.80144,-6.7525896 1.55243,-0.915 3.12388,-1.84008 4.84247,-2.40912 0.69487,-0.20507 1.51847,-0.40753 2.17654,0.007 0.43776,0.35324 0.71628,0.86473 1.00774,1.33794 1.15052,2.06538 1.69704,4.42842 1.82034,6.7772896 0.0688,1.6486 -0.0652,3.3262 -0.55849,4.90671 -0.43141,1.34384 -1.42483,2.50691 -2.7288,3.06818 -1.33678,0.60791 -2.83644,0.71533 -4.28604,0.70676 z"
         style="opacity:1;fill:#351b03;fill-opacity:1;fill-rule:nonzero;stroke:none;stroke-width:0.35269;stroke-miterlimit:4;stroke-dasharray:none"
         id="path6581" />
      <path
         d="m 372.04275,6.8821964 c -0.23993,-0.0113 -0.45403,-0.18154 -0.51608,-0.41472 -0.0906,-0.28505 0.13088,-0.55016 0.0761,-0.84184 0.1156,-4.0217 0.32865,-8.04844 0.87923,-12.03663 0.26119,-1.70194 0.52994,-3.42766 1.18473,-5.0305804 0.30233,-0.69518 0.76228,-1.48209 1.57663,-1.62048 1.07728,-0.19343 2.16447,0.11476 3.19381,0.41067 2.49079,0.79046 4.84681,1.94708 7.14851,3.1723104 0.74433,0.41667 1.51409,0.80144 2.2025,1.30757 0.39687,0.41346 0.1651,1.03216 -0.10058,1.44971 -0.77646,1.21221 -1.8041,2.23562 -2.79107,3.27466 -1.14981,1.1709 -2.32061,2.32198 -3.50753,3.45493002 -2.0436,1.79626998 -4.17505,3.49168998 -6.35339,5.12126998 -0.82959,0.59232 -1.63635,1.23875 -2.56226,1.67598 -0.13634,0.0515 -0.28395,0.0968 -0.43063,0.0772 z"
         style="opacity:1;fill:#351b03;fill-opacity:1;fill-rule:nonzero;stroke:none;stroke-width:0.35269;stroke-miterlimit:4;stroke-dasharray:none"
         id="path6583" />
      <path
         d="m 303.1684,150.59161 c -5.741,-0.0933 -11.46101,-0.703 -17.1413,-1.51133 -4.11783,-0.60613 -8.22903,-1.29849 -12.2743,-2.28724 -0.98873,-0.27022 -2.00727,-0.49424 -2.92463,-0.96446 -0.65818,-0.39661 -0.93868,-1.16694 -1.21243,-1.84578 -0.72521,-2.02946 -1.11171,-4.15902 -1.50738,-6.27174 -0.98091,-5.63092 -1.61915,-11.31431 -2.20487,-16.99809 -0.12957,-1.39658 -0.29026,-2.79164 -0.38445,-4.19061 0.0517,-1.19447 0.70121,-2.25436 1.34454,-3.224 1.46572,-2.09776 3.28083,-3.92134 5.12297,-5.6865 1.7521,-1.64966 3.56291,-3.24054 5.44403,-4.74034 1.53931,-0.8163 3.14593,-1.49748 4.72849,-2.22445 5.47038,-2.432854 10.97089,-4.802364 16.54094,-6.998974 1.61974,-0.61566 3.23162,-1.27257 4.91144,-1.70857 0.76768,-0.20581 1.54316,0.0911 2.283,0.27781 2.72895,0.8134 5.37358,1.88465 7.98636,3.01075 2.79732,1.23391 5.57431,2.54702 8.15644,4.1928 1.20635,0.793434 2.45314,1.657464 3.16956,2.949574 0.9979,1.75045 1.61925,3.68241 2.21499,5.59788 1.16406,3.94095 2.02004,7.97197 2.60572,12.03847 0.26095,1.96734 0.5104,3.95313 0.40813,5.94135 -0.1451,1.54125 -0.81837,2.96884 -1.5156,4.32932 -1.6291,3.05086 -3.67394,5.85473 -5.7681,8.59865 -2.48934,3.22659 -5.11344,6.34867 -7.80651,9.40657 -1.01124,0.97147 -2.40513,1.3835 -3.73941,1.6891 -2.76927,0.57745 -5.61859,0.63981 -8.43763,0.61981 z"
         style="opacity:1;fill:#351b03;fill-opacity:1;fill-rule:nonzero;stroke:none;stroke-width:0.35269;stroke-miterlimit:4;stroke-dasharray:none"
         id="path6585" />
      <path
         d="m 281.65308,218.41728 c -1.45383,-0.0412 -2.95134,-0.12557 -4.3102,-0.69056 -0.60382,-0.24611 -1.11422,-0.69551 -1.41348,-1.2773 -0.91567,-1.59766 -0.96957,-3.52253 -0.74859,-5.30638 0.37867,-2.80453 1.39368,-5.48796 2.67007,-8.00036 0.65761,-1.2944 1.44081,-2.51976 2.29595,-3.69166 1.8161,-2.68869 3.37812,-5.54431 4.7631,-8.47658 0.94135,-2.04936 1.8368,-4.14396 2.32043,-6.35493 0.20013,-0.91244 0.28751,-1.88298 -0.0226,-2.78235 -0.57055,-1.82235 -1.48213,-3.51386 -2.39336,-5.18409 -1.77171,-3.13738 -3.73101,-6.1731 -5.9104,-9.04335 -0.67049,-0.84529 -1.32104,-1.72776 -2.15572,-2.42036 -0.83813,-0.58891 -1.34158,-1.519 -1.83607,-2.39024 -1.23613,-2.32204 -2.16252,-4.79296 -3.05173,-7.26406 -0.3314,-0.93581 -0.64351,-1.8783 -0.95187,-2.82197 2.52868,0.54753 5.08374,0.96153 7.62564,1.44198 9.02177,1.65452 18.04822,3.29216 27.03118,5.14509 2.44736,0.52361 4.9058,1.01833 7.31188,1.71349 0.58692,0.17876 1.2398,0.3701 1.58009,0.92779 0.61698,0.93366 0.85567,2.05195 1.11224,3.12508 0.65377,3.06162 0.99505,6.17741 1.45362,9.27166 0.42845,2.9075 0.84367,5.83221 1.67189,8.65838 0.90939,2.97119 2.14707,5.89537 2.35839,9.02949 0.2032,2.65118 -0.43254,5.31064 -1.55314,7.70414 -1.0534,2.26425 -2.44606,4.35795 -3.98787,6.31687 -1.88687,2.25872 -4.35452,3.94748 -6.90866,5.36705 -4.0802,2.22972 -8.49182,3.79759 -12.9776,4.98599 -4.00541,1.03772 -8.10098,1.79589 -12.23963,1.99284 -0.57757,0.0225 -1.15548,0.0324 -1.73348,0.0243 z"
         style="opacity:1;fill:#351b03;fill-opacity:1;fill-rule:nonzero;stroke:none;stroke-width:0.35269;stroke-miterlimit:4;stroke-dasharray:none"
         id="path6587" />
      <path
         d="m 335.55576,202.0014 c -0.80066,-0.0435 -1.4454,-0.60206 -2.02456,-1.10308 -1.52918,-1.42864 -2.75897,-3.13915 -3.94807,-4.85135 -2.27161,-3.3538 -4.28477,-6.88369 -6.0216,-10.54298 -0.6187,-1.31686 -1.21666,-2.65282 -1.56715,-4.07024 -0.76926,-2.95807 -1.14286,-6.002 -1.44025,-9.03862 -0.44859,-4.90342 -0.62494,-9.83366 -0.50401,-14.75661 0.0696,-1.84957 0.12534,-3.71205 0.47399,-5.5345 0.36982,-1.57051 1.14459,-3.00627 1.90444,-4.41663 1.70271,-3.01927 3.66705,-5.88812 5.80245,-8.61693 0.91013,-1.12773 1.81599,-2.2802 2.93119,-3.21514 0.17438,-0.11975 0.3337,-0.31527 0.56685,-0.24497 2.43649,0.11152 4.88089,0.28942 7.27593,0.76885 0.93426,0.22019 1.92973,0.42317 2.69543,1.03907 0.41603,0.33338 0.58434,0.94562 0.32484,1.42468 -0.25065,0.90291 -0.29587,1.84891 -0.40386,2.77661 -0.37793,4.10126 -0.58635,8.1983 -0.80363,12.30972 -0.47985,9.67052 -0.8503,19.34165 -1.12642,29.01735 -0.06,1.79814 -0.0697,3.59736 -0.10869,5.39584 -0.12746,3.02821 -0.41511,6.0621 -1.07385,9.0248 -0.31143,1.27617 -0.64847,2.58974 -1.39608,3.68964 -0.35772,0.51054 -0.90145,0.95875 -1.55695,0.94449 z"
         style="opacity:1;fill:#351b03;fill-opacity:1;fill-rule:nonzero;stroke:none;stroke-width:0.35269;stroke-miterlimit:4;stroke-dasharray:none"
         id="path6589" />
      <path
         d="m 342.93513,131.72695 c -0.80797,-0.0586 -1.5045,-0.53784 -2.17354,-0.95303 -1.92659,-1.30408 -3.65043,-2.88916 -5.24728,-4.57515 -1.10582,-1.20816 -2.20603,-2.46648 -2.91515,-3.95686 -0.47314,-1.16681 -0.51403,-2.44997 -0.5613,-3.69196 -0.0489,-3.0305 0.25682,-6.05593 0.68534,-9.05246 0.27482,-1.74709 0.5467,-3.5071 1.09146,-5.19433 0.26201,-0.92361 1.03875,-1.55363 1.77737,-2.10238 1.83454,-1.3129 3.85472,-2.334404 5.83532,-3.403214 2.04414,-1.10261 4.13481,-2.13953 6.04637,-3.46735 1.63953,0.60777 3.28739,1.25836 4.74662,2.23654 0.54832,0.39807 1.18664,0.90724 1.20375,1.64483 -0.019,0.407 -0.26038,0.76277 -0.34166,1.159584 -1.02743,3.54101 -1.94028,7.10921 -2.91666,10.66479 -1.35848,4.96845 -2.70588,9.94304 -4.28054,14.8482 -0.54437,1.62874 -1.06006,3.27856 -1.827,4.81962 -0.24606,0.4331 -0.54568,1.02936 -1.1231,1.02317 z"
         style="opacity:1;fill:#351b03;fill-opacity:1;fill-rule:nonzero;stroke:none;stroke-width:0.35269;stroke-miterlimit:4;stroke-dasharray:none"
         id="path6591" />
      <path
         d="m 355.15764,91.537146 c -0.83019,-0.0883 -1.43468,-0.75409 -1.94585,-1.35435 -1.19938,-1.51916 -2.00999,-3.31678 -2.55866,-5.16403 -0.41208,-1.60214 -0.43875,-3.27039 -0.48225,-4.91489 -0.052,-3.15613 0.10693,-6.31237 0.0222,-9.4681 -0.0307,-0.88943 -0.0874,-1.83984 -0.27117,-2.73604 -0.004,-0.18592 0.29372,-0.25615 0.40837,-0.3968 1.86051,-1.42399 3.72671,-2.85401 5.73864,-4.06041 0.5595,-0.32836 1.16469,-0.65352 1.83525,-0.61507 1.4538,0.0268 2.86569,0.46331 4.21855,0.96471 1.31742,0.52006 2.64055,1.13464 3.68494,2.11233 0.5315,0.49787 0.96721,1.2664 0.6875,2.00431 -0.86254,2.29862 -1.83882,4.55291 -2.78921,6.81609 -1.89318,4.42859 -3.80813,8.85048 -5.89805,13.19064 -0.54264,1.07615 -1.04623,2.18295 -1.73863,3.17345 -0.20779,0.31093 -0.53492,0.48658 -0.91183,0.44816 z"
         style="opacity:1;fill:#351b03;fill-opacity:1;fill-rule:nonzero;stroke:none;stroke-width:0.35269;stroke-miterlimit:4;stroke-dasharray:none"
         id="path6593" />
      <path
         d="m 354.30462,-8.1418636 c -0.57771,0.004 -1.28188,-0.18839 -1.48018,-0.80024 -0.16591,-0.81813 0.0481,-1.6566104 0.2364,-2.4536404 0.59598,-2.18197 1.50777,-4.26537 2.51848,-6.28421 0.23212,-0.46796 0.50581,-0.92132 0.74697,-1.37929 0.46517,-3.76781 0.96724,-7.53664 1.73746,-11.25597 0.26628,-1.16428 0.50236,-2.35635 1.02888,-3.4368 0.19657,-0.42005 0.60657,-0.77731 1.09495,-0.72813 0.83086,0.0687 1.54933,0.55622 2.23696,0.98739 1.96685,1.33568 3.72791,2.95567 5.35958,4.67924 0.89334,0.98756 1.8046,1.99789 2.39,3.20597 0.46478,1.15143 0.58191,2.40845 0.65977,3.63746 0.0906,2.08276 -0.0499,4.20903 -0.70701,6.19947 -0.3955,1.16198 -1.0536,2.3435 -2.19353,2.91183 -2.04813,1.09329 -4.20124,1.97661 -6.36637,2.80818 -2.02142,0.7455204 -4.06813,1.4758104 -6.20056,1.8295004 -0.35179,0.0489 -0.70612,0.0857 -1.0618,0.0792 z"
         style="opacity:1;fill:#351b03;fill-opacity:1;fill-rule:nonzero;stroke:none;stroke-width:0.35269;stroke-miterlimit:4;stroke-dasharray:none"
         id="path6595" />
      <path
         d="m 349.83772,-22.175114 c -1.3214,-0.1034 -2.46867,-0.86943 -3.49811,-1.64511 -1.75433,-1.34857 -3.21271,-3.02345 -4.74631,-4.60583 -0.16415,-0.15121 -0.34198,-0.28692 -0.51163,-0.43184 1.67622,-2.55958 3.35371,-5.11835 5.02916,-7.678456 2.45576,0.314854 4.913,0.766166 7.24539,1.615686 1.12028,0.43755 2.29358,0.94961 3.06119,1.91502 0.41727,0.50091 0.52818,1.16935 0.48757,1.80301 -0.0823,1.98307 -1.03783,3.81565 -2.20941,5.37351 -0.96008,1.25226 -2.09102,2.38312 -3.37781,3.29847 -0.44097,0.27284 -0.96474,0.38651 -1.48004,0.35554 z"
         style="opacity:1;fill:#351b03;fill-opacity:1;fill-rule:nonzero;stroke:none;stroke-width:0.35269;stroke-miterlimit:4;stroke-dasharray:none"
         id="path6597" />
      <path
         d="m 384.40581,42.464526 c -1.09622,-0.0497 -2.21266,-0.6441 -2.66919,-1.6765 -0.61478,-1.29047 -0.1216,-2.91977 0.98506,-3.78048 0.63007,-0.52662 1.47267,-0.67179 2.25514,-0.82885 1.16254,-0.1797 2.43427,-0.23206 3.50177,0.3404 1.02532,0.53449 1.43736,1.85564 1.0964,2.92502 -0.42873,1.40677 -1.73859,2.36763 -3.10141,2.77513 -0.66908,0.1966 -1.37114,0.28225 -2.06777,0.24528 z"
         style="opacity:1;fill:#351b03;fill-opacity:1;fill-rule:nonzero;stroke:none;stroke-width:0.35269;stroke-miterlimit:4;stroke-dasharray:none"
         id="path6599" />
      <path
         d="m 309.56662,307.20428 c -4.91141,-13.49208 -9.82482,-26.98358 -14.807,-40.44958 -1.1085,-2.95651 -2.18913,-5.93661 -3.36264,-8.87291 -1.0898,-2.42377 -2.25672,-4.81245 -3.3928,-7.21487 -2.83158,-5.95437 -5.7058,-11.88789 -8.49507,-17.86144 -0.19646,-0.48932 -0.49315,-0.94935 -0.59694,-1.46981 -0.0471,-0.68297 0.56685,-1.15099 1.09693,-1.45862 0.86254,-0.49353 1.82002,-0.79669 2.75438,-1.10694 1.09658,-0.83561 2.39007,-1.35615 3.64607,-1.90066 3.71277,-1.51627 7.53678,-2.73881 11.36152,-3.93613 5.06116,-1.57752 10.16353,-3.01453 15.26184,-4.46436 2.48197,-0.73335 4.60488,-2.28804 6.58361,-3.90525 1.96991,-1.59346 3.90366,-3.27144 6.1384,-4.49051 1.45828,-0.76772 3.20788,-1.16269 4.81821,-0.66165 1.68493,0.50377 2.95917,1.86579 3.80978,3.35513 1.28733,2.22266 1.79525,4.77293 2.34905,7.2508 1.4328,6.63406 1.99707,13.50905 1.10857,20.25894 -0.41589,3.03702 -1.60553,5.89865 -2.89102,8.65822 -1.78961,3.79519 -3.90514,7.44141 -5.70258,11.21622 -1.07206,2.26642 -2.05031,4.60441 -2.52652,7.07729 -1.12755,5.1109 -1.89393,10.29086 -2.72087,15.456 -0.13071,0.68331 -0.18828,1.40399 -0.56476,2.00893 -1.66321,3.09504 -3.43119,6.13241 -5.17208,9.18403 -2.75361,4.80613 -5.52958,9.59938 -8.30883,14.39101 -0.12909,-0.35462 -0.25817,-0.70922 -0.38725,-1.06384 z"
         style="opacity:1;fill:#351b03;fill-opacity:1;fill-rule:nonzero;stroke:none;stroke-width:0.35269;stroke-miterlimit:4;stroke-dasharray:none"
         id="path6601" />
      <path
         d="m 446.56913,77.824286 c -0.67514,-0.0127 -1.35798,-0.16368 -1.94444,-0.50711 -1.17006,0.004 -2.3235,-0.59387 -2.96171,-1.5808 -0.9174,-1.35904 -1.14416,-3.15486 -0.56751,-4.69329 -0.031,-0.14132 -0.21675,-0.26024 -0.27662,-0.41412 -0.32719,-0.58547 -0.38487,-1.2755 -0.46464,-1.93008 -0.0469,-0.42531 -0.0201,-0.86071 -0.0177,-1.28179 -0.35052,-0.85587 -0.0511,-1.85434 0.57323,-2.50257 1.15592,-1.35477 2.86876,-2.21964 4.6512,-2.30582 1.8016,-0.43487 3.78104,-0.24353 5.39175,0.70598 1.52023,0.84959 2.61373,2.37673 2.98687,4.07186 0.35189,1.46389 0.23477,3.00161 -0.10372,4.45442 0.0854,1.5543 -0.55058,3.12036 -1.69242,4.17753 -0.73748,0.69222 -1.62316,1.23969 -2.58131,1.56488 -0.41857,0.13247 -0.87108,0.0945 -1.28919,0.0169 -0.55407,0.15176 -1.12875,0.23643 -1.70391,0.22391 z"
         style="opacity:1;fill:#351b03;fill-opacity:1;fill-rule:nonzero;stroke:none;stroke-width:0.35269;stroke-miterlimit:4;stroke-dasharray:none"
         id="path6603" />
      <path
         d="m 419.82209,-37.527125 c -1.0534,-0.04138 -1.88059,-0.80518 -2.56953,-1.527034 -1.45761,-1.604611 -2.66224,-3.41697 -4.07504,-5.059715 -1.82023,-2.159354 -3.96551,-4.156675 -6.61346,-5.238469 -2.31757,-0.952357 -4.91313,-1.171538 -7.36575,-0.675709 -1.90779,0.351859 -3.69679,1.122714 -5.53191,1.7224 -0.90417,0.27432 -1.9462,0.540139 -2.83238,0.06749 -0.82638,-0.453885 -1.16522,-1.414958 -1.3602,-2.28272 -0.30145,-1.401974 0.15917,-2.88558 1.05537,-3.981238 1.29744,-1.609585 3.20191,-2.592776 5.12787,-3.246967 3.53282,-1.156298 7.35273,-1.266364 11.00039,-0.64717 2.7705,0.471275 5.48085,1.393224 7.87985,2.871927 3.19673,1.959716 5.92272,4.768109 7.55925,8.160068 0.87739,1.866442 1.45577,3.972914 1.11344,6.042697 -0.24162,1.493694 -1.13489,2.926008 -2.50804,3.615267 -0.27728,0.120544 -0.57721,0.184785 -0.87986,0.179175 z"
         style="opacity:1;fill:#26110b;fill-opacity:1;fill-rule:nonzero;stroke:none;stroke-width:0.35269;stroke-miterlimit:4;stroke-dasharray:none"
         id="path6605" />
    </g>
  </g>
</svg>
