<?xml version="1.0" encoding="UTF-8" standalone="no"?>
<svg
   xmlns:dc="http://purl.org/dc/elements/1.1/"
   xmlns:cc="http://creativecommons.org/ns#"
   xmlns:rdf="http://www.w3.org/1999/02/22-rdf-syntax-ns#"
   xmlns:svg="http://www.w3.org/2000/svg"
   xmlns="http://www.w3.org/2000/svg"
   xmlns:sodipodi="http://sodipodi.sourceforge.net/DTD/sodipodi-0.dtd"
   xmlns:inkscape="http://www.inkscape.org/namespaces/inkscape"
   width="250.13701mm"
   height="303.66147mm"
   viewBox="0 0 250.13701 303.66147"
   version="1.1"
   id="svg6781"
   inkscape:version="1.0 (4035a4fb49, 2020-05-01)"
   sodipodi:docname="lion.svg">
  <defs
     id="defs6775" />
  <sodipodi:namedview
     id="base"
     pagecolor="#ffffff"
     bordercolor="#666666"
     borderopacity="1.0"
     inkscape:pageopacity="0.0"
     inkscape:pageshadow="2"
     inkscape:zoom="0.7"
     inkscape:cx="543.7098"
     inkscape:cy="911.47727"
     inkscape:document-units="mm"
     inkscape:current-layer="layer1"
     inkscape:document-rotation="0"
     showgrid="false"
     fit-margin-top="0"
     fit-margin-left="0"
     fit-margin-right="0"
     fit-margin-bottom="0"
     inkscape:window-width="1375"
     inkscape:window-height="1040"
     inkscape:window-x="182"
     inkscape:window-y="0"
     inkscape:window-maximized="0" />
  <metadata
     id="metadata6778">
    <rdf:RDF>
      <cc:Work
         rdf:about="">
        <dc:format>image/svg+xml</dc:format>
        <dc:type
           rdf:resource="http://purl.org/dc/dcmitype/StillImage" />
        <dc:title />
      </cc:Work>
    </rdf:RDF>
  </metadata>
  <g
     inkscape:label="Layer 1"
     inkscape:groupmode="layer"
     id="layer1"
     transform="translate(-2.6874474,92.110497)">
    <g
       id="g7477">
      <path
         d="m 95.855986,105.68933 c -1.3335,-0.39864 -2.592917,-0.77964 -3.788834,-1.15006 -13.285258,-4.1028 -18.831276,-6.833297 -29.037139,-18.295047 l 0.03175,-2.06728 c 12.710583,0.1023 26.109083,-26.04911 23.251583,-28.27161 -4.811535,-3.74297 -12.72822,-5.21406 -20.228277,-5.61622 -3.619148,-0.25048 -7.231943,-0.16581 -10.50572,0.0423 -0.313973,0.0177 -0.617363,0.0388 -0.917223,0.06 -0.268111,0.0177 -0.532694,0.0353 -0.79375,0.0564 -0.09525,0.007 -0.186974,0.0141 -0.278694,0.0282 -2.89278,0.27516 -4.68489,1.31233 -5.711473,2.82928 l -0.10936,-0.0741 c -3.96875,5.94784 -6.427613,12.86934 -6.604,21.03967 -0.05609,2.50825 0.493887,23.69608 5.591527,22.91291 5.849056,-0.89958 11.938,-7.23194 16.273637,-10.93963 -0.345721,1.016 -0.691444,2.02847 -1.040694,3.04447 2.794,6.03603 5.828242,14.209887 1.270352,20.058937 -5.729462,7.35895 -9.708795,11.38061 -5.57036,21.01497 9.704565,22.58484 35.101387,-14.8978 38.166675,-24.67327 M 119.47446,39.324693 c 0,-10.41047 -15.52222,-10.41047 -15.52222,0 0,10.41047 15.52222,10.41047 15.52222,0 m -11.2783,-14.40744 c 3.97227,-3.07622 18.33386,-11.53936 18.33386,-16.9897799 -11.99445,0.50095 -23.12776,1.22767 -30.183322,11.8886099 -7.327546,11.0737 6.254402,9.42975 11.849462,5.10117 M 79.695236,-15.14411 c 7.186435,-5.5245 10.389658,-14.104057 14.566193,-21.928667 2.879019,-5.393973 6.219471,-10.43164 11.648731,-13.86064 1.28446,-0.811387 2.59326,-1.580443 3.91936,-2.31775 13.3985,-7.447137 28.62086,-11.624027 39.46877,-23.082248 -9.31686,23.597305 -26.50066,37.235695 -47.0923,50.796471 14.31219,-6.088946 30.3283,-4.116916 44.98657,-8.801806 14.53762,-4.646083 28.54995,-13.211527 42.3224,-19.769667 -10.3117,23.248057 -31.97543,38.223473 -57.64389,34.63925 -0.5394,-0.07761 -1.08268,-0.162277 -1.62278,-0.246943 0.54328,0.09172 1.08338,0.176387 1.62278,0.246943 22.96583,3.439584 46.49646,3.012723 61.87722,-17.180277 -2.04611,20.725694 -19.177,29.8238341 -37.39797,26.6876381 l -0.18697,0.956029 c 9.34861,4.720167 20.47169,4.325054 28.92778,-2.1166671 -4.15925,6.4135001 -10.42106,11.21833109 -17.19792,14.6755541 -1.09714,0.483307 -2.18722,1.00189 -3.2632,1.552223 1.09749,-0.483306 2.18723,-1.001889 3.2632,-1.552223 9.91693,-4.36739001 20.60928,-6.08189 31.32666,-7.71172 8.32591,-1.266473 16.66875,-2.48003 24.67681,-4.847167 -11.78983,6.163027 -23.8125,13.09511 -31.04444,24.6944399 0.06,-0.007 0.11994,-0.0176 0.17991,-0.0247 l 0.37748,2.77283 c 2.83986,2.27542 5.44688,5.28461 7.73641,9.09814 4.3113,7.17903 4.5085,13.14803 2.17311,17.84703 l 4.05024,0.55033 c -0.13793,0.26458 -0.27199,0.53269 -0.40604,0.80081 10.93964,-1.57339 20.26002,-8.4702 28.92777,-14.81667 -5.588,14.30867 -16.26658,23.42797 -29.63333,30.33889 16.54563,1.30528 29.12181,-8.24089 41.62778,-17.63889 -4.87539,20.06953 -21.12081,33.33397 -39.51111,40.92222 14.11111,8.50195 30.12369,0.39511 44.45,-2.82222 -16.95415,19.931937 -38.96431,32.035747 -65.61667,30.338887 12.80231,6.17361 27.42177,4.36386 40.92222,2.11666 -11.16894,16.97214 -32.35677,15.21884 -50.09444,14.11112 6.98147,3.75355 13.64932,8.24794 19.05,14.11111 -5.69348,1.35114 -11.70869,2.40947 -17.06386,4.92125 -2.97039,-1.69686 -6.43079,-3.1115 -10.41365,-4.19806 -0.41275,-0.11289 -0.83291,-0.22225 -1.25977,-0.32808 l -1.63336,0.16228 c -0.45508,-1.44992 -1.12889,-2.91748 -2.0708,-4.39562 -7.40834,-11.64166 -16.93334,-14.81666 -16.93334,-14.81666 0,0 -8.99583,-16.40417 -18.52083,-18.52084 -9.525,-2.11666 -22.22147,2.64584 -24.8673,8.99584 -0.70909,1.70391 -1.22732,3.51719 -1.48873,5.30578 -1.97203,2.55763 -3.404307,5.50686 -3.658307,7.99041 -0.58561,5.75734 4.060477,4.56847 8.078967,2.80811 0.24659,0.10936 0.50412,0.21167 0.77223,0.29986 1.93675,0.64559 4.61434,0.79728 7.39775,0.6985 l 0.0106,0.35984 c -1.4217,0.85019 -2.67759,1.83091 -3.77085,2.91041 l -1.87713,-0.0318 c -8.78769,5.69384 -14.904861,13.64192 -12.343694,24.638 -5.17878,-4.14513 -11.564057,-6.37822 -15.875,-11.64166 2.702277,7.42244 3.312935,14.79903 8.466666,21.16666 -9.50736,-3.33375 -17.261416,-10.22702 -21.166666,-19.57916 0.278693,6.09247 -1.918759,11.85686 -1.058334,17.99166 -8.939389,-7.7082 -15.74447,-17.50837 -18.88772,-27.89062 l -1.220613,0.37395 c -5.48922,-2.75873 -10.61861,-5.94078 -15.225887,-9.61673 -9.426223,-7.53533 -16.650759,-17.15558 -20.22475,-29.53808 2.448277,3.92289 19.519194,14.80961 14.922852,7.75053 -4.706408,-7.22489 -14.270213,-14.915447 -15.981185,-23.625527 3.774722,5.38339 9.11613,9.50031 15.345832,11.64167 -7.831313,-7.95514 -14.01586,-17.82586 -15.345832,-29.10417 3.901721,6.76628 8.92563,12.86228 14.816666,17.99167 -7.598833,-11.95564 -13.165667,-24.7897 -9.525,-39.15833 2.409472,8.7383 5.393972,17.92816 12.170833,24.34166 -6.335889,-17.69533 -9.803694,-36.45605 -2.645833,-54.50064 0.702027,3.78884 2.772833,29.67567 6.840361,29.96495 -1.993194,-0.14111 2.970389,-8.86884 8.957026,-18.28447 6.515807,-10.2482 14.245167,-21.3077799 15.529632,-22.9870029 2.215092,-2.896306 4.642202,-5.75027701 6.899979,-8.710083 2.314575,-3.03036 4.455583,-6.177137 6.021916,-9.6061371 1.79564,-3.929946 3.07975,-7.78228 4.346223,-11.500557 1.760361,-5.182306 3.481917,-10.11061 6.484409,-14.622637 1.957565,-2.949223 4.465815,-5.725583 7.887758,-8.279696 -1.643943,2.846917 -2.36361,6.942667 -2.931583,11.313583 -1.040694,7.997473 -1.576917,16.915694 -6.35,20.771557 m -10.23761,46.362053 c -0.0071,-0.0141 -0.0141,-0.0247 -0.02117,-0.0388 v -0.004 c -0.04586,-0.0776 -0.0882,-0.14817 -0.127,-0.21167 -0.433565,-0.68792 -0.927807,-1.24531 -1.467557,-1.68628 1.615724,0.47625 3.566584,0.0741 5.92314,-1.59455 7.771694,-5.50334 -8.311446,-20.0695319 -13.55725,-21.8722279 0,3.301998 0.635,18.0481079 5.76086,22.4260879 -5.044723,-1.67923 -11.567583,3.81 -8.092723,9.72608 0.677334,1.15711 1.760363,1.73567 3.005667,1.88031 3.47839,0.40922 8.230306,-2.58939 8.978548,-5.89139 0.207785,-0.91017 0.109008,-1.8415 -0.402518,-2.73403"
         style="opacity:1;fill:#bc7222;fill-opacity:1;fill-rule:nonzero;stroke:none;stroke-width:0.35269;stroke-miterlimit:4;stroke-dasharray:none"
         id="path3482" />
      <path
         d="M 245.06342,8.6330731 C 228.75803,17.777073 215.94514,29.210603 207.36911,45.932273 l -4.04989,-0.55034 c 2.33539,-4.699 2.13783,-10.668 -2.17311,-17.84702 -2.28953,-3.81353 -4.89655,-6.82273 -7.73642,-9.09814 l -0.37747,-2.77284 c 17.3355,-2.43064 35.08728,-2.18016 52.0312,-7.0308599"
         style="opacity:1;fill:#d68b32;fill-opacity:1;fill-rule:nonzero;stroke:none;stroke-width:0.35269;stroke-miterlimit:4;stroke-dasharray:none"
         id="path3488" />
      <path
         d="m 191.66341,-54.789242 c 7.7223,14.975416 10.76325,32.87536 7.5565,50.6306661 -10.71739,1.629834 -21.41008,3.34433399 -31.32667,7.711721 6.77686,-3.45722101 13.03867,-8.262054 17.19792,-14.6755541 -8.45608,6.4417231 -19.57917,6.8368331 -28.92778,2.1166671 l 0.18698,-0.956027 c 18.22097,3.136193 35.35186,-5.9619471 37.39797,-26.6876401 -15.38076,20.193 -38.91139,20.61986 -61.87722,17.180277 25.66846,3.584223 47.33219,-11.391194 57.64388,-34.639248 z"
         style="opacity:1;fill:#f2ae40;fill-opacity:1;fill-rule:nonzero;stroke:none;stroke-width:0.35269;stroke-miterlimit:4;stroke-dasharray:none"
         id="path3500" />
      <path
         d="m 191.66341,-54.789242 -2.14842,0.680862 c -13.77244,6.558138 -27.78477,15.123584 -42.32275,19.769664 -14.65791,4.68489 -30.67402,2.712863 -44.98622,8.801807 20.59164,-13.560777 37.77545,-27.199167 47.09231,-50.796471 -10.84792,11.458221 -26.07028,15.635111 -39.46878,23.08225 -12.73528,-1.707446 -10.886723,-2.871612 -15.86089,-14.897806 -4.977694,12.11086 -4.43089,12.950473 -17.441333,14.594417 7.224889,9.468556 9.2075,5.954889 4.561768,14.605 -3.002491,4.512027 -4.724045,9.440333 -6.484408,14.622637 l -0.4445,-0.151694 c -13.758333,3.175 -19.579164,7.9375 -19.579164,7.9375 l -3.926417,0.377473 c -1.09714,-0.165806 -2.226029,-0.165806 -3.38314,0.02469 l -0.469193,-2.039061 c -0.03493,-7.503583 8.639527,-6.787443 10.400239,-13.260916 2.165704,-7.965721 4.14514,-15.927914 8.004175,-23.300971 9.934223,-18.979436 34.374667,-32.102769 54.687963,-36.057407 32.26118,-6.282973 58.71245,10.675055 71.76876,36.008026"
         style="opacity:1;fill:#f2ae40;fill-opacity:1;fill-rule:nonzero;stroke:none;stroke-width:0.35269;stroke-miterlimit:4;stroke-dasharray:none"
         id="path3502" />
      <path
         d="m 169.40669,144.84766 c 12.1532,5.5245 19.2652,25.68928 14.10371,37.67315 l -0.34537,-0.10583 c 2.11666,-6.35 -1.5875,-12.17085 -5.82084,-21.16315 -4.52966,-9.62378 -9.525,-12.7 -9.525,-12.7 l -0.37041,0.004 c -0.0176,-1.50283 -0.24695,-3.04094 -0.73378,-4.60375 l 1.63336,-0.16228 c 0.42686,0.10584 0.84667,0.2152 1.25942,0.32809 z"
         style="opacity:1;fill:#66360e;fill-opacity:1;fill-rule:nonzero;stroke:none;stroke-width:0.35269;stroke-miterlimit:4;stroke-dasharray:none"
         id="path3510" />
      <path
         d="m 183.51057,182.52084 c 5.1615,-11.98387 -1.9505,-32.14864 -14.1037,-37.67314 l 0.20109,-0.73025 c 3.98286,1.08655 7.44325,2.50119 10.41364,4.19805 22.96972,13.09158 16.85255,42.7214 -1.08973,63.20367 l -0.0177,0.0318 c -10.37872,-5.37633 -20.78954,-10.70327 -31.1224,-16.16782 -5.588,-2.95275 -10.65001,-5.75733 -15.67039,-8.24087 l 0.24377,-0.49389 c -6.35,-7.40834 -6.87917,-22.75417 -6.87917,-22.75417 l -0.0991,-0.32456 c 0.20814,-0.0635 0.41663,-0.13053 0.6283,-0.20108 v -0.11289 c 2.20486,0.0388 4.28625,-0.51153 6.49464,-1.52753 l 0.38452,0.0529 c 0,0 0.0282,0.49389 0.15523,1.26294 l -1.74273,0.32456 c 2.56082,17.9317 25.781,32.5367 42.8625,27.51314 4.61434,-1.35819 7.64117,-4.41325 9.34121,-8.36083"
         style="opacity:1;fill:#d68b32;fill-opacity:1;fill-rule:nonzero;stroke:none;stroke-width:0.35269;stroke-miterlimit:4;stroke-dasharray:none"
         id="path3512" />
      <path
         d="m 183.16503,182.4149 0.34537,0.10583 c -1.70004,3.94758 -4.72687,7.00265 -9.34121,8.36083 -17.08149,5.02357 -40.30133,-9.58143 -42.86249,-27.51314 l 1.74272,-0.32455 c 0.41275,2.5153 1.86266,7.9763 6.72394,8.78769 6.35,1.05834 12.7,1.05834 17.99167,-4.23333 3.89819,-3.89467 9.80016,-10.9467 9.68375,-19.04295 l 0.37041,-0.004 c 0,0 4.99534,3.07622 9.525,12.7 4.23334,8.99231 7.9375,14.81314 5.82084,21.16314"
         style="opacity:1;fill:#a56525;fill-opacity:1;fill-rule:nonzero;stroke:none;stroke-width:0.35269;stroke-miterlimit:4;stroke-dasharray:none"
         id="path3514" />
      <path
         d="m 167.44885,148.55528 c 0.11642,8.09625 -5.78556,15.14828 -9.68375,19.04295 -5.29167,5.29167 -11.64167,5.29167 -17.99167,4.23333 -4.86127,-0.81139 -6.31119,-6.27239 -6.72394,-8.78769 -0.127,-0.76906 -0.15522,-1.26295 -0.15522,-1.26295 l -0.38453,-0.0529 c -2.20839,1.016 -4.28978,1.56633 -6.49464,1.52752 -1.50283,-0.0247 -3.06599,-0.33161 -4.75897,-0.94544 -5.82083,-2.11667 -6.87917,-8.46667 -4.7625,-16.40417 1.09714,-4.12397 12.1673,-15.34583 12.1673,-15.34583 0,0 -6.8968,1.53106 -13.23657,1.75683 -2.78306,0.0988 -5.46065,-0.0529 -7.3974,-0.6985 -0.26811,-0.0882 -0.52599,-0.1905 -0.77258,-0.29986 2.14842,-0.94191 4.11692,-2.04964 5.00592,-2.34597 3.42864,-1.143 13.13391,-3.79236 11.63814,-8.99583 -2.04964,-7.1367 -7.7717,-8.65717 -13.75481,-5.29167 -2.52942,0.84314 -5.22111,3.12208 -7.30956,5.83494 0.26106,-1.78858 0.77964,-3.60186 1.48873,-5.30577 2.64583,-6.35 15.3423,-11.1125 24.8673,-8.99584 9.525,2.11667 18.52083,18.52084 18.52083,18.52084 0,0 9.525,3.175 16.93334,14.81666 0.94191,1.47814 1.61572,2.9457 2.0708,4.39561 0.48684,1.56281 0.71614,3.10092 0.73378,4.60375"
         style="opacity:1;fill:#d68b32;fill-opacity:1;fill-rule:nonzero;stroke:none;stroke-width:0.35269;stroke-miterlimit:4;stroke-dasharray:none"
         id="path3526" />
      <path
         d="m 132.36503,186.64823 -0.24342,0.4939 c -4.02519,-1.99322 -8.02569,-3.77473 -12.25197,-5.2564 -4.26155,-1.49932 -8.75947,-2.69169 -13.74422,-3.48898 -34.554586,-5.51744 -68.855169,-7.91633 -103.4379726,-9.19338 1.3899444,-2.88925 5.6620831,-11.32417 11.6804716,-19.06411 7.408333,-9.525 16.933332,-17.99167 16.933332,-17.99167 l 1.17475,-1.15006 c 4.607279,3.67595 9.736666,6.858 15.22589,9.61673 l 1.22061,-0.37395 c 3.14325,10.38225 9.948333,20.18242 18.887723,27.89061 -0.86078,-6.1348 1.337027,-11.89919 1.058333,-17.99166 3.90525,9.35213 11.659304,16.24541 21.166667,19.57916 -5.154083,-6.36764 -5.76439,-13.74422 -8.466667,-21.16666 4.310592,5.26344 10.696221,7.49652 15.874998,11.64166 -2.561167,-10.99608 3.556005,-18.94416 12.343695,-24.638 l 1.87678,0.0317 c -11.52878,11.38414 -5.08,33.71497 13.72306,27.98234 l 0.0988,0.32455 c 0,0 0.52917,15.34584 6.87917,22.75417"
         style="opacity:1;fill:#66360e;fill-opacity:1;fill-rule:nonzero;stroke:none;stroke-width:0.35269;stroke-miterlimit:4;stroke-dasharray:none"
         id="path3538" />
      <path
         d="m 126.01503,163.2555 v 0.11289 c -0.21167,0.0705 -0.41981,0.13758 -0.62794,0.20108 -18.80306,5.73264 -25.25184,-16.59819 -13.72306,-27.98233 1.09361,-1.0795 2.34915,-2.06022 3.77119,-2.91042 l -0.0109,-0.35983 c 6.33977,-0.22578 13.23657,-1.75683 13.23657,-1.75683 0,0 -11.07016,11.22186 -12.1673,15.34583 -2.11667,7.9375 -1.05834,14.2875 4.7625,16.40416 1.69333,0.61384 3.25614,0.92075 4.75897,0.94545"
         style="opacity:1;fill:#a56525;fill-opacity:1;fill-rule:nonzero;stroke:none;stroke-width:0.35269;stroke-miterlimit:4;stroke-dasharray:none"
         id="path3540" />
      <path
         d="m 123.89836,119.97683 c 1.49578,5.20347 -8.20949,7.85283 -11.63814,8.99583 -0.889,0.29633 -2.8575,1.40405 -5.00591,2.34597 -4.01109,-1.78858 -5.08,-6.1983 -4.42031,-10.79853 2.08845,-2.71286 4.78014,-4.9918 7.30956,-5.83494 5.98311,-3.3655 11.70516,-1.84503 13.7548,5.29167"
         style="opacity:1;fill:#f2ae40;fill-opacity:1;fill-rule:nonzero;stroke:none;stroke-width:0.35269;stroke-miterlimit:4;stroke-dasharray:none"
         id="path3542" />
      <path
         d="m 126.53008,7.9275231 c 0,5.4504099 -14.36158,13.9135499 -18.33386,16.9897699 -5.59505,4.32859 -19.176996,5.97253 -11.849803,-5.10116 C 103.40197,9.1551831 114.53564,8.4284631 126.53008,7.9275231"
         style="opacity:1;fill:#000000;fill-opacity:1;fill-rule:nonzero;stroke:none;stroke-width:0.35269;stroke-miterlimit:4;stroke-dasharray:none"
         id="path3544" />
      <path
         d="m 103.95231,39.324743 c 0,-10.41047 15.52222,-10.41047 15.52222,0 0,10.41047 -15.52222,10.41047 -15.52222,0"
         style="opacity:1;fill:#000000;fill-opacity:1;fill-rule:nonzero;stroke:none;stroke-width:0.35269;stroke-miterlimit:4;stroke-dasharray:none"
         id="path3550" />
      <path
         d="m 109.82966,-53.251167 c -1.32645,0.737307 -2.63525,1.506363 -3.91936,2.31775 -5.42926,3.429 -8.770064,8.466667 -11.64873,13.86064 -2.956277,-1.672167 -4.586111,-0.522113 -7.478888,1.255887 l -0.737306,-0.09878 c 0.567621,-4.370916 1.287288,-8.466666 2.931583,-11.313583 -3.422295,2.554113 -5.930193,5.330473 -7.88811,8.279696 4.646083,-8.650113 2.663473,-5.136446 -4.561417,-14.605 13.010092,-1.643946 12.46364,-2.483556 17.441334,-14.594417 4.974166,12.026194 3.125258,13.190361 15.860894,14.897804"
         style="opacity:1;fill:#ffffff;fill-opacity:1;fill-rule:nonzero;stroke:none;stroke-width:0.35269;stroke-miterlimit:4;stroke-dasharray:none"
         id="path3552" />
      <path
         d="m 102.83404,120.52014 c -0.6597,4.60022 0.40922,9.00995 4.4203,10.79853 -4.01814,1.76036 -8.664221,2.94922 -8.078611,-2.80811 0.254,-2.48356 1.686281,-5.43278 3.658311,-7.99042"
         style="opacity:1;fill:#f2ae40;fill-opacity:1;fill-rule:nonzero;stroke:none;stroke-width:0.35269;stroke-miterlimit:4;stroke-dasharray:none"
         id="path3554" />
      <path
         d="m 92.067081,104.5392 c 1.196269,0.37042 2.455333,0.75142 3.788833,1.15006 -3.065285,9.77547 -28.461758,47.25811 -38.166675,24.67327 -4.138435,-9.63436 -0.15875,-13.65602 5.570363,-21.01497 4.557887,-5.84905 1.523646,-14.022907 -1.270354,-20.058937 0.34925,-1.016 0.694973,-2.02847 1.040696,-3.04447 6.21947,9.25336 17.4625,17.656517 29.037137,18.295047"
         style="opacity:1;fill:#000000;fill-opacity:1;fill-rule:nonzero;stroke:none;stroke-width:0.35269;stroke-miterlimit:4;stroke-dasharray:none"
         id="path3560" />
      <path
         d="m 86.782648,-35.816924 c 2.892777,-1.778 4.52261,-2.928054 7.478887,-1.25589 -4.176887,7.824613 -7.38011,16.404167 -14.566193,21.928667 4.772731,-3.85586 5.309306,-12.774084 6.35,-20.771554 z"
         style="opacity:1;fill:#d68b32;fill-opacity:1;fill-rule:nonzero;stroke:none;stroke-width:0.35269;stroke-miterlimit:4;stroke-dasharray:none"
         id="path3562" />
      <path
         d="m 86.313417,55.905293 c 2.8575,2.2225 -10.541,28.37392 -23.251583,28.27161 -4.68136,-0.0388 -9.263943,-3.62655 -12.911667,-13.2715 3.675947,9.6132 9.0805,12.30136 13.761861,12.34017 12.710583,0.10231 22.260279,-25.29417 19.402779,-27.51667 -4.586113,-3.56658 -10.918473,-5.00944 -17.229666,-5.43983 7.500053,0.40217 15.416387,1.87325 20.228276,5.61622"
         style="opacity:1;fill:#000000;fill-opacity:1;fill-rule:nonzero;stroke:none;stroke-width:0.35269;stroke-miterlimit:4;stroke-dasharray:none"
         id="path3566" />
      <path
         d="m 83.314807,55.728903 c 2.8575,2.2225 -6.692196,27.61898 -19.402779,27.51667 -4.681361,-0.0388 -10.085914,-2.72697 -13.761861,-12.34017 -0.05644,-0.15169 -0.116416,-0.30691 -0.17286,-0.46214 -2.003777,-5.44336 -3.122083,-11.66988 -0.352777,-15.77269 1.026584,-1.51694 1.178277,-3.83469 3.965221,-4.19453 0.09172,-0.0141 0.183446,-0.0212 0.278696,-0.0282 0.261054,-0.0212 0.525637,-0.0388 0.79375,-0.0564 0.29986,-0.0212 0.60325,-0.0423 0.91722,-0.06 3.104444,-0.18344 6.752167,-0.24694 10.505724,-0.0423 6.311193,0.43039 12.643553,1.87325 17.229666,5.43983"
         style="opacity:1;fill:#000000;fill-opacity:1;fill-rule:nonzero;stroke:none;stroke-width:0.35269;stroke-miterlimit:4;stroke-dasharray:none"
         id="path3568" />
      <path
         d="M 63.030084,86.244183 C 73.235944,97.705933 78.781611,100.43643 92.067221,104.53924 80.492584,103.90071 69.249557,95.497543 63.030084,86.244183"
         style="opacity:1;fill:#000000;fill-opacity:1;fill-rule:nonzero;stroke:none;stroke-width:0.35269;stroke-miterlimit:4;stroke-dasharray:none"
         id="path3570" />
      <path
         d="m 74.160152,-24.47861 0.4445,0.151693 c -1.266473,3.718277 -2.550583,7.570611 -4.346223,11.500557 -1.566333,3.4290001 -3.707341,6.5757771 -6.021916,9.6061371 C 61.491902,-9.6054999 56.581236,-15.278167 50.654569,-16.16364 l 3.926417,-0.37747 c 0,0 5.820833,-4.7625 19.579166,-7.9375"
         style="opacity:1;fill:#26110b;fill-opacity:1;fill-rule:nonzero;stroke:none;stroke-width:0.35269;stroke-miterlimit:4;stroke-dasharray:none"
         id="path3576" />
      <path
         d="m 60.207861,5.8108531 c 5.245806,1.802693 21.328946,16.3688899 13.55725,21.8722199 -2.356554,1.66864 -4.307417,2.07081 -5.923137,1.59456 -0.582083,-0.47978 -1.217083,-0.82197 -1.87325,-1.0407 C 60.842861,23.858963 60.207861,9.1128531 60.207861,5.8108531"
         style="opacity:1;fill:#000000;fill-opacity:1;fill-rule:nonzero;stroke:none;stroke-width:0.35269;stroke-miterlimit:4;stroke-dasharray:none"
         id="path3578" />
      <path
         d="m 69.457589,31.217913 c 0.511529,0.89252 0.610306,1.82386 0.402521,2.73402 -3.125965,1.81681 -6.14539,3.7712 -8.978548,5.89139 -1.245307,-0.14464 -2.328334,-0.72319 -3.005667,-1.8803 -3.47486,-5.91609 3.048352,-11.40531 8.092723,-9.72609 0.568325,0.48331 1.18886,0.83961 1.87325,1.0407 0.53975,0.44097 1.033992,0.99836 1.467554,1.68628 0.03881,0.0635 0.08149,0.13405 0.127,0.21166 v 0.004 c 0.0071,0.0141 0.0141,0.0247 0.02117,0.0388"
         style="opacity:1;fill:#000000;fill-opacity:1;fill-rule:nonzero;stroke:none;stroke-width:0.35269;stroke-miterlimit:4;stroke-dasharray:none"
         id="path3584" />
      <path
         d="m 65.968758,28.236863 c 0.656167,0.21872 1.291167,0.56092 1.87325,1.0407 -0.684389,-0.20109 -1.305277,-0.55739 -1.87325,-1.0407"
         style="opacity:1;fill:#000000;fill-opacity:1;fill-rule:nonzero;stroke:none;stroke-width:0.35269;stroke-miterlimit:4;stroke-dasharray:none"
         id="path3588" />
      <path
         d="m 63.061763,84.176943 -0.03175,2.06728 c -4.335637,3.70769 -10.424581,10.04005 -16.273637,10.93963 -5.09764,0.78317 -5.647619,-20.40466 -5.591527,-22.91291 0.176387,-8.17033 2.63525,-15.09183 6.604,-21.03967 l 0.10936,0.0741 c -2.769307,4.1028 0.09525,11.69458 2.099027,17.13794 0.05645,0.15522 0.116416,0.31044 0.172863,0.46214 3.64772,9.64494 8.230303,13.23269 12.911664,13.2715"
         style="opacity:1;fill:#bc7222;fill-opacity:1;fill-rule:nonzero;stroke:none;stroke-width:0.35269;stroke-miterlimit:4;stroke-dasharray:none"
         id="path3590" />
      <path
         d="m 66.085209,50.289113 c -3.753908,-0.20462 -7.401277,-0.14112 -10.50572,0.0423 3.273777,-0.20814 6.88622,-0.29281 10.50572,-0.0423"
         style="opacity:1;fill:#000000;fill-opacity:1;fill-rule:nonzero;stroke:none;stroke-width:0.35269;stroke-miterlimit:4;stroke-dasharray:none"
         id="path3592" />
      <path
         d="m 60.881739,39.843393 c 2.832804,-2.12019 5.852583,-4.07458 8.978193,-5.89139 -0.747889,3.302 -5.500158,6.30061 -8.978193,5.89139"
         style="opacity:1;fill:#d68b32;fill-opacity:1;fill-rule:nonzero;stroke:none;stroke-width:0.35269;stroke-miterlimit:4;stroke-dasharray:none"
         id="path3594" />
      <path
         d="m 50.654606,-16.163674 c 5.926664,0.885473 10.837331,6.5581401 13.581944,12.9434171 -2.25778,2.95980299 -4.68489,5.813776 -6.900334,8.710083 -1.284112,1.67922 -9.013473,12.7388069 -15.529277,22.9869969 l -0.451556,-0.56444 c -9.853083,-12.192 -14.880166,-29.6686139 -0.754944,-40.883417 2.286,-1.816807 4.526138,-2.815167 6.671027,-3.167947 1.157111,-0.1905 2.286,-0.1905 3.38314,-0.02468"
         style="opacity:1;fill:#bc7222;fill-opacity:1;fill-rule:nonzero;stroke:none;stroke-width:0.35269;stroke-miterlimit:4;stroke-dasharray:none"
         id="path3596" />
      <path
         d="m 54.662303,50.391413 c -0.268465,0.0177 -0.533048,0.0353 -0.79375,0.0564 0.260702,-0.0212 0.525285,-0.0388 0.79375,-0.0564"
         style="opacity:1;fill:#000000;fill-opacity:1;fill-rule:nonzero;stroke:none;stroke-width:0.35269;stroke-miterlimit:4;stroke-dasharray:none"
         id="path3600" />
      <path
         d="m 53.589822,50.476013 c -2.786943,0.35983 -2.93864,2.67758 -3.965223,4.19453 -2.769304,4.1028 -1.651,10.32933 0.35278,15.77269 -2.00378,-5.44336 -4.868334,-13.03514 -2.09903,-17.13794 1.026583,-1.51695 2.818696,-2.55411 5.711473,-2.82928"
         style="opacity:1;fill:#000000;fill-opacity:1;fill-rule:nonzero;stroke:none;stroke-width:0.35269;stroke-miterlimit:4;stroke-dasharray:none"
         id="path3602" />
      <path
         d="m 92.822591,107.55623 c -5.272228,-0.10937 -10.413754,-1.87258 -14.911353,-4.56851 -4.183063,-2.49029 -7.901057,-5.706737 -11.192473,-9.281017 -1.406385,-1.53169 -2.734945,-3.1357 -3.969809,-4.8091 -2.803985,2.66298 -5.276781,5.68074 -8.326789,8.07875 -1.212392,0.94481 -2.518024,1.78181 -3.929205,2.39819 -1.071245,0.47184 -2.206837,0.809797 -3.359185,0.997467 -1.53811,0.21887 -3.128997,-0.37052 -4.221938,-1.459117 -1.438523,-1.41549 -2.172017,-3.36035 -2.722033,-5.26108 -0.993,-3.63058 -1.36571,-7.39461 -1.620591,-11.139 -0.175295,-2.77329 -0.259893,-5.55501 -0.188032,-8.33349 0.06625,-1.19641 0.153776,-2.39158 0.306883,-3.58055 0.52525,-4.04686 1.629727,-8.02397 3.349024,-11.72824 1.900838,-4.14292 4.51739,-7.94332 7.628361,-11.2697 2.60223,-2.80493 5.510741,-5.3166 8.618783,-7.54503 3.715491,-2.68122 7.699023,-4.97699 11.803346,-7.00645 0.671936,-0.34787 1.37781,-0.63207 2.036551,-1.00259 0.464256,-0.29013 0.928547,-0.58025 1.392838,-0.87038 -0.3096,0.61899 -0.619268,1.23793 -0.928793,1.85692 -0.547937,0.2891 -1.046904,0.6701 -1.571874,1.00104 -2.091267,1.39414 -4.174207,2.83337 -6.15456,4.33754 -2.289845,1.7446 -4.504127,3.54218 -6.592041,5.53124 -2.123512,2.01458 -4.141259,4.14793 -5.933191,6.46522 -0.41896,0.54448 -0.869776,1.15334 -1.280655,1.73782 -2.035175,2.90026 -3.762587,6.0331 -4.940618,9.38085 -1.410581,3.96466 -2.132541,8.16928 -2.155753,12.37619 -0.02469,1.28005 0.07087,2.52889 0.143933,3.81166 0.124778,1.8016 0.27714,3.6438 0.480446,5.44071 0.321734,2.72909 0.716106,5.46135 1.440146,8.11636 0.184819,0.66544 0.380047,1.26316 0.646464,1.90105 0.105905,0.24849 0.220205,0.49428 0.357823,0.72693 0.578734,-0.13927 1.149704,-0.31591 1.711362,-0.51562 2.7384,-1.03455 5.290748,-2.51054 7.7041,-4.1566 2.440906,-1.67912 4.670497,-3.63509 6.919138,-5.548 1.145362,1.62088 2.230294,3.28849 3.530951,4.79358 2.230615,2.64619 4.856975,4.94623 7.725059,6.87882 0.795829,0.53685 1.60401,1.03145 2.42076,1.49824 1.746356,0.99836 3.568311,1.86496 5.44971,2.57758 0.49121,0.18358 1.059603,0.39045 1.588241,0.56208 0.506307,0.170527 1.068001,0.334957 1.549543,0.474197 1.465543,0.40919 2.958182,0.72245 4.466907,0.92191 0.166651,0.0183 0.493959,0.0592 0.661422,0.0785 3.432526,0.36579 6.971453,0.0931 10.224351,-1.10995 0.74587,-0.25315 1.47087,-0.568177 2.16104,-0.947307 0.48606,-0.2751 0.95205,-0.57951 1.39916,-0.91444 2.40238,-1.82717 4.0853,-4.46433 5.10931,-7.27685 0.15057,-0.40912 0.30611,-0.89683 0.42214,-1.26767 1.20918,-4.10835 1.31099,-8.53243 0.34293,-12.7011 -0.67405,-2.90727 -1.91844,-5.71009 -3.82231,-8.02421 -1.20121,-1.46515 -2.6718,-2.7094 -4.31825,-3.64737 -0.31443,-0.33739 -0.62886,-0.67476 -0.94326,-1.01215 0.48161,0.0332 0.97356,0.0113 1.44886,0.0781 3.42639,1.14547 6.31349,3.59975 8.31448,6.57416 2.45847,3.59883 3.76195,7.90462 4.087,12.22907 0.34435,4.72328 -0.48704,9.58865 -2.7305,13.78571 -1.16279,2.15491 -2.71004,4.117727 -4.60586,5.673587 -0.51707,0.42079 -1.08465,0.85471 -1.67528,1.20523 -0.68495,0.45459 -1.41566,0.83171 -2.15642,1.18441 -3.50196,1.57533 -7.347518,2.39071 -11.190289,2.30241 z m 11.028439,-8.276487 c -0.22945,0.24667 -0.4589,0.49333 -0.68834,0.739987 0.33669,0.01 0.67341,0.0187 1.01011,0.0282 -0.10725,-0.256077 -0.21453,-0.512157 -0.32177,-0.768237 z m -56.540228,-5.01882 c -0.282363,0.11345 -0.574463,0.31506 -0.860568,0.46235 0.08442,0.13483 0.208352,0.5552 0.345829,0.23562 0.17159,-0.23266 0.343146,-0.46532 0.514739,-0.69797 z"
         style="opacity:1;fill:#995919;fill-opacity:1;fill-rule:nonzero;stroke:none;stroke-width:0.35269;stroke-miterlimit:4;stroke-dasharray:none"
         id="path3940" />
      <path
         d="m 63.063845,85.198943 c -1.285311,-0.0611 -2.468528,-0.65405 -3.582353,-1.25042 -2.319054,-1.30832 -4.424748,-2.97597 -6.330209,-4.83027 -1.198631,-1.19892 -2.366997,-2.47495 -3.150129,-3.99193 -1.224526,-2.50804 -2.168665,-5.14777 -2.923468,-7.83255 -0.789234,-2.92583 -1.357242,-5.96057 -1.162969,-9.00271 0.137055,-2.07264 0.712296,-4.21502 2.119101,-5.79865 1.27988,-1.46995 3.180821,-2.25827 5.084869,-2.49611 1.587219,-0.16856 3.18135,-0.2716 4.770649,-0.42132 5.375029,-0.4536 10.781982,-0.83848 16.174826,-0.47682 2.826668,0.21241 5.685578,0.60093 8.331165,1.66582 1.783009,0.71988 3.502483,1.85924 4.450009,3.57999 0.60131,1.09125 0.883145,2.36679 0.711306,3.60743 -0.247545,2.06263 -0.97349,4.0306 -1.751931,5.94434 -1.41478,3.3624 -3.15877,6.58725 -5.184103,9.62061 -2.533438,3.74685 -5.7307,7.15468 -9.721816,9.35757 -2.392645,1.32464 -5.070017,2.1626 -7.804644,2.32572 h -0.01516 z"
         style="opacity:1;fill:#26110b;fill-opacity:1;fill-rule:nonzero;stroke:none;stroke-width:0.35269;stroke-miterlimit:4;stroke-dasharray:none"
         id="path3942" />
      <path
         d="m 98.356087,28.744863 c -1.347648,-0.0354 -2.810158,-0.3181 -3.787529,-1.32087 -0.824442,-0.84254 -1.005981,-2.11674 -0.784508,-3.23582 0.327697,-1.74808 1.239662,-3.31695 2.20532,-4.78532 2.06008,-3.10677 4.8206,-5.76577 8.08412,-7.58324 4.01697,-2.2683299 8.6009,-3.2811199 13.147,-3.7942699 3.27441,-0.378142 6.57024,-0.508669 9.86152,-0.65179 -0.008,0.74757 -0.0629,1.50809 -0.36016,2.20423 -0.66223,1.6537499 -1.86248,3.0175499 -3.09005,4.2791899 -2.50733,2.50345 -5.36557,4.61867 -8.24339,6.67198 -2.18828,1.55967 -4.44292,3.02489 -6.61169,4.61193 -2.0858,1.64035 -4.59539,2.68418 -7.17328,3.25946 -1.06606,0.22832 -2.155648,0.36594 -3.247353,0.34452 z"
         style="opacity:1;fill:#26110b;fill-opacity:1;fill-rule:nonzero;stroke:none;stroke-width:0.35269;stroke-miterlimit:4;stroke-dasharray:none"
         id="path3944" />
      <path
         d="m 68.957703,29.989223 c -1.547495,-0.0357 -2.983018,-0.85764 -3.994785,-1.99652 -1.441132,-1.60189 -2.297041,-3.62803 -2.970318,-5.64973 -1.165471,-3.6455 -1.716794,-7.45564 -2.055672,-11.25781 -0.173212,-2.0072699 -0.26737,-4.0214209 -0.264441,-6.0363819 0.944843,0.322723 1.867146,0.714836 2.719351,1.238851 2.496222,1.502762 4.74278,3.388251 6.8332,5.4094909 2.21869,2.19132 4.288155,4.5865 5.773598,7.34395 0.855413,1.63566 1.53557,3.47211 1.345353,5.34713 -0.13321,1.40875 -0.915707,2.71166 -2.042726,3.55459 -1.543331,1.13636 -3.374848,2.10439 -5.34356,2.04643 z"
         style="opacity:1;fill:#26110b;fill-opacity:1;fill-rule:nonzero;stroke:none;stroke-width:0.35269;stroke-miterlimit:4;stroke-dasharray:none"
         id="path3946" />
      <path
         d="m 111.33859,47.655663 c -2.40252,-0.0886 -4.80966,-1.17864 -6.27316,-3.11944 -1.45182,-1.87646 -1.86771,-4.38087 -1.53617,-6.69012 0.27679,-2.01799 1.32831,-3.94183 2.97384,-5.16318 3.0655,-2.33232 7.72619,-2.2563 10.69083,0.21424 1.58376,1.2911 2.53714,3.2518 2.74556,5.26923 0.25026,2.22959 -0.19932,4.61585 -1.60768,6.40825 -1.62302,2.12495 -4.35934,3.19726 -6.99322,3.08102 z"
         style="opacity:1;fill:#26110b;fill-opacity:1;fill-rule:nonzero;stroke:none;stroke-width:0.35269;stroke-miterlimit:4;stroke-dasharray:none"
         id="path3948" />
      <path
         d="m 59.802731,39.750543 c -0.964036,-0.0138 -1.868556,-0.58924 -2.330767,-1.42854 -0.952077,-1.63269 -1.321364,-3.645 -0.785001,-5.47899 0.959345,-3.38547 4.532665,-5.77056 8.022802,-5.42985 1.842381,0.16027 3.548486,1.19564 4.635783,2.67705 0.555165,0.77365 1.078124,1.61351 1.281041,2.55517 0.166124,0.70461 -0.14284,1.45719 -0.719807,1.88204 -0.856826,0.6544 -1.874062,1.05396 -2.770894,1.64814 -1.274479,0.8509 -2.496891,1.7877 -3.852367,2.51139 -1.072164,0.56875 -2.240847,1.09844 -3.48079,1.06359 z"
         style="opacity:1;fill:#26110b;fill-opacity:1;fill-rule:nonzero;stroke:none;stroke-width:0.35269;stroke-miterlimit:4;stroke-dasharray:none"
         id="path3950" />
      <path
         d="m 65.906034,138.00882 c -1.883868,-0.045 -3.715597,-0.82282 -5.105752,-2.08555 -1.931247,-1.73197 -3.140533,-4.10115 -4.056698,-6.49126 -0.987637,-2.57207 -1.591098,-5.38286 -1.135875,-8.13636 0.403966,-2.58039 1.714432,-4.90672 3.204634,-7.01068 1.380913,-1.96959 2.938076,-3.80742 4.377092,-5.73338 1.37936,-1.96264 1.943452,-4.40316 1.874202,-6.77923 -0.08368,-3.226987 -1.075126,-6.349077 -2.267833,-9.321477 -0.42799,-1.0584 -0.899123,-2.09839 -1.373892,-3.13644 0.465736,-1.3649 0.932604,-2.72937 1.398694,-4.09413 3.760821,4.21817 7.680676,8.38775 12.398904,11.55348 1.673365,1.12247 3.431151,2.10643 5.241218,2.95832 3.903523,1.833237 8.066617,3.157427 12.19648,4.435187 1.28965,0.39586 2.582156,0.78243 3.872971,1.17443 -0.787578,2.53073 -2.026637,4.88919 -3.316288,7.1941 -2.677689,4.69533 -5.779241,9.14999 -9.244788,13.29799 -2.641671,3.12102 -5.498147,6.09861 -8.795948,8.53415 -2.128698,1.54799 -4.475552,2.91215 -7.079687,3.44887 -0.719137,0.14425 -1.453904,0.21339 -2.187434,0.19198 z"
         style="opacity:1;fill:#26110b;fill-opacity:1;fill-rule:nonzero;stroke:none;stroke-width:0.35269;stroke-miterlimit:4;stroke-dasharray:none"
         id="path3952" />
      <path
         d="m 65.906034,138.00882 c -1.883868,-0.045 -3.715597,-0.82282 -5.105752,-2.08555 -1.931247,-1.73197 -3.140533,-4.10115 -4.056698,-6.49126 -0.987637,-2.57207 -1.591098,-5.38286 -1.135875,-8.13636 0.403966,-2.58039 1.714432,-4.90672 3.204634,-7.01068 1.380913,-1.96959 2.938076,-3.80742 4.377092,-5.73338 1.37936,-1.96264 1.943452,-4.40316 1.874202,-6.77923 -0.08368,-3.226987 -1.075126,-6.349077 -2.267833,-9.321477 -0.42799,-1.0584 -0.899123,-2.09839 -1.373892,-3.13644 0.465736,-1.3649 0.932604,-2.72937 1.398694,-4.09413 3.760821,4.21817 7.680676,8.38775 12.398904,11.55348 1.673365,1.12247 3.431151,2.10643 5.241218,2.95832 3.903523,1.833237 8.066617,3.157427 12.19648,4.435187 1.28965,0.39586 2.582156,0.78243 3.872971,1.17443 -0.787578,2.53073 -2.026637,4.88919 -3.316288,7.1941 -2.677689,4.69533 -5.779241,9.14999 -9.244788,13.29799 -2.641671,3.12102 -5.498147,6.09861 -8.795948,8.53415 -2.128698,1.54799 -4.475552,2.91215 -7.079687,3.44887 -0.719137,0.14425 -1.453904,0.21339 -2.187434,0.19198 z"
         style="opacity:1;fill:none;stroke:none;stroke-width:0.35269;stroke-linecap:butt;stroke-linejoin:miter;stroke-miterlimit:4;stroke-dasharray:none;stroke-opacity:1"
         id="path3954" />
      <path
         d="m 40.011334,29.032873 c -3.128502,-3.33379 -5.746327,-7.15222 -7.697433,-11.28801 -2.223206,-4.74634 -3.533952,-10.0141219 -3.177435,-15.2771789 0.250543,-3.820301 1.43263,-7.582324 3.47465,-10.825232 1.724977,-2.7723411 4.034578,-5.1545431 6.640017,-7.1097081 2.205638,-1.621685 4.755481,-2.844377 7.483547,-3.231021 2.372677,-0.340254 4.83168,-0.01728 7.035411,0.925971 3.189465,1.342109 5.789612,3.813175 7.725304,6.642065 1.875015,2.7591101 3.206361,5.8816161 3.928356,9.1372611 -0.393277,0.153742 -0.786516,0.307518 -1.179618,0.461645 -1.623201,-2.842646 -3.485409,-5.583518 -5.848879,-7.866978 -1.196587,-1.1643441 -2.518974,-2.2131521 -3.989634,-3.0112411 -0.292558,-0.159808 -0.678461,-0.348792 -1.019598,-0.494737 -1.869686,-0.826029 -4.010801,-1.10137 -6.002301,-0.5794 -2.215515,0.54624 -4.132194,1.884855 -5.817484,3.378163 -1.058015,0.9302411 -2.034116,1.9546361 -2.90195,3.0647931 -0.284585,0.364702 -0.607975,0.806802 -0.881978,1.219377 -1.645533,2.45826 -2.667566,5.31667799 -3.003481,8.25313 -0.06787,0.589878 -0.104457,1.116398 -0.126788,1.725681 -0.05193,1.230172 0.02151,2.547514 0.157903,3.7108 0.119134,0.98287 0.285081,1.95972 0.499534,2.9262899 0.05659,0.23823 0.134657,0.58526 0.207187,0.86399 0.868257,3.41895 2.217454,6.6675 3.902287,9.76214 1.078264,2.01908 2.314397,3.94913 3.604082,5.83865 -0.892209,0.71144 -1.784561,1.42271 -2.677512,2.13321 -0.111408,-0.11988 -0.222779,-0.23979 -0.334187,-0.35966 z"
         style="opacity:1;fill:#995919;fill-opacity:1;fill-rule:nonzero;stroke:none;stroke-width:0.35269;stroke-miterlimit:4;stroke-dasharray:none"
         id="path3956" />
      <path
         d="m 68.947366,174.06589 c -1.121479,-1.49836 -2.277533,-2.97142 -3.376681,-4.48615 -0.749724,-1.08743 -1.373648,-2.25439 -2.098289,-3.35724 -0.611822,-0.9066 -1.313214,-1.75045 -2.101744,-2.50889 -1.271127,-1.31504 -2.606426,-2.56635 -3.953261,-3.80305 -2.113103,-1.94676 -4.232416,-3.93163 -5.866271,-6.31306 -1.377526,-1.96638 -2.396278,-4.15265 -3.376295,-6.33585 -1.301115,-2.96552 -2.315493,-6.05783 -3.02066,-9.2184 -0.280882,-1.31099 -0.513152,-2.63141 -0.685448,-3.96117 -0.153035,-1.09696 -0.224753,-2.20468 -0.298731,-3.30927 -0.05228,-1.3717 -0.07243,-2.74489 0.0035,-4.11607 0.126648,-2.37677 0.454978,-4.7553 1.013812,-7.0631 0.246663,-1.14187 0.601451,-2.23139 0.952394,-3.3455 0.427673,-1.17838 0.851572,-2.37818 1.403985,-3.52199 0.486058,-1.14946 1.107054,-2.23333 1.697215,-3.33093 0.716738,-1.1594 1.427446,-2.32399 2.238939,-3.42074 1.379855,-1.91156 2.945201,-3.68699 4.622305,-5.34219 0.716809,-0.666007 1.439722,-1.325347 2.163516,-1.983697 0.605261,0.55622 1.211017,1.11192 1.816277,1.668107 -0.711835,0.95627 -1.46999,1.87812 -2.16789,2.8442 -0.65532,0.95881 -1.354455,1.88824 -1.937773,2.89454 -0.687811,1.0782 -1.306407,2.19918 -1.899672,3.33139 -0.512728,1.05501 -1.028525,2.10947 -1.444096,3.20759 -0.425169,0.97268 -0.741362,1.98896 -1.078055,2.99509 -0.341207,1.14381 -0.66308,2.29457 -0.887447,3.46759 -0.28254,1.23247 -0.440407,2.49026 -0.582964,3.74558 -0.12051,1.14547 -0.174451,2.29161 -0.203978,3.42389 0.01199,1.26936 0.03552,2.5395 0.155435,3.80418 0.07366,0.97296 0.222038,1.93975 0.353377,2.90618 0.198721,1.17623 0.424215,2.34728 0.71501,3.50453 0.341067,1.36405 0.720267,2.69466 1.183182,4.02438 0.176917,0.56388 0.384705,1.09054 0.605224,1.65612 0.87729,2.34745 1.976157,4.60579 3.164205,6.81044 1.186638,2.26219 2.196219,4.60968 3.288983,6.91709 0.612457,1.25716 1.262202,2.49876 2.046359,3.65891 0.680119,1.03335 1.456653,2.00498 2.295736,2.91373 0.340958,0.35394 0.698217,0.69342 1.084509,0.99769 0.279612,-1.82351 0.974971,-3.54125 1.632691,-5.25314 0.615878,-1.60528 1.071597,-3.2886 1.136298,-5.0146 0.138112,-1.78791 -0.185351,-3.56189 -0.364951,-5.33446 -0.08622,-0.92554 -0.269591,-1.84559 -0.227504,-2.77833 2.64e-4,-0.31158 0,-0.62315 0,-0.93472 0.476673,0.69165 1.009896,1.34793 1.378654,2.10714 0.932852,1.65925 1.791724,3.36232 2.800704,4.97734 0.681001,1.01131 1.429314,1.9751 2.219571,2.9028 0.78486,0.89923 1.582949,1.78636 2.398289,2.65811 0.663858,0.70841 1.328174,1.41619 1.997676,2.11928 0.78387,0.81587 1.572752,1.6275 2.364634,2.43596 0.980369,0.98722 1.962679,1.97538 3.007395,2.895 0.508457,0.41921 0.991941,0.86988 1.529151,1.25293 -1.333008,-1.80016 -2.276263,-3.87749 -2.793225,-6.05526 -0.526944,-2.09426 -0.59563,-4.26092 -0.7723,-6.40284 -0.106751,-1.354 -0.339479,-2.7407 -0.752052,-4.06174 -0.407212,-1.33305 -0.849878,-2.65748 -1.2349,-3.99592 -0.09013,-0.51484 -0.180269,-1.02972 -0.270439,-1.54457 0.569667,0.56755 1.199515,1.08007 1.669556,1.7386 0.694973,0.86787 1.389946,1.73574 2.084916,2.6036 0.13081,0.15357 0.312775,0.38372 0.433459,0.52134 0.875382,1.08155 2.134553,1.77239 3.439935,2.19989 1.367121,0.46729 2.774175,0.86434 4.02957,1.59977 1.796098,1.03484 3.378798,2.4002 4.790297,3.91079 0.114795,0.0803 0.3937,0.52144 0.305896,0.15628 -0.0411,-0.94798 -0.169193,-1.86118 -0.145593,-2.81019 -0.02998,-0.78356 0.01376,-1.56527 0.09807,-2.34424 0.08308,-0.96252 0.292735,-1.91213 0.555519,-2.83983 0.30734,-0.93447 0.657966,-1.85755 1.145291,-2.7148 0.462174,-0.91465 1.037238,-1.7664 1.624859,-2.60382 0.807334,-1.08701 1.694849,-2.11384 2.662729,-3.0607 1.2009,-1.15527 2.49023,-2.21893 3.8692,-3.15542 1.34328,-0.93123 2.77425,-1.72942 4.24618,-2.43819 0.21541,-0.17074 0.37804,-0.15261 0.46969,0.11973 0.37768,0.5938 0.75529,1.1876 1.13326,1.78122 -1.30291,1.14585 -2.65804,2.23248 -3.91382,3.43153 -0.74352,0.67293 -1.44106,1.3944 -2.13798,2.11512 -0.90311,0.99423 -1.80191,2.029 -2.57676,3.1411 -0.52359,0.70689 -0.98178,1.46099 -1.42088,2.22186 -0.41011,0.75382 -0.78578,1.52411 -1.14039,2.30481 -0.284872,0.54998 -0.502534,1.21196 -0.781934,1.80318 -0.206023,0.61027 -0.432684,1.21663 -0.609214,1.83628 -0.168275,0.76024 -0.388583,1.52065 -0.415608,2.30689 -0.117369,0.94936 -0.03034,1.90983 0.09465,2.85348 0.308326,1.61226 0.882401,3.15598 1.33932,4.72898 0.03609,0.1712 0.247791,0.56769 -0.05341,0.30621 -1.344083,-0.79353 -2.651125,-1.65209 -4.026252,-2.39148 -2.086999,-1.01692 -4.406725,-1.44561 -6.477669,-2.50211 -0.728451,-0.36435 -1.440463,-0.76754 -2.097688,-1.25035 0.814739,1.99327 1.369165,4.08037 1.820545,6.18236 0.35447,1.65548 0.774242,3.35022 1.635302,4.83443 0.75099,1.2458 1.628492,2.40944 2.437728,3.61728 0.275907,0.40054 0.551849,0.80112 0.827794,1.20166 -1.624119,-0.7113 -3.22901,-1.46801 -4.866569,-2.14777 -1.067154,-0.39745 -2.120831,-0.82963 -3.182197,-1.24161 -1.178136,-0.47519 -2.359062,-0.94488 -3.522064,-1.45623 -1.040622,-0.45328 -2.059411,-0.95179 -3.057488,-1.49225 -1.072235,-0.60508 -2.112857,-1.27032 -3.077141,-2.03793 -0.72076,-0.54796 -1.382501,-1.17206 -2.028508,-1.80534 -0.75565,-0.78411 -1.470729,-1.60669 -2.104564,-2.49311 -0.555168,-0.76084 -1.048105,-1.56856 -1.504564,-2.39191 -0.152188,-0.2976 -0.30875,-0.59298 -0.456316,-0.89291 0.04131,2.65328 0.5842,5.28013 0.648369,7.92512 0.07204,1.28647 0.01058,2.57605 -0.149508,3.85392 -0.227611,2.1717 -0.45466,4.34348 -0.6828,6.51513 -0.269417,-0.35576 -0.538834,-0.71155 -0.808249,-1.06728 z"
         style="opacity:1;fill:#995919;fill-opacity:1;fill-rule:nonzero;stroke:none;stroke-width:0.35269;stroke-miterlimit:4;stroke-dasharray:none"
         id="path3958" />
      <path
         d="m 177.35213,59.234633 c -3.39873,-0.0513 -6.80053,-0.50189 -10.07396,-1.42684 -0.72241,-0.21629 -1.44998,-0.43896 -2.14675,-0.72062 -0.32604,-0.27062 -0.65208,-0.54123 -0.97815,-0.81188 0.45378,-0.047 0.90999,-0.1614 1.36229,-0.16711 1.94162,0.42993 3.89311,0.69458 5.86278,0.80172 0.57834,0.03 1.23345,0.0509 1.84238,0.0551 2.81873,0.0243 5.66398,-0.23001 8.45919,-0.73515 1.09657,-0.20055 2.15974,-0.43607 3.20442,-0.71109 1.5556,-0.40489 3.14953,-0.92517 4.59662,-1.50139 1.02951,-0.40718 2.0453,-0.87528 3.00567,-1.37457 3.06874,-1.59487 5.94437,-3.75447 7.85294,-6.68118 0.41793,-0.64111 0.79325,-1.34829 1.06401,-2.02639 0.75152,-1.75754 1.04348,-3.69253 0.9496,-5.59647 -0.0198,-0.4064 -0.0643,-0.89976 -0.1235,-1.33643 -0.28092,-2.08887 -0.95663,-4.10803 -1.84362,-6.01405 -0.17699,-0.37563 -0.39719,-0.8268 -0.6012,-1.22706 -1.13013,-2.14881 -2.45879,-4.19471 -3.98925,-6.08101 -1.21927,-1.50813 -2.61031,-2.87539 -4.09889,-4.11632 -1.78043,-1.42822 -3.75362,-2.62555 -5.86687,-3.49285 -0.15363,-0.0593 -0.41861,-0.16803 -0.6206,-0.23947 -2.14105,-0.79371 -4.39219,-1.29159 -6.67318,-1.42811 -1.05947,-0.0713 -2.12299,-0.0757 -3.18347,-0.024 -0.32099,0.0187 -0.76895,0.0486 -1.09199,0.0791 -2.11684,0.19527 -4.25672,0.63504 -6.26671,1.22178 -0.56215,0.16859 -1.05265,0.32251 -1.6075,0.50916 -3.50425,1.20527 -6.81214,2.92467 -9.94668,4.88929 -0.41708,0.0707 -0.83417,0.14147 -1.25126,0.21223 0.24387,-0.37077 0.43617,-0.78807 0.71303,-1.12903 1.70279,-1.31346 3.4804,-2.54067 5.34892,-3.61526 3.44343,-2.01913 7.17251,-3.58483 11.08301,-4.42172 2.72895,-0.59556 5.54249,-0.81876 8.32933,-0.60251 3.67683,0.27855 7.29513,1.34592 10.51722,3.14322 3.81262,2.08237 7.04903,5.10547 9.68411,8.53817 1.13022,1.47257 2.16605,3.01907 3.0886,4.62989 1.24069,2.20416 2.24836,4.55948 2.81016,7.03164 0.68947,3.00707 0.6441,6.20868 -0.33306,9.14802 -1.17535,3.56761 -3.63781,6.61585 -6.64026,8.82862 -3.75772,2.81206 -8.2386,4.51146 -12.80266,5.4793 -3.16421,0.66217 -6.40285,0.96143 -9.63472,0.91324 z"
         style="opacity:1;fill:#995919;fill-opacity:1;fill-rule:nonzero;stroke:none;stroke-width:0.35269;stroke-miterlimit:4;stroke-dasharray:none"
         id="path3960" />
      <path
         d="m 175.03152,52.532563 c -2.41493,-0.12612 -4.8539,-0.51678 -7.08296,-1.48826 -1.13206,-0.5109 -2.29729,-1.22911 -2.8013,-2.42083 -0.47562,-1.05968 -0.23234,-2.3518 0.51403,-3.22482 0.85044,-1.0191 2.08622,-1.60083 3.2699,-2.14055 1.70155,-0.75748 3.47673,-1.35374 5.14293,-2.14827 0.18581,-0.0958 0.47569,-0.21841 0.586,-0.31196 -1.65022,-0.25951 -3.22622,-0.8804 -4.70817,-1.63717 -2.10153,-1.10508 -4.07508,-2.63956 -5.24531,-4.7443 -0.86339,-1.52047 -1.17525,-3.34708 -0.82138,-5.06279 0.43696,-2.16312 1.83177,-4.01235 3.50256,-5.39943 1.99503,-1.7156 4.61112,-2.58054 7.21053,-2.7571 3.73694,-0.24455 7.52634,0.82578 10.64849,2.87708 2.15001,1.42818 4.04255,3.38744 4.98546,5.82418 0.37493,0.97741 0.51301,2.02237 0.7638,3.03438 -0.74098,-0.79421 -1.42336,-1.64479 -2.20603,-2.39881 -1.82471,-1.72177 -4.17339,-2.79912 -6.58131,-3.42731 -1.15278,-0.29235 -2.39664,-0.48655 -3.54542,-0.54663 -1.99778,-0.0934 -4.13029,0.12291 -5.95588,1.05145 -1.08165,0.57122 -2.0731,1.34945 -2.81527,2.32686 -0.4481,0.57026 -0.68376,1.33512 -0.46606,2.04656 0.36418,1.2542 1.26235,2.26812 2.19527,3.14505 1.17824,1.08635 2.55729,1.93859 4.02512,2.57472 0.43576,0.21156 0.86219,0.44203 1.30048,0.64861 0.14249,-0.56818 0.41586,-1.09812 0.61116,-1.65089 0.18383,0.675 0.48732,1.32394 0.53562,2.02844 0.23488,1.28742 -0.32738,2.56973 -1.11757,3.56023 -1.3964,1.755 -3.33311,2.95727 -5.22336,4.11176 -0.42782,0.26378 -0.86477,0.51263 -1.28814,0.7837 3.01198,1.15965 6.11452,2.16613 8.89385,3.84059 0.50588,0.32191 1.01194,0.64353 1.51789,0.9653 -1.28968,0.24522 -2.58244,0.51234 -3.89999,0.53834 -0.64809,0.0318 -1.29663,0.0212 -1.94494,0.004 z m -5.83737,-4.45936 c -0.28755,-0.19727 -0.5751,-0.39458 -0.86265,-0.59185 -0.0699,0.16778 0.30946,0.24895 0.42418,0.38061 0.12957,0.0382 0.34541,0.33052 0.43847,0.21124 z"
         style="opacity:1;fill:#995919;fill-opacity:1;fill-rule:nonzero;stroke:none;stroke-width:0.35269;stroke-miterlimit:4;stroke-dasharray:none"
         id="path3962" />
      <path
         d="m 44.713192,17.466313 c -0.09825,-1.18932 -0.217663,-2.37441 -0.331399,-3.57325 -0.242536,-2.17551 -0.46242,-4.4131799 -0.743479,-6.6073169 -0.421923,-3.467806 -0.865328,-6.93525801 -1.274657,-10.403168 0.04777,-0.483695 0.09553,-0.967422 0.143299,-1.451118 0.295732,0.44182 0.645337,0.853652 0.907026,1.314416 0.969539,2.28818499 1.904119,4.591508 2.897999,6.869112 0.721255,1.500717 1.509006,3.029831 2.75463,4.1674 0.341241,0.275125 0.744927,0.627875 1.214332,0.545575 0.667245,-0.30819 1.033814,-1.000836 1.375905,-1.615905 0.783095,-1.548199 1.212426,-3.249083 1.533101,-4.946084 0.354293,-2.06759701 0.528567,-4.202255 0.167921,-6.281385 -0.18542,-0.915176 -0.447744,-1.920415 -1.217258,-2.522432 -0.75738,-0.52959 -1.746393,-0.352777 -2.580852,-0.131726 -1.341792,0.375497 -2.559828,1.07188 -3.790987,1.702965 -0.498615,0.184748 -0.99723,0.369498 -1.495848,0.554249 0.458541,-0.671867 0.848926,-1.396259 1.426176,-1.977779 1.047115,-1.13933 2.25933,-2.172407 3.684693,-2.802784 1.275892,-0.5760861 2.791955,-0.7476071 4.104534,-0.189159 1.553879,0.62551 2.619163,2.066994 3.214053,3.58602 0.91454,2.330945 1.047572,4.892958 0.837776,7.365047 -0.276013,2.794635 -1.043905,5.59883 -2.601418,7.961663 -0.872595,1.2896899 -2.097582,2.4675099 -3.662611,2.8129799 -1.305523,0.30709 -2.699454,-0.12502 -3.723391,-0.95938 -0.330589,-0.25865 -0.622406,-0.56296 -0.904065,-0.87316 0.286527,2.56375 0.580284,5.12689 0.942551,7.68121 -0.943962,0.10484 -1.887889,0.21004 -2.831851,0.31489 -0.01553,-0.18031 -0.03069,-0.36061 -0.04618,-0.54088 z"
         style="opacity:1;fill:#995919;fill-opacity:1;fill-rule:nonzero;stroke:none;stroke-width:0.35269;stroke-miterlimit:4;stroke-dasharray:none"
         id="path3964" />
    </g>
    <g
       id="g7565">
      <path
         id="path7479"
         style="opacity:1;fill:#bc7222;fill-opacity:1;fill-rule:nonzero;stroke:none;stroke-width:0.35269;stroke-miterlimit:4;stroke-dasharray:none"
         d="m 95.855986,105.68933 c -1.3335,-0.39864 -2.592917,-0.77964 -3.788834,-1.15006 -13.285258,-4.1028 -18.831276,-6.833297 -29.037139,-18.295047 l 0.03175,-2.06728 c 12.710583,0.1023 26.109083,-26.04911 23.251583,-28.27161 -4.811535,-3.74297 -12.72822,-5.21406 -20.228277,-5.61622 -3.619148,-0.25048 -7.231943,-0.16581 -10.50572,0.0423 -0.313973,0.0177 -0.617363,0.0388 -0.917223,0.06 -0.268111,0.0177 -0.532694,0.0353 -0.79375,0.0564 -0.09525,0.007 -0.186974,0.0141 -0.278694,0.0282 -2.89278,0.27516 -4.68489,1.31233 -5.711473,2.82928 l -0.10936,-0.0741 c -3.96875,5.94784 -6.427613,12.86934 -6.604,21.03967 -0.05609,2.50825 0.493887,23.69608 5.591527,22.91291 5.849056,-0.89958 11.938,-7.23194 16.273637,-10.93963 -0.345721,1.016 -0.691444,2.02847 -1.040694,3.04447 2.794,6.03603 5.828242,14.209887 1.270352,20.058937 -5.729462,7.35895 -9.708795,11.38061 -5.57036,21.01497 9.704565,22.58484 35.101387,-14.8978 38.166675,-24.67327 M 119.47446,39.324693 c 0,-10.41047 -15.52222,-10.41047 -15.52222,0 0,10.41047 15.52222,10.41047 15.52222,0 m -11.2783,-14.40744 c 3.97227,-3.07622 18.33386,-11.53936 18.33386,-16.9897799 -11.99445,0.50095 -23.12776,1.22767 -30.183322,11.8886099 -7.327546,11.0737 6.254402,9.42975 11.849462,5.10117 M 79.695236,-15.14411 c 7.186435,-5.5245 10.389658,-14.104057 14.566193,-21.928667 2.879019,-5.393973 6.219471,-10.43164 11.648731,-13.86064 1.28446,-0.811387 2.59326,-1.580443 3.91936,-2.31775 13.3985,-7.447137 28.62086,-11.624027 39.46877,-23.082248 -9.31686,23.597305 -26.50066,37.235695 -47.0923,50.796471 14.31219,-6.088946 30.3283,-4.116916 44.98657,-8.801806 14.53762,-4.646083 28.54995,-13.211527 42.3224,-19.769667 -10.3117,23.248057 -31.97543,38.223473 -57.64389,34.63925 -0.5394,-0.07761 -1.08268,-0.162277 -1.62278,-0.246943 0.54328,0.09172 1.08338,0.176387 1.62278,0.246943 22.96583,3.439584 46.49646,3.012723 61.87722,-17.180277 -2.04611,20.725694 -19.177,29.8238341 -37.39797,26.6876381 l -0.18697,0.956029 c 9.34861,4.720167 20.47169,4.325054 28.92778,-2.1166671 -4.15925,6.4135001 -10.42106,11.21833109 -17.19792,14.6755541 -1.09714,0.483307 -2.18722,1.00189 -3.2632,1.552223 1.09749,-0.483306 2.18723,-1.001889 3.2632,-1.552223 9.91693,-4.36739001 20.60928,-6.08189 31.32666,-7.71172 8.32591,-1.266473 16.66875,-2.48003 24.67681,-4.847167 -11.78983,6.163027 -23.8125,13.09511 -31.04444,24.6944399 0.06,-0.007 0.11994,-0.0176 0.17991,-0.0247 l 0.37748,2.77283 c 2.83986,2.27542 5.44688,5.28461 7.73641,9.09814 4.3113,7.17903 4.5085,13.14803 2.17311,17.84703 l 4.05024,0.55033 c -0.13793,0.26458 -0.27199,0.53269 -0.40604,0.80081 10.93964,-1.57339 20.26002,-8.4702 28.92777,-14.81667 -5.588,14.30867 -16.26658,23.42797 -29.63333,30.33889 16.54563,1.30528 29.12181,-8.24089 41.62778,-17.63889 -4.87539,20.06953 -21.12081,33.33397 -39.51111,40.92222 14.11111,8.50195 30.12369,0.39511 44.45,-2.82222 -16.95415,19.931937 -38.96431,32.035747 -65.61667,30.338887 12.80231,6.17361 27.42177,4.36386 40.92222,2.11666 -11.16894,16.97214 -32.35677,15.21884 -50.09444,14.11112 6.98147,3.75355 13.64932,8.24794 19.05,14.11111 -5.69348,1.35114 -11.70869,2.40947 -17.06386,4.92125 -2.97039,-1.69686 -6.43079,-3.1115 -10.41365,-4.19806 -0.41275,-0.11289 -0.83291,-0.22225 -1.25977,-0.32808 l -1.63336,0.16228 c -0.45508,-1.44992 -1.12889,-2.91748 -2.0708,-4.39562 -7.40834,-11.64166 -16.93334,-14.81666 -16.93334,-14.81666 0,0 -8.99583,-16.40417 -18.52083,-18.52084 -9.525,-2.11666 -22.22147,2.64584 -24.8673,8.99584 -0.70909,1.70391 -1.22732,3.51719 -1.48873,5.30578 -1.97203,2.55763 -3.404307,5.50686 -3.658307,7.99041 -0.58561,5.75734 4.060477,4.56847 8.078967,2.80811 0.24659,0.10936 0.50412,0.21167 0.77223,0.29986 1.93675,0.64559 4.61434,0.79728 7.39775,0.6985 l 0.0106,0.35984 c -1.4217,0.85019 -2.67759,1.83091 -3.77085,2.91041 l -1.87713,-0.0318 c -8.78769,5.69384 -14.904861,13.64192 -12.343694,24.638 -5.17878,-4.14513 -11.564057,-6.37822 -15.875,-11.64166 2.702277,7.42244 3.312935,14.79903 8.466666,21.16666 -9.50736,-3.33375 -17.261416,-10.22702 -21.166666,-19.57916 0.278693,6.09247 -1.918759,11.85686 -1.058334,17.99166 -8.939389,-7.7082 -15.74447,-17.50837 -18.88772,-27.89062 l -1.220613,0.37395 c -5.48922,-2.75873 -10.61861,-5.94078 -15.225887,-9.61673 -9.426223,-7.53533 -16.650759,-17.15558 -20.22475,-29.53808 2.448277,3.92289 19.519194,14.80961 14.922852,7.75053 -4.706408,-7.22489 -14.270213,-14.915447 -15.981185,-23.625527 3.774722,5.38339 9.11613,9.50031 15.345832,11.64167 -7.831313,-7.95514 -14.01586,-17.82586 -15.345832,-29.10417 3.901721,6.76628 8.92563,12.86228 14.816666,17.99167 -7.598833,-11.95564 -13.165667,-24.7897 -9.525,-39.15833 2.409472,8.7383 5.393972,17.92816 12.170833,24.34166 -6.335889,-17.69533 -9.803694,-36.45605 -2.645833,-54.50064 0.702027,3.78884 2.772833,29.67567 6.840361,29.96495 -1.993194,-0.14111 2.970389,-8.86884 8.957026,-18.28447 6.515807,-10.2482 14.245167,-21.3077799 15.529632,-22.9870029 2.215092,-2.896306 4.642202,-5.75027701 6.899979,-8.710083 2.314575,-3.03036 4.455583,-6.177137 6.021916,-9.6061371 1.79564,-3.929946 3.07975,-7.78228 4.346223,-11.500557 1.760361,-5.182306 3.481917,-10.11061 6.484409,-14.622637 1.957565,-2.949223 4.465815,-5.725583 7.887758,-8.279696 -1.643943,2.846917 -2.36361,6.942667 -2.931583,11.313583 -1.040694,7.997473 -1.576917,16.915694 -6.35,20.771557 m -10.23761,46.362053 c -0.0071,-0.0141 -0.0141,-0.0247 -0.02117,-0.0388 v -0.004 c -0.04586,-0.0776 -0.0882,-0.14817 -0.127,-0.21167 -0.433565,-0.68792 -0.927807,-1.24531 -1.467557,-1.68628 1.615724,0.47625 3.566584,0.0741 5.92314,-1.59455 7.771694,-5.50334 -8.311446,-20.0695319 -13.55725,-21.8722279 0,3.301998 0.635,18.0481079 5.76086,22.4260879 -5.044723,-1.67923 -11.567583,3.81 -8.092723,9.72608 0.677334,1.15711 1.760363,1.73567 3.005667,1.88031 3.47839,0.40922 8.230306,-2.58939 8.978548,-5.89139 0.207785,-0.91017 0.109008,-1.8415 -0.402518,-2.73403" />
      <path
         id="path7481"
         style="opacity:1;fill:#d68b32;fill-opacity:1;fill-rule:nonzero;stroke:none;stroke-width:0.35269;stroke-miterlimit:4;stroke-dasharray:none"
         d="M 245.06342,8.6330731 C 228.75803,17.777073 215.94514,29.210603 207.36911,45.932273 l -4.04989,-0.55034 c 2.33539,-4.699 2.13783,-10.668 -2.17311,-17.84702 -2.28953,-3.81353 -4.89655,-6.82273 -7.73642,-9.09814 l -0.37747,-2.77284 c 17.3355,-2.43064 35.08728,-2.18016 52.0312,-7.0308599" />
      <path
         id="path7483"
         style="opacity:1;fill:#f2ae40;fill-opacity:1;fill-rule:nonzero;stroke:none;stroke-width:0.35269;stroke-miterlimit:4;stroke-dasharray:none"
         d="m 191.66341,-54.789242 c 7.7223,14.975416 10.76325,32.87536 7.5565,50.6306661 -10.71739,1.629834 -21.41008,3.34433399 -31.32667,7.711721 6.77686,-3.45722101 13.03867,-8.262054 17.19792,-14.6755541 -8.45608,6.4417231 -19.57917,6.8368331 -28.92778,2.1166671 l 0.18698,-0.956027 c 18.22097,3.136193 35.35186,-5.9619471 37.39797,-26.6876401 -15.38076,20.193 -38.91139,20.61986 -61.87722,17.180277 25.66846,3.584223 47.33219,-11.391194 57.64388,-34.639248 z" />
      <path
         id="path7485"
         style="opacity:1;fill:#f2ae40;fill-opacity:1;fill-rule:nonzero;stroke:none;stroke-width:0.35269;stroke-miterlimit:4;stroke-dasharray:none"
         d="m 191.66341,-54.789242 -2.14842,0.680862 c -13.77244,6.558138 -27.78477,15.123584 -42.32275,19.769664 -14.65791,4.68489 -30.67402,2.712863 -44.98622,8.801807 20.59164,-13.560777 37.77545,-27.199167 47.09231,-50.796471 -10.84792,11.458221 -26.07028,15.635111 -39.46878,23.08225 -12.73528,-1.707446 -10.886723,-2.871612 -15.86089,-14.897806 -4.977694,12.11086 -4.43089,12.950473 -17.441333,14.594417 7.224889,9.468556 9.2075,5.954889 4.561768,14.605 -3.002491,4.512027 -4.724045,9.440333 -6.484408,14.622637 l -0.4445,-0.151694 c -13.758333,3.175 -19.579164,7.9375 -19.579164,7.9375 l -3.926417,0.377473 c -1.09714,-0.165806 -2.226029,-0.165806 -3.38314,0.02469 l -0.469193,-2.039061 c -0.03493,-7.503583 8.639527,-6.787443 10.400239,-13.260916 2.165704,-7.965721 4.14514,-15.927914 8.004175,-23.300971 9.934223,-18.979436 34.374667,-32.102769 54.687963,-36.057407 32.26118,-6.282973 58.71245,10.675055 71.76876,36.008026" />
      <path
         id="path7487"
         style="opacity:1;fill:#66360e;fill-opacity:1;fill-rule:nonzero;stroke:none;stroke-width:0.35269;stroke-miterlimit:4;stroke-dasharray:none"
         d="m 169.40669,144.84766 c 12.1532,5.5245 19.2652,25.68928 14.10371,37.67315 l -0.34537,-0.10583 c 2.11666,-6.35 -1.5875,-12.17085 -5.82084,-21.16315 -4.52966,-9.62378 -9.525,-12.7 -9.525,-12.7 l -0.37041,0.004 c -0.0176,-1.50283 -0.24695,-3.04094 -0.73378,-4.60375 l 1.63336,-0.16228 c 0.42686,0.10584 0.84667,0.2152 1.25942,0.32809 z" />
      <path
         id="path7489"
         style="opacity:1;fill:#d68b32;fill-opacity:1;fill-rule:nonzero;stroke:none;stroke-width:0.35269;stroke-miterlimit:4;stroke-dasharray:none"
         d="m 183.51057,182.52084 c 5.1615,-11.98387 -1.9505,-32.14864 -14.1037,-37.67314 l 0.20109,-0.73025 c 3.98286,1.08655 7.44325,2.50119 10.41364,4.19805 22.96972,13.09158 16.85255,42.7214 -1.08973,63.20367 l -0.0177,0.0318 c -10.37872,-5.37633 -20.78954,-10.70327 -31.1224,-16.16782 -5.588,-2.95275 -10.65001,-5.75733 -15.67039,-8.24087 l 0.24377,-0.49389 c -6.35,-7.40834 -6.87917,-22.75417 -6.87917,-22.75417 l -0.0991,-0.32456 c 0.20814,-0.0635 0.41663,-0.13053 0.6283,-0.20108 v -0.11289 c 2.20486,0.0388 4.28625,-0.51153 6.49464,-1.52753 l 0.38452,0.0529 c 0,0 0.0282,0.49389 0.15523,1.26294 l -1.74273,0.32456 c 2.56082,17.9317 25.781,32.5367 42.8625,27.51314 4.61434,-1.35819 7.64117,-4.41325 9.34121,-8.36083" />
      <path
         id="path7491"
         style="opacity:1;fill:#a56525;fill-opacity:1;fill-rule:nonzero;stroke:none;stroke-width:0.35269;stroke-miterlimit:4;stroke-dasharray:none"
         d="m 183.16503,182.4149 0.34537,0.10583 c -1.70004,3.94758 -4.72687,7.00265 -9.34121,8.36083 -17.08149,5.02357 -40.30133,-9.58143 -42.86249,-27.51314 l 1.74272,-0.32455 c 0.41275,2.5153 1.86266,7.9763 6.72394,8.78769 6.35,1.05834 12.7,1.05834 17.99167,-4.23333 3.89819,-3.89467 9.80016,-10.9467 9.68375,-19.04295 l 0.37041,-0.004 c 0,0 4.99534,3.07622 9.525,12.7 4.23334,8.99231 7.9375,14.81314 5.82084,21.16314" />
      <path
         id="path7493"
         style="opacity:1;fill:#d68b32;fill-opacity:1;fill-rule:nonzero;stroke:none;stroke-width:0.35269;stroke-miterlimit:4;stroke-dasharray:none"
         d="m 167.44885,148.55528 c 0.11642,8.09625 -5.78556,15.14828 -9.68375,19.04295 -5.29167,5.29167 -11.64167,5.29167 -17.99167,4.23333 -4.86127,-0.81139 -6.31119,-6.27239 -6.72394,-8.78769 -0.127,-0.76906 -0.15522,-1.26295 -0.15522,-1.26295 l -0.38453,-0.0529 c -2.20839,1.016 -4.28978,1.56633 -6.49464,1.52752 -1.50283,-0.0247 -3.06599,-0.33161 -4.75897,-0.94544 -5.82083,-2.11667 -6.87917,-8.46667 -4.7625,-16.40417 1.09714,-4.12397 12.1673,-15.34583 12.1673,-15.34583 0,0 -6.8968,1.53106 -13.23657,1.75683 -2.78306,0.0988 -5.46065,-0.0529 -7.3974,-0.6985 -0.26811,-0.0882 -0.52599,-0.1905 -0.77258,-0.29986 2.14842,-0.94191 4.11692,-2.04964 5.00592,-2.34597 3.42864,-1.143 13.13391,-3.79236 11.63814,-8.99583 -2.04964,-7.1367 -7.7717,-8.65717 -13.75481,-5.29167 -2.52942,0.84314 -5.22111,3.12208 -7.30956,5.83494 0.26106,-1.78858 0.77964,-3.60186 1.48873,-5.30577 2.64583,-6.35 15.3423,-11.1125 24.8673,-8.99584 9.525,2.11667 18.52083,18.52084 18.52083,18.52084 0,0 9.525,3.175 16.93334,14.81666 0.94191,1.47814 1.61572,2.9457 2.0708,4.39561 0.48684,1.56281 0.71614,3.10092 0.73378,4.60375" />
      <path
         sodipodi:nodetypes="ccccccccccccccccccc"
         id="path7495"
         style="opacity:1;fill:#66360e;fill-opacity:1;fill-rule:nonzero;stroke:none;stroke-width:0.35269;stroke-miterlimit:4;stroke-dasharray:none"
         d="m 132.36503,186.64823 -0.24342,0.4939 c -16.06233,3.88087 -31.91657,18.35657 -48.485773,18.84688 -34.554586,-5.51744 -85.8640977,2.28903 -80.9483896,-36.78564 1.3899444,-2.88925 5.6620831,-11.32417 11.6804716,-19.06411 7.408333,-9.525 16.933332,-17.99167 16.933332,-17.99167 l 1.17475,-1.15006 c 4.607279,3.67595 9.736666,6.858 15.22589,9.61673 l 1.22061,-0.37395 c 3.14325,10.38225 9.948333,20.18242 18.887723,27.89061 -0.86078,-6.1348 1.337027,-11.89919 1.058333,-17.99166 3.90525,9.35213 11.659304,16.24541 21.166667,19.57916 -5.154083,-6.36764 -5.76439,-13.74422 -8.466667,-21.16666 4.310592,5.26344 10.696221,7.49652 15.874998,11.64166 -2.561167,-10.99608 3.556005,-18.94416 12.343695,-24.638 l 1.87678,0.0317 c -11.52878,11.38414 -5.08,33.71497 13.72306,27.98234 l 0.0988,0.32455 c 0,0 0.52917,15.34584 6.87917,22.75417" />
      <path
         id="path7497"
         style="opacity:1;fill:#a56525;fill-opacity:1;fill-rule:nonzero;stroke:none;stroke-width:0.35269;stroke-miterlimit:4;stroke-dasharray:none"
         d="m 126.01503,163.2555 v 0.11289 c -0.21167,0.0705 -0.41981,0.13758 -0.62794,0.20108 -18.80306,5.73264 -25.25184,-16.59819 -13.72306,-27.98233 1.09361,-1.0795 2.34915,-2.06022 3.77119,-2.91042 l -0.0109,-0.35983 c 6.33977,-0.22578 13.23657,-1.75683 13.23657,-1.75683 0,0 -11.07016,11.22186 -12.1673,15.34583 -2.11667,7.9375 -1.05834,14.2875 4.7625,16.40416 1.69333,0.61384 3.25614,0.92075 4.75897,0.94545" />
      <path
         id="path7499"
         style="opacity:1;fill:#f2ae40;fill-opacity:1;fill-rule:nonzero;stroke:none;stroke-width:0.35269;stroke-miterlimit:4;stroke-dasharray:none"
         d="m 123.89836,119.97683 c 1.49578,5.20347 -8.20949,7.85283 -11.63814,8.99583 -0.889,0.29633 -2.8575,1.40405 -5.00591,2.34597 -4.01109,-1.78858 -5.08,-6.1983 -4.42031,-10.79853 2.08845,-2.71286 4.78014,-4.9918 7.30956,-5.83494 5.98311,-3.3655 11.70516,-1.84503 13.7548,5.29167" />
      <path
         id="path7501"
         style="opacity:1;fill:#000000;fill-opacity:1;fill-rule:nonzero;stroke:none;stroke-width:0.35269;stroke-miterlimit:4;stroke-dasharray:none"
         d="m 126.53008,7.9275231 c 0,5.4504099 -14.36158,13.9135499 -18.33386,16.9897699 -5.59505,4.32859 -19.176996,5.97253 -11.849803,-5.10116 C 103.40197,9.1551831 114.53564,8.4284631 126.53008,7.9275231" />
      <path
         id="path7503"
         style="opacity:1;fill:#000000;fill-opacity:1;fill-rule:nonzero;stroke:none;stroke-width:0.35269;stroke-miterlimit:4;stroke-dasharray:none"
         d="m 103.95231,39.324743 c 0,-10.41047 15.52222,-10.41047 15.52222,0 0,10.41047 -15.52222,10.41047 -15.52222,0" />
      <path
         id="path7505"
         style="opacity:1;fill:#ffffff;fill-opacity:1;fill-rule:nonzero;stroke:none;stroke-width:0.35269;stroke-miterlimit:4;stroke-dasharray:none"
         d="m 109.82966,-53.251167 c -1.32645,0.737307 -2.63525,1.506363 -3.91936,2.31775 -5.42926,3.429 -8.770064,8.466667 -11.64873,13.86064 -2.956277,-1.672167 -4.586111,-0.522113 -7.478888,1.255887 l -0.737306,-0.09878 c 0.567621,-4.370916 1.287288,-8.466666 2.931583,-11.313583 -3.422295,2.554113 -5.930193,5.330473 -7.88811,8.279696 4.646083,-8.650113 2.663473,-5.136446 -4.561417,-14.605 13.010092,-1.643946 12.46364,-2.483556 17.441334,-14.594417 4.974166,12.026194 3.125258,13.190361 15.860894,14.897804" />
      <path
         id="path7507"
         style="opacity:1;fill:#f2ae40;fill-opacity:1;fill-rule:nonzero;stroke:none;stroke-width:0.35269;stroke-miterlimit:4;stroke-dasharray:none"
         d="m 102.83404,120.52014 c -0.6597,4.60022 0.40922,9.00995 4.4203,10.79853 -4.01814,1.76036 -8.664221,2.94922 -8.078611,-2.80811 0.254,-2.48356 1.686281,-5.43278 3.658311,-7.99042" />
      <path
         id="path7509"
         style="opacity:1;fill:#000000;fill-opacity:1;fill-rule:nonzero;stroke:none;stroke-width:0.35269;stroke-miterlimit:4;stroke-dasharray:none"
         d="m 92.067081,104.5392 c 1.196269,0.37042 2.455333,0.75142 3.788833,1.15006 -3.065285,9.77547 -28.461758,47.25811 -38.166675,24.67327 -4.138435,-9.63436 -0.15875,-13.65602 5.570363,-21.01497 4.557887,-5.84905 1.523646,-14.022907 -1.270354,-20.058937 0.34925,-1.016 0.694973,-2.02847 1.040696,-3.04447 6.21947,9.25336 17.4625,17.656517 29.037137,18.295047" />
      <path
         id="path7511"
         style="opacity:1;fill:#d68b32;fill-opacity:1;fill-rule:nonzero;stroke:none;stroke-width:0.35269;stroke-miterlimit:4;stroke-dasharray:none"
         d="m 86.782648,-35.816924 c 2.892777,-1.778 4.52261,-2.928054 7.478887,-1.25589 -4.176887,7.824613 -7.38011,16.404167 -14.566193,21.928667 4.772731,-3.85586 5.309306,-12.774084 6.35,-20.771554 z" />
      <path
         id="path7513"
         style="opacity:1;fill:#000000;fill-opacity:1;fill-rule:nonzero;stroke:none;stroke-width:0.35269;stroke-miterlimit:4;stroke-dasharray:none"
         d="m 86.313417,55.905293 c 2.8575,2.2225 -10.541,28.37392 -23.251583,28.27161 -4.68136,-0.0388 -9.263943,-3.62655 -12.911667,-13.2715 3.675947,9.6132 9.0805,12.30136 13.761861,12.34017 12.710583,0.10231 22.260279,-25.29417 19.402779,-27.51667 -4.586113,-3.56658 -10.918473,-5.00944 -17.229666,-5.43983 7.500053,0.40217 15.416387,1.87325 20.228276,5.61622" />
      <path
         id="path7515"
         style="opacity:1;fill:#000000;fill-opacity:1;fill-rule:nonzero;stroke:none;stroke-width:0.35269;stroke-miterlimit:4;stroke-dasharray:none"
         d="m 83.314807,55.728903 c 2.8575,2.2225 -6.692196,27.61898 -19.402779,27.51667 -4.681361,-0.0388 -10.085914,-2.72697 -13.761861,-12.34017 -0.05644,-0.15169 -0.116416,-0.30691 -0.17286,-0.46214 -2.003777,-5.44336 -3.122083,-11.66988 -0.352777,-15.77269 1.026584,-1.51694 1.178277,-3.83469 3.965221,-4.19453 0.09172,-0.0141 0.183446,-0.0212 0.278696,-0.0282 0.261054,-0.0212 0.525637,-0.0388 0.79375,-0.0564 0.29986,-0.0212 0.60325,-0.0423 0.91722,-0.06 3.104444,-0.18344 6.752167,-0.24694 10.505724,-0.0423 6.311193,0.43039 12.643553,1.87325 17.229666,5.43983" />
      <path
         id="path7517"
         style="opacity:1;fill:#000000;fill-opacity:1;fill-rule:nonzero;stroke:none;stroke-width:0.35269;stroke-miterlimit:4;stroke-dasharray:none"
         d="M 63.030084,86.244183 C 73.235944,97.705933 78.781611,100.43643 92.067221,104.53924 80.492584,103.90071 69.249557,95.497543 63.030084,86.244183" />
      <path
         id="path7519"
         style="opacity:1;fill:#26110b;fill-opacity:1;fill-rule:nonzero;stroke:none;stroke-width:0.35269;stroke-miterlimit:4;stroke-dasharray:none"
         d="m 74.160152,-24.47861 0.4445,0.151693 c -1.266473,3.718277 -2.550583,7.570611 -4.346223,11.500557 -1.566333,3.4290001 -3.707341,6.5757771 -6.021916,9.6061371 C 61.491902,-9.6054999 56.581236,-15.278167 50.654569,-16.16364 l 3.926417,-0.37747 c 0,0 5.820833,-4.7625 19.579166,-7.9375" />
      <path
         id="path7521"
         style="opacity:1;fill:#000000;fill-opacity:1;fill-rule:nonzero;stroke:none;stroke-width:0.35269;stroke-miterlimit:4;stroke-dasharray:none"
         d="m 60.207861,5.8108531 c 5.245806,1.802693 21.328946,16.3688899 13.55725,21.8722199 -2.356554,1.66864 -4.307417,2.07081 -5.923137,1.59456 -0.582083,-0.47978 -1.217083,-0.82197 -1.87325,-1.0407 C 60.842861,23.858963 60.207861,9.1128531 60.207861,5.8108531" />
      <path
         id="path7523"
         style="opacity:1;fill:#000000;fill-opacity:1;fill-rule:nonzero;stroke:none;stroke-width:0.35269;stroke-miterlimit:4;stroke-dasharray:none"
         d="m 69.457589,31.217913 c 0.511529,0.89252 0.610306,1.82386 0.402521,2.73402 -3.125965,1.81681 -6.14539,3.7712 -8.978548,5.89139 -1.245307,-0.14464 -2.328334,-0.72319 -3.005667,-1.8803 -3.47486,-5.91609 3.048352,-11.40531 8.092723,-9.72609 0.568325,0.48331 1.18886,0.83961 1.87325,1.0407 0.53975,0.44097 1.033992,0.99836 1.467554,1.68628 0.03881,0.0635 0.08149,0.13405 0.127,0.21166 v 0.004 c 0.0071,0.0141 0.0141,0.0247 0.02117,0.0388" />
      <path
         id="path7525"
         style="opacity:1;fill:#000000;fill-opacity:1;fill-rule:nonzero;stroke:none;stroke-width:0.35269;stroke-miterlimit:4;stroke-dasharray:none"
         d="m 65.968758,28.236863 c 0.656167,0.21872 1.291167,0.56092 1.87325,1.0407 -0.684389,-0.20109 -1.305277,-0.55739 -1.87325,-1.0407" />
      <path
         id="path7527"
         style="opacity:1;fill:#bc7222;fill-opacity:1;fill-rule:nonzero;stroke:none;stroke-width:0.35269;stroke-miterlimit:4;stroke-dasharray:none"
         d="m 63.061763,84.176943 -0.03175,2.06728 c -4.335637,3.70769 -10.424581,10.04005 -16.273637,10.93963 -5.09764,0.78317 -5.647619,-20.40466 -5.591527,-22.91291 0.176387,-8.17033 2.63525,-15.09183 6.604,-21.03967 l 0.10936,0.0741 c -2.769307,4.1028 0.09525,11.69458 2.099027,17.13794 0.05645,0.15522 0.116416,0.31044 0.172863,0.46214 3.64772,9.64494 8.230303,13.23269 12.911664,13.2715" />
      <path
         id="path7529"
         style="opacity:1;fill:#000000;fill-opacity:1;fill-rule:nonzero;stroke:none;stroke-width:0.35269;stroke-miterlimit:4;stroke-dasharray:none"
         d="m 66.085209,50.289113 c -3.753908,-0.20462 -7.401277,-0.14112 -10.50572,0.0423 3.273777,-0.20814 6.88622,-0.29281 10.50572,-0.0423" />
      <path
         id="path7531"
         style="opacity:1;fill:#d68b32;fill-opacity:1;fill-rule:nonzero;stroke:none;stroke-width:0.35269;stroke-miterlimit:4;stroke-dasharray:none"
         d="m 60.881739,39.843393 c 2.832804,-2.12019 5.852583,-4.07458 8.978193,-5.89139 -0.747889,3.302 -5.500158,6.30061 -8.978193,5.89139" />
      <path
         id="path7533"
         style="opacity:1;fill:#bc7222;fill-opacity:1;fill-rule:nonzero;stroke:none;stroke-width:0.35269;stroke-miterlimit:4;stroke-dasharray:none"
         d="m 50.654606,-16.163674 c 5.926664,0.885473 10.837331,6.5581401 13.581944,12.9434171 -2.25778,2.95980299 -4.68489,5.813776 -6.900334,8.710083 -1.284112,1.67922 -9.013473,12.7388069 -15.529277,22.9869969 l -0.451556,-0.56444 c -9.853083,-12.192 -14.880166,-29.6686139 -0.754944,-40.883417 2.286,-1.816807 4.526138,-2.815167 6.671027,-3.167947 1.157111,-0.1905 2.286,-0.1905 3.38314,-0.02468" />
      <path
         id="path7535"
         style="opacity:1;fill:#000000;fill-opacity:1;fill-rule:nonzero;stroke:none;stroke-width:0.35269;stroke-miterlimit:4;stroke-dasharray:none"
         d="m 54.662303,50.391413 c -0.268465,0.0177 -0.533048,0.0353 -0.79375,0.0564 0.260702,-0.0212 0.525285,-0.0388 0.79375,-0.0564" />
      <path
         id="path7537"
         style="opacity:1;fill:#000000;fill-opacity:1;fill-rule:nonzero;stroke:none;stroke-width:0.35269;stroke-miterlimit:4;stroke-dasharray:none"
         d="m 53.589822,50.476013 c -2.786943,0.35983 -2.93864,2.67758 -3.965223,4.19453 -2.769304,4.1028 -1.651,10.32933 0.35278,15.77269 -2.00378,-5.44336 -4.868334,-13.03514 -2.09903,-17.13794 1.026583,-1.51695 2.818696,-2.55411 5.711473,-2.82928" />
      <path
         id="path7539"
         style="opacity:1;fill:#995919;fill-opacity:1;fill-rule:nonzero;stroke:none;stroke-width:0.35269;stroke-miterlimit:4;stroke-dasharray:none"
         d="m 92.822591,107.55623 c -5.272228,-0.10937 -10.413754,-1.87258 -14.911353,-4.56851 -4.183063,-2.49029 -7.901057,-5.706737 -11.192473,-9.281017 -1.406385,-1.53169 -2.734945,-3.1357 -3.969809,-4.8091 -2.803985,2.66298 -5.276781,5.68074 -8.326789,8.07875 -1.212392,0.94481 -2.518024,1.78181 -3.929205,2.39819 -1.071245,0.47184 -2.206837,0.809797 -3.359185,0.997467 -1.53811,0.21887 -3.128997,-0.37052 -4.221938,-1.459117 -1.438523,-1.41549 -2.172017,-3.36035 -2.722033,-5.26108 -0.993,-3.63058 -1.36571,-7.39461 -1.620591,-11.139 -0.175295,-2.77329 -0.259893,-5.55501 -0.188032,-8.33349 0.06625,-1.19641 0.153776,-2.39158 0.306883,-3.58055 0.52525,-4.04686 1.629727,-8.02397 3.349024,-11.72824 1.900838,-4.14292 4.51739,-7.94332 7.628361,-11.2697 2.60223,-2.80493 5.510741,-5.3166 8.618783,-7.54503 3.715491,-2.68122 7.699023,-4.97699 11.803346,-7.00645 0.671936,-0.34787 1.37781,-0.63207 2.036551,-1.00259 0.464256,-0.29013 0.928547,-0.58025 1.392838,-0.87038 -0.3096,0.61899 -0.619268,1.23793 -0.928793,1.85692 -0.547937,0.2891 -1.046904,0.6701 -1.571874,1.00104 -2.091267,1.39414 -4.174207,2.83337 -6.15456,4.33754 -2.289845,1.7446 -4.504127,3.54218 -6.592041,5.53124 -2.123512,2.01458 -4.141259,4.14793 -5.933191,6.46522 -0.41896,0.54448 -0.869776,1.15334 -1.280655,1.73782 -2.035175,2.90026 -3.762587,6.0331 -4.940618,9.38085 -1.410581,3.96466 -2.132541,8.16928 -2.155753,12.37619 -0.02469,1.28005 0.07087,2.52889 0.143933,3.81166 0.124778,1.8016 0.27714,3.6438 0.480446,5.44071 0.321734,2.72909 0.716106,5.46135 1.440146,8.11636 0.184819,0.66544 0.380047,1.26316 0.646464,1.90105 0.105905,0.24849 0.220205,0.49428 0.357823,0.72693 0.578734,-0.13927 1.149704,-0.31591 1.711362,-0.51562 2.7384,-1.03455 5.290748,-2.51054 7.7041,-4.1566 2.440906,-1.67912 4.670497,-3.63509 6.919138,-5.548 1.145362,1.62088 2.230294,3.28849 3.530951,4.79358 2.230615,2.64619 4.856975,4.94623 7.725059,6.87882 0.795829,0.53685 1.60401,1.03145 2.42076,1.49824 1.746356,0.99836 3.568311,1.86496 5.44971,2.57758 0.49121,0.18358 1.059603,0.39045 1.588241,0.56208 0.506307,0.170527 1.068001,0.334957 1.549543,0.474197 1.465543,0.40919 2.958182,0.72245 4.466907,0.92191 0.166651,0.0183 0.493959,0.0592 0.661422,0.0785 3.432526,0.36579 6.971453,0.0931 10.224351,-1.10995 0.74587,-0.25315 1.47087,-0.568177 2.16104,-0.947307 0.48606,-0.2751 0.95205,-0.57951 1.39916,-0.91444 2.40238,-1.82717 4.0853,-4.46433 5.10931,-7.27685 0.15057,-0.40912 0.30611,-0.89683 0.42214,-1.26767 1.20918,-4.10835 1.31099,-8.53243 0.34293,-12.7011 -0.67405,-2.90727 -1.91844,-5.71009 -3.82231,-8.02421 -1.20121,-1.46515 -2.6718,-2.7094 -4.31825,-3.64737 -0.31443,-0.33739 -0.62886,-0.67476 -0.94326,-1.01215 0.48161,0.0332 0.97356,0.0113 1.44886,0.0781 3.42639,1.14547 6.31349,3.59975 8.31448,6.57416 2.45847,3.59883 3.76195,7.90462 4.087,12.22907 0.34435,4.72328 -0.48704,9.58865 -2.7305,13.78571 -1.16279,2.15491 -2.71004,4.117727 -4.60586,5.673587 -0.51707,0.42079 -1.08465,0.85471 -1.67528,1.20523 -0.68495,0.45459 -1.41566,0.83171 -2.15642,1.18441 -3.50196,1.57533 -7.347518,2.39071 -11.190289,2.30241 z m 11.028439,-8.276487 c -0.22945,0.24667 -0.4589,0.49333 -0.68834,0.739987 0.33669,0.01 0.67341,0.0187 1.01011,0.0282 -0.10725,-0.256077 -0.21453,-0.512157 -0.32177,-0.768237 z m -56.540228,-5.01882 c -0.282363,0.11345 -0.574463,0.31506 -0.860568,0.46235 0.08442,0.13483 0.208352,0.5552 0.345829,0.23562 0.17159,-0.23266 0.343146,-0.46532 0.514739,-0.69797 z" />
      <path
         id="path7541"
         style="opacity:1;fill:#26110b;fill-opacity:1;fill-rule:nonzero;stroke:none;stroke-width:0.35269;stroke-miterlimit:4;stroke-dasharray:none"
         d="m 63.063845,85.198943 c -1.285311,-0.0611 -2.468528,-0.65405 -3.582353,-1.25042 -2.319054,-1.30832 -4.424748,-2.97597 -6.330209,-4.83027 -1.198631,-1.19892 -2.366997,-2.47495 -3.150129,-3.99193 -1.224526,-2.50804 -2.168665,-5.14777 -2.923468,-7.83255 -0.789234,-2.92583 -1.357242,-5.96057 -1.162969,-9.00271 0.137055,-2.07264 0.712296,-4.21502 2.119101,-5.79865 1.27988,-1.46995 3.180821,-2.25827 5.084869,-2.49611 1.587219,-0.16856 3.18135,-0.2716 4.770649,-0.42132 5.375029,-0.4536 10.781982,-0.83848 16.174826,-0.47682 2.826668,0.21241 5.685578,0.60093 8.331165,1.66582 1.783009,0.71988 3.502483,1.85924 4.450009,3.57999 0.60131,1.09125 0.883145,2.36679 0.711306,3.60743 -0.247545,2.06263 -0.97349,4.0306 -1.751931,5.94434 -1.41478,3.3624 -3.15877,6.58725 -5.184103,9.62061 -2.533438,3.74685 -5.7307,7.15468 -9.721816,9.35757 -2.392645,1.32464 -5.070017,2.1626 -7.804644,2.32572 h -0.01516 z" />
      <path
         id="path7543"
         style="opacity:1;fill:#26110b;fill-opacity:1;fill-rule:nonzero;stroke:none;stroke-width:0.35269;stroke-miterlimit:4;stroke-dasharray:none"
         d="m 98.356087,28.744863 c -1.347648,-0.0354 -2.810158,-0.3181 -3.787529,-1.32087 -0.824442,-0.84254 -1.005981,-2.11674 -0.784508,-3.23582 0.327697,-1.74808 1.239662,-3.31695 2.20532,-4.78532 2.06008,-3.10677 4.8206,-5.76577 8.08412,-7.58324 4.01697,-2.2683299 8.6009,-3.2811199 13.147,-3.7942699 3.27441,-0.378142 6.57024,-0.508669 9.86152,-0.65179 -0.008,0.74757 -0.0629,1.50809 -0.36016,2.20423 -0.66223,1.6537499 -1.86248,3.0175499 -3.09005,4.2791899 -2.50733,2.50345 -5.36557,4.61867 -8.24339,6.67198 -2.18828,1.55967 -4.44292,3.02489 -6.61169,4.61193 -2.0858,1.64035 -4.59539,2.68418 -7.17328,3.25946 -1.06606,0.22832 -2.155648,0.36594 -3.247353,0.34452 z" />
      <path
         id="path7545"
         style="opacity:1;fill:#26110b;fill-opacity:1;fill-rule:nonzero;stroke:none;stroke-width:0.35269;stroke-miterlimit:4;stroke-dasharray:none"
         d="m 68.957703,29.989223 c -1.547495,-0.0357 -2.983018,-0.85764 -3.994785,-1.99652 -1.441132,-1.60189 -2.297041,-3.62803 -2.970318,-5.64973 -1.165471,-3.6455 -1.716794,-7.45564 -2.055672,-11.25781 -0.173212,-2.0072699 -0.26737,-4.0214209 -0.264441,-6.0363819 0.944843,0.322723 1.867146,0.714836 2.719351,1.238851 2.496222,1.502762 4.74278,3.388251 6.8332,5.4094909 2.21869,2.19132 4.288155,4.5865 5.773598,7.34395 0.855413,1.63566 1.53557,3.47211 1.345353,5.34713 -0.13321,1.40875 -0.915707,2.71166 -2.042726,3.55459 -1.543331,1.13636 -3.374848,2.10439 -5.34356,2.04643 z" />
      <path
         id="path7547"
         style="opacity:1;fill:#26110b;fill-opacity:1;fill-rule:nonzero;stroke:none;stroke-width:0.35269;stroke-miterlimit:4;stroke-dasharray:none"
         d="m 111.33859,47.655663 c -2.40252,-0.0886 -4.80966,-1.17864 -6.27316,-3.11944 -1.45182,-1.87646 -1.86771,-4.38087 -1.53617,-6.69012 0.27679,-2.01799 1.32831,-3.94183 2.97384,-5.16318 3.0655,-2.33232 7.72619,-2.2563 10.69083,0.21424 1.58376,1.2911 2.53714,3.2518 2.74556,5.26923 0.25026,2.22959 -0.19932,4.61585 -1.60768,6.40825 -1.62302,2.12495 -4.35934,3.19726 -6.99322,3.08102 z" />
      <path
         id="path7549"
         style="opacity:1;fill:#26110b;fill-opacity:1;fill-rule:nonzero;stroke:none;stroke-width:0.35269;stroke-miterlimit:4;stroke-dasharray:none"
         d="m 59.802731,39.750543 c -0.964036,-0.0138 -1.868556,-0.58924 -2.330767,-1.42854 -0.952077,-1.63269 -1.321364,-3.645 -0.785001,-5.47899 0.959345,-3.38547 4.532665,-5.77056 8.022802,-5.42985 1.842381,0.16027 3.548486,1.19564 4.635783,2.67705 0.555165,0.77365 1.078124,1.61351 1.281041,2.55517 0.166124,0.70461 -0.14284,1.45719 -0.719807,1.88204 -0.856826,0.6544 -1.874062,1.05396 -2.770894,1.64814 -1.274479,0.8509 -2.496891,1.7877 -3.852367,2.51139 -1.072164,0.56875 -2.240847,1.09844 -3.48079,1.06359 z" />
      <path
         id="path7551"
         style="opacity:1;fill:#26110b;fill-opacity:1;fill-rule:nonzero;stroke:none;stroke-width:0.35269;stroke-miterlimit:4;stroke-dasharray:none"
         d="m 65.906034,138.00882 c -1.883868,-0.045 -3.715597,-0.82282 -5.105752,-2.08555 -1.931247,-1.73197 -3.140533,-4.10115 -4.056698,-6.49126 -0.987637,-2.57207 -1.591098,-5.38286 -1.135875,-8.13636 0.403966,-2.58039 1.714432,-4.90672 3.204634,-7.01068 1.380913,-1.96959 2.938076,-3.80742 4.377092,-5.73338 1.37936,-1.96264 1.943452,-4.40316 1.874202,-6.77923 -0.08368,-3.226987 -1.075126,-6.349077 -2.267833,-9.321477 -0.42799,-1.0584 -0.899123,-2.09839 -1.373892,-3.13644 0.465736,-1.3649 0.932604,-2.72937 1.398694,-4.09413 3.760821,4.21817 7.680676,8.38775 12.398904,11.55348 1.673365,1.12247 3.431151,2.10643 5.241218,2.95832 3.903523,1.833237 8.066617,3.157427 12.19648,4.435187 1.28965,0.39586 2.582156,0.78243 3.872971,1.17443 -0.787578,2.53073 -2.026637,4.88919 -3.316288,7.1941 -2.677689,4.69533 -5.779241,9.14999 -9.244788,13.29799 -2.641671,3.12102 -5.498147,6.09861 -8.795948,8.53415 -2.128698,1.54799 -4.475552,2.91215 -7.079687,3.44887 -0.719137,0.14425 -1.453904,0.21339 -2.187434,0.19198 z" />
      <path
         id="path7553"
         style="opacity:1;fill:none;stroke:none;stroke-width:0.35269;stroke-linecap:butt;stroke-linejoin:miter;stroke-miterlimit:4;stroke-dasharray:none;stroke-opacity:1"
         d="m 65.906034,138.00882 c -1.883868,-0.045 -3.715597,-0.82282 -5.105752,-2.08555 -1.931247,-1.73197 -3.140533,-4.10115 -4.056698,-6.49126 -0.987637,-2.57207 -1.591098,-5.38286 -1.135875,-8.13636 0.403966,-2.58039 1.714432,-4.90672 3.204634,-7.01068 1.380913,-1.96959 2.938076,-3.80742 4.377092,-5.73338 1.37936,-1.96264 1.943452,-4.40316 1.874202,-6.77923 -0.08368,-3.226987 -1.075126,-6.349077 -2.267833,-9.321477 -0.42799,-1.0584 -0.899123,-2.09839 -1.373892,-3.13644 0.465736,-1.3649 0.932604,-2.72937 1.398694,-4.09413 3.760821,4.21817 7.680676,8.38775 12.398904,11.55348 1.673365,1.12247 3.431151,2.10643 5.241218,2.95832 3.903523,1.833237 8.066617,3.157427 12.19648,4.435187 1.28965,0.39586 2.582156,0.78243 3.872971,1.17443 -0.787578,2.53073 -2.026637,4.88919 -3.316288,7.1941 -2.677689,4.69533 -5.779241,9.14999 -9.244788,13.29799 -2.641671,3.12102 -5.498147,6.09861 -8.795948,8.53415 -2.128698,1.54799 -4.475552,2.91215 -7.079687,3.44887 -0.719137,0.14425 -1.453904,0.21339 -2.187434,0.19198 z" />
      <path
         id="path7555"
         style="opacity:1;fill:#995919;fill-opacity:1;fill-rule:nonzero;stroke:none;stroke-width:0.35269;stroke-miterlimit:4;stroke-dasharray:none"
         d="m 40.011334,29.032873 c -3.128502,-3.33379 -5.746327,-7.15222 -7.697433,-11.28801 -2.223206,-4.74634 -3.533952,-10.0141219 -3.177435,-15.2771789 0.250543,-3.820301 1.43263,-7.582324 3.47465,-10.825232 1.724977,-2.7723411 4.034578,-5.1545431 6.640017,-7.1097081 2.205638,-1.621685 4.755481,-2.844377 7.483547,-3.231021 2.372677,-0.340254 4.83168,-0.01728 7.035411,0.925971 3.189465,1.342109 5.789612,3.813175 7.725304,6.642065 1.875015,2.7591101 3.206361,5.8816161 3.928356,9.1372611 -0.393277,0.153742 -0.786516,0.307518 -1.179618,0.461645 -1.623201,-2.842646 -3.485409,-5.583518 -5.848879,-7.866978 -1.196587,-1.1643441 -2.518974,-2.2131521 -3.989634,-3.0112411 -0.292558,-0.159808 -0.678461,-0.348792 -1.019598,-0.494737 -1.869686,-0.826029 -4.010801,-1.10137 -6.002301,-0.5794 -2.215515,0.54624 -4.132194,1.884855 -5.817484,3.378163 -1.058015,0.9302411 -2.034116,1.9546361 -2.90195,3.0647931 -0.284585,0.364702 -0.607975,0.806802 -0.881978,1.219377 -1.645533,2.45826 -2.667566,5.31667799 -3.003481,8.25313 -0.06787,0.589878 -0.104457,1.116398 -0.126788,1.725681 -0.05193,1.230172 0.02151,2.547514 0.157903,3.7108 0.119134,0.98287 0.285081,1.95972 0.499534,2.9262899 0.05659,0.23823 0.134657,0.58526 0.207187,0.86399 0.868257,3.41895 2.217454,6.6675 3.902287,9.76214 1.078264,2.01908 2.314397,3.94913 3.604082,5.83865 -0.892209,0.71144 -1.477455,1.871557 -2.205042,2.865539 -0.111408,-0.11988 -0.695249,-0.972119 -0.806657,-1.091989 z"
         sodipodi:nodetypes="cccccccccccccccccccccccccc" />
      <path
         id="path7557"
         style="opacity:1;fill:#995919;fill-opacity:1;fill-rule:nonzero;stroke:none;stroke-width:0.35269;stroke-miterlimit:4;stroke-dasharray:none"
         d="m 68.947366,174.06589 c -1.121479,-1.49836 -2.277533,-2.97142 -3.376681,-4.48615 -0.749724,-1.08743 -1.373648,-2.25439 -2.098289,-3.35724 -0.611822,-0.9066 -1.313214,-1.75045 -2.101744,-2.50889 -1.271127,-1.31504 -2.606426,-2.56635 -3.953261,-3.80305 -2.113103,-1.94676 -4.232416,-3.93163 -5.866271,-6.31306 -1.377526,-1.96638 -2.396278,-4.15265 -3.376295,-6.33585 -1.301115,-2.96552 -2.315493,-6.05783 -3.02066,-9.2184 -0.280882,-1.31099 -0.513152,-2.63141 -0.685448,-3.96117 -0.153035,-1.09696 -0.224753,-2.20468 -0.298731,-3.30927 -0.05228,-1.3717 -0.07243,-2.74489 0.0035,-4.11607 0.126648,-2.37677 0.454978,-4.7553 1.013812,-7.0631 0.246663,-1.14187 0.601451,-2.23139 0.952394,-3.3455 0.427673,-1.17838 0.851572,-2.37818 1.403985,-3.52199 0.486058,-1.14946 1.107054,-2.23333 1.697215,-3.33093 0.716738,-1.1594 1.427446,-2.32399 2.238939,-3.42074 1.379855,-1.91156 2.945201,-3.68699 4.622305,-5.34219 0.716809,-0.666007 1.439722,-1.325347 2.163516,-1.983697 0.605261,0.55622 1.211017,1.11192 1.816277,1.668107 -0.711835,0.95627 -1.46999,1.87812 -2.16789,2.8442 -0.65532,0.95881 -1.354455,1.88824 -1.937773,2.89454 -0.687811,1.0782 -1.306407,2.19918 -1.899672,3.33139 -0.512728,1.05501 -1.028525,2.10947 -1.444096,3.20759 -0.425169,0.97268 -0.741362,1.98896 -1.078055,2.99509 -0.341207,1.14381 -0.66308,2.29457 -0.887447,3.46759 -0.28254,1.23247 -0.440407,2.49026 -0.582964,3.74558 -0.12051,1.14547 -0.174451,2.29161 -0.203978,3.42389 0.01199,1.26936 0.03552,2.5395 0.155435,3.80418 0.07366,0.97296 0.222038,1.93975 0.353377,2.90618 0.198721,1.17623 0.424215,2.34728 0.71501,3.50453 0.341067,1.36405 0.720267,2.69466 1.183182,4.02438 0.176917,0.56388 0.384705,1.09054 0.605224,1.65612 0.87729,2.34745 1.976157,4.60579 3.164205,6.81044 1.186638,2.26219 2.196219,4.60968 3.288983,6.91709 0.612457,1.25716 1.262202,2.49876 2.046359,3.65891 0.680119,1.03335 1.456653,2.00498 2.295736,2.91373 0.340958,0.35394 0.698217,0.69342 1.084509,0.99769 0.279612,-1.82351 0.974971,-3.54125 1.632691,-5.25314 0.615878,-1.60528 1.071597,-3.2886 1.136298,-5.0146 0.138112,-1.78791 -0.185351,-3.56189 -0.364951,-5.33446 -0.08622,-0.92554 -0.269591,-1.84559 -0.227504,-2.77833 2.64e-4,-0.31158 0,-0.62315 0,-0.93472 0.476673,0.69165 1.009896,1.34793 1.378654,2.10714 0.932852,1.65925 1.791724,3.36232 2.800704,4.97734 0.681001,1.01131 1.429314,1.9751 2.219571,2.9028 0.78486,0.89923 1.582949,1.78636 2.398289,2.65811 0.663858,0.70841 1.328174,1.41619 1.997676,2.11928 0.78387,0.81587 1.572752,1.6275 2.364634,2.43596 0.980369,0.98722 1.962679,1.97538 3.007395,2.895 0.508457,0.41921 0.991941,0.86988 1.529151,1.25293 -1.333008,-1.80016 -2.276263,-3.87749 -2.793225,-6.05526 -0.526944,-2.09426 -0.59563,-4.26092 -0.7723,-6.40284 -0.106751,-1.354 -0.339479,-2.7407 -0.752052,-4.06174 -0.407212,-1.33305 -0.849878,-2.65748 -1.2349,-3.99592 -0.09013,-0.51484 -0.180269,-1.02972 -0.270439,-1.54457 0.569667,0.56755 1.199515,1.08007 1.669556,1.7386 0.694973,0.86787 1.389946,1.73574 2.084916,2.6036 0.13081,0.15357 0.312775,0.38372 0.433459,0.52134 0.875382,1.08155 2.134553,1.77239 3.439935,2.19989 1.367121,0.46729 2.774175,0.86434 4.02957,1.59977 1.796098,1.03484 3.378798,2.4002 4.790297,3.91079 0.114795,0.0803 0.3937,0.52144 0.305896,0.15628 -0.0411,-0.94798 -0.169193,-1.86118 -0.145593,-2.81019 -0.02998,-0.78356 0.01376,-1.56527 0.09807,-2.34424 0.08308,-0.96252 0.292735,-1.91213 0.555519,-2.83983 0.30734,-0.93447 0.657966,-1.85755 1.145291,-2.7148 0.462174,-0.91465 1.037238,-1.7664 1.624859,-2.60382 0.807334,-1.08701 1.694849,-2.11384 2.662729,-3.0607 1.2009,-1.15527 2.49023,-2.21893 3.8692,-3.15542 1.34328,-0.93123 2.77425,-1.72942 4.24618,-2.43819 0.21541,-0.17074 0.37804,-0.15261 0.46969,0.11973 0.37768,0.5938 0.75529,1.1876 1.13326,1.78122 -1.30291,1.14585 -2.65804,2.23248 -3.91382,3.43153 -0.74352,0.67293 -1.44106,1.3944 -2.13798,2.11512 -0.90311,0.99423 -1.80191,2.029 -2.57676,3.1411 -0.52359,0.70689 -0.98178,1.46099 -1.42088,2.22186 -0.41011,0.75382 -0.78578,1.52411 -1.14039,2.30481 -0.284872,0.54998 -0.502534,1.21196 -0.781934,1.80318 -0.206023,0.61027 -0.432684,1.21663 -0.609214,1.83628 -0.168275,0.76024 -0.388583,1.52065 -0.415608,2.30689 -0.117369,0.94936 -0.03034,1.90983 0.09465,2.85348 0.308326,1.61226 0.882401,3.15598 1.33932,4.72898 0.03609,0.1712 0.247791,0.56769 -0.05341,0.30621 -1.344083,-0.79353 -2.651125,-1.65209 -4.026252,-2.39148 -2.086999,-1.01692 -4.406725,-1.44561 -6.477669,-2.50211 -0.728451,-0.36435 -1.440463,-0.76754 -2.097688,-1.25035 0.814739,1.99327 1.369165,4.08037 1.820545,6.18236 0.35447,1.65548 0.774242,3.35022 1.635302,4.83443 0.75099,1.2458 1.628492,2.40944 2.437728,3.61728 0.275907,0.40054 0.551849,0.80112 0.827794,1.20166 -1.624119,-0.7113 -3.22901,-1.46801 -4.866569,-2.14777 -1.067154,-0.39745 -2.120831,-0.82963 -3.182197,-1.24161 -1.178136,-0.47519 -2.359062,-0.94488 -3.522064,-1.45623 -1.040622,-0.45328 -2.059411,-0.95179 -3.057488,-1.49225 -1.072235,-0.60508 -2.112857,-1.27032 -3.077141,-2.03793 -0.72076,-0.54796 -1.382501,-1.17206 -2.028508,-1.80534 -0.75565,-0.78411 -1.470729,-1.60669 -2.104564,-2.49311 -0.555168,-0.76084 -1.048105,-1.56856 -1.504564,-2.39191 -0.152188,-0.2976 -0.30875,-0.59298 -0.456316,-0.89291 0.04131,2.65328 0.5842,5.28013 0.648369,7.92512 0.07204,1.28647 0.01058,2.57605 -0.149508,3.85392 -0.227611,2.1717 -0.45466,4.34348 -0.6828,6.51513 -0.269417,-0.35576 -0.538834,-0.71155 -0.808249,-1.06728 z" />
      <path
         id="path7559"
         style="opacity:1;fill:#995919;fill-opacity:1;fill-rule:nonzero;stroke:none;stroke-width:0.35269;stroke-miterlimit:4;stroke-dasharray:none"
         d="m 177.35213,59.234633 c -3.39873,-0.0513 -6.80053,-0.50189 -10.07396,-1.42684 -0.72241,-0.21629 -1.44998,-0.43896 -2.14675,-0.72062 -0.32604,-0.27062 -0.65208,-0.54123 -0.97815,-0.81188 0.45378,-0.047 0.90999,-0.1614 1.36229,-0.16711 1.94162,0.42993 3.89311,0.69458 5.86278,0.80172 0.57834,0.03 1.23345,0.0509 1.84238,0.0551 2.81873,0.0243 5.66398,-0.23001 8.45919,-0.73515 1.09657,-0.20055 2.15974,-0.43607 3.20442,-0.71109 1.5556,-0.40489 3.14953,-0.92517 4.59662,-1.50139 1.02951,-0.40718 2.0453,-0.87528 3.00567,-1.37457 3.06874,-1.59487 5.94437,-3.75447 7.85294,-6.68118 0.41793,-0.64111 0.79325,-1.34829 1.06401,-2.02639 0.75152,-1.75754 1.04348,-3.69253 0.9496,-5.59647 -0.0198,-0.4064 -0.0643,-0.89976 -0.1235,-1.33643 -0.28092,-2.08887 -0.95663,-4.10803 -1.84362,-6.01405 -0.17699,-0.37563 -0.39719,-0.8268 -0.6012,-1.22706 -1.13013,-2.14881 -2.45879,-4.19471 -3.98925,-6.08101 -1.21927,-1.50813 -2.61031,-2.87539 -4.09889,-4.11632 -1.78043,-1.42822 -3.75362,-2.62555 -5.86687,-3.49285 -0.15363,-0.0593 -0.41861,-0.16803 -0.6206,-0.23947 -2.14105,-0.79371 -4.39219,-1.29159 -6.67318,-1.42811 -1.05947,-0.0713 -2.12299,-0.0757 -3.18347,-0.024 -0.32099,0.0187 -0.76895,0.0486 -1.09199,0.0791 -2.11684,0.19527 -4.25672,0.63504 -6.26671,1.22178 -0.56215,0.16859 -1.05265,0.32251 -1.6075,0.50916 -3.50425,1.20527 -6.81214,2.92467 -9.94668,4.88929 -0.41708,0.0707 -0.83417,0.14147 -1.25126,0.21223 0.24387,-0.37077 0.43617,-0.78807 0.71303,-1.12903 1.70279,-1.31346 3.4804,-2.54067 5.34892,-3.61526 3.44343,-2.01913 7.17251,-3.58483 11.08301,-4.42172 2.72895,-0.59556 5.54249,-0.81876 8.32933,-0.60251 3.67683,0.27855 7.29513,1.34592 10.51722,3.14322 3.81262,2.08237 7.04903,5.10547 9.68411,8.53817 1.13022,1.47257 2.16605,3.01907 3.0886,4.62989 1.24069,2.20416 2.24836,4.55948 2.81016,7.03164 0.68947,3.00707 0.6441,6.20868 -0.33306,9.14802 -1.17535,3.56761 -3.63781,6.61585 -6.64026,8.82862 -3.75772,2.81206 -8.2386,4.51146 -12.80266,5.4793 -3.16421,0.66217 -6.40285,0.96143 -9.63472,0.91324 z" />
      <path
         id="path7561"
         style="opacity:1;fill:#995919;fill-opacity:1;fill-rule:nonzero;stroke:none;stroke-width:0.35269;stroke-miterlimit:4;stroke-dasharray:none"
         d="m 175.03152,52.532563 c -2.41493,-0.12612 -4.8539,-0.51678 -7.08296,-1.48826 -1.13206,-0.5109 -2.29729,-1.22911 -2.8013,-2.42083 -0.47562,-1.05968 -0.23234,-2.3518 0.51403,-3.22482 0.85044,-1.0191 2.08622,-1.60083 3.2699,-2.14055 1.70155,-0.75748 3.47673,-1.35374 5.14293,-2.14827 0.18581,-0.0958 0.47569,-0.21841 0.586,-0.31196 -1.65022,-0.25951 -3.22622,-0.8804 -4.70817,-1.63717 -2.10153,-1.10508 -4.07508,-2.63956 -5.24531,-4.7443 -0.86339,-1.52047 -1.17525,-3.34708 -0.82138,-5.06279 0.43696,-2.16312 1.83177,-4.01235 3.50256,-5.39943 1.99503,-1.7156 4.61112,-2.58054 7.21053,-2.7571 3.73694,-0.24455 7.52634,0.82578 10.64849,2.87708 2.15001,1.42818 4.04255,3.38744 4.98546,5.82418 0.37493,0.97741 0.51301,2.02237 0.7638,3.03438 -0.74098,-0.79421 -1.42336,-1.64479 -2.20603,-2.39881 -1.82471,-1.72177 -4.17339,-2.79912 -6.58131,-3.42731 -1.15278,-0.29235 -2.39664,-0.48655 -3.54542,-0.54663 -1.99778,-0.0934 -4.13029,0.12291 -5.95588,1.05145 -1.08165,0.57122 -2.0731,1.34945 -2.81527,2.32686 -0.4481,0.57026 -0.68376,1.33512 -0.46606,2.04656 0.36418,1.2542 1.26235,2.26812 2.19527,3.14505 1.17824,1.08635 2.55729,1.93859 4.02512,2.57472 0.43576,0.21156 0.86219,0.44203 1.30048,0.64861 0.14249,-0.56818 0.41586,-1.09812 0.61116,-1.65089 0.18383,0.675 0.48732,1.32394 0.53562,2.02844 0.23488,1.28742 -0.32738,2.56973 -1.11757,3.56023 -1.3964,1.755 -3.33311,2.95727 -5.22336,4.11176 -0.42782,0.26378 -0.86477,0.51263 -1.28814,0.7837 3.01198,1.15965 6.11452,2.16613 8.89385,3.84059 0.50588,0.32191 1.01194,0.64353 1.51789,0.9653 -1.28968,0.24522 -2.58244,0.51234 -3.89999,0.53834 -0.64809,0.0318 -1.29663,0.0212 -1.94494,0.004 z m -5.83737,-4.45936 c -0.28755,-0.19727 -0.5751,-0.39458 -0.86265,-0.59185 -0.0699,0.16778 0.30946,0.24895 0.42418,0.38061 0.12957,0.0382 0.34541,0.33052 0.43847,0.21124 z" />
      <path
         id="path7563"
         style="opacity:1;fill:#995919;fill-opacity:1;fill-rule:nonzero;stroke:none;stroke-width:0.35269;stroke-miterlimit:4;stroke-dasharray:none"
         d="m 44.713192,17.466313 c -0.09825,-1.18932 -0.217663,-2.37441 -0.331399,-3.57325 -0.242536,-2.17551 -0.46242,-4.4131799 -0.743479,-6.6073169 -0.421923,-3.467806 -0.865328,-6.93525801 -1.274657,-10.403168 0.04777,-0.483695 0.09553,-0.967422 0.143299,-1.451118 0.295732,0.44182 0.645337,0.853652 0.907026,1.314416 0.969539,2.28818499 1.904119,4.591508 2.897999,6.869112 0.721255,1.500717 1.509006,3.029831 2.75463,4.1674 0.341241,0.275125 0.744927,0.627875 1.214332,0.545575 0.667245,-0.30819 1.033814,-1.000836 1.375905,-1.615905 0.783095,-1.548199 1.212426,-3.249083 1.533101,-4.946084 0.354293,-2.06759701 0.528567,-4.202255 0.167921,-6.281385 -0.18542,-0.915176 -0.447744,-1.920415 -1.217258,-2.522432 -0.75738,-0.52959 -1.746393,-0.352777 -2.580852,-0.131726 -1.341792,0.375497 -2.559828,1.07188 -3.790987,1.702965 -0.498615,0.184748 -0.99723,0.369498 -1.495848,0.554249 0.458541,-0.671867 0.848926,-1.396259 1.426176,-1.977779 1.047115,-1.13933 2.25933,-2.172407 3.684693,-2.802784 1.275892,-0.5760861 2.791955,-0.7476071 4.104534,-0.189159 1.553879,0.62551 2.619163,2.066994 3.214053,3.58602 0.91454,2.330945 1.047572,4.892958 0.837776,7.365047 -0.276013,2.794635 -1.043905,5.59883 -2.601418,7.961663 -0.872595,1.2896899 -2.097582,2.4675099 -3.662611,2.8129799 -1.305523,0.30709 -2.699454,-0.12502 -3.723391,-0.95938 -0.330589,-0.25865 -0.622406,-0.56296 -0.904065,-0.87316 0.286527,2.56375 0.580284,5.12689 0.942551,7.68121 -0.943962,0.10484 -1.887889,0.21004 -2.831851,0.31489 -0.01553,-0.18031 -0.03069,-0.36061 -0.04618,-0.54088 z" />
    </g>
  </g>
</svg>
